<svg width="454" height="439" viewBox="0 0 454 439" fill="none" xmlns="http://www.w3.org/2000/svg">
<path fill-rule="evenodd" clip-rule="evenodd" d="M137.112 364.044C137.112 364.044 126.245 381.355 127.576 384.963C129.08 389.129 140.033 401.715 140.033 401.715L171.262 400.899L157.344 396.174L149.827 383.459L158.891 366.879L137.112 364.044Z" fill="#8A3EB7" stroke="#1C2628" stroke-width="2.13" stroke-linecap="round" stroke-linejoin="round"/>
<path fill-rule="evenodd" clip-rule="evenodd" d="M177.19 400.555L158.075 400.985L121.477 400.469L125.042 381.698L141.322 381.269C141.322 381.269 140.764 376.973 145.016 377.145C148.281 377.274 157.903 387.239 166.795 389.988C178.994 393.769 177.19 400.555 177.19 400.555Z" fill="#F2B84A"/>
<path fill-rule="evenodd" clip-rule="evenodd" d="M176.975 398.107L135.609 397.892C134.406 397.892 133.461 398.751 133.418 399.825V400.512C133.418 401.586 134.363 402.445 135.566 402.445L176.932 402.66C178.135 402.66 179.08 401.801 179.123 400.727V400.04C179.123 398.966 178.178 398.107 176.975 398.107Z" fill="#1C2628" stroke="#1C2628" stroke-width="2.13" stroke-linecap="round" stroke-linejoin="round"/>
<path fill-rule="evenodd" clip-rule="evenodd" d="M139.088 402.488L119.544 402.188L120.747 391.921C120.747 391.921 130.669 391.363 134.063 394.542C137.499 397.806 139.088 402.488 139.088 402.488Z" fill="#1C2628" stroke="#1C2628" stroke-width="2.13" stroke-linecap="round" stroke-linejoin="round"/>
<path fill-rule="evenodd" clip-rule="evenodd" d="M168.727 390.59L145.789 376.543C145.789 376.543 142.138 377.102 141.193 378.605C140.248 380.066 141.924 382.428 141.924 382.428C141.924 382.428 155.025 391.191 160.609 392.952C164.518 394.198 168.727 390.59 168.727 390.59Z" fill="#1C2628" stroke="#1C2628" stroke-width="2.13" stroke-linecap="round" stroke-linejoin="round"/>
<path d="M148.109 385.049L140.12 399.911" stroke="#1C2628" stroke-width="2.13" stroke-linecap="round" stroke-linejoin="round"/>
<path d="M125.042 381.698L123.109 395.315" stroke="#1C2628" stroke-width="2.13" stroke-linecap="round" stroke-linejoin="round"/>
<path d="M250.041 206.356C235.394 227.705 215.591 250.385 182.43 268.211C149.269 286.037 102.534 298.967 81.8724 280.367C61.1681 261.983 66.8382 211.811 70.4893 172.937C74.1405 134.278 76.0305 106.958 87.4136 84.2779C98.7967 61.8554 119.501 44.0291 141.064 42.139C162.37 40.2061 184.492 54.4671 218.942 54.7678C253.435 55.0685 300.256 41.4088 313.185 54.1235C326.114 66.8382 304.938 105.927 289.646 135.351C274.397 164.733 264.689 184.964 250.041 206.356Z" fill="#F2B84A"/>
<path fill-rule="evenodd" clip-rule="evenodd" d="M316.235 50.9448C313.271 47.9809 286.94 66.7522 286.94 66.7522C286.94 66.7522 270.402 113.788 266.321 122.98C262.198 132.259 247.249 156.657 247.249 156.657C247.249 156.657 217.052 154.681 202.748 167.224C194.372 174.569 184.578 201.717 184.578 201.717C184.578 201.717 171.004 204.208 163.444 197.292C159.106 193.341 154.381 181.786 151.288 176.416C148.968 172.464 147.68 173.925 147.68 173.925L150.901 195.231L143.169 193.598L151.717 207.344C151.717 207.344 180.197 232.086 191.408 224.698C202.619 217.309 211.296 204.208 211.296 204.208L211.339 235.608L264.131 218.126L264.732 184.062C264.732 184.062 282.945 155.497 291.235 125.257C295.144 110.91 299.654 81.7865 299.654 81.7865C299.654 81.7865 316.965 76.3742 319.113 63.2729C320.488 54.8108 319.8 54.5101 316.235 50.9448Z" fill="#8A3EB7" stroke="#1C2628" stroke-width="2.13" stroke-linecap="round" stroke-linejoin="round"/>
<path d="M314.689 55.1114C312.97 54.2093 311.037 54.0375 309.362 54.4241C308.374 54.6389 307.515 55.0255 306.785 55.498C306.742 55.0684 306.656 54.6389 306.613 54.1664C306.527 53.3073 306.441 52.4482 306.355 51.5891C307.172 50.8588 307.945 50.1286 308.675 49.2695C310.436 47.2936 311.725 44.8881 312.111 42.2249C312.498 39.6046 312.799 36.9414 312.068 34.5359C311.897 33.8916 311.682 33.505 311.295 32.6889C311.166 32.3882 310.909 31.8298 310.565 31.3573C310.221 30.8847 309.577 30.4982 308.847 30.5411C307.429 30.7129 306.742 31.5291 306.269 32.1304C306.055 32.4741 305.883 32.7748 305.711 33.1184C305.625 33.2902 305.582 33.4191 305.496 33.548L305.453 33.6339C305.41 33.7198 305.41 33.7198 305.41 33.8057L305.324 34.0634C304.895 35.395 304.895 36.6407 304.938 37.8435C304.938 39.0032 304.981 40.163 304.981 41.3228C304.938 43.1269 305.024 44.931 305.11 46.6922C304.465 47.4224 303.821 48.1097 303.091 48.754L301.802 49.9138C301.373 50.3004 300.9 50.73 300.428 51.2025C298.623 53.0495 297.077 55.1973 296.132 57.6887C295.144 60.1371 295.058 63.1439 296.218 65.5924C297.335 68.0408 299.397 69.759 301.587 70.747C303.735 71.692 305.969 72.0786 308.159 72.0356C308.331 73.1954 308.46 74.2693 308.589 75.3432C309.147 78.1352 308.074 80.5407 306.312 81.3139C305.024 81.8294 303.821 81.4857 303.048 80.9273C303.134 80.9273 303.22 80.9703 303.306 80.9703C304.594 81.0562 305.711 80.1112 305.797 78.8225C305.883 77.5339 304.938 76.46 303.649 76.3311C302.361 76.2452 301.287 77.1902 301.158 78.4789C301.158 78.5648 301.158 78.6937 301.158 78.7796C301.201 79.2521 301.373 79.7246 301.673 80.0682C301.759 80.1971 301.802 80.283 301.931 80.4119C302.275 80.8844 302.833 81.3998 303.649 81.7435C304.465 82.0871 305.453 82.2589 306.57 81.9582C307.687 81.6576 308.761 80.7555 309.319 79.4668C309.577 78.8225 309.792 78.1352 309.835 77.405C309.835 76.6318 309.792 75.9445 309.706 75.2143C309.577 74.1834 309.448 73.1095 309.276 71.9927C311.209 71.8209 313.099 71.2624 314.775 70.4033C316.665 69.3295 318.168 67.6113 318.769 65.5924C319.457 63.5735 319.328 61.4258 318.598 59.5357C317.824 57.6457 316.45 56.0134 314.689 55.1114ZM307.172 36.4689C307.558 35.5668 308.331 33.0755 309.749 33.5909C310.651 33.9346 310.694 35.1373 310.651 35.9534C310.522 37.8005 310.007 39.6476 309.019 41.2369C308.074 42.7833 307.129 44.2008 306.055 45.6183C306.012 44.2437 306.012 42.8262 306.098 41.4517C306.184 39.7335 306.57 38.0153 307.172 36.4689ZM302.489 69.0717C300.728 68.0408 299.225 66.4944 298.581 64.6474C297.936 62.8003 298.194 60.8244 299.096 58.9773C300.041 57.1732 301.544 55.5839 303.177 54.1664C303.563 53.8227 303.993 53.4791 304.465 53.1354L305.153 52.62C305.324 52.4911 305.496 52.3622 305.625 52.2334C305.711 52.9207 305.754 53.6079 305.84 54.2523C305.926 54.8536 305.969 55.412 306.055 56.0134C304.637 57.1302 303.692 58.6337 303.306 59.9653C302.661 62.2419 303.048 64.003 303.434 65.0769C303.606 65.6353 303.821 66.0219 303.95 66.2797C304.079 66.5374 304.165 66.6663 304.165 66.6663C304.165 66.6663 304.036 66.0649 303.993 64.9481C303.95 63.8742 303.993 62.2419 304.852 60.5666C305.196 59.8794 305.711 59.1921 306.355 58.6337C306.656 61.0821 307 63.4446 307.3 65.6783C307.515 67.3965 307.773 69.0717 307.988 70.6611C306.055 70.5752 304.165 70.0597 302.489 69.0717ZM317.481 65.2487C317.137 66.9669 315.934 68.5992 314.216 69.4583C312.713 70.2745 310.909 70.6611 309.062 70.704C308.804 69.0717 308.546 67.3535 308.245 65.5494C307.859 63.1869 307.472 60.6526 307.129 58.0323C307.902 57.5168 308.804 57.0873 309.878 56.9155C312.24 56.5718 315.032 57.6457 316.579 60.3948C317.352 61.7694 317.781 63.5305 317.481 65.2487Z" fill="#1C2628" stroke="#1C2628" stroke-width="2.13" stroke-linecap="round" stroke-linejoin="round"/>
<path fill-rule="evenodd" clip-rule="evenodd" d="M323.237 50.3434L322.893 49.5273C322.378 48.2816 320.96 47.6802 319.715 48.1957L312.455 50.9878C311.21 51.4603 310.608 52.8348 311.124 54.0805L311.424 54.8967C311.94 56.1424 313.357 56.7437 314.603 56.2283L321.862 53.4362C323.151 52.9207 323.752 51.5462 323.237 50.3434Z" fill="#8A3EB7" stroke="#1C2628" stroke-width="2.13" stroke-linecap="round" stroke-linejoin="round"/>
<path fill-rule="evenodd" clip-rule="evenodd" d="M323.28 56.0134L322.936 55.1972C322.421 53.9515 321.003 53.3502 319.758 53.8656L312.498 56.6577C311.253 57.1302 310.651 58.5048 311.167 59.7505L311.51 60.5666C312.026 61.8123 313.443 62.4137 314.689 61.8982L321.948 59.1061C323.194 58.6336 323.795 57.2591 323.28 56.0134Z" fill="#8A3EB7" stroke="#1C2628" stroke-width="2.13" stroke-linecap="round" stroke-linejoin="round"/>
<path fill-rule="evenodd" clip-rule="evenodd" d="M323.022 62.2848L322.679 61.4687C322.163 60.223 320.746 59.6216 319.5 60.1371L312.24 62.9292C310.995 63.4017 310.393 64.7762 310.909 66.0219L311.252 66.8381C311.768 68.0838 313.185 68.6851 314.431 68.1697L321.691 65.3776C322.893 64.9051 323.495 63.5305 323.022 62.2848Z" fill="#8A3EB7" stroke="#1C2628" stroke-width="2.13" stroke-linecap="round" stroke-linejoin="round"/>
<path fill-rule="evenodd" clip-rule="evenodd" d="M297.55 76.6747C297.979 73.6679 298.409 67.6112 296.261 65.2057C294.113 62.8003 301.587 57.1302 299.483 54.5099C296.003 50.2144 287.67 66.7092 287.67 66.7092" fill="#8A3EB7"/>
<path d="M297.55 76.6747C297.979 73.6679 298.409 67.6112 296.261 65.2057C294.113 62.8003 301.587 57.1302 299.483 54.5099C296.003 50.2144 287.67 66.7092 287.67 66.7092" stroke="#1C2628" stroke-width="2.13" stroke-linecap="round" stroke-linejoin="round"/>
<path fill-rule="evenodd" clip-rule="evenodd" d="M216.579 133.719C212.413 120.231 217.911 109.836 237.155 112.285C239.388 112.585 242.051 112.843 244.07 114.003C253.177 119.329 251.459 125.515 252.575 126.76C255.84 130.497 257.386 144.887 258.761 148.925L213.658 148.453L216.579 133.719Z" fill="#1C2628" stroke="#1C2628" stroke-width="2.13" stroke-linecap="round" stroke-linejoin="round"/>
<path fill-rule="evenodd" clip-rule="evenodd" d="M228.177 329.078C228.177 329.078 235.308 364.688 241.579 384.147C246.089 398.15 248.323 403.605 237.455 404.722C226.545 405.839 214.99 404.207 214.99 404.207L195.102 406.354C195.102 406.354 187.542 406.097 195.274 400.77C202.919 395.487 215.419 394.413 218.77 387.454C222.077 380.41 200.772 341.063 200.772 341.063L228.177 329.078Z" fill="#8A3EB7" stroke="#1C2628" stroke-width="2.13" stroke-linecap="round" stroke-linejoin="round"/>
<path fill-rule="evenodd" clip-rule="evenodd" d="M347.463 232.687C347.463 232.687 363.829 216.107 373.022 203.864C380.41 193.985 381.269 190.205 389.387 194.071C396.819 197.593 426.114 184.664 428.219 191.15C430.624 198.581 402.618 207.687 384.534 220.445C371.046 229.938 366.407 244.758 366.407 244.758L347.463 232.687Z" fill="#8A3EB7" stroke="#1C2628" stroke-width="2.13" stroke-linecap="round" stroke-linejoin="round"/>
<path fill-rule="evenodd" clip-rule="evenodd" d="M37.3281 301.845C34.7508 303.778 31.5722 305.926 29.854 308.804C29.6821 309.061 26.8901 311.681 27.878 312.068C31.6581 313.572 37.2852 306.828 39.8195 305.109C40.8504 304.422 41.7954 303.563 42.8264 302.876C43.2559 302.575 44.2868 301.458 44.115 301.974C43.2989 304.422 39.4759 306.226 37.9295 308.288C35.0086 312.197 40.1632 310.178 41.7525 308.804C42.5257 308.159 43.3418 307.601 44.115 306.956C45.1459 306.14 46.048 305.195 46.993 304.336C48.5394 302.919 50.2146 301.673 51.9758 300.513" fill="#8A3EB7"/>
<path d="M37.3281 301.845C34.7508 303.778 31.5722 305.926 29.854 308.804C29.6821 309.061 26.8901 311.681 27.878 312.068C31.6581 313.572 37.2852 306.828 39.8195 305.109C40.8504 304.422 41.7954 303.563 42.8264 302.876C43.2559 302.575 44.2868 301.458 44.115 301.974C43.2989 304.422 39.4759 306.226 37.9295 308.288C35.0086 312.197 40.1632 310.178 41.7525 308.804C42.5257 308.159 43.3418 307.601 44.115 306.956C45.1459 306.14 46.048 305.195 46.993 304.336C48.5394 302.919 50.2146 301.673 51.9758 300.513" stroke="#1C2628" stroke-width="2.13" stroke-linecap="round" stroke-linejoin="round"/>
<path fill-rule="evenodd" clip-rule="evenodd" d="M99.7846 118.298C99.8705 113.487 92.1386 111.168 85.6095 114.733C79.0803 118.298 78.6937 128.693 77.5339 130.884C71.0907 143.169 80.7555 152.92 95.575 154.767C99.8705 155.282 113.96 149.569 113.401 144.286C112.843 138.959 97.0784 141.58 95.9616 136.726" fill="#1C2628"/>
<path d="M99.7846 118.298C99.8705 113.487 92.1386 111.168 85.6095 114.733C79.0803 118.298 78.6937 128.693 77.5339 130.884C71.0907 143.169 80.7555 152.92 95.575 154.767C99.8705 155.282 113.96 149.569 113.401 144.286C112.843 138.959 97.0784 141.58 95.9616 136.726" stroke="#1C2628" stroke-width="2.13" stroke-linecap="round" stroke-linejoin="round"/>
<path fill-rule="evenodd" clip-rule="evenodd" d="M75.3004 248.366C75.3004 248.366 71.1767 295.101 67.0959 300.041C64.8623 302.747 35.6099 304.293 35.6099 304.293C35.6099 304.293 38.5309 306.484 38.6597 308.245C38.7886 310.006 37.5859 310.608 37.5859 310.608C37.5859 310.608 29.7251 308.331 28.7801 305.925C28.1787 304.379 34.7079 299.31 37.6288 297.592C45.1459 293.211 52.6631 293.039 54.3813 288.314C56.0995 283.589 59.9225 245.445 59.9225 245.445L75.3004 248.366Z" fill="#8A3EB7" stroke="#1C2628" stroke-width="2.13" stroke-linecap="round" stroke-linejoin="round"/>
<path fill-rule="evenodd" clip-rule="evenodd" d="M103.049 374.911C103.049 374.911 86.297 403.863 88.23 408.846L136.425 410.22L116.408 395.615L124.828 377.746L103.049 374.911Z" fill="#8A3EB7" stroke="#1C2628" stroke-width="2.13" stroke-linecap="round" stroke-linejoin="round"/>
<path fill-rule="evenodd" clip-rule="evenodd" d="M240.204 142.826L240.033 154.681L243.039 158.16C243.039 158.16 244.5 169.973 239.818 172.722C234.706 175.772 223.194 169.801 219.285 168.813C215.763 167.911 221.39 160.523 221.39 160.523L221.777 146.906L221.433 141.623L240.204 142.826Z" fill="#8A3EB7" stroke="#1C2628" stroke-width="2.13" stroke-linecap="round" stroke-linejoin="round"/>
<path fill-rule="evenodd" clip-rule="evenodd" d="M242.61 135.781C243.426 132.817 243.126 126.889 242.395 124.183C241.064 119.286 239.689 121.434 234.706 120.059C229.165 118.513 226.459 116.322 222.851 120.747C221.433 122.465 217.267 128.908 216.622 131.228C214.346 139.518 218.727 147.98 226.416 150.128C231.356 151.502 235.394 151.073 239.002 147.551C241.107 145.618 241.794 138.745 242.61 135.781Z" fill="#8A3EB7" stroke="#1C2628" stroke-width="2.13" stroke-linecap="round" stroke-linejoin="round"/>
<path fill-rule="evenodd" clip-rule="evenodd" d="M231.442 135.008C231.828 133.848 230.754 132.473 229.079 131.915C227.404 131.356 225.729 131.829 225.342 132.989C224.955 134.149 226.029 135.523 227.705 136.081C229.423 136.64 231.055 136.167 231.442 135.008Z" fill="#FAFCFF" stroke="#1C2628" stroke-width="2.13" stroke-linecap="round" stroke-linejoin="round"/>
<path fill-rule="evenodd" clip-rule="evenodd" d="M221.433 130.411C221.82 129.252 220.746 127.877 219.071 127.319C217.396 126.76 215.72 127.233 215.334 128.393C214.947 129.552 216.021 130.927 217.696 131.485C219.414 132.044 221.047 131.528 221.433 130.411Z" fill="#FAFCFF" stroke="#1C2628" stroke-width="2.13" stroke-linecap="round" stroke-linejoin="round"/>
<path fill-rule="evenodd" clip-rule="evenodd" d="M238.486 156.056L239.689 143.942C239.689 143.942 229.938 141.795 227.576 144.329C225.256 146.863 227.705 155.197 227.705 155.197L233.589 156.099" fill="#8A3EB7"/>
<path fill-rule="evenodd" clip-rule="evenodd" d="M248.495 134.535C246.175 138.659 242.267 129.381 242.267 129.381L226.502 125.644L225.385 117.611L221.691 126.589L216.064 126.46C216.064 126.46 220.531 115.291 221.648 114.217C226.244 109.836 234.062 110.051 239.131 114.26C243.383 117.783 253.306 126.03 248.495 134.535Z" fill="#1C2628" stroke="#1C2628" stroke-width="2.13" stroke-linecap="round" stroke-linejoin="round"/>
<path fill-rule="evenodd" clip-rule="evenodd" d="M241.063 136.64C242.18 135.308 244.371 136.64 244.801 137.928C245.66 140.592 243.641 145.102 239.474 142.396" fill="#8A3EB7"/>
<path d="M241.063 136.64C242.18 135.308 244.371 136.64 244.801 137.928C245.66 140.592 243.641 145.102 239.474 142.396" stroke="#1C2628" stroke-width="2.13" stroke-linecap="round" stroke-linejoin="round"/>
<path fill-rule="evenodd" clip-rule="evenodd" d="M226.201 135.48C227.018 135.996 228.005 135.867 228.435 135.222C228.865 134.578 228.521 133.633 227.705 133.118C226.889 132.602 225.901 132.731 225.471 133.375C225.042 134.02 225.385 134.965 226.201 135.48Z" fill="#1C2628" stroke="#1C2628" stroke-width="2.13" stroke-linecap="round" stroke-linejoin="round"/>
<path fill-rule="evenodd" clip-rule="evenodd" d="M218.297 130.54C218.813 129.724 218.684 128.435 216.536 128.049C215.763 127.92 215.849 128.307 215.29 129.08C214.775 129.896 215.462 130.755 216.107 131.185C216.794 131.614 217.782 131.356 218.297 130.54Z" fill="#1C2628" stroke="#1C2628" stroke-width="2.13" stroke-linecap="round" stroke-linejoin="round"/>
<path fill-rule="evenodd" clip-rule="evenodd" d="M178.607 258.589C173.195 261.081 173.238 250.986 176.889 248.581C183.633 244.156 190.248 253.263 178.607 258.589Z" fill="#FAF6EB"/>
<path d="M242.181 139.26C242.095 139.346 242.009 139.432 241.966 139.561" stroke="#1C2628" stroke-width="2.13" stroke-linecap="round" stroke-linejoin="round"/>
<path fill-rule="evenodd" clip-rule="evenodd" d="M389.43 225.041C389.43 225.041 388.958 225.772 388.098 227.06C382.128 236.124 356.956 272.335 333.159 277.919C327.79 279.165 321.303 279.165 314.345 278.391C286.209 275.17 250.299 258.804 249.74 258.546L224.096 294.972L242.739 348.623L233.589 349.997L201.974 354.808C201.974 354.808 176.588 310.951 177.533 300.127C179.036 282.601 210.737 225.471 210.737 225.471L239.173 217.61L266.149 210.136L293.726 223.581L295.273 224.311L330.754 236.21L364.817 203.349L389.43 225.041Z" fill="#FAF6EB" stroke="#1C2628" stroke-width="2.13" stroke-linecap="round" stroke-linejoin="round"/>
<path fill-rule="evenodd" clip-rule="evenodd" d="M273.752 201.072C273.752 201.072 260.05 203.65 253.778 204.852C249.182 205.711 243.985 209.534 232.988 212.498C232.258 212.713 231.485 212.885 230.711 213.1C225.686 214.345 210.437 216.966 210.437 216.966L209.234 198.624L206.828 192.095C205.712 189.045 205.712 185.737 206.785 182.688L211.897 168.512L215.291 159.019L221.304 157.258L220.016 167.524L237.885 167.482L242.266 156.141L247.936 155.54L248.237 160.265C248.667 166.794 252.06 172.808 257.386 176.588L264.989 181.957L266.321 184.835L273.752 201.072Z" fill="#FAF6EB" stroke="#1C2628" stroke-width="2.13" stroke-linecap="round" stroke-linejoin="round"/>
<path fill-rule="evenodd" clip-rule="evenodd" d="M191.837 309.663C187.714 325.384 166.537 368.468 166.537 368.468L140.463 365.977L134.02 375.427L95.1028 374.396L100.129 363.571L124.226 311.553L89.7334 266.622L91.1939 244.113L91.2798 242.653L114.991 240.333L142.654 235.995C142.654 235.952 195.961 293.941 191.837 309.663Z" fill="#47584E" stroke="#1C2628" stroke-width="2.13" stroke-linecap="round" stroke-linejoin="round"/>
<path fill-rule="evenodd" clip-rule="evenodd" d="M135.566 314.559C134.879 320.616 132.645 319.972 128.092 332.815C124.312 343.382 125.687 344.284 122.723 348.666C117.783 355.968 110.18 359.319 106.572 360.951C103.866 362.154 101.804 363.056 100.171 363.571L124.269 311.553L89.7764 266.622L91.2368 244.113C95.6182 244.672 100.773 245.746 106.915 247.378C114.39 257.429 115.549 265.161 114.991 270.574C114.561 274.783 113.101 277.618 114.69 281.355C116.924 286.682 122.121 286.037 127.577 290.934C134.278 297.077 136.383 307.343 135.566 314.559Z" fill="#1C2628" stroke="#1C2628" stroke-width="2.13" stroke-linecap="round" stroke-linejoin="round"/>
<path fill-rule="evenodd" clip-rule="evenodd" d="M136.984 371.131C139.131 380.152 130.97 380.581 130.97 380.581L98.8826 380.238C96.0476 380.238 93.728 377.918 93.728 375.083C93.728 372.248 96.0476 369.928 98.8826 369.928" fill="#47584E"/>
<path d="M136.984 371.131C139.131 380.152 130.97 380.581 130.97 380.581L98.8826 380.238C96.0476 380.238 93.728 377.918 93.728 375.083C93.728 372.248 96.0476 369.928 98.8826 369.928" stroke="#1C2628" stroke-width="2.13" stroke-linecap="round" stroke-linejoin="round"/>
<path fill-rule="evenodd" clip-rule="evenodd" d="M164.518 360.908C167.095 360.908 169.2 363.013 169.2 365.59C169.2 368.167 167.095 370.272 164.518 370.272H142.611C140.033 370.272 140.42 365.934 140.42 365.934" fill="#47584E"/>
<path d="M164.518 360.908C167.095 360.908 169.2 363.013 169.2 365.59C169.2 368.167 167.095 370.272 164.518 370.272H142.611C140.033 370.272 140.42 365.934 140.42 365.934" stroke="#1C2628" stroke-width="2.13" stroke-linecap="round" stroke-linejoin="round"/>
<path fill-rule="evenodd" clip-rule="evenodd" d="M85.1371 255.625L85.18 255.969L84.6646 267.91L136.296 256.914L137.327 245.402C133.633 246.304 127.061 245.402 116.451 247.335C102.792 249.826 99.0115 255.367 85.1371 255.625Z" fill="#F2B84A" stroke="#1C2628" stroke-width="2.13" stroke-linecap="round" stroke-linejoin="round"/>
<path fill-rule="evenodd" clip-rule="evenodd" d="M137.843 245.316L141.494 254.208L158.375 247.55L157.301 239.517C150.987 241.837 144.544 243.641 137.843 245.316Z" fill="#F2B84A" stroke="#1C2628" stroke-width="2.13" stroke-linecap="round" stroke-linejoin="round"/>
<path fill-rule="evenodd" clip-rule="evenodd" d="M155.412 225.041L153.436 209.878L152.662 203.993L150.901 190.548L148.839 175.042C148.839 175.042 157.259 159.75 160.824 139.045C161.984 132.387 162.456 124.054 162.585 115.807C162.628 113.616 162.628 111.425 162.585 109.277C162.499 94.458 161.468 81.5286 161.468 81.5286L136.554 82.7743C136.554 82.7743 136.554 103.393 133.204 120.918C129.853 138.401 124.57 152.748 124.57 152.748L116.494 159.75L96.3055 164.303C96.3055 164.303 69.5016 169.629 65.3779 182.215C63.402 188.186 61.7697 195.746 60.4381 203.177C60.1804 204.595 59.9656 205.969 59.7508 207.344C58.9776 211.983 58.3763 216.45 57.9038 220.23C57.689 221.777 57.5172 223.194 57.3883 224.483C56.8729 228.735 56.6151 231.441 56.6151 231.441L48.6255 280.024L75.6871 281.656L80.8417 249.869L83.5049 230.153L85.1802 255.754C99.0546 255.496 106.185 248.237 120.017 247.55C131.357 246.991 133.59 246.476 137.328 245.574C137.328 245.574 151.03 241.965 157.345 239.603L155.412 225.041Z" fill="#FAF6EB" stroke="#1C2628" stroke-width="2.13" stroke-linecap="round" stroke-linejoin="round"/>
<path d="M137.757 153.478L132.173 149.87L132.731 156.485L127.577 160.695L134.063 162.241L136.468 168.426L139.905 162.756L146.563 162.37L142.224 157.344L143.9 150.901L137.757 153.478Z" fill="#49574E"/>
<path d="M162.585 115.807L161.211 115.549L160.695 115.978L157.86 118.341L157.645 114.003L153.951 111.683L158.032 110.137L159.063 105.927L161.339 108.805L161.769 109.32L162.542 109.277C162.628 111.425 162.628 113.616 162.585 115.807Z" fill="#49574E"/>
<path d="M155.412 225.041C154.896 225.127 154.295 225.041 153.865 224.697L145.446 218.856L138.745 221.39L135.867 222.507C135.137 222.765 134.278 222.636 133.719 222.077C133.118 221.519 132.903 220.703 133.161 219.972L136.125 210.136L129.724 202.146C129.424 201.76 129.252 201.287 129.252 200.857C129.252 200.557 129.295 200.256 129.424 199.998C129.767 199.268 130.455 198.796 131.271 198.796L141.537 198.581L147.164 190.033C147.594 189.388 148.367 189.002 149.14 189.088C149.913 189.174 150.601 189.732 150.858 190.462L150.901 190.591L152.662 204.036L152.061 203.864C151.417 203.693 150.858 203.177 150.644 202.533L149.312 198.796L148.281 195.832L144.372 201.802C143.986 202.361 143.341 202.747 142.654 202.747L135.523 202.876L139.991 208.46C140.42 208.976 140.549 209.706 140.377 210.351L138.315 217.18L141.279 216.064L145.016 214.646C145.661 214.388 146.391 214.474 146.949 214.904L152.791 218.984L152.448 211.854C152.448 211.51 152.491 211.167 152.619 210.866C152.748 210.565 152.963 210.308 153.264 210.093L153.436 209.964L155.412 225.041Z" fill="#49574E"/>
<path d="M105.927 229.809L99.7848 232.387L94.2007 228.778L94.7591 235.393L89.6045 239.646L94.9309 240.892L96.0907 241.149L98.4962 247.378L101.976 241.665L108.591 241.278L104.252 236.252L104.553 235.093L105.927 229.809Z" fill="#49574E"/>
<path d="M93.0838 182.215L89.4326 179.853L89.7763 184.191L86.4258 186.94L90.6354 187.928L92.2247 192.009L94.5013 188.272L98.8398 188.014L96.0047 184.706L97.0786 180.497L93.0838 182.215Z" fill="#49574E"/>
<path d="M70.4465 206.527L64.1751 214.646L67.3108 224.397C67.5685 225.17 67.3537 225.986 66.7953 226.545C66.2369 227.103 65.3778 227.275 64.6476 227.017L57.3452 224.397C57.517 223.108 57.6889 221.691 57.8607 220.144L62.0703 221.648L59.8796 214.861C59.6648 214.216 59.7936 213.486 60.2232 212.971L64.5617 207.344H59.7077C59.9225 205.969 60.1802 204.595 60.395 203.177H68.7712C69.5444 203.177 70.2747 203.65 70.6183 204.337C71.0049 205.024 70.919 205.883 70.4465 206.527Z" fill="#49574E"/>
<path fill-rule="evenodd" clip-rule="evenodd" d="M98.4529 144.844L97.6367 162.585C97.6367 162.585 109.965 164.26 113.573 162.714C117.181 161.167 122.808 158.289 122.808 158.289L115.678 141.408L98.4529 144.844Z" fill="#8A3EB7" stroke="#1C2628" stroke-width="2.13" stroke-linecap="round" stroke-linejoin="round"/>
<path d="M139.905 256.227C139.905 256.227 175.299 301.544 173.452 310.178C171.605 318.812 136.898 371.217 136.898 371.217L107.259 370.272" stroke="#1C2628" stroke-width="2.13" stroke-linecap="round" stroke-linejoin="round"/>
<path fill-rule="evenodd" clip-rule="evenodd" d="M113.273 168.598L107.688 172.25L112.972 174.183L113.273 168.598Z" fill="#1C2628" stroke="#1C2628" stroke-width="2.13" stroke-linecap="round" stroke-linejoin="round"/>
<path fill-rule="evenodd" clip-rule="evenodd" d="M113.573 162.671L97.4224 157.602L95.4464 163.358C94.7162 165.506 95.833 167.868 97.9808 168.641L107.689 172.207L113.273 168.599L113.573 162.671Z" fill="#FAF6EB" stroke="#1C2628" stroke-width="2.13" stroke-linecap="round" stroke-linejoin="round"/>
<path fill-rule="evenodd" clip-rule="evenodd" d="M117.74 173.066L122.078 168.77L116.021 168.126L117.74 173.066Z" fill="#1C2628" stroke="#1C2628" stroke-width="2.13" stroke-linecap="round" stroke-linejoin="round"/>
<path fill-rule="evenodd" clip-rule="evenodd" d="M122.207 154.681L114.003 162.37L115.979 168.083L122.078 168.77L125.515 165.42C127.104 163.874 127.319 161.339 125.944 159.578L122.207 154.681Z" fill="#FAF6EB" stroke="#1C2628" stroke-width="2.13" stroke-linecap="round" stroke-linejoin="round"/>
<path d="M78.9517 192.696C78.9517 192.696 81.3142 197.164 83.376 210.866C84.1063 215.634 83.5049 241.579 83.5049 241.579" stroke="#1C2628" stroke-width="2.13" stroke-linecap="round" stroke-linejoin="round"/>
<path fill-rule="evenodd" clip-rule="evenodd" d="M98.0665 149.527C89.1318 146.734 83.9772 137.757 86.5545 129.467C87.8432 125.343 86.8123 120.188 90.5493 118.384C94.3294 116.58 102.92 118.126 107.388 119.501C116.322 122.293 121.477 131.271 118.9 139.561C117.482 144.071 115.85 148.367 111.64 150.085C108.075 151.502 102.147 150.815 98.0665 149.527Z" fill="#8A3EB7" stroke="#1C2628" stroke-width="2.13" stroke-linecap="round" stroke-linejoin="round"/>
<path fill-rule="evenodd" clip-rule="evenodd" d="M103.307 122.25C106.4 121.477 112.843 118.47 113.917 119.973C115.335 121.949 111.211 125.128 110.567 125.3" fill="#8A3EB7"/>
<path d="M103.307 122.25C106.4 121.477 112.843 118.47 113.917 119.973C115.335 121.949 111.211 125.128 110.567 125.3" stroke="#1C2628" stroke-width="2.13" stroke-linecap="round" stroke-linejoin="round"/>
<path fill-rule="evenodd" clip-rule="evenodd" d="M110.18 139.002C107.732 140.334 104.896 137.069 104.896 137.069L111.254 132.301C111.297 132.258 114.776 136.511 110.18 139.002Z" fill="#1C2628" stroke="#1C2628" stroke-width="2.13" stroke-linecap="round" stroke-linejoin="round"/>
<path fill-rule="evenodd" clip-rule="evenodd" d="M96.9497 133.762C95.8328 133.032 95.7899 131.142 96.8637 129.552C97.8947 127.92 99.6558 127.19 100.773 127.92C101.889 128.65 101.932 130.54 100.859 132.13C99.7847 133.762 98.0665 134.492 96.9497 133.762Z" fill="#FAFCFF" stroke="#1C2628" stroke-width="2.13" stroke-linecap="round" stroke-linejoin="round"/>
<path fill-rule="evenodd" clip-rule="evenodd" d="M102.62 122.121C101.589 121.477 101.417 119.93 102.276 118.642C103.135 117.396 104.639 116.881 105.713 117.568C106.743 118.212 106.915 119.759 106.056 121.047C105.197 122.293 103.651 122.765 102.62 122.121Z" fill="#FAFCFF" stroke="#1C2628" stroke-width="2.13" stroke-linecap="round" stroke-linejoin="round"/>
<path fill-rule="evenodd" clip-rule="evenodd" d="M98.7537 152.662L98.1523 146.219C98.1523 146.219 105.455 140.764 108.547 142.868C111.64 145.016 111.039 154.38 111.039 154.38L105.025 156.743" fill="#8A3EB7"/>
<path fill-rule="evenodd" clip-rule="evenodd" d="M90.6785 115.592C92.096 114.819 88.7025 113.831 90.4207 114.045C95.919 114.647 96.0478 119.286 94.3296 122.98C92.6973 126.502 90.0771 129.552 90.0771 129.552C90.0771 129.552 97.4224 140.119 92.9121 144.715C89.9482 147.722 84.6648 147.164 82.9466 143.599C81.529 140.678 81.4431 137.456 81.9156 134.32C82.3881 131.099 84.1922 128.049 84.5359 124.87" fill="#1C2628"/>
<path d="M90.6785 115.592C92.096 114.819 88.7025 113.831 90.4207 114.045C95.919 114.647 96.0478 119.286 94.3296 122.98C92.6973 126.502 90.0771 129.552 90.0771 129.552C90.0771 129.552 97.4224 140.119 92.9121 144.715C89.9482 147.722 84.6648 147.164 82.9466 143.599C81.529 140.678 81.4431 137.456 81.9156 134.32C82.3881 131.099 84.1922 128.049 84.5359 124.87" stroke="#1C2628" stroke-width="2.13" stroke-linecap="round" stroke-linejoin="round"/>
<path fill-rule="evenodd" clip-rule="evenodd" d="M85.395 122.723C72.3796 120.188 70.4466 130.283 76.2885 133.762C69.2009 135.48 68.5566 149.054 80.7558 148.882C79.0806 150.386 86.7266 157.688 89.6045 146.949" fill="#1C2628"/>
<path d="M85.395 122.723C72.3796 120.188 70.4466 130.283 76.2885 133.762C69.2009 135.48 68.5566 149.054 80.7558 148.882C79.0806 150.386 86.7266 157.688 89.6045 146.949" stroke="#1C2628" stroke-width="2.13" stroke-linecap="round" stroke-linejoin="round"/>
<path fill-rule="evenodd" clip-rule="evenodd" d="M93.6421 143.813C93.9428 143.384 91.0218 144.458 92.6971 148.109C93.8569 150.686 100.171 151.459 100.042 146.777" fill="#8A3EB7"/>
<path d="M93.6421 143.813C93.9428 143.384 91.0218 144.458 92.6971 148.109C93.8569 150.686 100.171 151.459 100.042 146.777" stroke="#1C2628" stroke-width="2.13" stroke-linecap="round" stroke-linejoin="round"/>
<path d="M95.2744 146.992L95.661 147.035H96.3053L97.0356 146.777" stroke="#1C2628" stroke-width="2.13" stroke-linecap="round" stroke-linejoin="round"/>
<path fill-rule="evenodd" clip-rule="evenodd" d="M100.429 128.35C99.6559 127.92 98.6679 128.221 98.2813 129.037C97.8947 129.81 98.1525 130.798 98.9686 131.185C99.7418 131.614 100.73 131.314 101.116 130.497C101.503 129.724 101.202 128.736 100.429 128.35Z" fill="#1C2628" stroke="#1C2628" stroke-width="2.13" stroke-linecap="round" stroke-linejoin="round"/>
<path fill-rule="evenodd" clip-rule="evenodd" d="M105.412 117.911C104.681 117.525 103.822 117.697 103.522 118.341C103.178 118.942 103.522 119.759 104.252 120.145C104.982 120.532 105.841 120.36 106.142 119.716C106.486 119.114 106.142 118.298 105.412 117.911Z" fill="#1C2628" stroke="#1C2628" stroke-width="2.13" stroke-linecap="round" stroke-linejoin="round"/>
<path d="M95.446 118.169C95.7467 116.451 94.0714 114.862 93.0405 113.702" stroke="#FAF6EB" stroke-width="2.13" stroke-linecap="round" stroke-linejoin="round"/>
<path d="M81.7007 141.966C80.5839 139.69 78.9516 131.399 81.7866 130.025C84.3639 128.736 85.4808 135.179 84.321 134.449C79.8966 131.614 83.333 121.863 87.199 119.802" stroke="#FAF6EB" stroke-width="2.13" stroke-linecap="round" stroke-linejoin="round"/>
<path fill-rule="evenodd" clip-rule="evenodd" d="M107.946 150.514L117.439 145.231L119.329 151.889C119.329 151.889 115.979 152.147 112.886 151.588C109.836 151.03 107.946 150.514 107.946 150.514Z" fill="#1C2628" stroke="#1C2628" stroke-width="2.13" stroke-linecap="round" stroke-linejoin="round"/>
<path fill-rule="evenodd" clip-rule="evenodd" d="M95.3174 145.532C95.3174 144.286 96.3483 143.298 97.637 143.298C98.9256 143.298 99.9565 144.286 99.9565 145.532C99.9565 146.777 98.9256 147.765 97.637 147.765C96.3483 147.765 95.3174 146.734 95.3174 145.532Z" fill="#1C2628" stroke="#1C2628" stroke-width="2.13" stroke-linecap="round" stroke-linejoin="round"/>
<path d="M99.0973 145.274C102.405 148.581 107.173 156.743 110.394 165.377C113.229 173.023 101.761 190.591 101.202 197.421C100.558 204.767 112.37 227.318 105.583 240.376C99.8275 251.459 88.4874 250.342 82.5596 262.842C76.6318 275.342 70.8759 301.029 43.084 304.852" stroke="#1C2628" stroke-width="2.13" stroke-linecap="round" stroke-linejoin="round"/>
<path d="M215.677 138.959C219.586 148.624 181.872 152.361 164.604 173.452C147.336 194.543 112.886 173.882 107.56 182.086" stroke="#1C2628" stroke-width="2.13" stroke-linecap="round" stroke-linejoin="round"/>
<path d="M144.415 360.479C144.415 360.479 158.977 361.08 162.07 360.693" stroke="#1C2628" stroke-width="2.13" stroke-linecap="round" stroke-linejoin="round"/>
<path d="M50.3433 269.113L73.7537 272.335" stroke="#1C2628" stroke-width="2.13" stroke-linecap="round" stroke-linejoin="round"/>
<path d="M136.984 92.8689L161.898 92.0098" stroke="#1C2628" stroke-width="2.13" stroke-linecap="round" stroke-linejoin="round"/>
<path fill-rule="evenodd" clip-rule="evenodd" d="M230.496 139.346C229.423 141.623 226.287 140.85 224.096 141.623C224.096 141.623 225.814 145.403 229.551 143.427C232 142.095 230.496 139.346 230.496 139.346Z" fill="#1C2628" stroke="#1C2628" stroke-width="2.13" stroke-linecap="round" stroke-linejoin="round"/>
<path d="M221.476 241.536C221.476 241.536 229.852 243.641 232.558 246.519C235.651 249.869 246.046 256.356 249.74 258.546" stroke="#1C2628" stroke-width="2.13" stroke-linecap="round" stroke-linejoin="round"/>
<path d="M223.538 133.891C223.538 130.626 226.373 128.006 229.895 128.006C233.418 128.006 236.253 130.626 236.253 133.891C236.253 137.155 233.418 139.776 229.895 139.776C226.373 139.776 223.538 137.155 223.538 133.891Z" stroke="#FAF6EB" stroke-width="2.13" stroke-linecap="round" stroke-linejoin="round"/>
<path d="M210.909 130.068C210.909 126.803 213.744 124.183 217.267 124.183C220.789 124.183 223.624 126.803 223.624 130.068C223.624 133.333 220.789 135.953 217.267 135.953C213.744 135.953 210.909 133.29 210.909 130.068Z" stroke="#FAF6EB" stroke-width="2.13" stroke-linecap="round" stroke-linejoin="round"/>
<path fill-rule="evenodd" clip-rule="evenodd" d="M222.378 134.277C219.5 133.762 216.966 131.743 216.064 133.204C214.904 135.094 218.684 138.186 219.286 138.358" fill="#8A3EB7"/>
<path d="M222.378 134.277C219.5 133.762 216.966 131.743 216.064 133.204C214.904 135.094 218.684 138.186 219.286 138.358" stroke="#1C2628" stroke-width="2.13" stroke-linecap="round" stroke-linejoin="round"/>
<path d="M226.803 115.549C229.38 115.549 229.337 123.41 229.81 126.288" stroke="#FAF6EB" stroke-width="2.13" stroke-linecap="round" stroke-linejoin="round"/>
<path d="M237.112 112.113C246.562 121.133 245.703 133.805 246.906 140.334" stroke="#FAF6EB" stroke-width="2.13" stroke-linecap="round" stroke-linejoin="round"/>
<path d="M250.299 130.025C251.201 135.008 252.361 139.947 253.435 144.93" stroke="#FAF6EB" stroke-width="2.13" stroke-linecap="round" stroke-linejoin="round"/>
<path d="M223.151 178.263C221.992 185.909 217.739 194.242 213.744 198.538C213.014 199.311 212.026 200.256 210.952 201.029" stroke="#1C2628" stroke-width="2.13" stroke-linecap="round" stroke-linejoin="round"/>
<path d="M209.234 187.284C214.088 180.712 228.048 166.537 237.284 173.538C245.746 179.939 229.981 203.392 224.955 210.05" stroke="#1C2628" stroke-width="2.13" stroke-linecap="round" stroke-linejoin="round"/>
<path d="M218.598 209.749C220.145 206.227 222.808 202.361 223.452 201.459C228.821 193.856 244.113 174.354 255.454 177.963C255.668 178.006 255.84 178.091 256.012 178.177" stroke="#1C2628" stroke-width="2.13" stroke-linecap="round" stroke-linejoin="round"/>
<path d="M259.792 178.263C259.878 179.724 256.012 196.433 249.139 205.668" stroke="#1C2628" stroke-width="2.13" stroke-linecap="round" stroke-linejoin="round"/>
<path d="M242.739 204.853C243.211 203.65 243.727 202.447 244.285 201.287C247.378 194.629 251.974 187.284 257.902 182.043" stroke="#1C2628" stroke-width="2.13" stroke-linecap="round" stroke-linejoin="round"/>
<path fill-rule="evenodd" clip-rule="evenodd" d="M36.9845 302.317H49.6562C51.1596 302.317 52.3624 303.52 52.3624 305.024C52.3624 306.527 51.1596 307.73 49.6562 307.73H36.9845C35.4811 307.73 34.2783 306.527 34.2783 305.024C34.2783 303.52 35.524 302.317 36.9845 302.317Z" fill="#1C2628" stroke="#1C2628" stroke-width="2.13" stroke-linecap="round" stroke-linejoin="round"/>
<path d="M275.342 231.57C287.498 234.792 325.642 252.146 334.19 249.44C342.738 246.691 352.145 233.804 360.479 228.907" stroke="#1C2628" stroke-width="2.13" stroke-linecap="round" stroke-linejoin="round"/>
<path d="M211.081 243.34C213.959 255.539 191.666 268.555 188.916 282.343C185.996 296.991 199.956 280.195 205.325 280.195C210.609 280.195 202.834 294.671 201.889 297.893C199.097 307.429 199.784 311.037 204.595 319.8" stroke="#1C2628" stroke-width="2.13" stroke-linecap="round" stroke-linejoin="round"/>
<path d="M107.903 182.688C106.228 183.246 104.682 181.657 106.271 180.583C108.505 179.08 108.419 182.516 107.903 182.688Z" stroke="#1C2628" stroke-width="2.13" stroke-linecap="round" stroke-linejoin="round"/>
<path fill-rule="evenodd" clip-rule="evenodd" d="M93.2985 339.302C91.2797 340.118 91.5374 343.211 90.5065 345.101C88.6594 348.58 85.0941 351.673 81.7866 353.735C77.7918 356.183 72.4224 362.197 70.9619 366.664C69.0719 372.506 72.3365 378.906 79.3382 377.274C86.0821 375.685 85.7385 366.965 88.101 362.068C90.4206 357.257 104.725 345.444 98.9256 339.86C97.1645 338.142 95.1456 338.571 93.2985 339.302Z" fill="#F2B84A"/>
<path fill-rule="evenodd" clip-rule="evenodd" d="M180.11 189.904C174.698 192.997 162.843 186.682 169.544 180.368C172.937 177.146 174.741 181.356 177.877 180.368C181.485 179.251 181.399 173.968 185.179 172.808C187.628 172.035 188.186 175.643 187.971 177.104C187.198 181.7 184.234 187.542 180.11 189.904Z" fill="#FAF6EB"/>
<path d="M225.943 227.576L273.752 213.787" stroke="#1C2628" stroke-width="2.13" stroke-linecap="round" stroke-linejoin="round"/>
<path fill-rule="evenodd" clip-rule="evenodd" d="M216.45 377.317L219.586 394.928L245.273 392.566L239.173 372.721L216.45 377.317Z" fill="#F2B84A" stroke="#1C2628" stroke-width="2.13" stroke-linecap="round" stroke-linejoin="round"/>
<path fill-rule="evenodd" clip-rule="evenodd" d="M234.835 373.58C237.069 378.305 238.787 387.111 240.247 392.308L234.835 373.58Z" fill="#FAF6EB"/>
<path d="M234.835 373.58C237.069 378.305 238.787 387.111 240.247 392.308" stroke="#1C2628" stroke-width="2.13" stroke-linecap="round" stroke-linejoin="round"/>
<path fill-rule="evenodd" clip-rule="evenodd" d="M230.325 374.782C232.086 381.011 234.921 387.927 235.651 394.327L230.325 374.782Z" fill="#FAF6EB"/>
<path d="M230.325 374.782C232.086 381.011 234.921 387.927 235.651 394.327" stroke="#1C2628" stroke-width="2.13" stroke-linecap="round" stroke-linejoin="round"/>
<path fill-rule="evenodd" clip-rule="evenodd" d="M225.771 375.556C227.619 382.085 229.423 389.129 230.883 395.745L225.771 375.556Z" fill="#FAF6EB"/>
<path d="M225.771 375.556C227.619 382.085 229.423 389.129 230.883 395.745" stroke="#1C2628" stroke-width="2.13" stroke-linecap="round" stroke-linejoin="round"/>
<path fill-rule="evenodd" clip-rule="evenodd" d="M221.132 376.372C222.808 382.257 223.924 389.087 225.256 395.143L221.132 376.372Z" fill="#FAF6EB"/>
<path d="M221.132 376.372C222.808 382.257 223.924 389.087 225.256 395.143" stroke="#1C2628" stroke-width="2.13" stroke-linecap="round" stroke-linejoin="round"/>
<path fill-rule="evenodd" clip-rule="evenodd" d="M211.511 389.645L216.107 381.741C216.107 381.741 222.464 381.698 222.25 383.331C222.035 384.963 219.543 391.836 219.543 391.836L211.511 389.645Z" fill="#FAF6EB" stroke="#1C2628" stroke-width="2.13" stroke-linecap="round" stroke-linejoin="round"/>
<path fill-rule="evenodd" clip-rule="evenodd" d="M213.443 386.81L225.815 390.633C225.815 390.633 236.51 392.996 238.744 392.394C241.021 391.75 240.462 389.989 241.708 389.001C242.954 388.013 245.316 388.228 245.316 388.228C245.316 388.228 245.832 390.375 246.218 395.229C246.605 400.083 244.801 405.796 244.801 405.796L206.7 407.257L187.284 407.343C187.284 407.343 183.676 400.083 189.045 397.764C194.5 395.401 199.569 394.628 207.215 391.492C211.038 389.903 213.443 386.81 213.443 386.81Z" fill="#47584E" stroke="#1C2628" stroke-width="2.13" stroke-linecap="round" stroke-linejoin="round"/>
<path fill-rule="evenodd" clip-rule="evenodd" d="M245.015 404.164C244.027 403.906 227.146 403.648 227.146 403.648C227.146 403.648 224.096 405.109 214.732 406.183C205.368 407.257 187.284 407.042 187.284 407.042C187.284 407.042 191.107 410.049 199.483 409.404C209.191 408.674 244.543 408.416 244.543 408.416C244.543 408.416 246.476 407.6 246.605 406.655C246.647 405.71 246.089 404.465 245.015 404.164Z" fill="#FAF6EB" stroke="#1C2628" stroke-width="2.13" stroke-linecap="round" stroke-linejoin="round"/>
<path d="M212.413 391.621C212.413 391.106 212.842 390.676 213.401 390.676C213.959 390.676 214.389 391.106 214.389 391.621C214.389 392.137 213.959 392.566 213.401 392.566C212.885 392.566 212.413 392.137 212.413 391.621Z" fill="#FAF6EB" stroke="#1C2628" stroke-width="2.13" stroke-linecap="round" stroke-linejoin="round"/>
<path d="M206.442 394.327C206.442 393.812 206.871 393.382 207.43 393.382C207.988 393.382 208.418 393.812 208.418 394.327C208.418 394.843 207.988 395.272 207.43 395.272C206.914 395.272 206.442 394.843 206.442 394.327Z" fill="#FAF6EB" stroke="#1C2628" stroke-width="2.13" stroke-linecap="round" stroke-linejoin="round"/>
<path d="M200.385 396.69C200.385 396.174 200.815 395.745 201.373 395.745C201.932 395.745 202.361 396.174 202.361 396.69C202.361 397.205 201.932 397.635 201.373 397.635C200.858 397.635 200.385 397.205 200.385 396.69Z" fill="#FAF6EB" stroke="#1C2628" stroke-width="2.13" stroke-linecap="round" stroke-linejoin="round"/>
<path fill-rule="evenodd" clip-rule="evenodd" d="M211.167 388.185L213.057 391.063L211.167 388.185Z" fill="#FAF6EB"/>
<path d="M211.167 388.185L213.057 391.063" stroke="#1C2628" stroke-width="2.13" stroke-linecap="round" stroke-linejoin="round"/>
<path fill-rule="evenodd" clip-rule="evenodd" d="M205.411 390.891L207.301 393.769L205.411 390.891Z" fill="#FAF6EB"/>
<path d="M205.411 390.891L207.301 393.769" stroke="#1C2628" stroke-width="2.13" stroke-linecap="round" stroke-linejoin="round"/>
<path fill-rule="evenodd" clip-rule="evenodd" d="M199.354 393.167L201.245 396.045L199.354 393.167Z" fill="#FAF6EB"/>
<path d="M199.354 393.167L201.245 396.045" stroke="#1C2628" stroke-width="2.13" stroke-linecap="round" stroke-linejoin="round"/>
<path fill-rule="evenodd" clip-rule="evenodd" d="M225.643 390.504C225.643 390.504 223.581 393.898 225.901 396.389C228.22 398.837 233.718 403.434 233.718 403.434C233.718 403.434 233.633 399.954 236.21 398.58C238.787 397.248 245.789 395.53 245.789 395.53L246.175 391.965L240.162 391.879C240.162 391.879 236.038 392.351 232.602 391.879C229.122 391.406 225.643 390.504 225.643 390.504Z" fill="#FAF6EB" stroke="#1C2628" stroke-width="2.13" stroke-linecap="round" stroke-linejoin="round"/>
<path fill-rule="evenodd" clip-rule="evenodd" d="M186.468 399.868C186.468 399.868 188.186 401.715 192.181 401.586C196.176 401.458 198.624 401.372 198.624 401.372L198.839 399.138C198.839 399.138 196.09 399.568 195.875 398.236C195.66 396.904 195.016 395.401 195.016 395.401C195.016 395.401 192.739 396.002 189.088 397.549C186.94 398.451 186.468 399.868 186.468 399.868Z" fill="#FAF6EB" stroke="#1C2628" stroke-width="2.13" stroke-linecap="round" stroke-linejoin="round"/>
<path d="M198.581 399.138L211.511 398.193L217.868 405.538" stroke="#1C2628" stroke-width="2.13" stroke-linecap="round" stroke-linejoin="round"/>
<path fill-rule="evenodd" clip-rule="evenodd" d="M388.528 217.996L410.693 204.595L385.779 187.155L373.193 203.607L388.528 217.996Z" fill="#F2B84A" stroke="#1C2628" stroke-width="2.13" stroke-linecap="round" stroke-linejoin="round"/>
<path fill-rule="evenodd" clip-rule="evenodd" d="M376.415 206.656C378.949 202.103 385.178 195.617 388.528 191.365L376.415 206.656Z" fill="#FAF6EB"/>
<path d="M376.415 206.656C378.949 202.103 385.178 195.617 388.528 191.365" stroke="#1C2628" stroke-width="2.13" stroke-linecap="round" stroke-linejoin="round"/>
<path fill-rule="evenodd" clip-rule="evenodd" d="M380.023 209.663C384.061 204.595 393.082 196.519 397.85 192.224L380.023 209.663Z" fill="#FAF6EB"/>
<path d="M380.023 209.663C384.061 204.595 393.082 196.519 397.85 192.224" stroke="#1C2628" stroke-width="2.13" stroke-linecap="round" stroke-linejoin="round"/>
<path fill-rule="evenodd" clip-rule="evenodd" d="M383.288 212.885C387.497 207.602 396.346 201.244 400.899 196.219L383.288 212.885Z" fill="#FAF6EB"/>
<path d="M383.288 212.885C387.497 207.602 396.346 201.244 400.899 196.219" stroke="#1C2628" stroke-width="2.13" stroke-linecap="round" stroke-linejoin="round"/>
<path fill-rule="evenodd" clip-rule="evenodd" d="M386.638 216.193C390.461 211.382 401.243 205.411 405.41 200.815L386.638 216.193Z" fill="#FAF6EB"/>
<path d="M386.638 216.193C390.461 211.382 401.243 205.411 405.41 200.815" stroke="#1C2628" stroke-width="2.13" stroke-linecap="round" stroke-linejoin="round"/>
<path fill-rule="evenodd" clip-rule="evenodd" d="M410.736 204.595L405.453 212.026C405.453 212.026 399.095 211.51 399.482 209.921C399.825 208.289 402.918 201.674 402.918 201.674L410.736 204.595Z" fill="#FAF6EB" stroke="#1C2628" stroke-width="2.13" stroke-linecap="round" stroke-linejoin="round"/>
<path fill-rule="evenodd" clip-rule="evenodd" d="M408.588 207.215L396.604 202.318C396.604 202.318 386.166 199.011 383.889 199.44C381.569 199.87 381.956 201.674 380.624 202.533C379.293 203.392 373.966 200.944 373.966 200.944C373.966 200.944 376.63 200.815 376.672 195.961C376.715 191.107 379.035 185.566 379.035 185.566L417.136 187.499L436.466 189.131C436.466 189.131 439.387 196.648 433.846 198.538C428.218 200.385 423.064 200.729 415.203 203.177C411.251 204.38 408.588 207.215 408.588 207.215Z" fill="#47584E" stroke="#1C2628" stroke-width="2.13" stroke-linecap="round" stroke-linejoin="round"/>
<path fill-rule="evenodd" clip-rule="evenodd" d="M378.692 187.155C379.637 187.499 396.432 189.26 396.432 189.26C396.432 189.26 399.611 188.057 409.018 187.842C418.468 187.627 436.423 189.432 436.423 189.432C436.423 189.432 432.901 186.081 424.482 185.995C414.731 185.866 379.551 182.945 379.551 182.945C379.551 182.945 377.532 183.59 377.36 184.492C377.188 185.437 377.618 186.768 378.692 187.155Z" fill="#FAF6EB" stroke="#1C2628" stroke-width="2.13" stroke-linecap="round" stroke-linejoin="round"/>
<path d="M410.006 202.533C409.963 203.048 409.49 203.435 408.932 203.392C408.373 203.349 407.987 202.876 408.03 202.361C408.073 201.845 408.545 201.459 409.103 201.502C409.662 201.545 410.048 202.017 410.006 202.533Z" fill="#FAF6EB" stroke="#1C2628" stroke-width="2.13" stroke-linecap="round" stroke-linejoin="round"/>
<path d="M416.191 200.385C416.148 200.9 415.676 201.287 415.117 201.244C414.559 201.201 414.172 200.729 414.215 200.213C414.258 199.698 414.731 199.311 415.289 199.354C415.847 199.397 416.234 199.827 416.191 200.385Z" fill="#FAF6EB" stroke="#1C2628" stroke-width="2.13" stroke-linecap="round" stroke-linejoin="round"/>
<path d="M422.463 198.538C422.42 199.054 421.947 199.44 421.389 199.397C420.83 199.354 420.444 198.882 420.487 198.366C420.53 197.851 421.002 197.464 421.561 197.507C422.076 197.55 422.506 198.023 422.463 198.538Z" fill="#FAF6EB" stroke="#1C2628" stroke-width="2.13" stroke-linecap="round" stroke-linejoin="round"/>
<path fill-rule="evenodd" clip-rule="evenodd" d="M410.951 206.098L409.318 203.048L410.951 206.098Z" fill="#FAF6EB"/>
<path d="M410.951 206.098L409.318 203.048" stroke="#1C2628" stroke-width="2.13" stroke-linecap="round" stroke-linejoin="round"/>
<path fill-rule="evenodd" clip-rule="evenodd" d="M416.921 203.865L415.289 200.815L416.921 203.865Z" fill="#FAF6EB"/>
<path d="M416.921 203.865L415.289 200.815" stroke="#1C2628" stroke-width="2.13" stroke-linecap="round" stroke-linejoin="round"/>
<path fill-rule="evenodd" clip-rule="evenodd" d="M423.193 202.146L421.604 199.096L423.193 202.146Z" fill="#FAF6EB"/>
<path d="M423.193 202.146L421.604 199.096" stroke="#1C2628" stroke-width="2.13" stroke-linecap="round" stroke-linejoin="round"/>
<path fill-rule="evenodd" clip-rule="evenodd" d="M396.732 202.447C396.732 202.447 399.095 199.225 396.99 196.562C394.885 193.899 389.817 188.873 389.817 188.873C389.817 188.873 389.602 192.352 386.896 193.469C384.189 194.586 377.102 195.66 377.102 195.66L376.415 199.182L382.385 199.784C382.385 199.784 386.552 199.655 389.902 200.471C393.339 201.287 396.732 202.447 396.732 202.447Z" fill="#FAF6EB" stroke="#1C2628" stroke-width="2.13" stroke-linecap="round" stroke-linejoin="round"/>
<path fill-rule="evenodd" clip-rule="evenodd" d="M436.638 196.605C436.638 196.605 435.091 194.586 431.096 194.371C427.102 194.156 424.653 194.028 424.653 194.028L424.224 196.218C424.224 196.218 426.973 196.046 427.102 197.378C427.188 198.71 427.703 200.256 427.703 200.256C427.703 200.256 430.023 199.869 433.803 198.667C436.036 197.979 436.638 196.605 436.638 196.605Z" fill="#FAF6EB" stroke="#1C2628" stroke-width="2.13" stroke-linecap="round" stroke-linejoin="round"/>
<path d="M424.438 196.261L411.466 196.047L405.839 188.143" stroke="#1C2628" stroke-width="2.13" stroke-linecap="round" stroke-linejoin="round"/>
<path fill-rule="evenodd" clip-rule="evenodd" d="M142.439 411.423L123.324 411.853L86.7266 411.337L90.2918 392.566L106.572 392.136C106.572 392.136 106.013 387.841 110.266 388.013C113.53 388.141 123.152 398.107 132.044 400.856C144.243 404.679 142.439 411.423 142.439 411.423Z" fill="#F2B84A"/>
<path fill-rule="evenodd" clip-rule="evenodd" d="M142.224 408.975L100.859 408.76C99.6559 408.76 98.7109 409.619 98.668 410.693V411.38C98.668 412.454 99.613 413.313 100.816 413.313L142.181 413.528C143.384 413.528 144.329 412.669 144.372 411.595V410.908C144.372 409.877 143.427 408.975 142.224 408.975Z" fill="#1C2628" stroke="#1C2628" stroke-width="2.13" stroke-linecap="round" stroke-linejoin="round"/>
<path fill-rule="evenodd" clip-rule="evenodd" d="M104.338 413.356L84.7935 413.055L85.9962 402.789C85.9962 402.789 95.9188 402.231 99.3122 405.409C102.749 408.717 104.338 413.356 104.338 413.356Z" fill="#1C2628" stroke="#1C2628" stroke-width="2.13" stroke-linecap="round" stroke-linejoin="round"/>
<path fill-rule="evenodd" clip-rule="evenodd" d="M133.977 401.5L111.039 387.454C111.039 387.454 107.388 388.013 106.443 389.516C105.498 390.976 107.173 393.339 107.173 393.339C107.173 393.339 120.274 402.102 125.858 403.863C129.767 405.066 133.977 401.5 133.977 401.5Z" fill="#1C2628" stroke="#1C2628" stroke-width="2.13" stroke-linecap="round" stroke-linejoin="round"/>
<path d="M113.358 395.959L105.412 410.822" stroke="#1C2628" stroke-width="2.13" stroke-linecap="round" stroke-linejoin="round"/>
<path d="M90.2919 392.566L88.3589 406.182" stroke="#1C2628" stroke-width="2.13" stroke-linecap="round" stroke-linejoin="round"/>
<path d="M89.6904 266.579L124.183 311.51L114.647 332.171" stroke="#1C2628" stroke-width="2.13" stroke-linecap="round" stroke-linejoin="round"/>
<path fill-rule="evenodd" clip-rule="evenodd" d="M388.098 227.06C382.128 236.124 356.956 272.335 333.159 277.919C327.79 279.165 321.303 279.165 314.345 278.391C318.511 274.139 325.255 271.604 331.269 269.371C342.137 265.333 344.628 267.266 348.923 263.4C354.722 258.202 351.716 253.349 357.3 243.941C358.975 241.106 365.848 230.454 378.09 227.79C380.41 227.275 384.275 226.802 388.098 227.06Z" fill="#1C2628" stroke="#1C2628" stroke-width="2.13" stroke-linecap="round" stroke-linejoin="round"/>
<path fill-rule="evenodd" clip-rule="evenodd" d="M249.74 258.546L224.096 294.972L242.739 348.623L233.589 349.997C224.354 345.745 217.395 337.111 216.45 328.477C215.935 323.666 217.825 323.709 217.481 317.566C216.88 305.41 209.449 303.133 210.737 295.573C211.94 288.486 218.77 288.786 221.82 278.993C223.624 273.151 221.734 271.347 223.452 266.622C224.998 262.455 228.95 257.3 239.775 253.22C242.653 254.165 246.347 255.754 249.74 258.546Z" fill="#1C2628" stroke="#1C2628" stroke-width="2.13" stroke-linecap="round" stroke-linejoin="round"/>
<path fill-rule="evenodd" clip-rule="evenodd" d="M293.727 223.538C288.83 226.072 284.792 226.588 281.742 226.459C274.182 226.115 270.832 221.648 263.057 223.022C257.086 224.053 255.926 227.232 251.545 227.06C246.562 226.888 242.395 222.55 239.174 217.61L266.15 210.136L293.727 223.538Z" fill="#1C2628" stroke="#1C2628" stroke-width="2.13" stroke-linecap="round" stroke-linejoin="round"/>
<path fill-rule="evenodd" clip-rule="evenodd" d="M273.752 201.072C273.752 201.072 260.05 203.65 253.778 204.852C249.182 205.712 243.984 209.535 232.988 212.498C232.644 211.167 232.515 209.749 233.203 208.59C234.405 206.485 237.069 207.172 241.665 205.153C246.519 203.005 246.003 201.201 249.74 200.127C254.637 198.753 256.742 201.588 259.534 199.999C262.97 198.023 261.08 193.04 263.873 187.971C264.517 186.811 265.333 185.78 266.278 184.792L273.752 201.072Z" fill="#1C2628" stroke="#1C2628" stroke-width="2.13" stroke-linecap="round" stroke-linejoin="round"/>
<path fill-rule="evenodd" clip-rule="evenodd" d="M151.632 47.2506C151.632 47.2506 152.791 33.3332 149.441 29.682C146.649 26.6751 134.106 23.5824 130.369 29.5102C126.632 35.438 135.094 53.6079 135.094 53.6079L138.23 82.6885L161.468 81.5287C157.774 63.9601 151.632 47.2506 151.632 47.2506Z" fill="#8A3EB7" stroke="#1C2628" stroke-width="2.13" stroke-linecap="round" stroke-linejoin="round"/>
<path d="M136.211 42.6113C139.518 36.8554 135.996 33.2471 135.996 33.2471C135.996 33.2471 143.212 33.7197 144.372 30.1114C145.918 25.1716 135.137 26.3744 135.137 26.3744" fill="#8A3EB7"/>
<path d="M136.211 42.6113C139.518 36.8554 135.996 33.2471 135.996 33.2471C135.996 33.2471 143.212 33.7197 144.372 30.1114C145.918 25.1716 135.137 26.3744 135.137 26.3744" stroke="#1C2628" stroke-width="2.13" stroke-linecap="round" stroke-linejoin="round"/>
<path d="M142.697 38.6595C143.169 36.8554 142.396 34.4069 141.709 32.7317L142.697 38.6595Z" fill="#8A3EB7"/>
<path d="M142.697 38.6595C143.169 36.8554 142.396 34.4069 141.709 32.7317" stroke="#1C2628" stroke-width="2.13" stroke-linecap="round" stroke-linejoin="round"/>
<path d="M146.864 36.5118C147.293 34.1493 146.778 30.9707 144.888 29.2954L146.864 36.5118Z" fill="#8A3EB7"/>
<path d="M146.864 36.5118C147.293 34.1493 146.778 30.9707 144.888 29.2954" stroke="#1C2628" stroke-width="2.13" stroke-linecap="round" stroke-linejoin="round"/>
<path d="M262.326 63.917L256.355 39.9911L256.699 39.8193L255.152 33.5049L231.227 45.6182L232.859 52.2333L233.202 52.0614L238.658 74.0544C237.068 73.6248 235.092 74.0544 233.374 75.386C230.883 77.3619 230.024 80.4547 231.484 82.3447C232.945 84.2347 236.166 84.1918 238.701 82.2158C241.235 80.2829 242.051 77.1472 240.591 75.2571C240.548 75.1712 240.462 75.1283 240.376 75.0424L235.264 54.5099L255.84 44.0289L260.522 62.9291C258.932 62.4995 256.914 62.9291 255.195 64.2607C252.661 66.2366 251.845 69.3293 253.305 71.2194C254.766 73.1094 257.987 73.0664 260.522 71.0905C263.056 69.1146 263.872 66.0218 262.412 64.1318C262.455 64.0029 262.369 63.96 262.326 63.917ZM234.964 53.0494L234.534 51.3312L255.067 40.6784L255.539 42.5254L234.964 53.0494Z" fill="#1C2628" stroke="#1C2628" stroke-width="2.13" stroke-linecap="round" stroke-linejoin="round"/>
<path d="M194.071 89.0456C193.899 89.0026 193.684 89.0456 193.598 89.2174C191.407 92.2672 189.217 93.9425 186.983 94.2002C186.596 94.2432 186.253 94.2432 185.866 94.2432C186.94 93.6418 187.67 92.525 187.756 91.2363C187.885 89.2174 186.296 87.4563 184.277 87.3704C182.258 87.2415 180.497 88.8308 180.411 90.8497C180.282 92.8686 181.871 94.6298 183.89 94.7157C183.976 94.7157 184.062 94.7157 184.148 94.7157C185.136 95.0593 186.124 95.1882 187.112 95.0593C189.26 94.8016 191.407 93.3411 193.469 90.8068L193.04 98.7534C190.892 101.717 188.701 103.35 186.511 103.65C186.124 103.693 185.78 103.693 185.394 103.693C186.468 103.092 187.198 101.975 187.284 100.686C187.37 98.6675 185.823 96.9064 183.804 96.8205C181.786 96.7345 180.024 98.2809 179.938 100.3C179.81 102.319 181.399 104.08 183.418 104.166C183.504 104.166 183.59 104.166 183.676 104.166C184.406 104.423 185.093 104.552 185.823 104.552C186.081 104.552 186.339 104.552 186.639 104.509C188.787 104.252 190.935 102.791 192.997 100.257L192.267 114.174L193.083 114.217L194.414 89.5181C194.328 89.3033 194.242 89.1315 194.071 89.0456Z" fill="#1C2628" stroke="#1C2628" stroke-width="2.13" stroke-linecap="round" stroke-linejoin="round"/>
<path d="M280.497 142.74C277.318 151.202 273.71 159.535 269.715 167.653" stroke="#1C2628" stroke-width="2.13" stroke-linecap="round" stroke-linejoin="round"/>
<path d="M287.154 123.968C287.111 125.686 286.768 127.448 286.166 129.037C285.78 129.982 285.307 130.97 285.393 131.958C286.381 132.344 287.627 131.399 287.541 130.326C287.326 130.197 287.025 130.369 286.854 130.583C285.135 132.43 284.147 134.879 284.104 137.37" stroke="#1C2628" stroke-width="2.13" stroke-linecap="round" stroke-linejoin="round"/>
<path d="M280.024 130.325C277.661 135.995 275.342 141.623 272.979 147.293" stroke="#1C2628" stroke-width="2.13" stroke-linecap="round" stroke-linejoin="round"/>
<path d="M107.259 348.107L96.9927 370.272" stroke="#1C2628" stroke-width="2.13" stroke-linecap="round" stroke-linejoin="round"/>
<path d="M297.463 268.168C299.096 268.727 300.771 269.113 302.446 269.328C305.152 269.672 307.987 269.629 310.565 270.574" stroke="#1C2628" stroke-width="2.13" stroke-linecap="round" stroke-linejoin="round"/>
<path d="M310.608 267.61C314.603 267.524 318.598 267.051 322.335 265.677C324.182 264.989 325.943 264.087 327.747 263.314C332.3 261.381 337.197 260.35 342.051 259.577" stroke="#1C2628" stroke-width="2.13" stroke-linecap="round" stroke-linejoin="round"/>
<path d="M339.774 256.27C332.944 259.491 325.427 261.252 317.867 261.424" stroke="#1C2628" stroke-width="2.13" stroke-linecap="round" stroke-linejoin="round"/>
<path d="M105.712 340.032C105.326 339.989 104.982 340.247 104.681 340.547C103.522 341.664 104.552 342.91 103.65 344.284" stroke="white" stroke-width="2.13" stroke-linecap="round" stroke-linejoin="round"/>
<path d="M118.857 272.292C121.219 276.974 115.549 279.207 127.319 285.522" stroke="#1C2628" stroke-width="2.13" stroke-linecap="round" stroke-linejoin="round"/>
</svg>
