<svg width="311" height="306" viewBox="0 0 311 306" fill="none" xmlns="http://www.w3.org/2000/svg">
<path d="M226.67 161.365C227.313 171.715 214.535 180.745 206.147 191.453C197.581 202.089 193.441 214.225 185.125 218.865C176.773 223.719 164.495 220.935 150.289 222.755C136.12 224.575 120.13 231.143 108.494 225.967C96.9298 220.935 89.6129 204.231 88.0782 188.812C86.6505 173.536 91.0049 159.58 87.5071 142.626C83.8308 125.601 72.338 105.685 75.229 94.5493C78.0487 83.2707 95.395 81.0221 109.85 71.8135C124.484 62.6764 125.198 50.434 138.547 49.8987C148.897 49.3276 148.005 61.4272 163.995 69.0296C177.201 75.3114 183.411 91.7297 177.808 104.9C174.596 112.431 172.24 119.712 175.488 125.887C183.411 140.592 226.135 150.978 226.67 161.365Z" fill="#F5F5F5"/>
<path fill-rule="evenodd" clip-rule="evenodd" d="M106.102 75.2043C108.779 74.0265 108.065 69.2081 104.46 66.5312C100.855 63.8543 95.0374 66.2813 93.5741 66.2099C85.2221 65.7816 82.3311 73.5625 85.0794 82.1286C85.8646 84.627 92.6104 90.8731 95.323 89.2313C98.1069 87.5537 92.6818 79.5944 95.0374 77.7741" fill="#1C2628"/>
<path d="M106.102 75.2043C108.779 74.0265 108.065 69.2081 104.46 66.5312C100.855 63.8543 95.0374 66.2813 93.5741 66.2099C85.2221 65.7816 82.3311 73.5625 85.0794 82.1286C85.8646 84.627 92.6104 90.8731 95.323 89.2313C98.1069 87.5537 92.6818 79.5944 95.0374 77.7741" stroke="#1C2628" stroke-width="2.13" stroke-linecap="round" stroke-linejoin="round"/>
<path fill-rule="evenodd" clip-rule="evenodd" d="M90.7194 82.5925C90.7194 82.5925 90.2555 91.7297 89.2918 93.657C86.4721 99.2964 73.3018 111.218 73.3018 111.218C73.3018 111.218 88.9349 110.397 93.9674 109.826C99 109.254 107.495 101.866 107.495 101.866L103.319 86.019L90.7194 82.5925Z" fill="#8A3EB7" stroke="#1C2628" stroke-width="2.13" stroke-linecap="round" stroke-linejoin="round"/>
<path fill-rule="evenodd" clip-rule="evenodd" d="M88.5771 82.1999C87.8276 76.5963 91.4325 71.4923 96.6435 70.8142C99.2133 70.4573 101.783 68.6013 103.746 70.2074C105.709 71.8136 107.03 76.9175 107.387 79.7015C108.136 85.3051 104.531 90.4091 99.3204 91.0872C96.5007 91.4442 93.7167 91.6583 91.718 89.7666C90.0048 88.1605 88.8983 84.7698 88.5771 82.1999Z" fill="#8A3EB7" stroke="#1C2628" stroke-width="2.13" stroke-linecap="round" stroke-linejoin="round"/>
<path fill-rule="evenodd" clip-rule="evenodd" d="M104.817 78.1309C106.031 79.6299 109.315 82.3782 108.744 83.3419C108.03 84.6268 105.246 83.1634 104.96 82.8779" fill="#8A3EB7"/>
<path d="M104.817 78.1309C106.031 79.6299 109.315 82.3782 108.744 83.3419C108.03 84.6268 105.246 83.1634 104.96 82.8779" stroke="#1C2628" stroke-width="2.13" stroke-linecap="round" stroke-linejoin="round"/>
<path fill-rule="evenodd" clip-rule="evenodd" d="M96.9296 77.56C97.0367 76.7748 98.0718 76.2751 99.2139 76.4179C100.356 76.5963 101.213 77.3459 101.106 78.1311C100.999 78.9163 99.9634 79.416 98.8213 79.2732C97.6435 79.1305 96.7868 78.3452 96.9296 77.56Z" fill="#FAFCFF" stroke="#1C2628" stroke-width="2.13" stroke-linecap="round" stroke-linejoin="round"/>
<path fill-rule="evenodd" clip-rule="evenodd" d="M104.71 77.7383C104.818 76.9888 105.603 76.5248 106.531 76.6676C107.423 76.8104 108.101 77.5242 107.994 78.2737C107.887 79.0233 107.102 79.4873 106.174 79.3445C105.282 79.2017 104.639 78.4522 104.71 77.7383Z" fill="#FAFCFF" stroke="#1C2628" stroke-width="2.13" stroke-linecap="round" stroke-linejoin="round"/>
<path fill-rule="evenodd" clip-rule="evenodd" d="M105.282 69.5292C106.067 70.1003 105.746 67.9945 106.067 68.9938C107.138 72.1704 104.925 71.7778 102.462 71.7778C100.142 71.7778 97.4653 72.7415 97.4653 72.7415C97.4653 72.7415 94.0389 72.456 93.5392 76.739C93.3607 78.2737 94.9669 81.6645 98.6788 83.5562C101.677 85.0909 107.281 84.27 107.281 84.27C107.281 84.27 107.352 94.121 103.497 95.4059C101.034 96.2268 97.1084 97.7259 93.7176 93.4071C92.9681 92.4435 88.4709 85.0552 88.0426 83.1992C87.5786 81.1291 91.0407 84.0559 90.8266 82.4497C90.3626 78.9519 90.5054 78.3808 89.8629 78.131C87.4715 77.2744 86.4365 74.2405 87.9355 72.3846C89.1848 70.8855 90.9337 69.9932 92.754 69.4578C94.6456 68.9224 96.7871 69.1366 98.5717 68.4941" fill="#1C2628"/>
<path d="M105.282 69.5292C106.067 70.1003 105.746 67.9945 106.067 68.9938C107.138 72.1704 104.925 71.7778 102.462 71.7778C100.142 71.7778 97.4653 72.7415 97.4653 72.7415C97.4653 72.7415 94.0389 72.456 93.5392 76.739C93.3607 78.2737 94.9669 81.6645 98.6788 83.5562C101.677 85.0909 107.281 84.27 107.281 84.27C107.281 84.27 107.352 94.121 103.497 95.4059C101.034 96.2268 97.1084 97.7259 93.7176 93.4071C92.9681 92.4435 88.4709 85.0552 88.0426 83.1992C87.5786 81.1291 91.0407 84.0558 90.8266 82.4497C90.3626 78.9519 90.5054 78.3808 89.8629 78.131C87.4715 77.2744 86.4365 74.2405 87.9355 72.3846C89.1848 70.8855 90.9337 69.9932 92.754 69.4578C94.6456 68.9224 96.7871 69.1366 98.5717 68.4941" stroke="#1C2628" stroke-width="2.13" stroke-linecap="round" stroke-linejoin="round"/>
<path fill-rule="evenodd" clip-rule="evenodd" d="M100.034 68.4584C98.107 60.6775 92.0751 62.2123 91.6824 66.2812C88.9342 62.8191 81.3675 65.9243 84.544 72.563C83.2948 72.0276 81.2247 78.0595 87.8634 76.9174" fill="#1C2628"/>
<path d="M100.034 68.4584C98.107 60.6775 92.0751 62.2123 91.6824 66.2812C88.9342 62.8191 81.3675 65.9243 84.544 72.563C83.2948 72.0276 81.2247 78.0595 87.8634 76.9174" stroke="#1C2628" stroke-width="2.13" stroke-linecap="round" stroke-linejoin="round"/>
<path fill-rule="evenodd" clip-rule="evenodd" d="M90.5764 78.3096C90.862 78.3452 89.5414 77.0246 87.9709 78.8806C86.8645 80.1655 88.0423 83.8418 90.5764 82.5569" fill="#8A3EB7"/>
<path d="M90.5764 78.3096C90.862 78.3452 89.5414 77.0246 87.9709 78.8806C86.8645 80.1655 88.0423 83.8418 90.5764 82.5569" stroke="#1C2628" stroke-width="2.13" stroke-linecap="round" stroke-linejoin="round"/>
<path d="M89.2559 80.0227L89.3272 80.2369L89.47 80.5938L89.7912 80.915" stroke="#1C2628" stroke-width="2.13" stroke-linecap="round" stroke-linejoin="round"/>
<path fill-rule="evenodd" clip-rule="evenodd" d="M100.749 78.0952C100.784 77.5598 100.356 77.0958 99.8208 77.0958C99.2854 77.0601 98.8214 77.4884 98.8214 78.0238C98.7857 78.5592 99.214 79.0232 99.7494 79.0232C100.285 79.0589 100.749 78.6306 100.749 78.0952Z" fill="#1C2628" stroke="#1C2628" stroke-width="2.13" stroke-linecap="round" stroke-linejoin="round"/>
<path fill-rule="evenodd" clip-rule="evenodd" d="M107.744 78.2025C107.78 77.7028 107.458 77.2745 107.03 77.2745C106.602 77.2388 106.245 77.6314 106.245 78.1311C106.209 78.6308 106.53 79.0591 106.959 79.0591C107.351 79.0948 107.708 78.7022 107.744 78.2025Z" fill="#1C2628" stroke="#1C2628" stroke-width="2.13" stroke-linecap="round" stroke-linejoin="round"/>
<path d="M105.067 72.7772C106.102 72.4916 106.531 71.171 106.888 70.3501" stroke="#FAF6EB" stroke-width="2.13" stroke-linecap="round" stroke-linejoin="round"/>
<path fill-rule="evenodd" clip-rule="evenodd" d="M107.03 68.9581C107.03 68.9581 101.141 68.9581 99.7487 69.0652C96.7149 69.3507 94.7519 70.4214 92.3605 72.206C90.0405 73.955 88.0775 76.2749 86.1858 78.4878C85.9716 78.7377 84.9366 80.8435 85.2935 80.6651C85.6861 80.4866 84.2584 81.4503 83.616 81.6287C82.2597 81.95 80.4037 81.4503 79.4757 80.3795C76.1563 76.4891 76.656 73.9193 78.3692 69.6362C79.6898 66.3169 81.8671 64.4966 84.08 63.5329C88.0418 61.8197 92.1463 62.8191 92.1463 62.8191C92.1463 62.8191 99.3561 62.1052 101.926 63.0332C103.532 63.64 104.674 64.6393 105.459 65.6744C106.673 67.2806 107.03 68.9581 107.03 68.9581Z" fill="#FAF6EB" stroke="#1C2628" stroke-width="2.13" stroke-linecap="round" stroke-linejoin="round"/>
<path fill-rule="evenodd" clip-rule="evenodd" d="M99.642 85.0908C98.6069 83.7345 100.284 81.7715 100.284 81.7715L101.355 84.1985L103.747 85.0908C103.782 85.1265 101.569 87.5893 99.642 85.0908Z" fill="#8A3EB7"/>
<path fill-rule="evenodd" clip-rule="evenodd" d="M64.1288 119.07C64.1288 119.07 30.2214 99.0466 36.3605 90.5876C42.5352 82.1286 71.0174 65.4247 71.0174 65.4247L68.4832 54.6458L78.2272 46.1868C78.2272 46.1868 79.4764 46.9006 78.5841 49.3634C77.6918 51.8261 74.194 54.4673 74.194 54.4673C74.194 54.4673 82.6887 65.4961 79.1908 69.6364C72.2309 77.9883 54.492 91.694 54.492 91.694L74.7293 102.723L64.1288 119.07Z" fill="#8A3EB7" stroke="#1C2628" stroke-width="2.13" stroke-linecap="round" stroke-linejoin="round"/>
<path fill-rule="evenodd" clip-rule="evenodd" d="M97.7147 180.139L87.4711 199.769L73.8725 225.824C73.8725 225.824 57.7397 259.732 53.3496 268.798C51.7434 272.117 49.1736 274.687 46.6038 276.578C42.1423 279.862 37.5737 281.218 37.5737 281.218C37.5737 281.218 26.4378 287.857 18.6569 289.428C10.8761 290.998 6.37891 287.464 6.37891 287.464L28.2581 267.406L47.5318 219.757L62.8436 183.315L97.7147 180.139Z" fill="#8A3EB7" stroke="#1C2628" stroke-width="2.13" stroke-linecap="round" stroke-linejoin="round"/>
<path fill-rule="evenodd" clip-rule="evenodd" d="M87.4354 199.769L73.8368 225.824C73.8368 225.824 57.704 259.732 53.3139 268.798C51.7077 272.117 49.1379 274.687 46.5681 276.579C44.4979 276.186 42.9275 275.401 42.178 274.151C39.2512 269.119 49.0665 254.913 54.6345 248.346C57.0615 245.491 59.2744 243.385 60.131 239.459C61.523 233.177 57.8111 229.287 60.131 226.36C62.5224 223.326 67.8405 225.789 70.0891 222.541C71.374 220.649 70.3746 218.65 70.0891 215.545C69.4109 207.871 73.7654 198.556 78.9764 197.164C81.6176 196.45 84.7228 197.699 87.4354 199.769Z" fill="#1C2628" stroke="#1C2628" stroke-width="2.13" stroke-linecap="round" stroke-linejoin="round"/>
<path fill-rule="evenodd" clip-rule="evenodd" d="M145.827 215.402C145.363 226.11 112.777 274.044 112.777 274.044L114.883 275.329L135.049 287.536L86.0791 284.752L115.239 217.722L105.103 186.456L128.553 171.715C128.553 171.715 135.334 184.35 140.402 196.521C143.508 203.981 146.006 211.298 145.827 215.402Z" fill="#8A3EB7" stroke="#1C2628" stroke-width="2.13" stroke-linecap="round" stroke-linejoin="round"/>
<path fill-rule="evenodd" clip-rule="evenodd" d="M145.828 215.402C145.364 226.11 112.777 274.044 112.777 274.044L114.883 275.329C111.635 274.794 109.279 273.652 108.565 272.081C107.137 268.833 113.526 265.764 116.81 254.307C119.201 245.955 116.881 243.813 119.987 239.709C124.341 233.927 130.694 235.782 134.263 229.572C136.048 226.431 134.37 226.039 136.548 220.364C139.082 213.761 142.473 211.333 141.295 208.621C140.509 206.801 138.618 207.122 136.548 205.123C133.728 202.41 133.371 198.056 133.657 194.451C135.905 195.129 138.118 195.807 140.367 196.486C143.508 203.981 146.006 211.298 145.828 215.402Z" fill="#1C2628" stroke="#1C2628" stroke-width="2.13" stroke-linecap="round" stroke-linejoin="round"/>
<path d="M130.73 200.376L125.198 201.411L125.162 201.447L110.528 204.195L107.709 198.449V198.413L104.425 191.667L104.354 191.489L101.962 186.635L99.3926 181.316L110.528 204.195L144.793 197.699L130.766 200.376H130.73Z" fill="#8A3EB7"/>
<path d="M92.468 193.987L85.5794 206.586L75.7998 203.981L71.374 202.803L85.5794 206.586L93.1461 192.774L92.468 193.987Z" fill="#8A3EB7"/>
<path d="M122.735 149.586L70.5531 151.906L59.9883 180.246L63.843 169.931L63.9144 169.752L70.5531 151.906L122.735 149.586L127.839 160.722L131.979 169.788L132.05 169.931L133.371 172.822L133.407 172.858L139.51 186.171L141.723 191.025L141.759 191.061L144.792 197.699L122.735 149.586Z" fill="#8A3EB7"/>
<path d="M53.8135 198.127L67.5549 201.804L53.8135 198.127Z" fill="#F2B84A" stroke="#1C2628" stroke-width="2.13" stroke-linecap="round" stroke-linejoin="round"/>
<path d="M59.9882 180.246L59.3457 181.923L59.9882 180.246Z" fill="#F2B84A" stroke="#1C2628" stroke-width="2.13" stroke-linecap="round" stroke-linejoin="round"/>
<path d="M53.4209 198.021L53.8135 198.128L53.4209 198.021Z" fill="#F2B84A" stroke="#1C2628" stroke-width="2.13" stroke-linecap="round" stroke-linejoin="round"/>
<path d="M59.3458 181.923L59.2744 182.102L59.3458 181.923Z" fill="#F2B84A" stroke="#1C2628" stroke-width="2.13" stroke-linecap="round" stroke-linejoin="round"/>
<path d="M53.3496 198.02L59.2745 182.102L53.3496 198.02H53.421H53.3496Z" fill="#F2B84A"/>
<path d="M53.3496 198.02L59.2745 182.102L53.3496 198.02ZM53.3496 198.02H53.421H53.3496Z" stroke="#1C2628" stroke-width="2.13" stroke-linecap="round" stroke-linejoin="round"/>
<path d="M67.5547 201.804L71.3737 202.803" stroke="#1C2628" stroke-width="2.13" stroke-linecap="round" stroke-linejoin="round"/>
<path d="M93.1465 192.774L99.3926 181.316L93.1465 192.774Z" fill="#F2B84A" stroke="#1C2628" stroke-width="2.13" stroke-linecap="round" stroke-linejoin="round"/>
<path d="M118.773 158.117C117.095 157.296 114.168 157.189 109.493 158.152C111.063 157.867 116.096 156.868 118.773 158.117Z" fill="#F2B84A"/>
<path d="M109.493 158.152C114.168 157.189 117.095 157.296 118.773 158.117C116.096 156.868 111.063 157.867 109.493 158.152ZM109.493 158.152H109.457" stroke="#1C2628" stroke-width="2.13" stroke-linecap="round" stroke-linejoin="round"/>
<path d="M105.139 151.621C105.71 152.37 105.853 153.191 105.674 154.084C105.96 153.156 105.888 152.228 105.139 151.621Z" fill="#F2B84A" stroke="#1C2628" stroke-width="2.13" stroke-linecap="round" stroke-linejoin="round"/>
<path d="M97.7142 151.335C97.0004 151.478 96.3222 151.656 95.6084 151.835C98.785 151.192 101.997 151.085 105.138 151.656C103.818 150.55 98.4638 151.157 97.7142 151.335Z" fill="#F2B84A" stroke="#1C2628" stroke-width="2.13" stroke-linecap="round" stroke-linejoin="round"/>
<path d="M130.766 200.376C131.836 199.698 132.979 198.877 134.192 197.949C133.086 198.806 131.943 199.626 130.766 200.376Z" fill="#F2B84A" stroke="#1C2628" stroke-width="2.13" stroke-linecap="round" stroke-linejoin="round"/>
<path d="M95.6089 151.835C88.3991 153.263 81.2607 157.224 74.6934 161.793C81.225 157.403 88.2206 153.727 95.6089 151.835Z" fill="#F2B84A" stroke="#1C2628" stroke-width="2.13" stroke-linecap="round" stroke-linejoin="round"/>
<path d="M67.2695 176.034C74.515 171.323 82.6171 167.004 90.969 163.685C82.6528 166.933 74.5864 171.073 67.2695 176.034Z" fill="#F2B84A" stroke="#1C2628" stroke-width="2.13" stroke-linecap="round" stroke-linejoin="round"/>
<path d="M103.604 157.831C103.212 158.331 102.819 158.795 102.391 159.259C103.925 157.653 105.424 155.797 105.71 154.083C105.282 155.69 103.925 157.403 103.604 157.831Z" fill="#F2B84A" stroke="#1C2628" stroke-width="2.13" stroke-linecap="round" stroke-linejoin="round"/>
<path d="M102.391 159.259C102.141 159.544 101.855 159.794 101.605 160.044H101.641C101.891 159.794 102.141 159.509 102.391 159.259Z" fill="#F2B84A" stroke="#1C2628" stroke-width="2.13" stroke-linecap="round" stroke-linejoin="round"/>
<path d="M101.498 160.151C101.533 160.116 101.569 160.08 101.605 160.044H101.569C101.533 160.08 101.498 160.116 101.462 160.151C101.462 160.187 101.498 160.151 101.498 160.151Z" fill="#F2B84A" stroke="#1C2628" stroke-width="2.13" stroke-linecap="round" stroke-linejoin="round"/>
<path d="M101.569 160.044C98.0358 161.044 94.4666 162.293 90.9688 163.685C94.4309 162.328 97.9287 161.186 101.426 160.151C101.498 160.151 101.534 160.08 101.569 160.044Z" fill="#F2B84A" stroke="#1C2628" stroke-width="2.13" stroke-linecap="round" stroke-linejoin="round"/>
<path d="M98.9639 162.471C99.8205 161.722 100.713 160.936 101.498 160.151H101.462C100.463 161.115 99.5349 161.936 98.9639 162.471Z" fill="#F2B84A" stroke="#1C2628" stroke-width="2.13" stroke-linecap="round" stroke-linejoin="round"/>
<path d="M109.457 158.152C106.852 158.652 104.246 159.294 101.605 160.044C101.569 160.08 101.534 160.115 101.498 160.151C104.139 159.402 106.816 158.723 109.457 158.152Z" fill="#F2B84A" stroke="#1C2628" stroke-width="2.13" stroke-linecap="round" stroke-linejoin="round"/>
<path d="M98.9285 162.507C93.2891 167.075 87.7926 171.858 82.2246 176.569C87.8996 171.93 93.4676 167.218 98.9285 162.507Z" fill="#F2B84A" stroke="#1C2628" stroke-width="2.13" stroke-linecap="round" stroke-linejoin="round"/>
<path d="M82.2248 176.57C74.9437 182.53 67.5197 188.384 60.0244 193.88C67.8053 188.669 75.0507 182.673 82.2248 176.57Z" fill="#F2B84A" stroke="#1C2628" stroke-width="2.13" stroke-linecap="round" stroke-linejoin="round"/>
<path d="M118.416 165.041C117.345 165.541 116.274 166.076 115.168 166.611C116.239 166.076 117.309 165.576 118.416 165.041Z" fill="#F2B84A" stroke="#1C2628" stroke-width="2.13" stroke-linecap="round" stroke-linejoin="round"/>
<path d="M91.8965 179.96C90.8971 180.638 89.9334 181.316 88.9697 182.03C89.9334 181.352 90.9328 180.638 91.8965 179.96Z" fill="#F2B84A" stroke="#1C2628" stroke-width="2.13" stroke-linecap="round" stroke-linejoin="round"/>
<path d="M82.2244 176.57C87.7924 171.823 93.2889 167.04 98.9283 162.507C99.4993 161.936 100.427 161.151 101.427 160.187C97.9289 161.186 94.4311 162.364 90.969 163.721C82.617 167.04 74.515 171.359 67.2695 176.07C64.4855 177.962 61.8086 179.996 59.2745 182.138L53.3496 198.021L53.421 198.056C55.6696 196.736 57.8468 195.344 60.024 193.916C67.4836 188.384 74.9433 182.566 82.2244 176.57Z" fill="#F2B84A" stroke="#1C2628" stroke-width="2.13" stroke-linecap="round" stroke-linejoin="round"/>
<path d="M117.238 169.003C116.06 170.823 114.846 172.608 113.562 174.321C115.453 171.894 117.416 169.145 118.773 166.611C118.166 167.682 117.559 168.539 117.238 169.003Z" fill="#F2B84A" stroke="#1C2628" stroke-width="2.13" stroke-linecap="round" stroke-linejoin="round"/>
<path d="M97.8927 176.07C95.8583 177.319 93.8595 178.64 91.8965 179.996C93.8595 178.604 95.8583 177.319 97.8927 176.07Z" fill="#F2B84A" stroke="#1C2628" stroke-width="2.13" stroke-linecap="round" stroke-linejoin="round"/>
<path d="M100.963 174.214C99.928 174.821 98.9286 175.427 97.8936 176.07" stroke="#1C2628" stroke-width="2.13" stroke-linecap="round" stroke-linejoin="round"/>
<path d="M113.562 167.397C112.491 167.932 111.42 168.467 110.35 169.003" stroke="#1C2628" stroke-width="2.13" stroke-linecap="round" stroke-linejoin="round"/>
<path d="M104.068 172.429C103.033 173 101.998 173.607 100.963 174.214" stroke="#1C2628" stroke-width="2.13" stroke-linecap="round" stroke-linejoin="round"/>
<path d="M81.8675 187.634C80.654 188.669 79.5118 189.704 78.334 190.775C79.4761 189.704 80.654 188.669 81.8675 187.634Z" fill="#F2B84A" stroke="#1C2628" stroke-width="2.13" stroke-linecap="round" stroke-linejoin="round"/>
<path d="M71.3029 197.628C71.2672 197.664 71.1958 197.735 71.1602 197.771C71.1958 197.699 71.2315 197.664 71.3029 197.628Z" fill="#F2B84A" stroke="#1C2628" stroke-width="2.13" stroke-linecap="round" stroke-linejoin="round"/>
<path d="M76.9775 192.024C76.8704 192.131 76.7633 192.238 76.6562 192.345C76.7633 192.203 76.8704 192.096 76.9775 192.024Z" fill="#F2B84A" stroke="#1C2628" stroke-width="2.13" stroke-linecap="round" stroke-linejoin="round"/>
<path d="M71.1594 197.771C69.9816 199.02 68.8394 200.305 67.6973 201.625" stroke="#1C2628" stroke-width="2.13" stroke-linecap="round" stroke-linejoin="round"/>
<path d="M67.5547 201.804C67.5904 201.732 67.6618 201.697 67.6975 201.625C67.6618 201.661 67.5904 201.732 67.5547 201.804Z" fill="#F2B84A" stroke="#1C2628" stroke-width="2.13" stroke-linecap="round" stroke-linejoin="round"/>
<path d="M86.1146 184.208C85.1509 184.957 84.2229 185.707 83.2949 186.456C84.2229 185.671 85.1509 184.921 86.1146 184.208Z" fill="#F2B84A" stroke="#1C2628" stroke-width="2.13" stroke-linecap="round" stroke-linejoin="round"/>
<path d="M78.3338 190.775C77.8698 191.168 77.4415 191.596 76.9775 192.024C77.4058 191.596 77.8698 191.168 78.3338 190.775Z" fill="#F2B84A" stroke="#1C2628" stroke-width="2.13" stroke-linecap="round" stroke-linejoin="round"/>
<path d="M88.9702 182.03C88.0065 182.744 87.0428 183.458 86.0791 184.207" stroke="#1C2628" stroke-width="2.13" stroke-linecap="round" stroke-linejoin="round"/>
<path d="M63.8787 178.318C62.3082 179.425 60.7735 180.638 59.3458 181.923L59.2744 182.137C61.8085 179.996 64.4854 177.961 67.2694 176.07C66.1273 176.784 64.9851 177.533 63.8787 178.318Z" fill="#F2B84A" stroke="#1C2628" stroke-width="2.13" stroke-linecap="round" stroke-linejoin="round"/>
<path d="M95.6091 151.835C96.3229 151.657 97.0011 151.478 97.7149 151.335C98.4644 151.193 103.818 150.55 105.139 151.657C105.888 152.263 105.924 153.156 105.674 154.119C105.353 155.832 103.89 157.688 102.355 159.295C102.105 159.544 101.855 159.83 101.605 160.08C104.211 159.33 106.852 158.688 109.458 158.188H109.493C114.169 157.224 117.096 157.332 118.773 158.152C119.13 158.331 119.487 158.545 119.737 158.795C121.2 160.258 120.879 162.364 120.022 164.327C122.628 163.114 125.233 161.936 127.839 160.758L122.735 149.622L70.5533 151.942L63.8789 169.788C67.3053 167.04 70.9102 164.327 74.6579 161.829C81.2609 157.224 88.3993 153.227 95.6091 151.835Z" fill="#F2B84A" stroke="#1C2628" stroke-width="2.13" stroke-linecap="round" stroke-linejoin="round"/>
<path d="M118.809 166.647C117.453 169.181 115.49 171.894 113.598 174.357C112.491 175.82 111.349 177.283 110.136 178.64C107.637 181.459 104.925 184.136 101.998 186.635L104.354 191.489C105.924 189.954 107.53 188.455 109.208 186.991C110.207 186.099 111.242 185.207 112.277 184.315C118.381 178.818 124.984 173.5 132.051 169.752L127.839 160.722C125.234 161.9 122.628 163.078 120.022 164.291C119.666 165.112 119.237 165.933 118.809 166.647Z" fill="#F2B84A" stroke="#1C2628" stroke-width="2.13" stroke-linecap="round" stroke-linejoin="round"/>
<path d="M132.051 169.931L131.979 169.788C124.948 173.5 118.309 178.818 112.206 184.35C118.309 179.068 124.877 173.821 132.051 169.931Z" fill="#F2B84A" stroke="#1C2628" stroke-width="2.13" stroke-linecap="round" stroke-linejoin="round"/>
<path d="M132.122 192.881C134.549 190.597 136.976 188.312 139.475 186.135C136.976 188.312 134.549 190.632 132.122 192.881Z" fill="#F2B84A" stroke="#1C2628" stroke-width="2.13" stroke-linecap="round" stroke-linejoin="round"/>
<path d="M133.406 172.857L133.371 172.822C132.871 173.429 132.407 174.035 131.907 174.642C132.407 174.035 132.907 173.429 133.406 172.857Z" fill="#F2B84A" stroke="#1C2628" stroke-width="2.13" stroke-linecap="round" stroke-linejoin="round"/>
<path d="M104.425 191.667L107.708 198.413C110.385 196.521 112.955 194.451 115.418 192.274C120.95 187.277 125.947 181.638 130.908 175.82C131.265 175.427 131.586 174.999 131.943 174.606C132.443 174 132.907 173.393 133.407 172.786L132.086 169.895C124.912 173.785 118.345 179.068 112.277 184.315C109.529 186.777 106.923 189.276 104.425 191.667Z" fill="#F2B84A" stroke="#1C2628" stroke-width="2.13" stroke-linecap="round" stroke-linejoin="round"/>
<path d="M115.418 192.274C112.991 194.451 110.421 196.521 107.744 198.449L110.528 204.195L125.162 201.411C124.948 201.161 124.876 200.876 125.019 200.626C125.09 200.483 125.198 200.34 125.269 200.198C125.804 198.877 127.517 197.128 129.124 195.665C130.123 194.737 131.158 193.809 132.122 192.881C134.549 190.596 136.976 188.312 139.474 186.135L133.371 172.822C132.871 173.393 132.372 174 131.908 174.571C126.804 180.888 121.414 186.956 115.418 192.274Z" fill="#F2B84A" stroke="#1C2628" stroke-width="2.13" stroke-linecap="round" stroke-linejoin="round"/>
<path d="M63.879 178.318C64.9855 177.569 66.1276 176.784 67.2698 176.07C74.5866 171.073 82.653 166.933 90.9692 163.72C94.4671 162.328 98.0363 161.079 101.57 160.08C101.82 159.83 102.105 159.544 102.355 159.295C102.783 158.831 103.176 158.367 103.569 157.867C103.89 157.439 105.246 155.725 105.674 154.119C105.817 153.263 105.71 152.406 105.139 151.656C101.998 151.085 98.7858 151.228 95.6092 151.835C88.221 153.762 81.2253 157.439 74.6937 161.793C70.839 164.434 67.1984 167.29 63.8433 169.931L59.9886 180.281L59.3818 181.923C60.8095 180.638 62.3086 179.425 63.879 178.318Z" fill="#F2B84A" stroke="#1C2628" stroke-width="2.13" stroke-linecap="round" stroke-linejoin="round"/>
<path d="M63.9142 169.752L63.8428 169.931C67.1978 167.29 70.8384 164.434 74.6931 161.793C70.9455 164.256 67.3406 167.004 63.9142 169.752Z" fill="#F2B84A" stroke="#1C2628" stroke-width="2.13" stroke-linecap="round" stroke-linejoin="round"/>
<path d="M101.962 186.635C104.853 184.1 107.601 181.459 110.1 178.64C111.099 177.426 112.313 175.927 113.562 174.356C114.847 172.643 116.06 170.859 117.238 169.038C117.559 168.574 118.166 167.718 118.808 166.683C119.237 165.897 119.594 165.148 119.879 164.398C119.38 164.613 118.88 164.862 118.416 165.077C117.345 165.576 116.274 166.112 115.168 166.647C114.633 166.897 114.097 167.182 113.562 167.432C112.491 167.968 111.42 168.503 110.349 169.038C108.244 170.145 106.138 171.251 104.032 172.429C102.997 173 101.962 173.607 100.927 174.214C99.8917 174.82 98.8924 175.427 97.8573 176.07C95.8228 177.319 93.8241 178.64 91.861 179.996C90.8617 180.674 89.898 181.352 88.9343 182.066C87.9706 182.78 87.0069 183.494 86.0432 184.243C85.0795 184.993 84.1516 185.742 83.2236 186.492C82.7596 186.884 82.2956 187.277 81.8316 187.67L81.7959 187.705C80.6181 188.74 79.4402 189.775 78.2624 190.846C77.7984 191.239 77.3701 191.667 76.9061 192.095C76.799 192.202 76.6919 192.31 76.5849 192.417C75.1572 193.773 73.7652 195.129 72.3732 196.557C71.9806 196.95 71.6237 197.342 71.2311 197.735C71.1954 197.77 71.124 197.842 71.0883 197.878C69.9105 199.127 68.7683 200.412 67.6262 201.732C67.5905 201.804 67.5191 201.839 67.4834 201.911L71.2668 202.91L75.7282 204.088C76.1922 203.838 76.6562 203.588 77.1559 203.338C78.0839 202.839 79.0119 202.339 79.9399 201.804C80.8679 201.268 81.7959 200.769 82.7239 200.233C83.6519 199.698 84.5442 199.162 85.4722 198.591C86.8285 197.77 88.1848 196.914 89.5411 196.022C90.5047 195.379 91.4684 194.737 92.4321 194.058L93.0746 192.845L99.3563 181.388L101.962 186.635Z" fill="#F2B84A" stroke="#1C2628" stroke-width="2.13" stroke-linecap="round" stroke-linejoin="round"/>
<path d="M77.2275 203.231C76.7635 203.481 76.2995 203.731 75.7998 203.981" stroke="#1C2628" stroke-width="2.13" stroke-linecap="round" stroke-linejoin="round"/>
<path d="M134.299 197.842C134.263 197.878 134.227 197.913 134.156 197.949C132.942 198.877 131.8 199.698 130.729 200.376L144.756 197.699L141.723 191.061C139.367 193.595 136.833 195.95 134.299 197.842Z" fill="#F2B84A" stroke="#1C2628" stroke-width="2.13" stroke-linecap="round" stroke-linejoin="round"/>
<path d="M85.579 206.587L92.4675 193.987C91.5038 194.665 90.5401 195.308 89.5765 195.95C88.2202 196.843 86.8639 197.699 85.5076 198.52C84.5796 199.091 83.6873 199.627 82.7593 200.162C81.8313 200.697 80.9033 201.233 79.9753 201.732C79.0473 202.232 78.1193 202.768 77.1914 203.267C76.7274 203.517 76.2634 203.767 75.7637 204.017L85.579 206.587Z" fill="#F2B84A" stroke="#1C2628" stroke-width="2.13" stroke-linecap="round" stroke-linejoin="round"/>
<path d="M85.5439 198.484C86.9002 197.663 88.2565 196.807 89.6128 195.915" stroke="#1C2628" stroke-width="2.13" stroke-linecap="round" stroke-linejoin="round"/>
<path d="M92.4682 193.987C91.5045 194.665 90.5408 195.308 89.5771 195.95C90.5765 195.308 91.5402 194.63 92.4682 193.987Z" fill="#F2B84A" stroke="#1C2628" stroke-width="2.13" stroke-linecap="round" stroke-linejoin="round"/>
<path d="M80.0117 201.732C80.9397 201.233 81.8677 200.697 82.7957 200.162C81.8677 200.662 80.9397 201.197 80.0117 201.732Z" fill="#F2B84A" stroke="#1C2628" stroke-width="2.13" stroke-linecap="round" stroke-linejoin="round"/>
<path d="M109.171 186.992C107.53 188.455 105.924 189.954 104.317 191.489L104.389 191.667C106.887 189.276 109.493 186.777 112.205 184.35C111.206 185.207 110.171 186.099 109.171 186.992Z" fill="#F2B84A" stroke="#1C2628" stroke-width="2.13" stroke-linecap="round" stroke-linejoin="round"/>
<path d="M110.1 178.604C111.313 177.212 112.455 175.784 113.562 174.321C112.348 175.927 111.135 177.39 110.1 178.604C107.601 181.424 104.889 184.1 101.962 186.599C104.889 184.1 107.601 181.459 110.1 178.604Z" fill="#F2B84A"/>
<path d="M110.1 178.604C111.313 177.212 112.455 175.784 113.562 174.321C112.348 175.927 111.135 177.39 110.1 178.604ZM110.1 178.604C107.601 181.424 104.889 184.1 101.962 186.599C104.889 184.1 107.601 181.459 110.1 178.604Z" stroke="#1C2628" stroke-width="2.13" stroke-linecap="round" stroke-linejoin="round"/>
<path d="M119.737 158.759C119.487 158.509 119.13 158.295 118.773 158.117C120.986 159.187 120.986 161.543 119.88 164.363C119.916 164.327 119.987 164.327 120.023 164.291C120.844 162.328 121.165 160.223 119.737 158.759Z" fill="#F2B84A" stroke="#1C2628" stroke-width="2.13" stroke-linecap="round" stroke-linejoin="round"/>
<path d="M119.879 164.363C119.594 165.077 119.237 165.862 118.809 166.647C119.237 165.933 119.665 165.112 120.022 164.292C119.986 164.327 119.915 164.327 119.879 164.363Z" fill="#F2B84A" stroke="#1C2628" stroke-width="2.13" stroke-linecap="round" stroke-linejoin="round"/>
<path d="M132.122 192.881C131.694 193.38 130.445 194.451 129.124 195.665C127.661 197.057 126.304 198.52 125.269 200.198C125.091 200.662 125.055 201.054 125.234 201.411L130.766 200.376C131.944 199.627 133.086 198.806 134.192 197.949C136.619 196.057 139.225 193.666 141.759 191.025L139.546 186.171C136.976 188.312 134.549 190.632 132.122 192.881Z" fill="#F2B84A" stroke="#1C2628" stroke-width="2.13" stroke-linecap="round" stroke-linejoin="round"/>
<path d="M71.3027 197.628C71.6597 197.235 72.0523 196.843 72.4449 196.45C72.3021 196.593 72.1236 196.771 71.9809 196.914C71.731 197.164 71.5169 197.378 71.3027 197.628Z" fill="#F2B84A" stroke="#1C2628" stroke-width="2.13" stroke-linecap="round" stroke-linejoin="round"/>
<path d="M72.4092 196.45C73.8012 195.058 75.1932 193.666 76.6208 192.31" stroke="#1C2628" stroke-width="2.13" stroke-linecap="round" stroke-linejoin="round"/>
<path d="M81.8672 187.634C82.3669 187.206 82.8309 186.813 83.2949 186.456C82.7952 186.849 82.3312 187.241 81.8672 187.634Z" fill="#F2B84A" stroke="#1C2628" stroke-width="2.13" stroke-linecap="round" stroke-linejoin="round"/>
<path d="M118.773 158.117C116.096 156.868 111.064 157.831 109.493 158.153H109.458C106.817 158.724 104.14 159.402 101.498 160.151C100.678 160.972 99.8209 161.722 98.9643 162.471C93.5034 167.183 87.8998 171.894 82.2604 176.534C75.0863 182.637 67.8409 188.598 60.06 193.845C59.8102 194.023 59.5603 194.237 59.2748 194.416C58.2397 195.165 56.0982 196.736 53.8496 198.092L67.591 201.732C67.6267 201.661 67.6981 201.625 67.7338 201.554C68.8402 200.233 69.9824 198.948 71.1959 197.699C71.2316 197.664 71.303 197.592 71.3387 197.556C71.5528 197.342 71.767 197.092 71.9811 196.878C72.1239 196.736 72.3024 196.557 72.4451 196.414C73.8014 195.022 75.2291 193.63 76.6568 192.274C76.7639 192.167 76.8709 192.06 76.978 191.953C77.4063 191.525 77.8703 191.132 78.3343 190.704C79.5121 189.633 80.6543 188.598 81.8678 187.563L81.9035 187.527C82.3675 187.134 82.8315 186.742 83.2955 186.349C84.2235 185.6 85.1872 184.814 86.1152 184.101C87.0432 183.387 88.0425 182.637 89.0062 181.923C89.9699 181.21 90.9336 180.531 91.933 179.853C93.896 178.497 95.8948 177.212 97.9292 175.927C98.9286 175.285 99.9637 174.678 100.999 174.071C102.034 173.464 103.069 172.858 104.104 172.287C106.174 171.109 108.28 170.002 110.421 168.896C111.492 168.36 112.563 167.789 113.634 167.29C114.169 167.04 114.704 166.754 115.24 166.504C116.311 165.969 117.381 165.469 118.488 164.934C118.987 164.684 119.451 164.47 119.951 164.256C120.986 161.543 120.986 159.188 118.773 158.117Z" fill="#F2B84A" stroke="#1C2628" stroke-width="2.13" stroke-linecap="round" stroke-linejoin="round"/>
<path d="M60.0239 193.88C57.8824 195.343 55.6695 196.7 53.4209 198.02L53.8135 198.127C56.0621 196.735 58.2036 195.201 59.2387 194.451C59.4885 194.237 59.7384 194.059 60.0239 193.88Z" fill="#F2B84A" stroke="#1C2628" stroke-width="2.13" stroke-linecap="round" stroke-linejoin="round"/>
<path d="M125.233 200.233C125.162 200.376 125.055 200.519 124.983 200.662C124.84 200.912 124.947 201.197 125.126 201.447H125.162C125.019 201.09 125.055 200.697 125.233 200.233Z" fill="#F2B84A" stroke="#1C2628" stroke-width="2.13" stroke-linecap="round" stroke-linejoin="round"/>
<path d="M134.191 197.949C134.227 197.913 134.263 197.878 134.334 197.842C136.833 195.915 139.402 193.595 141.794 191.061L141.758 191.025C139.224 193.666 136.583 196.057 134.191 197.949Z" fill="#F2B84A" stroke="#1C2628" stroke-width="2.13" stroke-linecap="round" stroke-linejoin="round"/>
<path d="M129.123 195.665C127.517 197.164 125.768 198.913 125.269 200.198C126.304 198.52 127.66 197.057 129.123 195.665Z" fill="#F2B84A" stroke="#1C2628" stroke-width="2.13" stroke-linecap="round" stroke-linejoin="round"/>
<path d="M107.708 198.413L107.744 198.449C110.456 196.557 112.99 194.487 115.417 192.274C112.955 194.451 110.385 196.521 107.708 198.413Z" fill="#F2B84A" stroke="#1C2628" stroke-width="2.13" stroke-linecap="round" stroke-linejoin="round"/>
<path d="M131.907 174.606C131.55 174.999 131.229 175.427 130.872 175.82C125.911 181.673 120.914 187.277 115.382 192.274C121.414 186.956 126.803 180.888 131.907 174.606Z" fill="#F2B84A" stroke="#1C2628" stroke-width="2.13" stroke-linecap="round" stroke-linejoin="round"/>
<path d="M132.122 192.881C131.123 193.809 130.088 194.737 129.124 195.665C130.445 194.451 131.694 193.416 132.122 192.881Z" fill="#F2B84A" stroke="#1C2628" stroke-width="2.13" stroke-linecap="round" stroke-linejoin="round"/>
<path fill-rule="evenodd" clip-rule="evenodd" d="M132.407 129.135L118.916 133.346L127.518 155.868L66.0916 158.723L67.7692 143.983L69.6251 126.743L55.5625 114.929L66.8055 92.4435C66.8055 92.4435 78.798 99.6889 87.1856 99.1179C95.5732 98.5468 107.244 96.1554 107.244 96.1554C107.244 96.1554 112.777 91.7296 118.844 90.7659C122.663 90.1592 126.661 90.9444 129.73 94.9419C137.69 105.435 146.506 124.709 146.506 124.709L132.407 129.135Z" fill="#47584E" stroke="#1C2628" stroke-width="2.13" stroke-linecap="round" stroke-linejoin="round"/>
<path d="M120.022 114.108L125.483 129.42" stroke="#1C2628" stroke-width="2.13" stroke-linecap="round" stroke-linejoin="round"/>
<path fill-rule="evenodd" clip-rule="evenodd" d="M66.4131 137.808L82.4388 167.754C82.4388 167.754 92.7895 168.717 102.034 166.611C111.278 164.506 119.38 159.366 119.38 159.366L120.736 124.852C120.772 124.388 120.272 124.067 119.88 124.281C116.382 125.923 103.533 131.812 91.9329 134.81C78.2985 138.343 66.4131 137.808 66.4131 137.808Z" fill="#1C2628" stroke="#1C2628" stroke-width="2.13" stroke-linecap="round" stroke-linejoin="round"/>
<path fill-rule="evenodd" clip-rule="evenodd" d="M86.4717 150.479L92.6464 194.308C92.6464 194.308 101.212 196.878 111.313 193.773C121.414 190.632 127.91 186.706 127.91 186.706L110.171 147.017L86.4717 150.479Z" fill="#1C2628" stroke="#1C2628" stroke-width="2.13" stroke-linecap="round" stroke-linejoin="round"/>
<path fill-rule="evenodd" clip-rule="evenodd" d="M96.2152 142.341C80.7249 145.839 67.0549 144.34 65.6986 138.95C65.0204 136.238 67.5545 133.097 72.1945 130.17C76.8345 127.243 83.5446 124.566 91.2897 122.817C106.102 119.462 119.272 120.712 121.557 125.53C121.664 125.744 121.735 125.994 121.806 126.208C123.198 131.598 111.706 138.807 96.2152 142.341Z" fill="#FAF6EB" stroke="#1C2628" stroke-width="2.13" stroke-linecap="round" stroke-linejoin="round"/>
<path d="M88.5771 168.467C88.5771 168.467 98.5352 166.968 103.211 165.826" stroke="#FAF6EB" stroke-width="2.13" stroke-linecap="round" stroke-linejoin="round"/>
<path d="M73.623 151.014C79.8691 157.26 83.367 149.479 88.0069 147.48C91.9687 145.767 94.0746 150.657 97.3939 150.193C102.783 149.408 103.997 143.733 106.995 142.912C112.67 141.27 114.74 144.875 118.666 138.308" stroke="#FAF6EB" stroke-width="2.13" stroke-linecap="round" stroke-linejoin="round"/>
<path d="M85.1865 151.621L90.7545 168.111" stroke="#FAF6EB" stroke-width="2.13" stroke-linecap="round" stroke-linejoin="round"/>
<path d="M99.6064 150.764L103.104 165.362" stroke="#FAF6EB" stroke-width="2.13" stroke-linecap="round" stroke-linejoin="round"/>
<path d="M113.705 145.196L115.632 158.616" stroke="#FAF6EB" stroke-width="2.13" stroke-linecap="round" stroke-linejoin="round"/>
<path fill-rule="evenodd" clip-rule="evenodd" d="M109.458 135.488L82.1533 147.159C82.1533 147.159 82.189 148.908 85.1514 148.873C88.0782 148.837 91.6117 147.124 91.6117 147.124C91.6117 147.124 78.8697 157.046 78.9053 158.617C78.9053 160.187 88.5065 153.762 88.5065 153.762C88.5065 153.762 79.7263 162.293 81.4038 162.186C83.0813 162.079 93.1464 154.441 93.1464 154.441C93.1464 154.441 83.4739 164.363 85.1514 164.399C86.7933 164.434 97.7864 155.618 97.7864 155.618C97.7864 155.618 86.5434 166.754 89.2917 165.434C92.0757 164.149 108.851 150.443 108.851 150.443C108.851 150.443 136.477 142.805 140.046 140.913C151.039 135.024 146.399 124.209 146.399 124.209L109.458 135.488Z" fill="#8A3EB7" stroke="#1C2628" stroke-width="2.13" stroke-linecap="round" stroke-linejoin="round"/>
<path fill-rule="evenodd" clip-rule="evenodd" d="M142.116 284.252C142.187 284.538 145.756 284.68 144.507 286.965C143.222 289.32 137.333 290.57 134.62 291.105C124.876 293.032 106.923 288.785 96.2515 288.357C93.2177 288.25 85.2941 288.071 85.1513 284.502C84.9371 279.077 91.9328 277.72 97.7506 277.649C108.28 277.506 119.13 280.79 129.16 283.003C131.658 283.538 141.652 282.753 142.116 284.252Z" fill="#FAF6EB" stroke="#1C2628" stroke-width="2.13" stroke-linecap="round" stroke-linejoin="round"/>
<path fill-rule="evenodd" clip-rule="evenodd" d="M118.738 286.251C120.13 282.825 127.375 279.291 129.909 278.363C130.409 278.185 131.408 277.828 132.408 277.578C134.085 278.47 135.87 279.505 137.226 280.005C145.614 283.325 145.221 284.038 143.579 285.823C141.902 287.572 125.912 287.786 118.738 286.251Z" fill="#1C2628" stroke="#1C2628" stroke-width="2.13" stroke-linecap="round" stroke-linejoin="round"/>
<path fill-rule="evenodd" clip-rule="evenodd" d="M89.3273 274.794C91.9328 276.436 96.0017 278.756 98.2859 281.183C91.5402 282.254 85.7581 282.039 85.7581 282.039L89.3273 274.794Z" fill="#1C2628" stroke="#1C2628" stroke-width="2.13" stroke-linecap="round" stroke-linejoin="round"/>
<path fill-rule="evenodd" clip-rule="evenodd" d="M92.9677 267.37C92.9677 267.37 93.8243 273.795 100.249 271.332C106.673 268.869 111.956 264.55 111.956 264.55C111.956 264.55 123.627 272.867 132.443 277.542C131.444 277.792 130.48 278.113 129.945 278.327C127.446 279.255 120.165 282.789 118.773 286.215H118.737C111.563 284.681 105.389 280.041 98.5357 281.147C98.4286 281.147 98.3929 281.147 98.2858 281.147C96.0372 278.72 91.9327 276.4 89.3271 274.758L92.9677 267.37Z" fill="#FAF6EB" stroke="#1C2628" stroke-width="2.13" stroke-linecap="round" stroke-linejoin="round"/>
<path fill-rule="evenodd" clip-rule="evenodd" d="M123.663 272.581C123.663 272.581 121.771 275.258 121.271 275.829L123.663 272.581Z" fill="#8A3EB7"/>
<path d="M123.663 272.581C123.663 272.581 121.771 275.258 121.271 275.829" stroke="#1C2628" stroke-width="2.13" stroke-linecap="round" stroke-linejoin="round"/>
<path fill-rule="evenodd" clip-rule="evenodd" d="M120.486 270.439L118.131 273.58L120.486 270.439Z" fill="#8A3EB7"/>
<path d="M120.486 270.439L118.131 273.58" stroke="#1C2628" stroke-width="2.13" stroke-linecap="round" stroke-linejoin="round"/>
<path fill-rule="evenodd" clip-rule="evenodd" d="M116.881 268.441L114.668 271.475L116.881 268.441Z" fill="#8A3EB7"/>
<path d="M116.881 268.441L114.668 271.475" stroke="#1C2628" stroke-width="2.13" stroke-linecap="round" stroke-linejoin="round"/>
<path fill-rule="evenodd" clip-rule="evenodd" d="M4.2726 283.289C4.20122 283.538 0.988941 283.681 2.13108 285.93C3.30892 288.214 8.62703 289.428 11.0898 289.963C19.9057 291.819 36.1455 287.714 45.8181 287.322C48.5664 287.215 55.7404 287.036 55.8475 283.574C56.026 278.292 49.7085 276.971 44.4618 276.9C34.932 276.757 25.1167 279.933 16.0153 282.111C13.7667 282.61 4.70091 281.825 4.2726 283.289Z" fill="#FAF6EB" stroke="#1C2628" stroke-width="2.13" stroke-linecap="round" stroke-linejoin="round"/>
<path fill-rule="evenodd" clip-rule="evenodd" d="M25.438 285.216C24.1888 281.896 17.6215 278.434 15.3372 277.542C14.8732 277.364 13.9809 277.007 13.0886 276.792C11.5539 277.649 9.94772 278.648 8.73419 279.184C1.1318 282.396 1.52441 283.11 2.98778 284.823C4.48684 286.501 18.9778 286.715 25.438 285.216Z" fill="#1C2628" stroke="#1C2628" stroke-width="2.13" stroke-linecap="round" stroke-linejoin="round"/>
<path fill-rule="evenodd" clip-rule="evenodd" d="M52.0642 274.08C49.7086 275.686 46.0323 277.935 43.9622 280.29C50.0655 281.326 55.3122 281.147 55.3122 281.147L52.0642 274.08Z" fill="#1C2628" stroke="#1C2628" stroke-width="2.13" stroke-linecap="round" stroke-linejoin="round"/>
<path fill-rule="evenodd" clip-rule="evenodd" d="M55.3122 264.55C55.3122 264.55 47.9953 273.116 42.2132 270.725C36.4311 268.333 29.4712 262.123 29.4712 262.123C29.4712 262.123 21.0479 272.224 13.1243 276.792C14.0166 277.007 14.9089 277.364 15.3729 277.542C17.6572 278.434 24.2245 281.861 25.4737 285.216H25.5094C32.0053 283.717 37.5733 279.22 43.7837 280.29C43.8551 280.29 43.9265 280.29 43.9978 280.29C46.0323 277.935 49.7443 275.686 52.0999 274.08L55.3122 264.55Z" fill="#FAF6EB" stroke="#1C2628" stroke-width="2.13" stroke-linecap="round" stroke-linejoin="round"/>
<path fill-rule="evenodd" clip-rule="evenodd" d="M20.0486 271.617C21.7618 273.366 21.619 273.295 22.7969 274.33L20.0486 271.617Z" fill="#8A3EB7"/>
<path d="M20.0486 271.617C21.7618 273.366 21.619 273.295 22.7969 274.33" stroke="#1C2628" stroke-width="2.13" stroke-linecap="round" stroke-linejoin="round"/>
<path fill-rule="evenodd" clip-rule="evenodd" d="M22.7966 269.761L25.5092 272.402L22.7966 269.761Z" fill="#8A3EB7"/>
<path d="M22.7966 269.761L25.5092 272.402" stroke="#1C2628" stroke-width="2.13" stroke-linecap="round" stroke-linejoin="round"/>
<path fill-rule="evenodd" clip-rule="evenodd" d="M25.6165 267.263L28.1863 269.797L25.6165 267.263Z" fill="#8A3EB7"/>
<path d="M25.6165 267.263L28.1863 269.797" stroke="#1C2628" stroke-width="2.13" stroke-linecap="round" stroke-linejoin="round"/>
<path fill-rule="evenodd" clip-rule="evenodd" d="M132.407 128.457C133.942 126.244 135.905 124.388 135.227 120.854C134.406 116.464 130.48 115.857 129.374 110.218C128.553 105.971 130.48 104.971 129.195 102.294C127.018 97.7259 120.558 99.0822 118.88 95.0133C118.345 93.7284 118.416 92.1936 118.88 90.7659C122.699 90.1592 126.697 90.9444 129.766 94.9419C137.725 105.435 146.541 124.709 146.541 124.709L132.407 128.457Z" fill="#1C2628" stroke="#1C2628" stroke-width="2.13" stroke-linecap="round" stroke-linejoin="round"/>
<path fill-rule="evenodd" clip-rule="evenodd" d="M121.557 125.53C119.487 127.921 116.703 129.777 114.062 129.92C110.314 130.134 108.779 126.672 104.104 126.744C100.392 126.815 98.8213 129.028 94.574 131.598C88.0781 135.524 77.5132 138.879 73.837 135.417C72.6234 134.275 72.088 132.347 72.1237 130.17C76.7637 127.243 83.4738 124.566 91.219 122.817C106.103 119.462 119.273 120.712 121.557 125.53Z" fill="#1C2628" stroke="#1C2628" stroke-width="2.13" stroke-linecap="round" stroke-linejoin="round"/>
<path fill-rule="evenodd" clip-rule="evenodd" d="M105.424 65.6388C104.21 65.9243 102.925 66.0671 101.712 66.0314C100.141 66.0314 100.249 65.7458 97.8929 65.496C90.2905 64.6751 86.7927 67.1378 84.901 65.1748C84.4727 64.7108 84.1872 64.1397 84.0801 63.4973C88.0419 61.784 92.1465 62.7834 92.1465 62.7834C92.1465 62.7834 99.3562 62.0696 101.926 62.9976C103.497 63.6043 104.639 64.6037 105.424 65.6388Z" fill="#1C2628" stroke="#1C2628" stroke-width="2.13" stroke-linecap="round" stroke-linejoin="round"/>
<path d="M269.893 226.003C270.721 226.003 271.392 225.332 271.392 224.504C271.392 223.676 270.721 223.005 269.893 223.005C269.065 223.005 268.394 223.676 268.394 224.504C268.394 225.332 269.065 226.003 269.893 226.003Z" fill="#1C2628" stroke="#1C2628" stroke-width="2.13" stroke-linecap="round" stroke-linejoin="round"/>
<path d="M276.817 224.682C277.645 224.682 278.316 224.011 278.316 223.183C278.316 222.355 277.645 221.684 276.817 221.684C275.989 221.684 275.318 222.355 275.318 223.183C275.318 224.011 275.989 224.682 276.817 224.682Z" fill="#1C2628" stroke="#1C2628" stroke-width="2.13" stroke-linecap="round" stroke-linejoin="round"/>
<path d="M283.135 223.504C283.962 223.504 284.634 222.833 284.634 222.005C284.634 221.177 283.962 220.506 283.135 220.506C282.307 220.506 281.635 221.177 281.635 222.005C281.635 222.833 282.307 223.504 283.135 223.504Z" fill="#1C2628" stroke="#1C2628" stroke-width="2.13" stroke-linecap="round" stroke-linejoin="round"/>
<path fill-rule="evenodd" clip-rule="evenodd" d="M225.206 174.357C233.951 172.394 244.016 175.891 249.013 183.637C253.082 189.954 254.509 200.162 249.655 204.374C245.979 207.586 240.197 206.015 232.416 203.945C222.922 201.411 209.502 197.806 208.681 190.061C208.003 183.458 216.854 176.248 225.206 174.357Z" fill="#1C2628" stroke="#1C2628" stroke-width="2.13" stroke-linecap="round" stroke-linejoin="round"/>
<path fill-rule="evenodd" clip-rule="evenodd" d="M250.012 196.414C241.768 176.427 227.491 185.635 227.491 185.635H221.709L214.356 180.567L211.572 172.75L198.402 174.606L199.366 178.211L198.045 184.957C195.225 183.993 189.193 182.245 182.447 182.245C175.702 182.245 173.096 196.379 173.096 196.379L193.583 222.577L188.158 245.776L226.277 244.777L225.885 214.01L234.593 210.798L252.225 253.057L263.004 234.462C263.004 234.498 255.509 209.727 250.012 196.414Z" fill="#F2B84A" stroke="#1C2628" stroke-width="2.13" stroke-linecap="round" stroke-linejoin="round"/>
<path fill-rule="evenodd" clip-rule="evenodd" d="M197.617 162.721C197.26 162.4 196.118 162.043 195.939 161.686C195.154 160.116 192.548 156.511 194.012 153.977C195.511 151.442 197.117 152.549 197.117 152.549C197.117 152.549 197.902 147.017 203.363 151.478C204.005 152.013 204.327 151.193 204.684 151.978C204.969 152.585 205.112 153.263 205.326 153.905" fill="#1C2628"/>
<path d="M197.617 162.721C197.26 162.4 196.118 162.043 195.939 161.686C195.154 160.116 192.548 156.511 194.012 153.977C195.511 151.442 197.117 152.549 197.117 152.549C197.117 152.549 197.902 147.017 203.363 151.478C204.005 152.013 204.327 151.193 204.684 151.978C204.969 152.585 205.112 153.263 205.326 153.905" stroke="#1C2628" stroke-width="2.13" stroke-linecap="round" stroke-linejoin="round"/>
<path fill-rule="evenodd" clip-rule="evenodd" d="M222.03 166.79C222.244 167.468 223.386 168.646 223.386 169.288C223.386 172.001 224.386 178.568 221.138 181.281C217.925 183.958 216.676 181.388 216.676 181.388C216.676 181.388 212.572 188.705 208.753 179.139C208.289 177.997 207.468 178.961 207.503 177.64C207.539 176.605 207.753 175.57 207.896 174.535" fill="#1C2628"/>
<path d="M222.03 166.79C222.244 167.468 223.386 168.646 223.386 169.288C223.386 172.001 224.386 178.568 221.138 181.281C217.925 183.958 216.676 181.388 216.676 181.388C216.676 181.388 212.572 188.705 208.753 179.139C208.289 177.997 207.468 178.961 207.503 177.64C207.539 176.605 207.753 175.57 207.896 174.535" stroke="#1C2628" stroke-width="2.13" stroke-linecap="round" stroke-linejoin="round"/>
<path fill-rule="evenodd" clip-rule="evenodd" d="M194.619 167.111C194.547 157.974 196.903 159.759 197.617 157.331C199.08 152.477 200.722 150.978 209.752 152.477C211.322 152.727 213.214 152.977 214.606 153.869C220.888 157.867 220.281 163.149 220.281 163.149C220.281 163.149 222.565 175.749 208.86 175.57C195.154 175.427 208.824 175.356 201.721 172.822C194.619 170.323 194.619 167.111 194.619 167.111Z" fill="#1C2628" stroke="#1C2628" stroke-width="2.13" stroke-linecap="round" stroke-linejoin="round"/>
<path fill-rule="evenodd" clip-rule="evenodd" d="M209.752 169.288C210.394 167.218 207.289 161.186 206.825 159.223C206.004 155.725 211.715 157.724 208.253 156.618C204.362 155.369 200.829 154.905 198.152 157.938C197.117 159.116 195.154 165.434 194.654 167.076C192.798 172.893 195.832 177.248 201.222 178.961C204.684 180.067 207.539 179.853 210.216 177.498C211.679 176.177 209.074 171.394 209.752 169.288Z" fill="#F2B84A" stroke="#1C2628" stroke-width="2.13" stroke-linecap="round" stroke-linejoin="round"/>
<path d="M199.223 165.398C199.223 165.398 199.258 166.255 199.972 166.647C200.686 167.04 201.4 166.754 201.614 166.005" stroke="#1C2628" stroke-width="2.13" stroke-linecap="round" stroke-linejoin="round"/>
<path fill-rule="evenodd" clip-rule="evenodd" d="M210.894 177.605L209.752 174.035C209.752 174.035 203.898 173.179 202.185 174.928C200.472 176.677 202.007 182.602 202.007 182.602L206.147 183.387" fill="#F3A13B"/>
<path fill-rule="evenodd" clip-rule="evenodd" d="M207.646 167.004C208.467 166.076 210.002 167.111 210.251 168.039C210.787 169.967 208.681 173 205.826 170.502" fill="#F2B84A"/>
<path d="M207.646 167.004C208.467 166.076 210.002 167.111 210.251 168.039C210.787 169.967 208.681 173 205.826 170.502" stroke="#1C2628" stroke-width="2.13" stroke-linecap="round" stroke-linejoin="round"/>
<path d="M207.717 169.003C207.717 169.003 208.181 168.575 208.11 168.646" stroke="#1C2628" stroke-width="2.13" stroke-linecap="round" stroke-linejoin="round"/>
<path fill-rule="evenodd" clip-rule="evenodd" d="M200.186 170.002C199.794 170.395 198.544 169.039 198.759 171.537C198.759 171.537 198.866 174.214 201.043 173.536C202.542 173.107 200.186 170.002 200.186 170.002Z" fill="#1C2628" stroke="#1C2628" stroke-width="2.13" stroke-linecap="round" stroke-linejoin="round"/>
<path fill-rule="evenodd" clip-rule="evenodd" d="M196.296 166.29C196.296 166.29 193.262 169.253 193.119 169.967C193.084 171.216 194.975 169.931 195.297 170.216" fill="#F2B84A"/>
<path d="M196.296 166.29C196.296 166.29 193.262 169.253 193.119 169.967C193.084 171.216 194.975 169.931 195.297 170.216" stroke="#1C2628" stroke-width="2.13" stroke-linecap="round" stroke-linejoin="round"/>
<path fill-rule="evenodd" clip-rule="evenodd" d="M201.007 153.727L198.152 157.938C201.757 153.727 202.364 166.183 211.251 166.504C211.501 166.504 216.248 167.896 216.212 167.575C216.176 167.147 215.462 167.218 215.177 166.897C214.534 166.183 214.356 165.398 214.213 164.506C214.035 163.399 215.07 161.115 214.178 160.223C212.714 158.759 210.715 153.905 208.931 154.048L201.007 153.727Z" fill="#1C2628" stroke="#1C2628" stroke-width="2.13" stroke-linecap="round" stroke-linejoin="round"/>
<path fill-rule="evenodd" clip-rule="evenodd" d="M210.037 154.869C210.43 154.619 211.108 153.62 211.536 153.548C213.285 153.263 217.461 151.764 219.46 153.905C221.494 156.047 219.924 157.296 219.924 157.296C219.924 157.296 225.028 159.616 219.139 163.578C218.461 164.042 219.139 164.577 218.282 164.684C217.604 164.756 216.926 164.72 216.248 164.756" fill="#1C2628"/>
<path d="M210.037 154.869C210.43 154.619 211.108 153.62 211.536 153.548C213.285 153.263 217.461 151.764 219.46 153.905C221.494 156.047 219.924 157.296 219.924 157.296C219.924 157.296 225.028 159.616 219.139 163.578C218.461 164.042 219.139 164.577 218.282 164.684C217.604 164.756 216.926 164.72 216.248 164.756" stroke="#1C2628" stroke-width="2.13" stroke-linecap="round" stroke-linejoin="round"/>
<path fill-rule="evenodd" clip-rule="evenodd" d="M202.042 156.939C202.078 156.475 201.614 155.333 201.792 154.976C202.506 153.37 203.613 149.051 206.54 148.623C209.466 148.159 209.609 150.122 209.609 150.122C209.609 150.122 214.392 147.195 214.392 154.298C214.392 155.119 215.213 154.869 214.82 155.654C214.499 156.261 214.106 156.796 213.714 157.367" fill="#1C2628"/>
<path d="M202.042 156.939C202.078 156.475 201.614 155.333 201.792 154.976C202.506 153.37 203.613 149.051 206.54 148.623C209.466 148.159 209.609 150.122 209.609 150.122C209.609 150.122 214.392 147.195 214.392 154.298C214.392 155.119 215.213 154.869 214.82 155.654C214.499 156.261 214.106 156.796 213.714 157.367" stroke="#1C2628" stroke-width="2.13" stroke-linecap="round" stroke-linejoin="round"/>
<path fill-rule="evenodd" clip-rule="evenodd" d="M214.499 160.758C215.213 160.829 216.64 160.401 217.283 160.651C220.031 161.65 226.991 163.363 229.168 166.826C231.381 170.288 228.526 170.288 228.526 170.288C228.526 170.288 235.307 176.177 224.849 175.499C223.6 175.427 224.421 176.427 223.065 175.891C222.03 175.463 220.995 174.928 219.96 174.464" fill="#1C2628"/>
<path d="M214.499 160.758C215.213 160.829 216.64 160.401 217.283 160.651C220.031 161.65 226.991 163.363 229.168 166.826C231.381 170.288 228.526 170.288 228.526 170.288C228.526 170.288 235.307 176.177 224.849 175.499C223.6 175.427 224.421 176.427 223.065 175.891C222.03 175.463 220.995 174.928 219.96 174.464" stroke="#1C2628" stroke-width="2.13" stroke-linecap="round" stroke-linejoin="round"/>
<path fill-rule="evenodd" clip-rule="evenodd" d="M255.045 296.495L248.37 303.169C247.3 304.24 245.765 304.633 244.337 304.276L241.089 303.419L219.496 297.708C219.496 297.708 207.753 297.708 193.476 297.708C183.982 297.708 161.568 298.065 147.612 293.746C140.581 291.569 135.727 288.214 135.727 283.003C135.727 267.513 169.206 251.237 169.206 251.237H185.588L203.648 269.297L189.907 276.329L217.283 278.899C217.283 278.899 218.461 277.864 222.815 277.864C229.525 277.864 231.595 284.716 231.595 284.716C231.595 284.716 249.441 284.716 252.404 287.679L255.081 290.356C256.722 291.998 256.722 294.782 255.045 296.495Z" fill="#F2B84A" stroke="#1C2628" stroke-width="2.13" stroke-linecap="round" stroke-linejoin="round"/>
<path fill-rule="evenodd" clip-rule="evenodd" d="M309.582 268.298V269.297L293.021 268.905L289.702 268.833C289.702 268.833 289.916 284.573 286.525 287.964C283.134 291.355 277.852 291.783 265.146 291.783C252.439 291.783 209.538 269.297 209.538 269.297L216.605 261.445L230.667 245.883L265.146 258.126H268.929L270.607 256.448L274.247 252.808C275.211 251.844 276.603 251.344 277.959 251.487L295.805 253.379C296.876 253.486 297.911 253.736 298.875 254.128C300.481 254.735 301.944 255.699 303.193 256.912L305.942 259.625C308.297 261.909 309.582 265.05 309.582 268.298Z" fill="#F2B84A" stroke="#1C2628" stroke-width="2.13" stroke-linecap="round" stroke-linejoin="round"/>
<path fill-rule="evenodd" clip-rule="evenodd" d="M289.702 268.798C289.702 268.798 289.916 284.538 286.525 287.929C283.134 291.319 277.852 291.748 265.146 291.748C252.439 291.748 209.538 269.262 209.538 269.262L216.605 261.41C221.53 260.803 226.349 261.374 229.382 263.765C233.594 267.085 233.273 272.938 239.947 276.864C243.552 278.97 247.193 279.363 249.477 279.612C258.364 280.576 261.041 276.721 265.538 278.97C270.071 281.254 269.464 286.108 273.569 287.001C276.674 287.679 280.565 285.644 282.242 282.753C285.24 277.614 279.886 272.046 282.242 269.226C283.848 267.299 288.631 267.227 292.985 268.798H289.702Z" fill="#1C2628" stroke="#1C2628" stroke-width="2.13" stroke-linecap="round" stroke-linejoin="round"/>
<path fill-rule="evenodd" clip-rule="evenodd" d="M181.698 203.374C188.943 203.017 196.224 202.66 203.47 202.303C206.218 203.374 208.966 204.409 211.715 205.48C213.606 204.481 215.534 203.517 217.425 202.518C223.279 203.303 229.132 204.052 234.986 204.838C232.309 213.082 229.632 221.327 226.955 229.572C215.034 229.786 203.113 230 191.227 230.215C188.051 221.256 184.874 212.297 181.698 203.374Z" fill="#1C2628" stroke="#1C2628" stroke-width="2.13" stroke-linecap="round" stroke-linejoin="round"/>
<path fill-rule="evenodd" clip-rule="evenodd" d="M266.93 256.341C266.93 256.341 256.615 262.195 250.012 268.798C243.409 275.401 235.164 276.471 227.491 268.798C219.817 261.124 205.933 285.501 191.834 285.501C177.736 285.501 184.375 278.042 173.096 278.042C161.817 278.042 166.279 278.042 154.536 278.042C153.287 278.042 152.109 277.97 151.038 277.863C142.044 276.864 139.046 272.153 139.046 272.153L181.698 235.176H228.276L234.915 238.816L266.93 256.341Z" fill="#8A3EB7" stroke="#1C2628" stroke-width="2.13" stroke-linecap="round" stroke-linejoin="round"/>
<path d="M190.799 205.48H202.97L210.894 209.656L218.032 206.23L230.703 207.55" stroke="#FAF6EB" stroke-width="2.13" stroke-linecap="round" stroke-linejoin="round"/>
<path d="M217.854 209.014C219.139 208.728 220.388 209.478 221.637 209.835C223.6 210.37 225.67 210.013 227.705 210.156" stroke="#FAF6EB" stroke-width="2.13" stroke-linecap="round" stroke-linejoin="round"/>
<path d="M217.247 211.191C219.317 211.298 221.316 212.404 223.315 212.012" stroke="#FAF6EB" stroke-width="2.13" stroke-linecap="round" stroke-linejoin="round"/>
<path d="M227.277 212.583C225.813 216.33 224.885 220.292 224.564 224.325" stroke="#FAF6EB" stroke-width="2.13" stroke-linecap="round" stroke-linejoin="round"/>
<path d="M223.707 217.044C223.636 218.222 223.457 219.4 223.136 220.542C222.958 221.256 222.708 221.97 222.851 222.719" stroke="#FAF6EB" stroke-width="2.13" stroke-linecap="round" stroke-linejoin="round"/>
<path d="M189.871 212.69C189.836 214.046 189.907 215.403 190.05 216.759" stroke="#FAF6EB" stroke-width="2.13" stroke-linecap="round" stroke-linejoin="round"/>
<path d="M191.299 212.618C191.406 214.546 191.87 216.473 192.62 218.258" stroke="#FAF6EB" stroke-width="2.13" stroke-linecap="round" stroke-linejoin="round"/>
<path d="M248.37 303.169L243.695 301.384" stroke="#1C2628" stroke-width="2.13" stroke-linecap="round" stroke-linejoin="round"/>
<path d="M250.869 300.635L247.085 299.136" stroke="#1C2628" stroke-width="2.13" stroke-linecap="round" stroke-linejoin="round"/>
<path d="M253.724 297.78L249.941 296.066" stroke="#1C2628" stroke-width="2.13" stroke-linecap="round" stroke-linejoin="round"/>
<path d="M309.475 266.656H305.442" stroke="#1C2628" stroke-width="2.13" stroke-linecap="round" stroke-linejoin="round"/>
<path d="M308.618 263.479H305.442" stroke="#1C2628" stroke-width="2.13" stroke-linecap="round" stroke-linejoin="round"/>
<path d="M306.727 260.339H304.121" stroke="#1C2628" stroke-width="2.13" stroke-linecap="round" stroke-linejoin="round"/>
<path d="M268.965 258.09L279.423 260.338" stroke="#1C2628" stroke-width="2.13" stroke-linecap="round" stroke-linejoin="round"/>
<path d="M289.702 268.798V263.479" stroke="#1C2628" stroke-width="2.13" stroke-linecap="round" stroke-linejoin="round"/>
<path d="M192.013 188.919C196.724 194.166 206.54 190.311 211.715 195.094C212.964 193.345 215.356 192.809 217.497 192.881C219.639 192.952 221.78 193.488 223.922 193.309" stroke="#1C2628" stroke-width="2.13" stroke-linecap="round" stroke-linejoin="round"/>
<path d="M211.501 156.868C214.891 158.046 218.461 158.724 222.066 158.866C224.528 158.938 227.062 158.795 229.418 159.545C231.774 160.294 233.987 162.257 234.058 164.72C234.094 165.577 233.88 166.469 234.129 167.254C234.736 169.217 237.342 169.396 239.269 170.109C241.982 171.109 243.909 173.893 243.909 176.784C243.909 179.675 241.946 182.459 239.233 183.423" stroke="#1C2628" stroke-width="2.13" stroke-linecap="round" stroke-linejoin="round"/>
<path d="M207.003 152.477C209.038 152.477 211.144 152.477 213.107 151.871C213.892 151.621 214.642 151.3 215.427 151.193C217.711 150.907 219.853 152.442 221.137 154.333C223.636 157.938 223.814 163.007 221.601 166.826" stroke="#1C2628" stroke-width="2.13" stroke-linecap="round" stroke-linejoin="round"/>
<path d="M222.779 169.681C225.849 169.146 229.204 168.682 231.916 170.181C233.166 170.895 234.201 172.001 235.521 172.608C237.056 173.322 238.805 173.25 240.483 173.393C243.588 173.607 246.836 174.535 248.834 176.927C250.833 179.318 250.869 183.423 248.299 185.207" stroke="#1C2628" stroke-width="2.13" stroke-linecap="round" stroke-linejoin="round"/>
<path fill-rule="evenodd" clip-rule="evenodd" d="M241.089 303.383L219.496 297.673C219.496 297.673 207.753 297.673 193.476 297.673C183.982 297.673 161.568 298.03 147.612 293.711C149.682 291.319 152.43 289.214 155.393 288.143C162.46 285.609 165.779 290.748 179.699 291.962C188.408 292.711 195.939 291.462 200.65 290.677C211.465 288.892 213.571 286.715 220.959 287.5C227.99 288.25 235.022 291.141 235.771 294.71C235.914 295.353 235.985 296.709 237.02 297.673C238.341 298.85 239.84 298.172 240.732 298.922C241.589 299.671 241.553 301.492 241.089 303.383Z" fill="#1C2628" stroke="#1C2628" stroke-width="2.13" stroke-linecap="round" stroke-linejoin="round"/>
<path fill-rule="evenodd" clip-rule="evenodd" d="M298.946 254.057C297.269 256.02 294.342 257.59 291.665 257.59C288.346 257.59 287.703 255.128 283.741 255.199C282.742 255.235 280.672 255.734 276.532 256.769C273.962 257.412 273.034 257.697 271.927 257.233C271.463 257.019 271.035 256.734 270.642 256.377L274.283 252.736C275.247 251.773 276.639 251.273 277.995 251.416L295.841 253.307C296.912 253.45 297.947 253.7 298.946 254.057Z" fill="#1C2628" stroke="#1C2628" stroke-width="2.13" stroke-linecap="round" stroke-linejoin="round"/>
<path fill-rule="evenodd" clip-rule="evenodd" d="M266.93 256.341C266.93 256.341 256.615 262.195 250.012 268.798C243.409 275.401 235.164 276.471 227.491 268.798C219.817 261.124 205.933 285.501 191.834 285.501C177.736 285.501 184.375 278.042 173.096 278.042C161.817 278.042 166.279 278.042 154.536 278.042C153.287 278.042 152.109 277.97 151.038 277.863C152.966 274.401 166.136 274.544 169.634 272.509C177.201 268.084 177.914 266.406 192.227 269.083C199.794 270.511 204.79 272.153 209.573 269.262C213.821 266.727 212.536 263.836 216.64 261.409C222.387 258.054 231.238 259.91 240.411 261.873C243.231 262.48 245.658 263.122 248.013 261.873C251.012 260.267 253.403 255.948 252.225 253.093C250.262 248.346 240.018 251.63 236.164 245.812C234.879 243.849 234.486 241.172 234.915 238.745L266.93 256.341Z" fill="#1C2628" stroke="#1C2628" stroke-width="2.13" stroke-linecap="round" stroke-linejoin="round"/>
<path d="M206.361 279.256C206.361 279.256 219.567 267.477 224.564 267.334C230.239 267.192 230.025 270.582 235.022 273.759C240.019 276.936 245.301 272.974 250.012 268.798" stroke="#FAF6EB" stroke-width="2.13" stroke-linecap="round" stroke-linejoin="round"/>
<path d="M185.553 251.237L178.343 268.798" stroke="#1C2628" stroke-width="2.13" stroke-linecap="round" stroke-linejoin="round"/>
<path d="M211.501 242.742L216.64 261.445" stroke="#1C2628" stroke-width="2.13" stroke-linecap="round" stroke-linejoin="round"/>
<path d="M218.032 248.774L223.707 263.48" stroke="#1C2628" stroke-width="2.13" stroke-linecap="round" stroke-linejoin="round"/>
<path d="M227.74 242.742L250.262 264.122" stroke="#1C2628" stroke-width="2.13" stroke-linecap="round" stroke-linejoin="round"/>
<path d="M243.945 252.094L254.973 261.195" stroke="#1C2628" stroke-width="2.13" stroke-linecap="round" stroke-linejoin="round"/>
<path fill-rule="evenodd" clip-rule="evenodd" d="M207.539 208.478C200.686 203.981 193.726 207.693 186.623 208.335C181.02 208.835 179.164 205.587 173.774 204.124C157.035 199.52 136.155 205.873 138.689 233.034C138.796 234.069 138.939 235.14 139.117 236.175C141.544 249.56 153.109 259.875 173.06 255.021C188.908 251.13 190.871 246.49 193.869 244.277C195.082 243.385 206.111 245.348 210.287 240.887C214.32 236.603 207.253 230.821 204.719 227.645C203.613 226.217 213.071 212.119 207.539 208.478Z" fill="#FAF6EB" stroke="#1C2628" stroke-width="2.13" stroke-linecap="round" stroke-linejoin="round"/>
<path fill-rule="evenodd" clip-rule="evenodd" d="M204.041 234.569C206.54 240.494 193.191 236.818 189.836 237.068C182.876 237.603 173.417 248.775 168.777 239.673C167.278 236.711 168.528 232.892 168.92 229.751C169.206 227.466 163.888 220.15 167.171 216.545C170.633 212.726 177.129 217.401 182.412 217.58C186.374 217.723 194.012 212.975 197.474 215.474C201.792 218.579 196.831 221.113 197.26 224.897C197.652 228.716 202.613 231.214 204.041 234.569Z" fill="#1C2628" stroke="#1C2628" stroke-width="2.13" stroke-linecap="round" stroke-linejoin="round"/>
<path fill-rule="evenodd" clip-rule="evenodd" d="M269.536 222.077C274.997 220.578 273.748 219.793 279.458 219.828C284.919 219.864 289.738 207.55 277.317 209.62C266.966 211.369 273.034 209.585 266.002 209.478C258.971 209.37 257.329 212.369 257.329 212.369L254.974 212.69L256.758 221.577C258.257 221.97 264.718 223.397 269.536 222.077Z" fill="#1C2628" stroke="#1C2628" stroke-width="2.13" stroke-linecap="round" stroke-linejoin="round"/>
<path fill-rule="evenodd" clip-rule="evenodd" d="M166.529 233.534L256.366 221.47C256.366 221.47 256.473 221.506 256.687 221.541L254.902 212.654L165.422 224.397L166.529 233.534Z" fill="#FAF6EB" stroke="#1C2628" stroke-width="2.13" stroke-linecap="round" stroke-linejoin="round"/>
<path fill-rule="evenodd" clip-rule="evenodd" d="M162.067 239.423L170.276 238.852L167.564 218.543L159.819 219.65L162.067 239.423Z" fill="#1C2628" stroke="#1C2628" stroke-width="2.13" stroke-linecap="round" stroke-linejoin="round"/>
<path d="M166.85 230.072L256.83 218.472" stroke="#1C2628" stroke-width="2.13" stroke-linecap="round" stroke-linejoin="round"/>
<path d="M166.886 227.288L256.758 215.26" stroke="#1C2628" stroke-width="2.13" stroke-linecap="round" stroke-linejoin="round"/>
<path fill-rule="evenodd" clip-rule="evenodd" d="M193.905 244.277C192.441 243.064 190.799 242.243 189.193 241.993C184.054 241.315 181.734 248.31 172.454 250.202C171.454 250.416 165.565 251.523 159.426 248.989C151.645 245.776 151.681 240.066 145.542 237.389C143.615 236.532 141.402 236.139 139.153 236.139C141.58 249.524 148.362 257.983 168.313 256.091C184.553 254.592 190.906 246.526 193.905 244.277Z" fill="#1C2628" stroke="#1C2628" stroke-width="2.13" stroke-linecap="round" stroke-linejoin="round"/>
<path fill-rule="evenodd" clip-rule="evenodd" d="M176.38 186.992C176.38 186.992 156.892 210.12 154.001 226.574C152.823 233.213 155.429 242.743 166.85 242.743C178.271 242.743 194.654 231.714 194.654 231.714C194.654 231.714 203.541 235.283 205.933 232.892C208.324 230.5 205.933 231.357 205.933 231.357C205.933 231.357 206.968 237.496 209.502 237.496C212.036 237.496 216.462 233.07 216.462 233.07L213.571 224.04C213.571 224.04 215.141 227.966 217.497 227.966C219.817 227.966 221.744 226.074 221.744 226.074L209.502 217.722C209.502 217.722 212.679 216.402 212.679 215.688C212.679 214.974 212.679 214.046 212.679 214.046L187.23 220.721L175.38 223.219L190.3 202.268L176.38 186.992Z" fill="#F2B84A" stroke="#1C2628" stroke-width="2.13" stroke-linecap="round" stroke-linejoin="round"/>
<path fill-rule="evenodd" clip-rule="evenodd" d="M171.668 193.559L178.379 184.957L194.69 198.734L184.946 206.23L171.668 193.559Z" fill="#F3A13B"/>
<path d="M169.598 223.255H175.452" stroke="#1C2628" stroke-width="2.13" stroke-linecap="round" stroke-linejoin="round"/>
<path d="M202.97 225.932H208.074L209.538 237.532" stroke="#1C2628" stroke-width="2.13" stroke-linecap="round" stroke-linejoin="round"/>
<path d="M207.539 223.255L210.751 224.326L211.965 236.675" stroke="#1C2628" stroke-width="2.13" stroke-linecap="round" stroke-linejoin="round"/>
<path d="M211.965 222.719L214.213 235.14" stroke="#1C2628" stroke-width="2.13" stroke-linecap="round" stroke-linejoin="round"/>
<path d="M209.538 217.722H202.97" stroke="#1C2628" stroke-width="2.13" stroke-linecap="round" stroke-linejoin="round"/>
<path fill-rule="evenodd" clip-rule="evenodd" d="M250.798 251.237L253.653 238.174C253.653 238.174 249.548 238.745 252.404 231.749C255.259 224.754 256.33 225.646 256.33 225.646L254.974 224.29C254.974 224.29 252.903 225.717 251.547 225.717C250.191 225.717 249.941 224.29 249.941 224.29L253.118 219.935H256.294L258.043 218.186H259.506L260.97 216.723H263.896L265.574 221.613C265.574 221.613 264.289 213.439 265.574 212.19C266.859 210.905 268.287 210.905 268.287 210.905C268.287 210.905 270.107 234.533 268.287 240.101C266.466 245.669 269.215 249.06 261.077 253.022C252.975 256.912 250.798 251.237 250.798 251.237Z" fill="#F2B84A" stroke="#1C2628" stroke-width="2.13" stroke-linecap="round" stroke-linejoin="round"/>
<path d="M256.365 219.9L259.685 223.255" stroke="#1C2628" stroke-width="2.13" stroke-linecap="round" stroke-linejoin="round"/>
<path d="M259.578 218.151L263.004 221.577" stroke="#1C2628" stroke-width="2.13" stroke-linecap="round" stroke-linejoin="round"/>
<path d="M256.294 235.14L253.653 238.138" stroke="#1C2628" stroke-width="2.13" stroke-linecap="round" stroke-linejoin="round"/>
<path d="M267.644 208.478C268.472 208.478 269.143 207.807 269.143 206.979C269.143 206.151 268.472 205.48 267.644 205.48C266.816 205.48 266.145 206.151 266.145 206.979C266.145 207.807 266.816 208.478 267.644 208.478Z" fill="#1C2628" stroke="#1C2628" stroke-width="2.13" stroke-linecap="round" stroke-linejoin="round"/>
<path d="M274.711 208.478C275.539 208.478 276.21 207.807 276.21 206.979C276.21 206.151 275.539 205.48 274.711 205.48C273.883 205.48 273.212 206.151 273.212 206.979C273.212 207.807 273.883 208.478 274.711 208.478Z" fill="#1C2628" stroke="#1C2628" stroke-width="2.13" stroke-linecap="round" stroke-linejoin="round"/>
<path d="M281.136 208.478C281.964 208.478 282.635 207.807 282.635 206.979C282.635 206.151 281.964 205.48 281.136 205.48C280.308 205.48 279.637 206.151 279.637 206.979C279.637 207.807 280.308 208.478 281.136 208.478Z" fill="#1C2628" stroke="#1C2628" stroke-width="2.13" stroke-linecap="round" stroke-linejoin="round"/>
<path d="M208.253 156.653L199.473 158.973L194.083 157.367" stroke="#FAF6EB" stroke-width="2.13" stroke-linecap="round" stroke-linejoin="round"/>
<path d="M199.437 160.687C199.91 160.687 200.293 160.303 200.293 159.83C200.293 159.357 199.91 158.973 199.437 158.973C198.964 158.973 198.58 159.357 198.58 159.83C198.58 160.303 198.964 160.687 199.437 160.687Z" stroke="#FAF6EB" stroke-width="2.13" stroke-linecap="round" stroke-linejoin="round"/>
<path d="M45.2832 225.896C46.925 226.289 48.5669 226.646 50.2087 227.038" stroke="#1C2628" stroke-width="2.13" stroke-linecap="round" stroke-linejoin="round"/>
<path d="M115.418 218.365C117.203 219.043 118.987 219.685 120.772 220.363" stroke="#1C2628" stroke-width="2.13" stroke-linecap="round" stroke-linejoin="round"/>
<path fill-rule="evenodd" clip-rule="evenodd" d="M132.443 225.004C132.978 226.717 131.229 229.037 129.195 229.037C128.017 229.037 126.732 228.323 126.268 226.967C125.804 225.646 126.375 224.254 127.303 223.54C128.945 222.327 131.907 223.255 132.443 225.004Z" fill="#1C2628" stroke="#1C2628" stroke-width="2.13" stroke-linecap="round" stroke-linejoin="round"/>
<path fill-rule="evenodd" clip-rule="evenodd" d="M135.298 216.616C134.477 216.509 133.335 213.118 134.977 211.619C135.584 211.048 136.69 210.62 137.19 211.048C138.261 211.976 136.333 216.723 135.298 216.616Z" fill="#1C2628" stroke="#1C2628" stroke-width="2.13" stroke-linecap="round" stroke-linejoin="round"/>
<path fill-rule="evenodd" clip-rule="evenodd" d="M65.5202 222.362C63.9854 222.184 62.0938 218.936 63.5214 216.973C64.8064 215.188 68.0543 215.474 68.9109 216.759C70.0531 218.436 67.4119 222.577 65.5202 222.362Z" fill="#1C2628" stroke="#1C2628" stroke-width="2.13" stroke-linecap="round" stroke-linejoin="round"/>
<path d="M173.168 73.2769C173.168 73.027 173.168 72.7415 173.096 72.4917C172.811 71.0997 171.74 69.9932 170.348 69.7077C168.028 69.2437 166.029 70.9926 166.029 73.2055C166.029 73.2412 166.029 73.2769 166.029 73.3126C166.065 74.3476 165.637 75.347 164.887 76.0609C163.353 77.5242 162.496 79.7014 162.889 82.0571C163.353 85.0552 165.851 87.4109 168.849 87.7321C172.954 88.1961 176.452 84.9839 176.452 80.9507C176.452 78.9876 175.631 77.2387 174.31 75.9895C173.525 75.3113 173.168 74.312 173.168 73.2769Z" fill="#F2B84A" stroke="#1C2628" stroke-width="2.13" stroke-linecap="round" stroke-linejoin="round"/>
<path d="M169.599 49.5774H163.245C163.245 49.5774 161.425 59.5712 159.605 61.3914C157.785 63.2117 152.324 65.9243 151.431 70.4929C150.539 75.0258 150.539 99.6176 150.539 99.6176H171.455" stroke="#1C2628" stroke-width="2.13" stroke-linecap="round" stroke-linejoin="round"/>
<path d="M170.527 78.7021H150.825" stroke="#1C2628" stroke-width="2.13" stroke-linecap="round" stroke-linejoin="round"/>
<path d="M159.034 99.6532V78.7377C159.034 78.7377 158.784 71.0996 162.032 64.1754C164.138 59.6425 165.03 49.613 165.03 49.613" stroke="#1C2628" stroke-width="2.13" stroke-linecap="round" stroke-linejoin="round"/>
<path d="M169.599 49.5774H175.952C175.952 49.5774 177.772 59.5712 179.592 61.3914C181.413 63.2117 186.874 65.9243 187.766 70.4929C188.658 75.0258 188.658 99.6176 188.658 99.6176H167.743" stroke="#1C2628" stroke-width="2.13" stroke-linecap="round" stroke-linejoin="round"/>
<path d="M168.706 78.7021H188.408" stroke="#1C2628" stroke-width="2.13" stroke-linecap="round" stroke-linejoin="round"/>
<path d="M180.163 99.6532V78.7377C180.163 78.7377 180.413 71.0996 177.165 64.1754C175.06 59.6425 174.167 49.613 174.167 49.613" stroke="#1C2628" stroke-width="2.13" stroke-linecap="round" stroke-linejoin="round"/>
<path d="M169.599 79.3802V2H188.194" stroke="#1C2628" stroke-width="2.13" stroke-linecap="round" stroke-linejoin="round"/>
<path fill-rule="evenodd" clip-rule="evenodd" d="M182.876 128.421C180.092 127.315 179.271 123.995 179.235 123.817C178.486 120.498 180.342 116.964 183.197 115.572C187.694 113.323 193.583 116.893 194.154 120.319C194.833 124.638 187.551 130.277 182.876 128.421Z" fill="#8A3EB7"/>
</svg>
