<svg width="720" height="561" viewBox="0 0 720 561" fill="none" xmlns="http://www.w3.org/2000/svg">
<path d="M651.986 51.2437C651.986 51.2437 687.028 45.5499 666.116 107.249C666.116 107.249 633.869 79.2466 640.132 57.248C647.638 52.7965 651.986 51.2437 651.986 51.2437Z" fill="#1C2628" stroke="#1C2628" stroke-width="2.13" stroke-linecap="round" stroke-linejoin="round"/>
<path d="M636.561 54.1941C636.561 54.1941 663.373 27.2264 696.914 54.4529C696.914 54.4529 654.108 78.8842 636.509 66.7721C635.888 58.5938 636.561 54.1941 636.561 54.1941Z" fill="#1C2628" stroke="#1C2628" stroke-width="2.13" stroke-linecap="round" stroke-linejoin="round"/>
<path d="M638.217 51.0884C638.217 51.0884 610.887 23.8619 580.452 56.4198C580.452 56.4198 622.948 79.5571 639.045 64.8051C639.149 55.9022 638.217 51.0884 638.217 51.0884Z" fill="#49574E"/>
<path d="M638.217 51.0884C638.217 51.0884 616.011 28.624 592.978 48.7074C592.978 48.7074 622.947 79.5054 639.045 64.8051C639.149 55.9022 638.217 51.0884 638.217 51.0884Z" fill="#1C2628" stroke="#1C2628" stroke-width="2.13" stroke-linecap="round" stroke-linejoin="round"/>
<path d="M622.275 55.1257C622.275 55.1257 583.868 73.3975 601.001 109.993C601.001 109.993 642.41 76.6584 635.733 57.8691C627.244 55.4881 622.275 55.1257 622.275 55.1257Z" fill="#49574E"/>
<path d="M613.217 93.6362C616.219 96.069 617.461 99.744 615.908 101.866C614.355 103.988 610.68 103.73 607.678 101.297C604.676 98.8641 603.434 95.189 604.987 93.0668C606.488 90.9446 610.163 91.2034 613.217 93.6362Z" fill="#1C2628" stroke="#1C2628" stroke-width="2.13" stroke-linecap="round" stroke-linejoin="round"/>
<path d="M651.002 86.2343C649.553 89.8058 646.344 92.0316 643.911 91.1516C641.426 90.2717 640.598 86.7002 642.099 83.0769C643.549 79.5053 646.758 77.2796 649.191 78.1595C651.623 79.0395 652.452 82.6628 651.002 86.2343Z" fill="#1C2628" stroke="#1C2628" stroke-width="2.13" stroke-linecap="round" stroke-linejoin="round"/>
<path d="M606.435 85.5097C608.299 80.3853 613.061 77.0208 617.098 78.0043C621.084 78.9877 622.844 83.9568 620.98 89.133C619.117 94.2573 614.355 97.6218 610.318 96.6384C606.28 95.6549 604.572 90.6858 606.435 85.5097Z" fill="#1C2628" stroke="#1C2628" stroke-width="2.13" stroke-linecap="round" stroke-linejoin="round"/>
<path d="M640.805 55.7469L631.747 60.716C638.942 132.095 627.761 196.072 599.758 262.223C601.984 263.258 604.262 264.19 606.591 265.018C642.72 184.684 646.965 121.95 640.805 55.7469Z" fill="#1C2628" stroke="#1C2628" stroke-width="2.13" stroke-linecap="round" stroke-linejoin="round"/>
<path d="M608.765 234.945C608.765 240.845 602.14 260.877 601.467 262.948L610.059 242.916C610.887 238.05 608.765 234.945 608.765 234.945Z" fill="#1C2628" stroke="#1C2628" stroke-width="2.13" stroke-linecap="round" stroke-linejoin="round"/>
<path d="M601.363 263.103L601.415 262.948C601.415 263.051 601.363 263.103 601.363 263.103Z" fill="#1C2628" stroke="#1C2628" stroke-width="2.13" stroke-linecap="round" stroke-linejoin="round"/>
<path d="M612.802 242.709L603.589 262.74C603.589 262.74 615.08 242.191 619.738 237.584C619.738 237.584 615.856 238.62 612.802 242.709Z" fill="#1C2628" stroke="#1C2628" stroke-width="2.13" stroke-linecap="round" stroke-linejoin="round"/>
<path d="M611.508 240.431C611.508 240.431 616.684 218.019 615.701 211.756C615.701 211.756 618.755 214.809 618.496 219.727L611.508 240.431Z" fill="#1C2628" stroke="#1C2628" stroke-width="2.13" stroke-linecap="round" stroke-linejoin="round"/>
<path d="M614.044 240.017C614.044 240.017 624.293 218.899 629.055 214.085C629.055 214.085 624.655 215.275 621.705 219.52L614.044 240.017Z" fill="#1C2628" stroke="#1C2628" stroke-width="2.13" stroke-linecap="round" stroke-linejoin="round"/>
<path d="M621.498 212.532C621.498 212.532 624.138 189.964 622.482 183.908C622.482 183.908 625.898 186.548 626.157 191.413L621.498 212.532Z" fill="#1C2628" stroke="#1C2628" stroke-width="2.13" stroke-linecap="round" stroke-linejoin="round"/>
<path d="M624.034 211.807C624.034 211.807 631.902 189.964 636.198 184.684C636.198 184.684 631.902 186.341 629.417 190.844L624.034 211.807Z" fill="#1C2628" stroke="#1C2628" stroke-width="2.13" stroke-linecap="round" stroke-linejoin="round"/>
<path d="M629.987 178.214C629.987 178.214 630.712 155.698 628.538 149.901C628.538 149.901 632.161 152.23 632.885 157.044L629.987 178.214Z" fill="#1C2628" stroke="#1C2628" stroke-width="2.13" stroke-linecap="round" stroke-linejoin="round"/>
<path d="M632.472 177.334C632.472 177.334 638.528 155.077 642.41 149.538C642.41 149.538 638.217 151.505 636.095 156.164L632.472 177.334Z" fill="#1C2628" stroke="#1C2628" stroke-width="2.13" stroke-linecap="round" stroke-linejoin="round"/>
<path d="M635.37 144C635.37 144 633.869 121.743 630.712 116.152C630.712 116.152 635.163 118.171 636.457 122.83L635.37 144Z" fill="#1C2628" stroke="#1C2628" stroke-width="2.13" stroke-linecap="round" stroke-linejoin="round"/>
<path d="M638.114 142.913C638.114 142.913 642.772 120.449 646.603 114.6C646.603 114.6 641.996 116.929 640.029 121.691L638.114 142.913Z" fill="#1C2628" stroke="#1C2628" stroke-width="2.13" stroke-linecap="round" stroke-linejoin="round"/>
<path d="M637.751 111.908C637.751 111.908 634.542 89.9612 630.971 84.6815C630.971 84.6815 635.577 86.3379 637.234 90.8411L637.751 111.908Z" fill="#1C2628" stroke="#1C2628" stroke-width="2.13" stroke-linecap="round" stroke-linejoin="round"/>
<path d="M640.443 110.614C640.443 110.614 643.445 88.046 646.861 81.9899C646.861 81.9899 642.41 84.6298 640.805 89.4436L640.443 110.614Z" fill="#1C2628" stroke="#1C2628" stroke-width="2.13" stroke-linecap="round" stroke-linejoin="round"/>
<path d="M637.699 82.9734C637.699 82.9734 631.178 62.1136 626.778 57.4551C626.778 57.4551 631.643 58.3868 634.024 62.5277L637.699 82.9734Z" fill="#1C2628" stroke="#1C2628" stroke-width="2.13" stroke-linecap="round" stroke-linejoin="round"/>
<path d="M640.184 81.317C640.184 81.317 639.77 58.9044 642.306 52.5377C642.306 52.5377 638.217 55.7469 637.337 60.716L640.184 81.317Z" fill="#1C2628" stroke="#1C2628" stroke-width="2.13" stroke-linecap="round" stroke-linejoin="round"/>
<path d="M627.761 58.6456C627.451 58.1797 627.14 57.7656 626.83 57.4551C626.83 57.4551 627.658 57.6104 628.797 58.0762L627.761 58.6456Z" fill="#1C2628" stroke="#1C2628" stroke-width="2.13" stroke-linecap="round" stroke-linejoin="round"/>
<path d="M609.852 262.74C609.852 262.74 608.713 262.999 607.16 263.879C610.473 256.426 613.527 249.127 616.322 241.932C617.616 240.069 618.859 238.516 619.738 237.636C619.738 237.636 618.858 237.895 617.616 238.568C619.738 233.029 621.705 227.543 623.517 222.16C625.587 218.64 627.554 215.638 629.056 214.137C629.056 214.137 627.503 214.551 625.587 215.793C628.279 207.356 630.608 199.022 632.627 190.896C633.921 188.256 635.112 186.03 636.147 184.788C636.147 184.788 635.112 185.202 633.766 186.134C636.199 175.73 638.062 165.533 639.511 155.491C640.495 152.955 641.478 150.884 642.358 149.59C642.358 149.59 641.375 150.056 640.081 151.091C641.219 142.344 641.996 133.699 642.513 125.107C643.807 120.707 645.257 116.67 646.551 114.703C646.551 114.703 644.687 115.635 642.876 117.55C643.135 109.941 643.186 102.436 643.083 94.8785C644.17 89.6506 645.464 84.5262 646.81 82.1452C646.81 82.1452 644.636 83.4392 642.824 85.8202C642.462 76.7103 641.892 67.652 641.064 58.4903C641.375 56.0575 641.789 53.987 642.306 52.6412C642.306 52.6412 640.236 54.2976 638.735 56.9892L636.406 58.2832C637.13 66.9791 637.751 75.5715 638.062 84.2156C639.925 81.7829 642.048 80.5406 642.048 80.5406C640.65 82.9734 639.356 88.046 638.321 93.2739C638.476 100.831 638.424 108.336 638.114 115.945C639.977 114.03 641.789 113.098 641.789 113.098C640.443 115.117 639.045 119.155 637.751 123.502C637.286 132.095 636.457 140.739 635.319 149.487C636.561 148.451 637.596 147.986 637.596 147.986C636.716 149.228 635.733 151.35 634.749 153.886C633.3 163.928 631.436 174.125 629.004 184.529C630.35 183.597 631.385 183.183 631.385 183.183C630.35 184.426 629.107 186.651 627.865 189.291C625.846 197.418 623.517 205.751 620.825 214.188C622.741 212.946 624.293 212.532 624.293 212.532C622.792 214.033 620.825 217.087 618.755 220.555C616.943 225.938 614.976 231.425 612.854 236.963C614.096 236.29 614.976 236.032 614.976 236.032C614.045 236.963 612.854 238.464 611.56 240.328C608.765 247.523 605.711 254.821 602.398 262.275C603.951 261.395 605.09 261.136 605.09 261.136C604.469 261.705 603.744 262.533 602.916 263.569C604.469 264.19 606.022 264.811 607.575 265.328C608.403 264.19 609.179 263.31 609.852 262.74Z" fill="#1C2628" stroke="#1C2628" stroke-width="2.13" stroke-linecap="round" stroke-linejoin="round"/>
<path d="M636.872 58.9043C662.752 55.7469 663.322 86.7519 683.043 132.768C683.043 132.768 743.396 31.2638 641.789 51.813C641.789 51.813 637.648 51.9166 636.872 58.9043Z" fill="#1C2628" stroke="#1C2628" stroke-width="2.13" stroke-linecap="round" stroke-linejoin="round"/>
<path d="M643.393 49.1733C745.001 28.624 684.647 130.128 684.647 130.128C679.523 118.171 675.692 107.198 672.38 97.5701C674.191 93.9468 675.692 90.9446 676.831 86.9073C675.33 89.8577 673.829 92.8081 671.603 95.3961C662.597 69.4119 657.11 53.9353 638.476 56.2128C639.252 49.2768 643.393 49.1733 643.393 49.1733Z" fill="#49574E"/>
<path d="M640.029 60.8195C619.635 54.5047 610.473 83.6463 583.143 121.95C583.143 121.95 559.54 21.9468 637.751 53.8835C637.751 53.8318 641.116 54.5047 640.029 60.8195Z" fill="#1C2628" stroke="#1C2628" stroke-width="2.13" stroke-linecap="round" stroke-linejoin="round"/>
<path d="M580.141 73.7081C583.764 53.2106 597.17 36.7505 636.147 52.6412C636.147 52.6412 639.511 53.3141 638.424 59.5772C622.43 54.6599 614.045 70.4471 597.999 95.9655C597.067 94.982 596.394 93.7397 595.514 93.9985C593.34 96.5348 593.133 100.055 593.444 103.057C590.183 108.078 586.611 113.409 582.677 118.999C582.677 118.999 577.812 99.5888 579.209 80.7994C581.539 78.4184 584.903 76.555 585.628 73.3975C583.713 73.8116 581.901 73.8116 580.141 73.7081Z" fill="#49574E"/>
<path d="M638.321 50.8814C638.321 50.8814 646.758 46.1194 649.501 41.202C649.501 41.202 647.017 54.66 638.89 57.1963L638.321 50.8814Z" fill="#49574E"/>
<path d="M644.428 57.5585C644.428 57.5585 653.383 54.2458 658.508 55.0222C658.508 55.0222 647.793 49.3802 640.546 53.6764L644.428 57.5585Z" fill="#49574E"/>
<path d="M639.718 49.5356C639.718 49.5356 631.851 45.4982 629.573 40.9432C629.573 40.9432 630.919 53.78 638.683 55.6952L639.718 49.5356Z" fill="#49574E"/>
<path d="M640.65 54.867C640.65 54.867 640.443 46.9476 642.875 42.7549C642.875 42.7549 633.972 50.8814 635.681 57.5069L640.65 54.867Z" fill="#49574E"/>
<path d="M631.178 53.78C641.012 54.1424 645.981 55.4882 645.981 55.4882C645.981 55.4882 657.887 60.4572 644.48 87.2178C643.031 85.0439 641.271 83.3875 638.58 81.9899C639.408 86.0273 639.408 90.6858 640.236 94.9303C635.526 102.85 629.004 112.27 619.894 123.503C619.894 123.503 614.925 112.426 612.595 98.9159C613.786 96.949 614.873 95.1373 614.873 92.2905C614.2 93.6362 613.113 94.2574 611.974 94.6715C610.059 78.7807 612.699 60.8713 631.178 53.78Z" fill="#49574E"/>
<path d="M693.395 94.7232C693.395 94.7232 693.757 54.9188 661.354 54.5047C661.354 54.5047 695.672 51.0367 693.395 94.7232Z" fill="#1C2628" stroke="#1C2628" stroke-width="2.13" stroke-linecap="round" stroke-linejoin="round"/>
<path d="M639.097 59.9396L626.208 97.0525L635.888 59.3702L639.097 59.9396Z" fill="#1C2628" stroke="#1C2628" stroke-width="2.13" stroke-linecap="round" stroke-linejoin="round"/>
<path d="M616.788 52.5377C616.788 52.5377 594.686 53.8318 585.317 94.2056C585.317 94.2056 589.251 53.987 616.788 52.5377Z" fill="#1C2628" stroke="#1C2628" stroke-width="2.13" stroke-linecap="round" stroke-linejoin="round"/>
<path d="M636.147 184.684C636.147 184.684 629.884 189.498 626.364 193.329L624.863 191.465C624.863 191.517 633.455 184.736 636.147 184.684Z" fill="#1C2628" stroke="#1C2628" stroke-width="2.13" stroke-linecap="round" stroke-linejoin="round"/>
<path d="M646.551 114.651C646.551 114.651 639.408 122.467 636.406 129.196L635.319 125.573C635.267 125.573 640.65 115.997 646.551 114.651Z" fill="#1C2628" stroke="#1C2628" stroke-width="2.13" stroke-linecap="round" stroke-linejoin="round"/>
<path d="M160.822 358.137H81.6792V467.767H160.822V358.137Z" fill="#F5F5F5" stroke="#1C2628" stroke-width="2.13" stroke-linecap="round" stroke-linejoin="round"/>
<path d="M81.6792 467.767V497.168L94.6713 467.767" fill="#F5F5F5"/>
<path d="M81.6792 467.767V497.168L94.6713 467.767" stroke="#1C2628" stroke-width="2.13" stroke-linecap="round" stroke-linejoin="round"/>
<path d="M160.822 467.767V497.685L148.348 467.767" fill="#F5F5F5"/>
<path d="M160.822 467.767V497.685L148.348 467.767" stroke="#1C2628" stroke-width="2.13" stroke-linecap="round" stroke-linejoin="round"/>
<path d="M160.771 371.698H94.1021V467.767H160.771V371.698Z" fill="#F5F5F5" stroke="#1C2628" stroke-width="2.13" stroke-linecap="round" stroke-linejoin="round"/>
<path d="M94.6714 416.886L160.822 416.937" stroke="#1C2628" stroke-width="2.13" stroke-linecap="round" stroke-linejoin="round"/>
<path d="M128.006 406.74C129.892 406.74 131.422 405.211 131.422 403.324C131.422 401.437 129.892 399.908 128.006 399.908C126.119 399.908 124.589 401.437 124.589 403.324C124.589 405.211 126.119 406.74 128.006 406.74Z" fill="#F5F5F5" stroke="#1C2628" stroke-width="2.13" stroke-linecap="round" stroke-linejoin="round"/>
<path d="M128.006 451.98C129.892 451.98 131.422 450.45 131.422 448.564C131.422 446.677 129.892 445.147 128.006 445.147C126.119 445.147 124.589 446.677 124.589 448.564C124.589 450.45 126.119 451.98 128.006 451.98Z" fill="#F5F5F5" stroke="#1C2628" stroke-width="2.13" stroke-linecap="round" stroke-linejoin="round"/>
<path fill-rule="evenodd" clip-rule="evenodd" d="M626.778 216C564.975 161.288 486.09 245.659 443.957 221.953C401.771 198.298 466.576 151.557 458.139 121.225C449.702 90.8928 399.338 104.04 356.842 143.224C320.765 176.61 296.592 270.712 213.101 276.612C99.5369 284.584 170.088 412.538 180.802 424.184C185.15 487.85 396.336 536.817 447.166 364.193C475.272 268.693 653.952 328.84 626.778 216Z" fill="#F2B84A"/>
<path d="M122.675 294.47C144.259 275.163 167.293 266.208 154.922 305.288C143.483 310.05 148.245 312.38 143.327 319.988C133.751 318.384 129.507 346.801 122.468 350.165C117.964 351.77 102.591 360.466 101.09 328.115C99.9513 303.477 116.515 301.665 122.675 294.47Z" fill="#1C2628" stroke="#1C2628" stroke-width="2.13" stroke-linecap="round" stroke-linejoin="round"/>
<path d="M105.8 331.428C84.578 319.678 106.162 298.197 78.936 288.052C68.1179 286.758 59.7843 282.824 51.9684 275.318C28.1581 267.347 19.4105 275.422 23.9137 299.853C29.2969 313.001 49.3285 313.674 51.606 329.461C59.2149 337.432 73.3458 333.809 83.3357 337.329C90.9964 338.933 92.3939 347.784 100.365 348.82C111.856 349.234 117.343 347.422 113.927 339.917C112.27 336.293 109.32 333.395 105.8 331.428Z" fill="#1C2628" stroke="#1C2628" stroke-width="2.13" stroke-linecap="round" stroke-linejoin="round"/>
<path d="M29.5039 277.544C46.3263 314.088 96.1725 312.845 109.165 351.511" stroke="#FEFEFE" stroke-width="2.13" stroke-linecap="round" stroke-linejoin="round"/>
<path d="M150.729 281.53C142.965 294.263 105.696 305.236 113.926 339.968" stroke="#FEFEFE" stroke-width="2.13" stroke-linecap="round" stroke-linejoin="round"/>
<path d="M152.437 296.126C147.261 292.141 138.565 297.162 132.871 297.783" stroke="#FEFEFE" stroke-width="2.13" stroke-linecap="round" stroke-linejoin="round"/>
<path d="M127.384 290.381C126.763 294.884 125.832 298.508 125.676 303.063" stroke="#FEFEFE" stroke-width="2.13" stroke-linecap="round" stroke-linejoin="round"/>
<path d="M67.445 286.188C65.3746 294.47 69.619 303.218 67.7038 311.603" stroke="#FEFEFE" stroke-width="2.13" stroke-linecap="round" stroke-linejoin="round"/>
<path d="M57.041 280.029C55.6952 291.675 52.7448 299.853 61.2854 308.394" stroke="#FEFEFE" stroke-width="2.13" stroke-linecap="round" stroke-linejoin="round"/>
<path d="M52.693 304.719C46.7404 307.825 40.1667 309.791 33.386 309.636" stroke="#FEFEFE" stroke-width="2.13" stroke-linecap="round" stroke-linejoin="round"/>
<path d="M25.5182 301.768C26.5534 295.764 31.1602 291.83 35.094 287.689C31.2637 287.431 27.3816 287.534 23.603 288.052" stroke="#FEFEFE" stroke-width="2.13" stroke-linecap="round" stroke-linejoin="round"/>
<path d="M56.6787 332.981C63.4077 324.285 75.5198 326.252 85.3027 323.456C82.5594 327.908 79.816 330.392 77.0727 334.844" stroke="#FEFEFE" stroke-width="2.13" stroke-linecap="round" stroke-linejoin="round"/>
<path d="M122.468 343.074C124.641 328.84 126.505 315.33 142.137 310.827C148.193 306.996 155.957 299.646 160.046 309.429C164.342 315.33 170.916 321.231 178.266 322.939C180.854 323.353 184.685 324.078 184.736 327.339C181.424 335.879 166.154 340.486 157.976 337.121C149.797 356.014 143.069 344.627 128.782 346.024C121.743 354.617 117.291 355.238 122.468 343.074Z" fill="#1C2628" stroke="#1C2628" stroke-width="2.13" stroke-linecap="round" stroke-linejoin="round"/>
<path d="M183.856 326.148C158.183 329.771 129.093 317.659 120.19 352.132" stroke="#FEFEFE" stroke-width="2.13" stroke-linecap="round" stroke-linejoin="round"/>
<path d="M147.364 347.784C140.998 344.161 138.824 336.5 137.219 329.771C143.275 332.981 149.176 336.397 154.973 340.124" stroke="#FEFEFE" stroke-width="2.13" stroke-linecap="round" stroke-linejoin="round"/>
<path d="M171.951 336.293C166.672 333.653 161.702 330.444 157.147 326.717" stroke="#FEFEFE" stroke-width="2.13" stroke-linecap="round" stroke-linejoin="round"/>
<path d="M154.922 305.288C153.421 312.069 147.727 320.817 144.828 327.132C142.706 322.059 142.965 317.245 141.309 312.017" stroke="#FEFEFE" stroke-width="2.13" stroke-linecap="round" stroke-linejoin="round"/>
<path d="M135.77 343.85H84.7852V357.878H135.77V343.85Z" fill="#F5F5F5" stroke="#1C2628" stroke-width="2.13" stroke-linecap="round" stroke-linejoin="round"/>
<path d="M135.77 354.72H84.7852" stroke="#1C2628" stroke-width="2.13" stroke-linecap="round" stroke-linejoin="round"/>
<path d="M84.7852 343.85H126.608" stroke="#1C2628" stroke-width="2.13" stroke-linecap="round" stroke-linejoin="round"/>
<path d="M149.538 305.288C149.538 305.288 143.845 312.017 141.308 312.017C138.824 312.017 135.511 311.137 131.422 315.226C127.385 319.264 122.208 329.823 122.208 329.823" stroke="#FEFEFE" stroke-width="2.13" stroke-linecap="round" stroke-linejoin="round"/>
<path d="M336.759 253.734C372.216 262.275 415.954 265.95 458.036 250.991C551.672 217.656 631.54 172.676 631.54 172.676" stroke="#1C2628" stroke-width="2.13" stroke-linecap="round" stroke-linejoin="round"/>
<path fill-rule="evenodd" clip-rule="evenodd" d="M580.969 206.735C578.795 193.794 554.571 197.676 546.807 199.436C536.299 201.766 527.344 210.565 518.752 216.518C502.085 228.06 483.14 240.845 464.506 248.817C426.151 265.277 382.309 255.753 341.935 259.79C329.978 260.981 325.113 265.225 334.533 273.559C337.07 275.836 366.47 287.12 378.479 289.035C394.059 291.571 406.068 300.526 422.993 301.82C433.656 302.648 443.853 299.336 454.102 296.955C475.894 291.83 501.722 287.586 521.185 275.629C527.603 271.695 533.349 267.088 539.456 262.844C557.159 250.473 585.11 231.632 580.969 206.735Z" fill="#F5F5F5" stroke="#1C2628" stroke-width="2.13" stroke-linecap="round" stroke-linejoin="round"/>
<path fill-rule="evenodd" clip-rule="evenodd" d="M536.299 186.91C536.299 184.322 538.473 182.252 541.113 182.252C543.752 182.252 545.926 184.322 545.926 186.91C545.926 189.498 543.752 191.569 541.113 191.569C538.421 191.569 536.299 189.498 536.299 186.91Z" fill="#1C2628" stroke="#1C2628" stroke-width="2.13" stroke-linecap="round" stroke-linejoin="round"/>
<path fill-rule="evenodd" clip-rule="evenodd" d="M545.047 189.343L539.043 192.293C538.266 192.707 537.283 192.345 536.869 191.569C536.454 190.792 536.817 189.809 537.593 189.395L543.598 186.444C544.374 186.03 545.357 186.392 545.772 187.169C546.186 187.945 545.823 188.929 545.047 189.343Z" fill="#8A3EB7" stroke="#1C2628" stroke-width="2.13" stroke-linecap="round" stroke-linejoin="round"/>
<path fill-rule="evenodd" clip-rule="evenodd" d="M535.937 203.111C536.402 202.335 536.247 201.403 535.574 201.041C534.901 200.627 533.245 200.109 532.727 200.834C531.071 203.111 528.224 206.735 528.224 206.735C528.224 206.735 528.379 209.323 530.346 208.029C531.485 207.252 533.763 203.681 533.918 203.784C534.591 204.147 535.522 203.836 535.937 203.111Z" fill="#F5F5F5" stroke="#1C2628" stroke-width="2.13" stroke-linecap="round" stroke-linejoin="round"/>
<path fill-rule="evenodd" clip-rule="evenodd" d="M538.421 196.02C536.299 192.966 540.285 188.152 545.979 187.635C551.724 187.117 556.434 193.639 558.142 194.571C567.563 199.695 565.544 210.151 556.848 217.708C554.312 219.882 542.769 222.263 540.906 218.64C538.991 214.965 550.223 209.892 548.825 206.269" fill="#1C2628"/>
<path d="M538.421 196.02C536.299 192.966 540.285 188.152 545.979 187.635C551.724 187.117 556.434 193.639 558.142 194.571C567.563 199.695 565.544 210.151 556.848 217.708C554.312 219.882 542.769 222.263 540.906 218.64C538.991 214.965 550.223 209.892 548.825 206.269" stroke="#1C2628" stroke-width="2.13" stroke-linecap="round" stroke-linejoin="round"/>
<path fill-rule="evenodd" clip-rule="evenodd" d="M546.755 215.948L542.148 226.042L542.873 232.305C542.873 232.305 537.076 234.686 531.951 230.7C526.827 226.715 527.241 222.211 527.241 222.211L534.28 209.737L546.755 215.948Z" fill="#8A3EB7" stroke="#1C2628" stroke-width="2.13" stroke-linecap="round" stroke-linejoin="round"/>
<path fill-rule="evenodd" clip-rule="evenodd" d="M552.966 215.327C557.521 209.685 557.573 200.523 552.345 196.331C549.757 194.208 545.305 191.362 542.148 191.776C538.939 192.241 535.678 199.229 533.349 202.076C528.794 207.718 530.036 213.671 535.264 217.915C538.111 220.193 542.407 221.28 545.875 220.555C548.773 219.934 550.896 217.915 552.966 215.327Z" fill="#8A3EB7" stroke="#1C2628" stroke-width="2.13" stroke-linecap="round" stroke-linejoin="round"/>
<path fill-rule="evenodd" clip-rule="evenodd" d="M543.183 202.904C540.854 203.733 535.419 204.561 535.367 206.01C535.315 207.873 539.301 208.184 539.819 208.029" fill="#8A3EB7"/>
<path d="M543.183 202.904C540.854 203.733 535.419 204.561 535.367 206.01C535.315 207.873 539.301 208.184 539.819 208.029" stroke="#1C2628" stroke-width="2.13" stroke-linecap="round" stroke-linejoin="round"/>
<path fill-rule="evenodd" clip-rule="evenodd" d="M544.012 189.86C544.167 187.894 539.457 193.432 539.457 193.432L549.343 194.312L558.194 208.857C558.194 208.857 564.457 202.697 562.387 200.627" fill="#1C2628"/>
<path d="M544.012 189.86C544.167 187.894 539.457 193.432 539.457 193.432L549.343 194.312L558.194 208.857C558.194 208.857 564.457 202.697 562.387 200.627" stroke="#1C2628" stroke-width="2.13" stroke-linecap="round" stroke-linejoin="round"/>
<path fill-rule="evenodd" clip-rule="evenodd" d="M554.571 210.099C554.208 209.944 556.537 209.374 557.055 212.48C557.417 214.654 553.691 217.863 551.775 214.758" fill="#8A3EB7"/>
<path d="M554.571 210.099C554.208 209.944 556.537 209.374 557.055 212.48C557.417 214.654 553.691 217.863 551.775 214.758" stroke="#1C2628" stroke-width="2.13" stroke-linecap="round" stroke-linejoin="round"/>
<path d="M555.088 212.791L554.881 212.998L554.467 213.257L553.898 213.412" stroke="#1C2628" stroke-width="2.13" stroke-linecap="round" stroke-linejoin="round"/>
<path fill-rule="evenodd" clip-rule="evenodd" d="M536.506 199.126C537.231 200.265 538.835 200.782 540.181 200.73L536.506 199.126Z" fill="#8A3EB7"/>
<path d="M536.506 199.126C537.231 200.265 538.835 200.782 540.181 200.73" stroke="#1C2628" stroke-width="2.13" stroke-linecap="round" stroke-linejoin="round"/>
<path fill-rule="evenodd" clip-rule="evenodd" d="M544.426 203.681C545.72 205.648 546.859 205.751 549.084 205.907L544.426 203.681Z" fill="#8A3EB7"/>
<path d="M544.426 203.681C545.72 205.648 546.859 205.751 549.084 205.907" stroke="#1C2628" stroke-width="2.13" stroke-linecap="round" stroke-linejoin="round"/>
<path fill-rule="evenodd" clip-rule="evenodd" d="M553.846 212.014C554.312 211.238 555.192 210.979 555.865 211.393C556.538 211.807 557.78 213.05 557.366 213.826C556.123 216.362 554.208 220.555 554.208 220.555C554.208 220.555 551.827 221.59 552.086 219.261C552.241 217.863 554.364 214.24 554.208 214.137C553.535 213.722 553.38 212.791 553.846 212.014Z" fill="#F5F5F5" stroke="#1C2628" stroke-width="2.13" stroke-linecap="round" stroke-linejoin="round"/>
<path fill-rule="evenodd" clip-rule="evenodd" d="M482.674 222.832C465.904 231.58 458.243 232.46 458.243 232.46C458.191 229.147 457.881 209.167 455.862 203.94C454.827 201.3 446.597 196.02 446.597 196.02C446.597 196.02 444.63 193.587 443.129 192.086C441.628 190.585 440.541 191.413 440.437 192.293C440.282 193.173 442.559 195.658 442.559 195.658C442.559 195.658 440.696 193.95 439.661 193.277C438.833 192.707 437.228 193.121 437.59 194.26C437.901 195.244 439.454 197.004 440.23 197.832C440.489 198.142 440.696 198.298 440.696 198.298C440.696 198.298 440.541 198.091 440.23 197.832C439.454 197.004 437.746 195.347 436.866 195.088C435.623 194.726 435.002 195.451 435.416 196.589C435.83 197.78 438.004 200.109 438.004 200.109L443.439 207.873C443.439 207.873 443.698 226.145 443.181 231.528L444.268 237.791C443.595 238.05 442.922 238.309 442.301 238.516C441.835 244.986 441.783 250.732 442.922 252.543C445.976 257.513 473.099 254.821 488.265 245.452C503.431 236.083 512.437 227.129 512.437 227.129L524.498 219.571C524.549 219.571 499.445 214.085 482.674 222.832Z" fill="#8A3EB7"/>
<path d="M440.23 197.832C439.454 197.004 437.901 195.244 437.59 194.26C437.228 193.121 438.833 192.707 439.661 193.277C440.696 193.95 442.559 195.658 442.559 195.658C442.559 195.658 440.282 193.173 440.437 192.293C440.541 191.413 441.628 190.585 443.129 192.086C444.63 193.587 446.597 196.02 446.597 196.02C446.597 196.02 454.827 201.3 455.862 203.94C457.881 209.167 458.191 229.147 458.243 232.46C458.243 232.46 465.904 231.58 482.674 222.832C499.445 214.085 524.549 219.571 524.498 219.571L512.437 227.129C512.437 227.129 503.431 236.083 488.265 245.452C473.099 254.821 445.976 257.513 442.922 252.543C441.783 250.732 441.835 244.986 442.301 238.516C442.922 238.309 443.595 238.05 444.268 237.791L443.181 231.528C443.698 226.145 443.439 207.873 443.439 207.873L438.004 200.109C438.004 200.109 435.83 197.78 435.416 196.589C435.002 195.451 435.623 194.726 436.866 195.088C437.746 195.347 439.454 197.004 440.23 197.832ZM440.23 197.832C440.489 198.142 440.696 198.298 440.696 198.298C440.696 198.298 440.541 198.091 440.23 197.832Z" stroke="#1C2628" stroke-width="2.13" stroke-linecap="round" stroke-linejoin="round"/>
<path d="M440.541 198.194L442.352 200.213L446.027 203.577" fill="#8A3EB7"/>
<path d="M440.541 198.194L442.352 200.213L446.027 203.577" stroke="#1C2628" stroke-width="2.13" stroke-linecap="round" stroke-linejoin="round"/>
<path d="M442.3 195.295L444.681 198.142L448.253 200.989" fill="#8A3EB7"/>
<path d="M442.3 195.295L444.681 198.142L448.253 200.989" stroke="#1C2628" stroke-width="2.13" stroke-linecap="round" stroke-linejoin="round"/>
<path fill-rule="evenodd" clip-rule="evenodd" d="M443.284 175.937L450.789 176.351C452.083 176.403 453.119 177.438 453.222 178.68L455.241 202.956C455.344 204.354 454.257 205.596 452.808 205.648L444.785 205.907C443.388 205.958 442.197 204.871 442.094 203.525L440.592 178.577C440.541 177.075 441.731 175.833 443.284 175.937Z" fill="#1C2628" stroke="#1C2628" stroke-width="2.13" stroke-linecap="round" stroke-linejoin="round"/>
<path d="M443.75 175.937L444.888 203.629" stroke="white" stroke-width="2.13" stroke-linecap="round" stroke-linejoin="round"/>
<path fill-rule="evenodd" clip-rule="evenodd" d="M457.259 211.652L456.379 199.488C456.379 199.488 452.239 195.088 450.53 194.726C448.822 194.312 448.615 195.865 449.858 197.055C451.1 198.298 452.239 200.472 452.239 200.472L449.806 205.803" fill="#8A3EB7"/>
<path d="M457.259 211.652L456.379 199.488C456.379 199.488 452.239 195.088 450.53 194.726C448.822 194.312 448.615 195.865 449.858 197.055C451.1 198.298 452.239 200.472 452.239 200.472L449.806 205.803" stroke="#1C2628" stroke-width="2.13" stroke-linecap="round" stroke-linejoin="round"/>
<path fill-rule="evenodd" clip-rule="evenodd" d="M505.449 220.141C494.58 225.679 494.631 231.735 494.631 231.735L467.871 245.09C467.871 245.09 462.022 239.758 453.222 232.357C445.458 238.671 434.743 241.725 424.857 241.311C424.909 242.295 424.909 243.278 424.805 244.262C425.426 244.469 426.099 244.676 426.669 244.986C426.048 244.676 425.426 244.417 424.805 244.262C424.288 250.732 421.078 256.011 416.679 260.618C426.151 268.641 437.331 276.612 448.564 281.167C477.136 292.71 495.408 289.035 495.408 289.035L552.707 236.032C552.707 236.032 524.291 210.565 505.449 220.141Z" fill="#8A3EB7"/>
<path d="M424.805 244.262C424.909 243.278 424.909 242.295 424.857 241.311C434.743 241.725 445.458 238.671 453.222 232.357C462.022 239.758 467.871 245.09 467.871 245.09L494.631 231.735C494.631 231.735 494.58 225.679 505.449 220.141C524.291 210.565 552.707 236.032 552.707 236.032L495.408 289.035C495.408 289.035 477.136 292.71 448.564 281.167C437.331 276.612 426.151 268.641 416.679 260.618C421.078 256.011 424.288 250.732 424.805 244.262ZM424.805 244.262C425.426 244.469 426.099 244.676 426.669 244.986C426.048 244.676 425.426 244.417 424.805 244.262Z" stroke="#1C2628" stroke-width="2.13" stroke-linecap="round" stroke-linejoin="round"/>
<path fill-rule="evenodd" clip-rule="evenodd" d="M504.932 220.141C494.062 225.679 494.114 231.735 494.114 231.735L467.353 245.09C467.353 245.09 461.504 239.758 452.705 232.357C444.94 238.671 434.226 241.725 424.339 241.311C424.391 242.295 424.391 243.278 424.288 244.262C424.909 244.469 425.582 244.676 426.151 244.986C425.53 244.676 424.909 244.417 424.288 244.262C423.77 250.732 420.561 256.011 416.161 260.618C425.633 268.641 436.814 276.612 448.046 281.167C476.618 292.71 494.89 289.035 494.89 289.035L552.19 236.032C552.19 236.032 523.773 210.565 504.932 220.141Z" fill="#8A3EB7"/>
<path d="M424.288 244.262C424.391 243.278 424.391 242.295 424.339 241.311C434.226 241.725 444.94 238.671 452.705 232.357C461.504 239.758 467.353 245.09 467.353 245.09L494.114 231.735C494.114 231.735 494.062 225.679 504.932 220.141C523.773 210.565 552.19 236.032 552.19 236.032L494.89 289.035C494.89 289.035 476.618 292.71 448.046 281.167C436.814 276.612 425.633 268.641 416.161 260.618C420.561 256.011 423.77 250.732 424.288 244.262ZM424.288 244.262C424.909 244.469 425.582 244.676 426.151 244.986C425.53 244.676 424.909 244.417 424.288 244.262Z" stroke="#1C2628" stroke-width="2.13" stroke-linecap="round" stroke-linejoin="round"/>
<path fill-rule="evenodd" clip-rule="evenodd" d="M364.089 262.585C363.054 258.444 364.089 254.821 367.712 252.233C371.335 250.162 376.512 249.645 379.1 246.539C384.793 241.881 380.652 232.046 386.346 228.423C397.734 220.658 401.875 233.081 408.604 241.363C411.865 245.09 418.904 242.502 424.857 244.262C424.96 243.33 424.96 242.346 424.908 241.311C423.977 241.26 422.993 241.208 422.062 241.104C422.993 241.208 423.925 241.26 424.908 241.311C424.857 240.483 424.805 239.655 424.701 238.775C424.805 239.655 424.908 240.483 424.908 241.311C434.795 241.674 445.509 238.671 453.274 232.357C432.673 214.965 395.87 185.927 380.704 187.117C359.172 188.774 330.133 315.485 330.34 316.572C331.997 324.595 337.898 310.309 347.732 303.27C357.567 296.23 357.774 300.474 359.586 296.178C361.397 291.882 356.739 286.24 361.915 279.77C364.969 275.991 367.66 272.523 370.145 269.262C367.402 267.606 365.021 265.639 364.089 262.585Z" fill="#8A3EB7"/>
<path d="M424.908 241.311C424.96 242.346 424.96 243.33 424.857 244.262C418.904 242.502 411.865 245.09 408.604 241.363C401.875 233.081 397.734 220.658 386.346 228.423C380.652 232.046 384.793 241.881 379.1 246.539C376.512 249.645 371.335 250.162 367.712 252.233C364.089 254.821 363.054 258.444 364.089 262.585C365.021 265.639 367.402 267.606 370.145 269.262C367.66 272.523 364.969 275.991 361.915 279.77C356.739 286.24 361.397 291.882 359.586 296.178C357.774 300.474 357.567 296.23 347.732 303.27C337.898 310.309 331.997 324.595 330.34 316.572C330.133 315.485 359.172 188.774 380.704 187.117C395.87 185.927 432.673 214.965 453.274 232.357C445.509 238.671 434.795 241.674 424.908 241.311ZM424.908 241.311C423.977 241.26 422.993 241.208 422.062 241.104C422.993 241.208 423.925 241.26 424.908 241.311ZM424.908 241.311C424.857 240.483 424.805 239.655 424.701 238.775C424.805 239.655 424.908 240.483 424.908 241.311Z" stroke="#1C2628" stroke-width="2.13" stroke-linecap="round" stroke-linejoin="round"/>
<path fill-rule="evenodd" clip-rule="evenodd" d="M408.604 241.363C401.875 233.081 397.734 220.658 386.346 228.423C380.653 232.046 384.794 241.881 379.1 246.539C376.512 249.645 371.336 250.162 367.712 252.233C364.089 254.821 363.054 258.444 364.089 262.585C365.021 265.639 367.402 267.606 370.145 269.262C388.417 245.193 391.522 235.669 391.522 235.669C391.522 235.669 402.03 248.195 416.73 260.618C421.078 256.011 424.287 250.68 424.857 244.262C418.904 242.502 411.865 245.09 408.604 241.363Z" fill="#1C2628" stroke="#1C2628" stroke-width="2.13" stroke-linecap="round" stroke-linejoin="round"/>
<path fill-rule="evenodd" clip-rule="evenodd" d="M507.364 274.438L471.183 244.986C471.183 244.986 365.331 238.102 345.041 254.717C324.802 271.333 384.069 417.351 385.001 418.283C392.247 425.116 388.158 406.792 393.024 392.972C397.889 379.152 401.047 383.189 399.856 377.702C399.753 377.288 399.649 376.874 399.442 376.512C394.318 374.752 389.142 372.992 384.172 370.766C376.408 367.143 377.961 357.826 380.549 350.579C383.137 343.85 375.373 340.745 372.785 335.051C369.679 329.357 376.408 324.181 379.514 318.487C383.137 311.758 376.926 306.582 372.785 299.853C369.679 294.677 374.855 287.948 381.067 287.431C397.527 286.551 416.679 291.002 428.946 302.493C444.526 304.149 462.436 304.564 477.809 300.992C514.3 292.555 507.364 274.438 507.364 274.438Z" fill="#8A3EB7" stroke="#1C2628" stroke-width="2.13" stroke-linecap="round" stroke-linejoin="round"/>
<path fill-rule="evenodd" clip-rule="evenodd" d="M381.17 287.431C374.959 287.948 369.783 294.677 372.888 299.853C377.029 306.582 383.241 311.758 379.617 318.487C376.512 324.181 369.783 329.357 372.888 335.051C375.476 340.745 383.241 343.85 380.652 350.579C378.064 357.826 376.512 367.143 384.276 370.766C389.245 372.992 394.369 374.752 399.545 376.512C397.527 371.802 390.228 369.058 390.849 359.793C394.162 310.413 390.953 295.661 390.953 295.661C390.953 295.661 407.775 300.216 429.049 302.493C416.73 291.002 397.63 286.551 381.17 287.431Z" fill="#1C2628" stroke="#1C2628" stroke-width="2.13" stroke-linecap="round" stroke-linejoin="round"/>
<path fill-rule="evenodd" clip-rule="evenodd" d="M544.27 232.46C553.018 229.147 572.118 219.364 572.118 219.364L560.213 210.669C560.213 210.669 561.662 207.459 561.766 204.716C561.869 201.973 562.076 199.488 562.076 199.488C562.076 199.488 595.773 214.965 594.323 220.607C592.874 226.3 551.413 250.473 534.953 256.995C529.622 259.117 527.085 249.541 527.085 249.541C527.085 249.541 538.318 234.738 544.27 232.46Z" fill="#8A3EB7" stroke="#1C2628" stroke-width="2.13" stroke-linecap="round" stroke-linejoin="round"/>
<path fill-rule="evenodd" clip-rule="evenodd" d="M561.817 196.382L564.25 202.646C564.561 203.474 564.146 204.405 563.318 204.716C562.49 205.027 561.558 204.612 561.248 203.784L558.815 197.521C558.504 196.693 558.919 195.761 559.747 195.451C560.575 195.14 561.507 195.554 561.817 196.382Z" fill="#8A3EB7" stroke="#1C2628" stroke-width="2.13" stroke-linecap="round" stroke-linejoin="round"/>
<path fill-rule="evenodd" clip-rule="evenodd" d="M563.318 198.039C563.318 195.451 565.492 193.38 568.132 193.38C570.772 193.38 572.946 195.451 572.946 198.039C572.946 200.627 570.772 202.697 568.132 202.697C565.441 202.697 563.318 200.575 563.318 198.039Z" fill="#1C2628" stroke="#1C2628" stroke-width="2.13" stroke-linecap="round" stroke-linejoin="round"/>
<path fill-rule="evenodd" clip-rule="evenodd" d="M473.098 246.177L444.992 221.953L423.407 232.098L399.752 244.52L429.929 245.038L444.112 310.671C444.112 310.671 493.958 307.928 502.292 294.16C510.056 281.375 511.246 272.834 511.246 272.834L473.098 246.177Z" fill="#F5F5F5" stroke="#1C2628" stroke-width="2.13" stroke-linecap="round" stroke-linejoin="round"/>
<path fill-rule="evenodd" clip-rule="evenodd" d="M508.296 218.277L496.908 222.004L494.01 230.959L531.899 258.341L541.475 247.316L548.307 231.684L542.458 228.267C542.458 228.267 530.139 228.785 527.448 227.232C523.824 225.162 523.307 219.468 523.307 219.468L516.992 217.915C514.093 217.242 511.091 217.346 508.296 218.277Z" fill="#F5F5F5" stroke="#1C2628" stroke-width="2.13" stroke-linecap="round" stroke-linejoin="round"/>
<path d="M430.137 244.572L462.436 243.589" stroke="#1C2628" stroke-width="2.13" stroke-linecap="round" stroke-linejoin="round"/>
<path fill-rule="evenodd" clip-rule="evenodd" d="M541.372 227.853L545.979 217.501C545.979 217.501 541.32 212.791 538.111 214.24C536.351 215.016 531.485 217.863 529.26 220.037C527.396 221.849 524.86 221.538 524.86 221.538L540.388 227.75" fill="#8A3EB7"/>
<path d="M368.903 279.097C370.973 289.605 383.965 293.797 392.454 296.178" stroke="#1C2628" stroke-width="2.13" stroke-linecap="round" stroke-linejoin="round"/>
<path d="M500.635 227.387C501.101 225.783 502.706 224.851 504.311 225.265C505.915 225.679 506.847 227.336 506.381 228.992C505.967 230.597 504.311 231.528 502.706 231.114C501.153 230.648 500.221 228.992 500.635 227.387Z" stroke="#1C2628" stroke-width="2.13" stroke-linecap="round" stroke-linejoin="round"/>
<path d="M515.905 225.006C516.319 223.402 518.027 222.47 519.683 222.936C521.34 223.402 522.323 225.058 521.857 226.663C521.443 228.267 519.735 229.199 518.079 228.733C516.422 228.267 515.439 226.611 515.905 225.006Z" stroke="#1C2628" stroke-width="2.13" stroke-linecap="round" stroke-linejoin="round"/>
<path d="M514.87 240.587C515.284 239.137 516.889 238.361 518.493 238.775C520.098 239.241 521.081 240.742 520.719 242.191C520.305 243.64 518.7 244.417 517.096 244.003C515.491 243.537 514.508 242.036 514.87 240.587Z" stroke="#1C2628" stroke-width="2.13" stroke-linecap="round" stroke-linejoin="round"/>
<path d="M533.608 236.083C534.022 234.582 535.626 233.754 537.231 234.168C538.835 234.582 539.767 236.187 539.353 237.688C538.939 239.189 537.334 240.017 535.73 239.603C534.177 239.137 533.194 237.584 533.608 236.083Z" stroke="#1C2628" stroke-width="2.13" stroke-linecap="round" stroke-linejoin="round"/>
<path d="M528.793 252.388C529.156 251.042 530.605 250.318 532.054 250.68C533.504 251.094 534.384 252.492 534.021 253.786C533.659 255.131 532.21 255.856 530.76 255.494C529.311 255.132 528.431 253.734 528.793 252.388Z" stroke="#1C2628" stroke-width="2.13" stroke-linecap="round" stroke-linejoin="round"/>
<path d="M432.725 257.771C441.317 251.301 450.945 260.359 459.692 259.894C467.353 259.428 467.767 252.129 475.997 253.268" stroke="#1C2628" stroke-width="2.13" stroke-linecap="round" stroke-linejoin="round"/>
<path d="M436.866 276.923C437.383 273.403 446.079 274.542 448.823 274.749C455.914 275.318 464.61 278.01 471.391 275.37C475.066 273.973 477.291 271.022 480.501 269.004C482.364 267.865 490.18 265.536 491.215 265.846" stroke="#1C2628" stroke-width="2.13" stroke-linecap="round" stroke-linejoin="round"/>
<path d="M442.559 303.321C447.58 296.023 468.336 300.474 476.152 298.715C486.66 296.334 496.908 282.772 502.343 274.853" stroke="#1C2628" stroke-width="2.13" stroke-linecap="round" stroke-linejoin="round"/>
<path d="M467.353 245.504C479.258 257.357 508.089 278.01 508.089 278.01" stroke="#1C2628" stroke-width="2.13" stroke-linecap="round" stroke-linejoin="round"/>
<path d="M434.277 228.164C434.329 227.905 435.727 229.458 436.503 229.924C438.988 231.373 441.317 232.201 443.18 234.427C447.735 239.965 455.499 243.382 462.487 243.537" stroke="#1C2628" stroke-width="2.13" stroke-linecap="round" stroke-linejoin="round"/>
<path d="M417.352 235.825C423.149 235.514 424.029 244.106 430.188 244.572" stroke="#1C2628" stroke-width="2.13" stroke-linecap="round" stroke-linejoin="round"/>
<path d="M509.642 281.582C587.698 240.069 642.048 162.634 642.048 162.634" stroke="#1C2628" stroke-width="2.13" stroke-linecap="round" stroke-linejoin="round"/>
<path d="M329.616 270.453C363.882 289.242 404.567 305.133 442.559 303.218" stroke="#1C2628" stroke-width="2.13" stroke-linecap="round" stroke-linejoin="round"/>
<path d="M637.596 173.09C633.3 170.657 632.006 163.255 626.364 162.686C624.811 162.53 621.912 163.152 622.016 165.274C622.171 169.363 630.039 172.676 633.714 172.365C635.629 172.21 637.285 170.502 639.045 169.829C639.822 169.518 645.36 168.38 645.878 169.104C646.81 170.398 640.391 174.643 637.596 173.09Z" stroke="#1C2628" stroke-width="2.13" stroke-linecap="round" stroke-linejoin="round"/>
<path d="M540.44 212.014C541.32 212.17 542.252 212.066 543.132 211.756C543.546 211.6 543.96 211.393 544.426 211.29" stroke="#1C2628" stroke-width="2.13" stroke-linecap="round" stroke-linejoin="round"/>
<path d="M536.713 204.095C538.914 204.095 540.699 202.31 540.699 200.109C540.699 197.908 538.914 196.124 536.713 196.124C534.512 196.124 532.728 197.908 532.728 200.109C532.728 202.31 534.512 204.095 536.713 204.095Z" fill="#1C2628" stroke="#1C2628" stroke-width="2.13" stroke-linecap="round" stroke-linejoin="round"/>
<path d="M545.357 209.478C547.558 209.478 549.343 207.694 549.343 205.492C549.343 203.291 547.558 201.507 545.357 201.507C543.156 201.507 541.372 203.291 541.372 205.492C541.372 207.694 543.156 209.478 545.357 209.478Z" fill="#1C2628" stroke="#1C2628" stroke-width="2.13" stroke-linecap="round" stroke-linejoin="round"/>
<path d="M540.492 201.455L542.51 202.697" stroke="#1C2628" stroke-width="2.13" stroke-linecap="round" stroke-linejoin="round"/>
<path d="M549.239 206.372L555.761 209.685" stroke="#1C2628" stroke-width="2.13" stroke-linecap="round" stroke-linejoin="round"/>
<path fill-rule="evenodd" clip-rule="evenodd" d="M128.006 434.122L104.92 496.495C104.92 496.495 78.3666 498.979 74.9503 500.636C71.5341 502.292 91.6692 500.894 91.6692 500.894C91.6692 500.894 79.4018 503.327 76.2444 505.449C74.6398 506.536 98.657 505.967 98.657 505.967C98.657 505.967 72.1552 511.195 84.1121 513.11C89.4953 513.99 97.1042 510.211 103.057 510.108C110.303 510.004 115.738 512.955 120.086 507.106C128.006 496.391 148.917 457.622 151.557 437.487C152.903 427.756 128.006 434.122 128.006 434.122Z" fill="#8A3EB7" stroke="#1C2628" stroke-width="2.13" stroke-linecap="round" stroke-linejoin="round"/>
<path fill-rule="evenodd" clip-rule="evenodd" d="M308.239 383.862C307.462 383.034 305.288 383.086 305.392 381.947C305.909 376.771 309.067 365.228 313.001 361.294C316.158 358.137 313.052 369.317 315.226 368.592C318.539 367.505 322.784 359.948 324.129 359.689C326.51 359.224 330.962 361.19 333.343 361.605C334.326 361.76 337.018 361.035 337.794 361.605C338.053 361.812 338.208 362.226 338.105 362.536C337.691 364.296 331.169 372.164 329.823 374.648C323.146 386.968 322.577 399.649 308.239 383.862Z" fill="#8A3EB7" stroke="#1C2628" stroke-width="2.13" stroke-linecap="round" stroke-linejoin="round"/>
<path fill-rule="evenodd" clip-rule="evenodd" d="M329.15 502.758L389.763 506.019L400.633 501.93L398.562 463.781L391.575 449.288L380.86 479.672L333.498 474.03" fill="#8A3EB7"/>
<path d="M329.15 502.758L389.763 506.019L400.633 501.93L398.562 463.781L391.575 449.288L380.86 479.672L333.498 474.03" stroke="#1C2628" stroke-width="2.13" stroke-linecap="round" stroke-linejoin="round"/>
<path fill-rule="evenodd" clip-rule="evenodd" d="M385.932 508.141L401.461 510.315L405.291 509.383L402.03 440.799L398.51 438.988C398.51 438.988 390.798 435.002 388.986 450.841C388.313 456.483 397.63 473.875 397.63 473.875L398.355 490.542L385.932 508.141Z" fill="#1C2628" stroke="#1C2628" stroke-width="2.13" stroke-linecap="round" stroke-linejoin="round"/>
<path fill-rule="evenodd" clip-rule="evenodd" d="M325.889 390.643C320.558 409.639 309.585 439.609 285.567 452.239C261.55 464.92 241.001 445.561 241.001 445.561L158.752 462.539L157.769 426.669L145.139 458.45L128.938 493.492C128.938 493.492 103.316 494.476 101.556 482.623C99.796 470.769 118.327 441.679 118.327 441.679C118.327 441.679 118.741 440.437 119.569 438.263C123.813 426.824 139.031 389.97 161.237 381.222C169.933 377.806 176.04 376.357 181.165 375.994C191.621 375.166 198.039 378.582 214.24 378.013L276.664 411.813L303.736 375.528C303.684 375.528 327.287 385.518 325.889 390.643Z" fill="#1C2628" stroke="#1C2628" stroke-width="2.13" stroke-linecap="round" stroke-linejoin="round"/>
<path fill-rule="evenodd" clip-rule="evenodd" d="M167.085 393.541C161.599 394.473 155.232 395.56 152.126 400.115C147.623 406.792 153.576 416.006 149.486 418.853C147.105 420.509 144.828 417.507 141.101 418.956C136.65 420.664 137.167 425.789 131.577 433.915C129.092 437.487 125.521 442.663 122.622 442.042C121.276 441.783 120.293 440.282 119.62 438.315C123.865 426.876 139.082 390.022 161.288 381.274C169.984 377.858 176.092 376.408 181.216 376.046C185.202 381.222 176.765 391.885 167.085 393.541Z" fill="#F5F5F5"/>
<path fill-rule="evenodd" clip-rule="evenodd" d="M215.793 351.149C220.193 336.966 214.395 325.993 194.157 328.581C191.776 328.891 188.981 329.15 186.91 330.392C162.996 343.902 167.344 370.818 167.344 370.818L199.54 369.162L208.339 358.344L215.793 351.149Z" fill="#F5F5F5"/>
<path fill-rule="evenodd" clip-rule="evenodd" d="M190.896 360.725L191.103 373.199L183.235 378.893L205.544 397.63L214.447 380.963L210.306 365.021L210.668 359.482L190.896 360.725Z" fill="#8A3EB7" stroke="#1C2628" stroke-width="2.13" stroke-linecap="round" stroke-linejoin="round"/>
<path fill-rule="evenodd" clip-rule="evenodd" d="M188.36 353.271C187.48 350.165 187.79 343.902 188.567 341.055C189.964 335.931 191.414 338.157 196.641 336.707C202.49 335.103 205.286 332.774 209.116 337.432C210.617 339.244 215.017 346.024 215.69 348.509C218.071 357.257 213.464 366.16 205.337 368.385C200.161 369.835 195.917 369.369 192.086 365.694C189.964 363.675 189.24 356.428 188.36 353.271Z" fill="#8A3EB7" stroke="#1C2628" stroke-width="2.13" stroke-linecap="round" stroke-linejoin="round"/>
<path fill-rule="evenodd" clip-rule="evenodd" d="M199.126 350.838C198.712 349.648 199.85 348.198 201.61 347.577C203.37 347.008 205.13 347.526 205.544 348.716C205.958 349.907 204.819 351.356 203.06 351.977C201.3 352.546 199.54 352.029 199.126 350.838Z" fill="#FAFCFF" stroke="#1C2628" stroke-width="2.13" stroke-linecap="round" stroke-linejoin="round"/>
<path fill-rule="evenodd" clip-rule="evenodd" d="M210.669 347.629C210.255 346.439 211.393 344.989 213.153 344.368C214.913 343.799 216.673 344.316 217.087 345.507C217.501 346.697 216.362 348.147 214.603 348.768C212.791 349.337 211.031 348.82 210.669 347.629Z" fill="#FAFCFF" stroke="#1C2628" stroke-width="2.13" stroke-linecap="round" stroke-linejoin="round"/>
<path fill-rule="evenodd" clip-rule="evenodd" d="M192.707 374.648L191.413 361.915C191.413 361.915 201.714 359.638 204.146 362.329C206.579 365.021 203.991 373.768 203.991 373.768L197.832 374.7" fill="#8A3EB7"/>
<path fill-rule="evenodd" clip-rule="evenodd" d="M182.2 351.977C186.341 358.706 188.774 346.542 188.774 346.542L205.337 342.608L206.01 336.449L210.358 343.592L216.259 343.436C216.259 343.436 211.548 331.687 210.41 330.548C205.596 325.941 197.314 326.2 192.034 330.6C187.583 334.378 177.127 343.022 182.2 351.977Z" fill="#F5F5F5"/>
<path fill-rule="evenodd" clip-rule="evenodd" d="M189.964 354.203C188.825 352.805 186.496 354.203 186.03 355.549C185.15 358.344 187.273 363.106 191.672 360.259" fill="#8A3EB7"/>
<path d="M189.964 354.203C188.825 352.805 186.496 354.203 186.03 355.549C185.15 358.344 187.273 363.106 191.672 360.259" stroke="#1C2628" stroke-width="2.13" stroke-linecap="round" stroke-linejoin="round"/>
<path fill-rule="evenodd" clip-rule="evenodd" d="M204.405 351.045C203.577 351.615 202.49 351.459 202.076 350.786C201.662 350.114 201.973 349.078 202.801 348.561C203.629 347.991 204.716 348.147 205.13 348.82C205.596 349.492 205.234 350.476 204.405 351.045Z" fill="#1C2628" stroke="#1C2628" stroke-width="2.13" stroke-linecap="round" stroke-linejoin="round"/>
<path fill-rule="evenodd" clip-rule="evenodd" d="M213.981 347.784C213.412 346.956 213.567 345.559 215.793 345.144C216.569 344.989 216.518 345.403 217.087 346.231C217.656 347.06 216.88 347.991 216.207 348.457C215.534 348.923 214.499 348.612 213.981 347.784Z" fill="#1C2628" stroke="#1C2628" stroke-width="2.13" stroke-linecap="round" stroke-linejoin="round"/>
<path d="M188.825 356.946C188.929 357.05 188.98 357.153 189.084 357.257" stroke="#1C2628" stroke-width="2.13" stroke-linecap="round" stroke-linejoin="round"/>
<path fill-rule="evenodd" clip-rule="evenodd" d="M203.37 355.186C204.509 357.567 207.77 356.739 210.099 357.567C210.099 357.567 208.287 361.553 204.353 359.431C201.817 358.085 203.37 355.186 203.37 355.186Z" fill="#1C2628" stroke="#1C2628" stroke-width="2.13" stroke-linecap="round" stroke-linejoin="round"/>
<path fill-rule="evenodd" clip-rule="evenodd" d="M207.874 349.907C210.927 349.389 213.619 347.267 214.551 348.768C215.793 350.786 211.756 354.047 211.134 354.151" fill="#8A3EB7"/>
<path d="M207.874 349.907C210.927 349.389 213.619 347.267 214.551 348.768C215.793 350.786 211.756 354.047 211.134 354.151" stroke="#1C2628" stroke-width="2.13" stroke-linecap="round" stroke-linejoin="round"/>
<path d="M200.42 334.223C198.97 336.914 199.281 341.211 198.763 344.213" stroke="#1C2628" stroke-width="2.13" stroke-linecap="round" stroke-linejoin="round"/>
<path fill-rule="evenodd" clip-rule="evenodd" d="M348.457 504.362L346.231 504.259L243.071 499.393C243.071 499.393 207.149 500.739 185.357 496.288C179.094 494.993 174.022 493.234 171.278 490.801C159.011 479.879 159.114 455.862 159.114 455.862L223.091 441.679L231.373 450.996L346.646 474.392L348.457 504.362Z" fill="#49574E" stroke="#1C2628" stroke-width="2.13" stroke-linecap="round" stroke-linejoin="round"/>
<path fill-rule="evenodd" clip-rule="evenodd" d="M346.232 504.259L243.071 499.393C243.071 499.393 207.149 500.739 185.357 496.288C186.341 488.472 188.722 481.225 194.157 478.74C200.42 475.894 205.027 481.95 217.708 483.658C233.858 485.832 235.825 477.188 255.183 477.239C271.385 477.239 285.464 483.244 288.518 484.641C298.042 488.834 298.611 491.318 305.547 492.664C319.626 495.459 325.993 487.022 334.327 490.128C339.554 491.991 343.799 497.789 346.232 504.259Z" fill="#1C2628" stroke="#1C2628" stroke-width="2.13" stroke-linecap="round" stroke-linejoin="round"/>
<path fill-rule="evenodd" clip-rule="evenodd" d="M237.895 486.453L235.618 506.226L241.984 518.183L277.958 518.804L292.038 512.903L262.689 499.6L267.865 483.037" fill="#8A3EB7"/>
<path d="M237.895 486.453L235.618 506.226L241.984 518.183L277.958 518.804L292.038 512.903L262.689 499.6L267.865 483.037" stroke="#1C2628" stroke-width="2.13" stroke-linecap="round" stroke-linejoin="round"/>
<path fill-rule="evenodd" clip-rule="evenodd" d="M277.182 494.528L231.684 494.321L238.102 461.193L203.111 454.827C203.111 454.827 230.131 403.324 247.419 388.365C248.61 387.33 249.748 386.398 250.887 385.518C266.415 373.561 278.062 375.166 285.257 387.434C285.981 388.676 286.499 390.694 286.861 393.231C290.07 417.662 277.182 494.528 277.182 494.528Z" fill="#49574E" stroke="#1C2628" stroke-width="2.13" stroke-linecap="round" stroke-linejoin="round"/>
<path fill-rule="evenodd" clip-rule="evenodd" d="M215.275 466.007C215.482 466.784 219.571 465.955 218.795 465.8C214.758 465.127 210.979 463.316 207.201 461.711C203.888 460.313 200.472 462.28 198.712 459.175C192.5 448.408 204.457 446.545 211.186 444.06C217.242 441.783 229.975 427.497 236.756 432.103C239.707 434.122 236.601 441.472 235.876 443.802C233.185 452.497 213.05 457.881 215.275 466.007Z" fill="#49574E"/>
<path fill-rule="evenodd" clip-rule="evenodd" d="M233.858 502.188L230.338 517.458L230.907 521.34L299.543 523.98L301.665 520.667C301.665 520.667 306.272 513.317 290.692 510.16C285.153 509.021 266.364 516.474 266.364 516.474L251.353 515.543L233.858 502.188Z" fill="#1C2628" stroke="#1C2628" stroke-width="2.13" stroke-linecap="round" stroke-linejoin="round"/>
<path d="M241.26 433.967L237.792 461.815" stroke="#1C2628" stroke-width="2.13" stroke-linecap="round" stroke-linejoin="round"/>
<path fill-rule="evenodd" clip-rule="evenodd" d="M237.222 508.503L279.201 516.474L237.222 508.503Z" fill="#49574E"/>
<path d="M237.222 508.503L279.201 516.474" stroke="#1C2628" stroke-width="2.13" stroke-linecap="round" stroke-linejoin="round"/>
<path fill-rule="evenodd" clip-rule="evenodd" d="M391.005 502.965L397.579 467.301L391.005 502.965Z" fill="#49574E"/>
<path d="M391.005 502.965L397.579 467.301" stroke="#1C2628" stroke-width="2.13" stroke-linecap="round" stroke-linejoin="round"/>
<path d="M164.963 416.627C163.773 421.855 159.943 425.064 157.51 429.619" stroke="#F5F5F5" stroke-width="2.13" stroke-linecap="round" stroke-linejoin="round"/>
<path d="M105.904 480.759C111.805 484.124 114.393 486.142 121.225 486.453" stroke="#F5F5F5" stroke-width="2.13" stroke-linecap="round" stroke-linejoin="round"/>
<path d="M306.841 383.137C311.033 385.26 314.346 388.676 318.28 391.264" stroke="#F5F5F5" stroke-width="2.13" stroke-linecap="round" stroke-linejoin="round"/>
<path fill-rule="evenodd" clip-rule="evenodd" d="M313.311 371.905C312.846 370.663 315.434 339.606 317.297 337.639C320.403 334.275 333.861 339.295 334.275 340.538C335.983 345.714 331.376 374.804 328.943 375.891C326.459 376.926 314.657 375.425 313.311 371.905Z" fill="#1C2628" stroke="#1C2628" stroke-width="2.13" stroke-linecap="round" stroke-linejoin="round"/>
<path fill-rule="evenodd" clip-rule="evenodd" d="M321.386 358.551C321.334 361.812 324.906 362.899 326.976 369.472C327.442 370.87 316.934 374.959 317.09 376.098C317.607 380.446 327.287 380.29 327.287 380.29C327.287 380.29 336.138 370.922 338.933 365.642C342.246 359.482 330.444 348.716 329.668 350.683C329.098 352.184 333.809 357.308 333.809 358.602C333.809 359.638 335.361 364.296 334.274 364.296C333.394 364.296 333.809 362.588 333.653 361.76C333.343 360.311 327.597 351.511 325.889 353.789C324.026 356.273 329.875 360 330.133 362.692C330.237 363.83 330.651 367.247 330.133 366.211C330.082 366.211 321.541 350.683 321.386 358.551Z" fill="#8A3EB7" stroke="#1C2628" stroke-width="2.13" stroke-linecap="round" stroke-linejoin="round"/>
<path fill-rule="evenodd" clip-rule="evenodd" d="M311.137 374.338C311.344 372.682 327.494 370.301 328.322 369.835C335.154 365.849 326.148 382.309 323.146 382.62" fill="#8A3EB7"/>
<path d="M189.912 359.068C191.62 364.193 191.465 367.816 194.364 372.216C196.434 375.321 201.3 376.874 204.612 377.237C208.287 377.599 211.341 378.789 215.12 378.013C224.437 376.15 232.874 367.609 242.243 366.936C256.063 365.953 270.556 371.957 284.118 368.799C291.778 366.988 304.667 346.283 313.052 357.464" stroke="#1C2628" stroke-width="2.13" stroke-linecap="round" stroke-linejoin="round"/>
<path d="M218.588 355.134C219.313 357.36 224.799 363.934 227.025 364.866C230.182 366.211 232.926 363.572 235.721 362.743C240.224 361.449 246.798 363.572 249.955 366.729" stroke="#1C2628" stroke-width="2.13" stroke-linecap="round" stroke-linejoin="round"/>
<path d="M319.471 342.556C318.073 341.573 319.005 339.761 320.454 339.917C322.007 340.072 321.49 344.006 319.471 342.556Z" stroke="#F5F5F5" stroke-width="2.13" stroke-linecap="round" stroke-linejoin="round"/>
<path d="M319.264 347.37C318.798 345.921 320.403 344.782 320.972 346.076C321.541 347.474 319.73 348.82 319.264 347.37Z" stroke="#F5F5F5" stroke-width="2.13" stroke-linecap="round" stroke-linejoin="round"/>
<path d="M324.285 343.436C323.508 343.54 323.56 341.884 324.233 341.469C325.682 340.693 326.459 343.126 324.285 343.436Z" stroke="#F5F5F5" stroke-width="2.13" stroke-linecap="round" stroke-linejoin="round"/>
<path d="M189.757 358.861C189.394 359.12 189.084 358.602 188.98 358.188C188.618 356.791 192.397 356.894 189.757 358.861Z" stroke="#1C2628" stroke-width="2.13" stroke-linecap="round" stroke-linejoin="round"/>
<path d="M218.019 354.876C216.103 355.031 218.95 350.269 218.433 353.944C218.329 354.565 218.433 354.824 218.019 354.876Z" stroke="#1C2628" stroke-width="2.13" stroke-linecap="round" stroke-linejoin="round"/>
<path d="M124.279 427.911C126.919 431.845 125.573 437.331 125.417 442.042C125.262 446.286 118.895 451.048 111.908 452.808" stroke="#F5F5F5" stroke-width="2.13" stroke-linecap="round" stroke-linejoin="round"/>
<path d="M160.253 449.858C162.427 445.51 168.897 450.789 170.657 452.808" stroke="#F5F5F5" stroke-width="2.13" stroke-linecap="round" stroke-linejoin="round"/>
<path fill-rule="evenodd" clip-rule="evenodd" d="M247.471 488.161C245.814 496.546 230.959 512.385 230.959 512.385C230.959 512.385 229.458 518.183 220.71 519.839C220.037 519.994 219.312 520.046 218.484 520.15C216.983 520.305 205.958 523.721 196.072 523.721C164.238 523.721 154.041 512.748 154.041 512.748C154.041 512.748 152.075 512.127 149.745 511.661C147.157 511.195 144.207 510.936 143.12 512.127C140.635 514.818 139.6 518.856 138.617 517.561C137.944 516.682 137.116 512.748 139.755 508.969C141.205 506.847 146.795 503.793 146.795 503.793L147.157 496.65L142.343 475.583C142.343 475.583 150.315 469.579 152.696 471.908C155.077 474.237 148.607 482.105 151.919 485.004C155.232 487.902 159.994 488.265 159.994 488.265C159.994 488.265 164.187 484.279 162.841 481.639C161.495 479.051 161.392 473.668 161.392 473.668C161.392 473.668 170.812 469.682 172.417 470.925C174.021 472.167 167.81 478.689 167.81 478.689C167.81 478.689 176.454 476.359 177.023 481.07C177.282 482.933 176.868 488.886 176.868 488.886C177.231 488.989 178.525 489.352 182.51 490.439C185.254 491.215 187.686 492.302 189.653 493.337C190.119 493.855 190.844 494.217 191.672 494.528C193.587 495.718 194.674 496.65 194.674 496.65L197.521 495.459C197.521 495.459 194.156 495.408 191.672 494.528C191.051 494.165 190.378 493.751 189.653 493.337C189.084 492.716 188.929 491.991 189.343 491.008C191.31 486.712 199.54 486.505 202.852 486.919C206.527 487.385 208.132 490.335 208.132 490.335C208.132 490.335 216.466 486.867 222.522 484.538C228.63 482.26 228.681 488.782 228.681 488.782L218.64 494.579C218.847 494.528 222.211 493.492 225.731 491.991C229.044 490.594 249.179 479.776 247.471 488.161Z" fill="#F2B84A"/>
<path d="M189.653 493.337C187.686 492.302 185.254 491.215 182.51 490.439C178.525 489.352 177.231 488.989 176.868 488.886C176.868 488.886 177.282 482.933 177.023 481.07C176.454 476.359 167.81 478.689 167.81 478.689C167.81 478.689 174.021 472.167 172.417 470.925C170.812 469.682 161.392 473.668 161.392 473.668C161.392 473.668 161.495 479.051 162.841 481.639C164.187 484.279 159.994 488.265 159.994 488.265C159.994 488.265 155.232 487.902 151.919 485.004C148.607 482.105 155.077 474.237 152.696 471.908C150.315 469.579 142.343 475.583 142.343 475.583L147.157 496.65L146.795 503.793C146.795 503.793 141.205 506.847 139.755 508.969C137.116 512.748 137.944 516.682 138.617 517.561C139.6 518.856 140.635 514.818 143.12 512.127C144.207 510.936 147.157 511.195 149.745 511.661C152.075 512.127 154.041 512.748 154.041 512.748C154.041 512.748 164.238 523.721 196.072 523.721C205.958 523.721 216.983 520.305 218.484 520.15C219.313 520.046 220.037 519.994 220.71 519.839C229.458 518.183 230.959 512.385 230.959 512.385C230.959 512.385 245.814 496.546 247.471 488.161C249.179 479.776 229.044 490.594 225.731 491.991C222.211 493.492 218.847 494.528 218.64 494.579L228.681 488.782C228.681 488.782 228.63 482.26 222.522 484.538C216.466 486.867 208.132 490.335 208.132 490.335C208.132 490.335 206.527 487.385 202.852 486.919C199.54 486.505 191.31 486.712 189.343 491.008C188.929 491.991 189.084 492.716 189.653 493.337ZM189.653 493.337C190.119 493.855 190.844 494.217 191.672 494.528M189.653 493.337C190.378 493.751 191.051 494.165 191.672 494.528M191.672 494.528C193.587 495.718 194.674 496.65 194.674 496.65L197.521 495.459C197.521 495.459 194.156 495.408 191.672 494.528Z" stroke="#1C2628" stroke-width="2.13" stroke-linecap="round" stroke-linejoin="round"/>
<path fill-rule="evenodd" clip-rule="evenodd" d="M223.454 507.261C223.764 514.352 225.628 527.5 231.528 532.469C239.137 538.939 241.104 524.032 239.241 519.528C235.721 511.091 236.187 512.334 232.719 505.191" fill="#F2B84A"/>
<path d="M223.454 507.261C223.764 514.352 225.628 527.5 231.528 532.469C239.137 538.939 241.104 524.032 239.241 519.528C235.721 511.091 236.187 512.334 232.719 505.191" stroke="#1C2628" stroke-width="2.13" stroke-linecap="round" stroke-linejoin="round"/>
<path fill-rule="evenodd" clip-rule="evenodd" d="M159.528 488.006C162.996 487.643 166.206 492.302 166.05 495.563C165.947 497.892 165.015 499.756 164.497 501.93" fill="#F2B84A"/>
<path d="M159.528 488.006C162.996 487.643 166.206 492.302 166.05 495.563C165.947 497.892 165.015 499.756 164.497 501.93" stroke="#1C2628" stroke-width="2.13" stroke-linecap="round" stroke-linejoin="round"/>
<path fill-rule="evenodd" clip-rule="evenodd" d="M188.773 491.577C188.256 496.029 197.366 494.786 199.695 494.165C200.678 493.907 201.713 493.699 202.645 493.389C202.645 493.389 203.991 493.182 203.939 493.234C203.732 493.544 202.645 493.958 202.386 494.062C201.299 494.476 200.161 494.838 199.074 495.304C197.728 495.873 196.33 496.391 194.933 496.909C193.846 497.323 194.674 500.894 192.345 502.137" fill="#F2B84A"/>
<path d="M188.773 491.577C188.256 496.029 197.366 494.786 199.695 494.165C200.678 493.907 201.713 493.699 202.645 493.389C202.645 493.389 203.991 493.182 203.939 493.234C203.732 493.544 202.645 493.958 202.386 494.062C201.299 494.476 200.161 494.838 199.074 495.304C197.728 495.873 196.33 496.391 194.933 496.909C193.846 497.323 194.674 500.894 192.345 502.137" stroke="#1C2628" stroke-width="2.13" stroke-linecap="round" stroke-linejoin="round"/>
<path fill-rule="evenodd" clip-rule="evenodd" d="M212.118 492.664C211.186 495.874 212.739 496.909 219.985 493.803L212.118 492.664Z" fill="#F2B84A"/>
<path d="M212.118 492.664C211.186 495.874 212.739 496.909 219.985 493.803" stroke="#1C2628" stroke-width="2.13" stroke-linecap="round" stroke-linejoin="round"/>
<path fill-rule="evenodd" clip-rule="evenodd" d="M227.284 509.28C226.663 512.385 228.06 515.595 228.63 518.752C229.199 521.806 230.855 526.723 233.133 528.897C238.412 533.97 238.464 523.773 238.309 521.392" fill="#F2B84A"/>
<path d="M227.284 509.28C226.663 512.385 228.06 515.595 228.63 518.752C229.199 521.806 230.855 526.723 233.133 528.897C238.412 533.97 238.464 523.773 238.309 521.392" stroke="#1C2628" stroke-width="2.13" stroke-linecap="round" stroke-linejoin="round"/>
<path fill-rule="evenodd" clip-rule="evenodd" d="M237.636 498.669L238.206 497.685L239.551 496.909L239.137 498.565L238.516 499.083L238.05 498.927" fill="#F5F5F5"/>
<path d="M237.636 498.669L238.206 497.685L239.551 496.909L239.137 498.565L238.516 499.083L238.05 498.927" stroke="#1C2628" stroke-width="2.13" stroke-linecap="round" stroke-linejoin="round"/>
<path fill-rule="evenodd" clip-rule="evenodd" d="M243.019 485.884C242.605 486.971 241.259 490.283 242.916 491.008C243.485 491.267 245.711 490.956 246.073 490.335C246.384 489.869 246.746 488.213 246.384 488.627C245.918 489.145 244.986 491.215 243.795 490.283C242.605 489.403 244.831 484.175 246.125 484.693C247.729 485.366 244.468 490.801 243.226 489.196C241.57 487.126 247.988 483.761 246.539 487.281C246.28 487.954 245.452 488.73 244.934 489.3" fill="#F5F5F5"/>
<path d="M243.019 485.884C242.605 486.971 241.259 490.283 242.916 491.008C243.485 491.267 245.711 490.956 246.073 490.335C246.384 489.869 246.746 488.213 246.384 488.627C245.918 489.145 244.986 491.215 243.795 490.283C242.605 489.403 244.831 484.175 246.125 484.693C247.729 485.366 244.468 490.801 243.226 489.196C241.57 487.126 247.988 483.761 246.539 487.281C246.28 487.954 245.452 488.73 244.934 489.3" stroke="#1C2628" stroke-width="2.13" stroke-linecap="round" stroke-linejoin="round"/>
<path d="M181.165 383.086C190.119 391.264 206.372 406.326 207.356 405.602C210.203 403.531 213.671 393.438 214.965 390.125" stroke="#F5F5F5" stroke-width="2.13" stroke-linecap="round" stroke-linejoin="round"/>
<path d="M176.092 378.531C177.075 379.307 178.887 380.963 181.216 383.086" stroke="#1C2628" stroke-width="2.13" stroke-linecap="round" stroke-linejoin="round"/>
<path d="M236.083 332.152C237.843 320.403 239.914 307.98 247.73 298.973C252.854 293.021 259.945 289.242 266.364 284.687C280.546 274.594 291.623 260.204 297.731 243.899C302.649 230.804 304.408 216.828 307.98 203.318C311.552 189.809 317.452 176.247 328.477 167.655C334.585 162.893 341.935 159.942 349.441 157.976C366.263 153.576 384.276 153.99 400.84 159.114" stroke="#1C2628" stroke-width="2.13" stroke-linecap="round" stroke-linejoin="round"/>
<path d="M346.956 185.978C341.366 186.185 336.966 190.844 334.171 195.71C327.132 207.822 325.89 222.263 324.026 236.187C323.353 241.363 322.525 246.539 320.455 251.353" stroke="#1C2628" stroke-width="2.13" stroke-linecap="round" stroke-linejoin="round"/>
<path d="M280.598 237.481C275.267 250.111 266.519 262.171 253.734 267.088" stroke="#1C2628" stroke-width="2.13" stroke-linecap="round" stroke-linejoin="round"/>
<path d="M319.574 172.003L319.005 172.21L324.026 187.531C323.042 187.117 321.645 187.48 320.558 188.411C319.16 189.653 318.798 191.517 319.73 192.552C320.661 193.587 322.576 193.432 323.974 192.19C325.32 190.948 325.682 189.188 324.854 188.101L319.574 172.003Z" fill="#1C2628" stroke="#1C2628" stroke-width="2.13" stroke-linecap="round" stroke-linejoin="round"/>
<path d="M295.764 273.921C297.162 271.954 297.11 269.469 295.609 268.434C294.108 267.399 291.778 268.124 290.381 270.142C288.983 272.109 289.035 274.542 290.536 275.629C290.536 275.629 290.536 275.629 290.588 275.629L301.717 294.263L302.389 293.849L291.778 276.043C293.072 276.25 294.677 275.422 295.764 273.921Z" fill="#1C2628" stroke="#1C2628" stroke-width="2.13" stroke-linecap="round" stroke-linejoin="round"/>
<path d="M301.406 194.001L287.275 188.256L287.379 188.101L284.17 186.703L274.594 199.488L278.062 200.937L278.217 200.73L290.019 205.544C289.294 206.165 288.776 207.252 288.828 208.495C288.88 210.358 290.07 211.859 291.468 211.807C292.865 211.756 293.952 210.203 293.901 208.339C293.849 206.476 292.658 204.975 291.261 205.027C291.209 205.027 291.157 205.027 291.106 205.027L278.735 200.006L286.758 188.981L300.371 194.519C299.646 195.14 299.129 196.227 299.18 197.469C299.232 199.333 300.423 200.782 301.82 200.782C303.218 200.73 304.305 199.178 304.253 197.314C304.201 195.451 303.011 193.95 301.613 194.001C301.51 194.001 301.458 194.001 301.406 194.001Z" fill="#1C2628" stroke="#1C2628" stroke-width="2.13" stroke-linecap="round" stroke-linejoin="round"/>
<path d="M149.332 388.935C149.332 388.935 143.379 395.871 137.892 402.237C129.973 411.451 119.569 439.091 119.569 439.091" stroke="#1C2628" stroke-width="2.13" stroke-linecap="round" stroke-linejoin="round"/>
<path fill-rule="evenodd" clip-rule="evenodd" d="M286.81 393.231C284.636 395.508 282.099 397.009 280.288 396.595C276.768 395.871 277.389 388.52 272.679 386.916C268.279 385.415 265.225 391.109 259.583 390.591C256.322 390.28 253.061 388.106 250.835 385.467C266.364 373.51 278.01 375.114 285.205 387.382C285.93 388.728 286.447 390.694 286.81 393.231Z" fill="#1C2628" stroke="#1C2628" stroke-width="2.13" stroke-linecap="round" stroke-linejoin="round"/>
<path fill-rule="evenodd" clip-rule="evenodd" d="M220.71 519.839C220.037 519.994 219.313 520.046 218.484 520.15C216.983 520.305 205.958 523.721 196.072 523.721C164.238 523.721 154.042 512.748 154.042 512.748C154.042 512.748 152.075 512.127 149.745 511.661C149.642 509.642 149.952 507.882 151.039 507.209C153.834 505.398 161.599 511.247 163.566 512.748C165.843 514.456 165.895 514.87 167.241 515.388C171.226 516.889 173.659 514.197 178.162 515.025C181.423 515.646 181.164 517.251 184.374 518.234C188.825 519.58 191.568 517.199 198.867 515.129C205.648 513.214 210.513 511.816 214.602 513.731C217.035 514.87 219.261 517.199 220.71 519.839Z" fill="#1C2628" stroke="#1C2628" stroke-width="2.13" stroke-linecap="round" stroke-linejoin="round"/>
<path fill-rule="evenodd" clip-rule="evenodd" d="M316.883 488.109C315.899 490.335 310.102 490.335 306.323 488.264C305.288 487.695 303.373 486.66 303.373 485.314C303.425 483.14 308.601 480.241 312.69 481.898C315.433 483.037 317.659 486.349 316.883 488.109Z" fill="#1C2628" stroke="#1C2628" stroke-width="2.13" stroke-linecap="round" stroke-linejoin="round"/>
<path fill-rule="evenodd" clip-rule="evenodd" d="M213.93 480.5C212.014 480.656 210.513 478.016 211.031 476.877C211.652 475.479 215.534 475.428 216.259 476.877C216.828 478.016 215.689 480.345 213.93 480.5Z" fill="#1C2628" stroke="#1C2628" stroke-width="2.13" stroke-linecap="round" stroke-linejoin="round"/>
<path fill-rule="evenodd" clip-rule="evenodd" d="M266.571 394.266C266.364 392.92 267.71 391.523 269.211 391.264C270.919 391.005 272.834 392.403 272.782 393.904C272.731 395.042 271.54 395.974 270.453 396.233C268.848 396.595 266.778 395.715 266.571 394.266Z" fill="#1C2628" stroke="#1C2628" stroke-width="2.13" stroke-linecap="round" stroke-linejoin="round"/>
<path fill-rule="evenodd" clip-rule="evenodd" d="M372.889 314.036C373.406 310.361 367.764 306.323 364.71 307.617C361.553 308.963 360.776 316.158 363.779 318.177C366.522 320.04 372.371 317.504 372.889 314.036Z" fill="#1C2628" stroke="#1C2628" stroke-width="2.13" stroke-linecap="round" stroke-linejoin="round"/>
<path fill-rule="evenodd" clip-rule="evenodd" d="M375.632 348.923C375.27 348.043 376.409 346.853 377.03 346.956C377.754 347.06 378.272 348.923 377.599 349.492C377.133 349.855 375.943 349.596 375.632 348.923Z" fill="#1C2628" stroke="#1C2628" stroke-width="2.13" stroke-linecap="round" stroke-linejoin="round"/>
<path d="M543.494 235.928C543.235 236.497 542.976 237.119 542.821 237.74C542.666 238.257 542.511 238.775 542.252 239.241C541.941 239.655 541.527 240.017 541.061 240.276C539.923 241.052 538.732 241.674 537.49 242.243" stroke="white" stroke-width="2.13" stroke-linecap="round" stroke-linejoin="round"/>
<path d="M540.751 243.278C539.198 244.52 537.283 245.193 535.368 245.504C533.452 245.866 531.485 245.866 529.519 245.918" stroke="#1C2628" stroke-width="2.13" stroke-linecap="round" stroke-linejoin="round"/>
<path d="M507.468 236.083C507.571 236.86 506.329 238.516 505.656 238.878" stroke="#1C2628" stroke-width="2.13" stroke-linecap="round" stroke-linejoin="round"/>
<path d="M279.718 410.208C279.097 427.807 277.544 445.406 275.111 462.85" stroke="#1C2628" stroke-width="2.13" stroke-linecap="round" stroke-linejoin="round"/>
<path d="M274.956 412.072C275.163 415.436 275.267 418.801 275.215 422.217" stroke="#1C2628" stroke-width="2.13" stroke-linecap="round" stroke-linejoin="round"/>
<path d="M234.064 450.22C234.323 444.319 235.255 438.418 236.911 432.673" stroke="#1C2628" stroke-width="2.13" stroke-linecap="round" stroke-linejoin="round"/>
<path d="M318.694 472.684C325.786 473.771 332.929 474.651 340.072 475.221" stroke="#1C2628" stroke-width="2.13" stroke-linecap="round" stroke-linejoin="round"/>
<path d="M329.927 477.136C333.55 477.653 337.122 478.016 340.797 478.275" stroke="#1C2628" stroke-width="2.13" stroke-linecap="round" stroke-linejoin="round"/>
<path d="M165.843 459.175C165.533 460.313 165.377 461.452 165.377 462.591C165.377 463.16 165.429 463.781 165.74 464.299C166.206 465.075 167.241 465.386 168.173 465.49C169.467 465.593 170.761 465.438 172.055 465.438C173.349 465.438 174.694 465.697 175.73 466.473C176.765 467.249 177.283 468.751 176.713 469.889C176.403 470.459 175.885 470.873 175.73 471.494C175.471 472.374 176.04 473.357 176.868 473.771C177.697 474.237 178.628 474.289 179.56 474.341C180.544 474.393 181.527 474.444 182.51 474.548C183.08 474.6 183.649 474.6 184.167 474.858C185.513 475.48 185.978 477.084 186.289 478.482" stroke="#1C2628" stroke-width="2.13" stroke-linecap="round" stroke-linejoin="round"/>
<path d="M180.958 468.129C183.597 469.993 187.324 469.372 190.016 471.132C191.155 471.856 192.034 472.995 192.5 474.289" stroke="#1C2628" stroke-width="2.13" stroke-linecap="round" stroke-linejoin="round"/>
<path d="M397.061 281.685C402.134 280.909 407.31 281.789 412.124 283.497C416.937 285.205 421.441 287.689 425.892 290.277" stroke="#1C2628" stroke-width="2.13" stroke-linecap="round" stroke-linejoin="round"/>
<path d="M418.749 281.064C422.165 282.927 425.737 284.428 429.464 285.567C431.741 286.24 434.174 286.809 436.089 288.207" stroke="#1C2628" stroke-width="2.13" stroke-linecap="round" stroke-linejoin="round"/>
<path d="M365.59 333.395C364.969 335.31 365.797 337.587 367.506 338.674C368.127 339.037 368.851 339.295 369.369 339.813C370.559 340.952 370.145 342.919 369.783 344.472C369.058 347.37 368.489 350.372 369.11 353.323" stroke="#1C2628" stroke-width="2.13" stroke-linecap="round" stroke-linejoin="round"/>
<path d="M372.009 348.561C371.388 351.045 372.526 353.582 373.096 356.118C373.665 358.706 373.51 361.449 373.665 364.089C373.82 366.729 374.286 369.524 375.891 371.646C378.22 374.752 385.415 378.893 389.245 379.359" stroke="#1C2628" stroke-width="2.13" stroke-linecap="round" stroke-linejoin="round"/>
<path d="M377.857 377.858C378.841 379.411 383.396 380.963 385.156 381.481C387.226 382.05 389.4 382.413 391.522 382.464" stroke="#1C2628" stroke-width="2.13" stroke-linecap="round" stroke-linejoin="round"/>
<path d="M487.074 255.701C488.679 253.993 489.455 253.579 491.422 252.285" stroke="#1C2628" stroke-width="2.13" stroke-linecap="round" stroke-linejoin="round"/>
<path d="M489.662 257.771C491.008 256.633 491.836 255.96 493.544 255.494" stroke="#1C2628" stroke-width="2.13" stroke-linecap="round" stroke-linejoin="round"/>
<path d="M522.375 253.216C520.978 254.51 519.373 255.649 517.717 256.581" stroke="#1C2628" stroke-width="2.13" stroke-linecap="round" stroke-linejoin="round"/>
<path d="M524.963 253.268C522.479 256.891 518.286 258.91 514.352 260.825C510.418 262.792 506.174 263.103 504.207 267.037" stroke="#1C2628" stroke-width="2.13" stroke-linecap="round" stroke-linejoin="round"/>
<path d="M506.743 269.676C508.555 268.227 509.694 267.451 511.971 266.83" stroke="#1C2628" stroke-width="2.13" stroke-linecap="round" stroke-linejoin="round"/>
<path d="M572.221 219.727C573.308 219.572 574.343 219.52 575.43 219.572" stroke="#1C2628" stroke-width="2.13" stroke-linecap="round" stroke-linejoin="round"/>
<path d="M563.991 210.772C566.476 212.377 569.012 213.878 571.6 215.327" stroke="#1C2628" stroke-width="2.13" stroke-linecap="round" stroke-linejoin="round"/>
<path d="M562.024 228.267C565.648 225.628 569.53 222.936 573.93 222.418C574.395 222.367 574.913 222.367 575.275 222.625C575.793 223.039 575.586 224.023 574.965 224.282C574.344 224.592 573.567 224.23 573.205 223.661C572.843 223.091 572.894 222.315 573.153 221.694C573.205 221.538 573.308 221.383 573.464 221.28C573.671 221.073 574.033 221.073 574.292 221.073C575.845 221.021 577.398 220.607 578.64 219.675C579.882 218.743 580.71 217.242 580.658 215.689" stroke="#1C2628" stroke-width="2.13" stroke-linecap="round" stroke-linejoin="round"/>
<path d="M377.236 232.822C378.065 229.044 380.911 225.886 384.431 224.23C387.951 222.574 391.988 222.315 395.767 222.988" stroke="#1C2628" stroke-width="2.13" stroke-linecap="round" stroke-linejoin="round"/>
<path d="M394.835 217.398C399.39 217.242 403.945 219.261 406.948 222.677C408.656 224.644 409.898 227.025 411.606 228.992C411.813 229.251 412.072 229.458 412.383 229.561C412.848 229.717 413.314 229.51 413.728 229.354C416.679 228.164 419.629 226.922 422.58 225.731" stroke="#1C2628" stroke-width="2.13" stroke-linecap="round" stroke-linejoin="round"/>
<path d="M402.6 226.922C404.618 229.354 406.171 232.201 407.258 235.152" stroke="#1C2628" stroke-width="2.13" stroke-linecap="round" stroke-linejoin="round"/>
<path d="M377.858 236.29C377.806 237.636 376.719 238.723 375.58 239.448C374.442 240.173 373.148 240.794 372.371 241.881" stroke="#1C2628" stroke-width="2.13" stroke-linecap="round" stroke-linejoin="round"/>
<path fill-rule="evenodd" clip-rule="evenodd" d="M465.386 352.391C463.264 349.285 472.477 335.206 480.707 337.07C483.71 337.743 487.022 340.641 486.867 343.488C486.401 350.01 467.715 355.756 465.386 352.391Z" fill="#F2B84A"/>
<path d="M186.341 343.695C183.235 348.871 188.256 351.149 188.411 353.012" stroke="#1C2628" stroke-width="2.13" stroke-linecap="round" stroke-linejoin="round"/>
</svg>
