<svg width="500" height="594" viewBox="0 0 500 594" fill="none" xmlns="http://www.w3.org/2000/svg">
<path fill-rule="evenodd" clip-rule="evenodd" d="M235.15 404.848C198.139 355.763 239.153 303.528 276.754 269.601C361.603 157.651 175.959 283.579 118.868 246.043C28.1791 170.709 217.826 63.5492 239.35 54.9528C312.649 25.6855 397.629 5.53959 441.859 77.1329C441.924 77.2641 441.99 77.3954 442.055 77.5266C463.382 121.165 385.621 135.274 411.935 166.838C433.262 192.43 499.081 152.729 499.081 212.379C507.743 272.817 286.598 432.081 235.15 404.848Z" fill="#F2B84A"/>
<path fill-rule="evenodd" clip-rule="evenodd" d="M345.066 28.3104C321.836 29.0978 297.359 34.7413 273.211 42.6159C278.395 45.9626 284.629 47.9313 290.797 48.9812C304.447 50.4249 317.374 49.703 329.645 43.2065C336.142 39.4004 341.129 34.2163 345.066 28.3104Z" fill="#FAF6EB" stroke="#1C2628" stroke-width="2.13" stroke-linecap="round" stroke-linejoin="round"/>
<path fill-rule="evenodd" clip-rule="evenodd" d="M366.197 64.796C345.591 64.796 334.764 83.7607 337.454 101.938C361.997 88.6167 385.489 94.129 411.41 88.6824C421.91 86.4512 432.212 82.5795 442.055 77.5267C441.99 77.3954 441.924 77.2642 441.859 77.1329C435.165 66.371 427.619 57.6433 419.285 50.753C412.788 55.8059 406.357 61.2525 399.27 65.5179C389.23 71.9488 377.746 64.796 366.197 64.796Z" fill="#1C2628" stroke="#1C2628" stroke-width="2.13" stroke-linecap="round" stroke-linejoin="round"/>
<path fill-rule="evenodd" clip-rule="evenodd" d="M272.029 87.7636C272.751 81.2671 266.255 76.2798 260.546 76.2798C253.327 75.9517 245.321 74.4424 237.512 73.9174C237.512 80.8733 238.234 89.0104 243.353 96.2944C248.274 103.382 252.671 103.119 254.771 109.222C263.958 105.285 270.717 98.7224 272.029 87.7636Z" fill="#1C2628" stroke="#1C2628" stroke-width="2.13" stroke-linecap="round" stroke-linejoin="round"/>
<path fill-rule="evenodd" clip-rule="evenodd" d="M345.066 28.3103C341.195 34.2819 336.207 39.4004 329.58 43.2064C317.374 49.703 304.447 50.4248 290.732 48.9812C284.629 47.9312 278.329 45.9626 273.145 42.6159C261.727 46.3563 250.374 50.5561 239.284 54.9527C238.3 60.3993 237.709 65.3866 237.578 69.4551C237.512 70.8332 237.512 72.3425 237.512 73.8518C245.321 74.3768 253.327 75.8861 260.546 76.2142C266.32 76.2142 272.751 81.2671 272.029 87.698C270.651 98.5912 263.892 105.153 254.771 109.156C254.771 109.222 254.837 109.288 254.837 109.353C258.118 119.328 243.878 156.863 293.356 159.751C298.672 143.28 308.909 121.231 329.908 106.531C332.401 104.76 334.895 103.25 337.389 101.872C334.698 83.6951 345.526 64.7304 366.131 64.7304C377.615 64.7304 389.164 71.9488 399.204 65.4522C406.292 61.1868 412.722 55.7402 419.219 50.6873C398.286 33.3632 372.628 27.3916 345.066 28.3103Z" fill="#FAF6EB" stroke="#1C2628" stroke-width="2.13" stroke-linecap="round" stroke-linejoin="round"/>
<path fill-rule="evenodd" clip-rule="evenodd" d="M229.507 219.795C236.003 203.52 238.037 185.212 252.671 173.794C263.958 165 285.088 156.076 299.787 159.029C314.88 162.047 317.505 185.212 312.059 196.696C308.384 204.308 301.231 208.967 294.21 213.167" fill="#FAF6EB"/>
<path d="M229.507 219.795C236.003 203.52 238.037 185.212 252.671 173.794C263.958 165 285.088 156.076 299.787 159.029C314.88 162.047 317.505 185.212 312.059 196.696C308.384 204.308 301.231 208.967 294.21 213.167" stroke="#1C2628" stroke-width="2.13" stroke-linecap="round" stroke-linejoin="round"/>
<path fill-rule="evenodd" clip-rule="evenodd" d="M279.838 169.988L279.576 186.852L283.841 191.84C283.841 191.84 314.29 298.475 307.596 302.412C303.856 304.643 243.09 318.555 237.25 316.718C231.738 314.946 252.737 207.655 249.981 206.998C244.928 205.686 252.999 195.186 252.999 195.186L253.524 175.828L253.065 168.281L279.838 169.988Z" fill="#8A3EB7" stroke="#1C2628" stroke-width="2.13" stroke-linecap="round" stroke-linejoin="round"/>
<path fill-rule="evenodd" clip-rule="evenodd" d="M232.328 225.044L230.753 251.359L305.693 251.752L314.093 220.648L232.328 225.044Z" fill="#1C2628" stroke="#1C2628" stroke-width="2.13" stroke-linecap="round" stroke-linejoin="round"/>
<path fill-rule="evenodd" clip-rule="evenodd" d="M190.659 236.594L149.514 275.114L83.9576 305.497C83.9576 305.497 68.0115 319.408 68.0115 326.824C68.0115 334.239 79.6265 341.654 79.6265 341.654C79.6265 341.654 81.9233 342.376 81.9233 336.339C81.9889 330.367 77.5266 326.364 77.5266 326.364L95.3757 315.602C95.3757 315.602 90.1916 330.498 92.1603 334.501C94.1289 338.504 99.5099 336.208 99.5099 336.208L109.616 319.736C109.616 319.736 139.408 316.127 167.953 300.312C196.499 284.498 223.863 256.412 223.863 256.412" fill="#8A3EB7"/>
<path d="M190.659 236.594L149.514 275.114L83.9576 305.497C83.9576 305.497 68.0115 319.408 68.0115 326.824C68.0115 334.239 79.6265 341.654 79.6265 341.654C79.6265 341.654 81.9233 342.376 81.9233 336.339C81.9889 330.367 77.5266 326.364 77.5266 326.364L95.3757 315.602C95.3757 315.602 90.1916 330.498 92.1603 334.501C94.1289 338.504 99.5099 336.208 99.5099 336.208L109.616 319.736C109.616 319.736 139.408 316.127 167.953 300.312C196.499 284.498 223.863 256.412 223.863 256.412" stroke="#1C2628" stroke-width="2.13" stroke-linecap="round" stroke-linejoin="round"/>
<path fill-rule="evenodd" clip-rule="evenodd" d="M88.748 567.262C97.4756 555.843 89.9291 529.398 108.172 531.826L138.03 489.106L94.8508 483.791C94.8508 483.791 85.795 501.049 76.5423 520.605C74.4424 525.001 67.4209 530.185 66.0428 534.582C64.5335 539.569 68.0115 543.441 67.4865 548.034C65.5179 565.293 65.2554 579.27 65.2554 579.27C65.2554 579.27 68.5365 581.305 71.0957 580.714C73.7206 580.058 75.6236 576.777 75.6236 576.777C75.6236 576.777 76.083 577.564 76.7392 578.483C76.8048 577.695 76.936 576.842 77.1329 575.989C78.7078 570.149 85.8606 570.149 88.748 567.262Z" fill="#8A3EB7" stroke="#1C2628" stroke-width="2.13" stroke-linecap="round" stroke-linejoin="round"/>
<path fill-rule="evenodd" clip-rule="evenodd" d="M88.748 567.262C85.8606 570.149 78.7078 570.149 77.2642 575.858C77.0673 576.711 76.936 577.564 76.8704 578.352C77.986 579.861 79.6922 581.764 81.3327 581.698C87.4355 581.37 89.7323 577.827 89.7323 577.827C89.7323 577.827 90.126 581.239 94.0633 581.37C98.0006 581.567 105.482 578.417 105.482 578.417L102.463 569.952L98.9849 544.885L108.172 531.695C89.9291 529.398 97.4757 555.843 88.748 567.262Z" fill="#1C2628" stroke="#1C2628" stroke-width="2.13" stroke-linecap="round" stroke-linejoin="round"/>
<path fill-rule="evenodd" clip-rule="evenodd" d="M318.752 569.427C318.03 557.943 327.349 547.116 318.03 534.188C314.946 529.529 318.555 525.986 323.214 524.936L310.615 491.206L281.085 504.855L303.79 558.6L290.01 585.439L289.747 585.964C289.747 585.964 287.254 589.245 297.031 589.967L302.412 586.948C302.412 586.948 300.969 590.885 307.531 591.804C309.368 592.067 311.074 588.72 315.405 588.064C315.405 588.064 317.308 594.167 320.918 592.526C328.267 584.717 318.752 576.383 318.752 569.427Z" fill="#8A3EB7" stroke="#1C2628" stroke-width="2.13" stroke-linecap="round" stroke-linejoin="round"/>
<path fill-rule="evenodd" clip-rule="evenodd" d="M332.073 547.706C330.17 542.916 328.464 538.979 328.464 538.979L323.214 524.87C318.555 525.92 314.946 529.464 318.03 534.123C327.349 547.05 318.03 557.812 318.752 569.362C318.752 576.317 328.267 584.651 320.918 592.395C321.574 592.132 322.23 591.607 322.952 590.754C325.971 587.342 330.039 558.403 330.039 558.403C330.039 558.403 334.764 554.465 332.073 547.706Z" fill="#1C2628" stroke="#1C2628" stroke-width="2.13" stroke-linecap="round" stroke-linejoin="round"/>
<path fill-rule="evenodd" clip-rule="evenodd" d="M246.174 156.995C240.203 137.833 248.078 123.003 275.442 126.48C278.657 126.874 282.398 127.268 285.219 128.908C298.213 136.455 297.359 147.086 297.359 147.086C297.359 147.086 317.768 167.363 303.922 175.041C290.075 182.784 263.695 184.753 249.324 180.225C234.822 175.697 246.174 156.995 246.174 156.995Z" fill="#1C2628" stroke="#1C2628" stroke-width="2.13" stroke-linecap="round" stroke-linejoin="round"/>
<path fill-rule="evenodd" clip-rule="evenodd" d="M283.251 159.882C284.432 155.682 283.973 147.217 282.988 143.411C281.085 136.455 279.773 136.914 272.686 135.011C264.745 132.846 260.283 132.255 255.165 138.555C253.196 140.983 247.224 150.17 246.306 153.517C243.025 165.329 249.324 177.403 260.283 180.422C267.305 182.325 273.079 181.734 278.198 176.812C281.085 173.925 282.07 164.147 283.251 159.882Z" fill="#8A3EB7" stroke="#1C2628" stroke-width="2.13" stroke-linecap="round" stroke-linejoin="round"/>
<path fill-rule="evenodd" clip-rule="evenodd" d="M267.37 158.832C267.895 157.191 266.386 155.223 264.024 154.435C261.596 153.648 259.233 154.304 258.708 155.945C258.183 157.585 259.693 159.554 262.055 160.341C264.417 161.129 266.78 160.473 267.37 158.832Z" fill="#FAFCFF" stroke="#1C2628" stroke-width="2.13" stroke-linecap="round" stroke-linejoin="round"/>
<path fill-rule="evenodd" clip-rule="evenodd" d="M253.13 152.27C253.655 150.629 252.146 148.661 249.784 147.873C247.356 147.086 244.993 147.808 244.468 149.382C243.943 151.023 245.453 152.992 247.815 153.779C250.177 154.567 252.54 153.91 253.13 152.27Z" fill="#FAFCFF" stroke="#1C2628" stroke-width="2.13" stroke-linecap="round" stroke-linejoin="round"/>
<path fill-rule="evenodd" clip-rule="evenodd" d="M277.345 188.821L279.051 171.563C279.051 171.563 265.139 168.478 261.858 172.088C258.511 175.697 262.055 187.509 262.055 187.509L270.389 188.755" fill="#8A3EB7"/>
<path fill-rule="evenodd" clip-rule="evenodd" d="M281.02 161.129C282.595 159.226 285.744 161.129 286.335 162.966C287.582 166.772 284.694 173.138 278.723 169.332" fill="#8A3EB7"/>
<path d="M281.02 161.129C282.595 159.226 285.744 161.129 286.335 162.966C287.582 166.772 284.694 173.138 278.723 169.332" stroke="#1C2628" stroke-width="2.13" stroke-linecap="round" stroke-linejoin="round"/>
<path fill-rule="evenodd" clip-rule="evenodd" d="M259.824 159.488C261.005 160.21 262.383 160.079 262.974 159.16C263.564 158.241 263.105 156.863 261.989 156.141C260.808 155.42 259.43 155.551 258.84 156.47C258.249 157.454 258.708 158.766 259.824 159.488Z" fill="#1C2628" stroke="#1C2628" stroke-width="2.13" stroke-linecap="round" stroke-linejoin="round"/>
<path fill-rule="evenodd" clip-rule="evenodd" d="M248.603 152.467C249.39 151.351 249.127 149.448 246.109 148.923C244.993 148.726 245.125 149.251 244.337 150.367C243.55 151.482 244.6 152.795 245.518 153.385C246.503 154.042 247.881 153.582 248.603 152.467Z" fill="#1C2628" stroke="#1C2628" stroke-width="2.13" stroke-linecap="round" stroke-linejoin="round"/>
<path d="M282.595 164.869C282.463 165 282.398 165.132 282.266 165.263" stroke="#1C2628" stroke-width="2.13" stroke-linecap="round" stroke-linejoin="round"/>
<path fill-rule="evenodd" clip-rule="evenodd" d="M265.992 165C264.483 168.282 260.021 167.1 256.871 168.216C256.871 168.216 259.364 173.597 264.614 170.775C268.092 168.938 265.992 165 265.992 165Z" fill="#1C2628" stroke="#1C2628" stroke-width="2.13" stroke-linecap="round" stroke-linejoin="round"/>
<path fill-rule="evenodd" clip-rule="evenodd" d="M256.018 151.679L274.129 157.257C274.129 157.257 268.223 164.147 263.367 162.901C254.902 160.669 256.018 151.679 256.018 151.679Z" fill="#1C2628" stroke="#1C2628" stroke-width="2.13" stroke-linecap="round" stroke-linejoin="round"/>
<path fill-rule="evenodd" clip-rule="evenodd" d="M238.956 147.217L256.149 151.745C256.149 151.745 252.146 159.619 243.943 156.929C235.741 154.238 238.956 147.217 238.956 147.217Z" fill="#1C2628" stroke="#1C2628" stroke-width="2.13" stroke-linecap="round" stroke-linejoin="round"/>
<path fill-rule="evenodd" clip-rule="evenodd" d="M254.902 154.698C254.902 154.698 245.846 160.801 246.306 162.179C248.012 167.56 252.54 163.491 253.327 163.688" fill="#8A3EB7"/>
<path d="M254.902 154.698C254.902 154.698 245.846 160.801 246.306 162.179C248.012 167.56 252.54 163.491 253.327 163.688" stroke="#1C2628" stroke-width="2.13" stroke-linecap="round" stroke-linejoin="round"/>
<path fill-rule="evenodd" clip-rule="evenodd" d="M343.032 512.664C332.336 516.602 321.18 519.227 309.893 521.983C301.494 524.017 293.094 525.986 284.826 528.61C282.004 529.464 277.739 532.285 276.032 529.857C257.658 503.74 241.975 475.785 227.604 447.305C226.422 445.008 225.963 441.858 225.963 438.184C226.029 417.513 241.909 378.927 244.206 365.737C222.944 403.273 227.669 398.679 201.486 431.293C188.559 447.436 127.334 530.054 127.334 530.054L68.4708 492.125L68.9302 491.6L129.171 421.713C129.171 421.713 179.7 343.229 199.452 315.799C200.174 314.815 200.83 313.831 201.486 312.977C231.278 272.62 225.307 286.335 267.633 289.091C281.873 290.01 309.762 283.054 325.708 293.685C355.107 313.306 309.959 376.631 305.365 397.039C297.097 434.181 325.774 481.56 343.032 512.664Z" fill="#1C2628" stroke="#1C2628" stroke-width="2.13" stroke-linecap="round" stroke-linejoin="round"/>
<path fill-rule="evenodd" clip-rule="evenodd" d="M402.486 144.198C394.283 121.428 305.89 118.278 305.89 118.278L287.319 102.66C287.319 102.66 265.599 111.256 263.236 114.144C260.808 117.031 283.71 114.537 283.71 114.537C283.71 114.537 288.369 134.224 296.375 137.767C300.444 139.539 303.79 135.602 309.237 137.308C329.514 143.673 357.01 154.763 357.01 154.763L305.234 197.746L340.342 220.976C340.342 220.976 410.688 166.969 402.486 144.198Z" fill="#8A3EB7" stroke="#1C2628" stroke-width="2.13" stroke-linecap="round" stroke-linejoin="round"/>
<path fill-rule="evenodd" clip-rule="evenodd" d="M331.548 237.447C331.548 237.447 337.389 289.419 342.704 313.83C342.901 314.815 343.098 315.734 343.36 316.587C320.065 310.549 300.706 308.712 277.082 313.24C276.36 291.125 276.754 208.114 276.754 208.114L285.744 190.002L329.973 172.153C329.973 172.153 347.298 197.221 358.847 210.87C358.585 211.067 358.388 211.329 358.125 211.526C346.641 222.157 331.548 237.447 331.548 237.447Z" fill="#FAF6EB" stroke="#1C2628" stroke-width="2.13" stroke-linecap="round" stroke-linejoin="round"/>
<path fill-rule="evenodd" clip-rule="evenodd" d="M331.548 237.447C331.548 237.447 337.389 289.419 342.704 313.831C334.764 311.206 326.43 304.84 324.199 297.556C322.493 292.044 325.511 290.01 323.871 280.954C322.558 273.473 320.065 272.161 315.537 260.808C311.402 250.374 309.368 245.19 310.418 241.647C312.715 234.1 320.786 235.413 335.683 222.157C340.539 217.826 341.26 216.317 344.935 214.479C348.807 212.576 353.663 211.461 357.994 211.526C346.641 222.157 331.548 237.447 331.548 237.447Z" fill="#1C2628" stroke="#1C2628" stroke-width="2.13" stroke-linecap="round" stroke-linejoin="round"/>
<path fill-rule="evenodd" clip-rule="evenodd" d="M251.031 309.303C251.227 313.437 251.555 317.177 251.752 321.115C249.981 321.443 248.078 321.639 246.109 321.705C238.103 322.099 231.606 322.033 226.291 321.771C207.458 320.721 203.52 316.652 203.52 316.652L211.592 284.891L215.332 270.258L210.476 272.029L179.503 242.828C179.503 242.828 198.402 216.71 215.923 204.111C233.444 191.512 249.587 192.496 249.587 192.496C249.981 194.202 260.152 207.589 260.152 207.589C260.152 207.589 250.571 300.575 251.031 309.303Z" fill="#FAF6EB" stroke="#1C2628" stroke-width="2.13" stroke-linecap="round" stroke-linejoin="round"/>
<path fill-rule="evenodd" clip-rule="evenodd" d="M313.699 174.45C315.274 196.302 306.94 204.833 296.506 215.267C293.881 217.892 279.051 229.9 279.051 232.985" fill="#FAF6EB"/>
<path d="M313.699 174.45C315.274 196.302 306.94 204.833 296.506 215.267C293.881 217.892 279.051 229.9 279.051 232.985" stroke="#1C2628" stroke-width="2.13" stroke-linecap="round" stroke-linejoin="round"/>
<path fill-rule="evenodd" clip-rule="evenodd" d="M254.115 232.263L254.18 232.525C254.18 232.46 254.115 232.394 254.115 232.328C249.915 223.01 240.137 210.345 239.35 198.533C239.087 194.727 239.809 191.052 241.843 187.574" fill="#FAF6EB"/>
<path d="M254.115 232.263L254.18 232.525C254.18 232.46 254.115 232.394 254.115 232.328C249.915 223.01 240.137 210.345 239.35 198.533C239.087 194.727 239.809 191.052 241.843 187.574" stroke="#1C2628" stroke-width="2.13" stroke-linecap="round" stroke-linejoin="round"/>
<path fill-rule="evenodd" clip-rule="evenodd" d="M260.939 131.993C275.901 130.483 263.761 151.285 281.61 151.285C282.135 151.285 288.304 150.301 288.238 149.645C288.172 148.857 286.663 148.923 286.138 148.398C284.76 147.02 284.366 145.511 284.038 143.673C283.579 141.442 285.548 136.783 283.645 135.077C280.56 132.255 274.129 134.88 270.586 135.208" fill="#1C2628"/>
<path d="M260.939 131.993C275.901 130.483 263.761 151.285 281.61 151.285C282.135 151.285 288.304 150.301 288.238 149.645C288.172 148.857 286.663 148.923 286.138 148.398C284.76 147.02 284.366 145.511 284.038 143.673C283.579 141.442 285.548 136.783 283.645 135.077C280.56 132.255 274.129 134.88 270.586 135.208" stroke="#1C2628" stroke-width="2.13" stroke-linecap="round" stroke-linejoin="round"/>
<path fill-rule="evenodd" clip-rule="evenodd" d="M93.2758 317.965L78.7078 320.786C78.7078 320.786 74.0487 329.252 77.8547 332.598C81.6608 335.945 92.7509 336.601 92.7509 336.601L103.316 329.514L98.3287 323.805L93.2758 317.965Z" fill="#FAF6EB" stroke="#1C2628" stroke-width="2.13" stroke-linecap="round" stroke-linejoin="round"/>
<path fill-rule="evenodd" clip-rule="evenodd" d="M84.0888 325.314C84.0888 318.03 89.9948 312.19 97.3444 312.19C104.628 312.19 110.6 318.096 110.6 325.314C110.6 332.598 104.694 338.439 97.3444 338.439C89.9948 338.439 84.0888 332.598 84.0888 325.314Z" fill="#1C2628" stroke="#1C2628" stroke-width="2.13" stroke-linecap="round" stroke-linejoin="round"/>
<path d="M91.7665 472.045C121.493 454.195 101.15 487.006 96.885 485.3C82.7107 479.525 143.345 453.342 121.493 482.413" stroke="#FAF6EB" stroke-width="2.13" stroke-linecap="round" stroke-linejoin="round"/>
<path d="M153.845 420.728C177.797 401.37 184.818 415.479 164.344 429.194C163.819 429.522 163.163 428.931 163.557 428.406C170.513 418.76 204.111 406.16 187.574 428.275" stroke="#FAF6EB" stroke-width="2.13" stroke-linecap="round" stroke-linejoin="round"/>
<path d="M186.656 346.379C211.657 326.233 203.717 355.172 187.837 356.55C185.278 349.398 226.488 335.551 208.573 350.907" stroke="#FAF6EB" stroke-width="2.13" stroke-linecap="round" stroke-linejoin="round"/>
<path d="M250.899 344.082C268.945 319.343 282.988 337.586 264.614 349.529C262.908 350.644 261.071 348.216 262.646 346.904C273.867 337.848 296.113 329.58 284.957 351.169" stroke="#FAF6EB" stroke-width="2.13" stroke-linecap="round" stroke-linejoin="round"/>
<path d="M238.759 421.844C259.102 405.045 260.48 422.435 248.865 432.475C247.749 433.459 246.109 431.884 247.093 430.768C252.409 424.338 268.42 418.235 265.992 430.965" stroke="#FAF6EB" stroke-width="2.13" stroke-linecap="round" stroke-linejoin="round"/>
<path d="M309.106 333.123C310.615 328.267 327.349 320.786 329.186 325.183C328.595 327.611 319.868 340.735 316.324 336.995C314.224 334.764 325.577 324.855 326.561 332.992" stroke="#FAF6EB" stroke-width="2.13" stroke-linecap="round" stroke-linejoin="round"/>
<path d="M262.777 487.925C277.673 466.795 301.756 474.604 278.395 492.847C280.429 486.941 298.409 473.685 296.178 489.172" stroke="#FAF6EB" stroke-width="2.13" stroke-linecap="round" stroke-linejoin="round"/>
<path d="M309.106 396.186C307.203 405.373 300.181 406.948 295.522 415.085" stroke="#FAF6EB" stroke-width="2.13" stroke-linecap="round" stroke-linejoin="round"/>
<path d="M294.866 380.371C287.976 392.577 266.78 429.128 297.359 418.497C298.475 419.744 298.672 421.253 298.344 422.894C297.359 438.577 310.221 451.177 306.743 468.107" stroke="#FAF6EB" stroke-width="2.13" stroke-linecap="round" stroke-linejoin="round"/>
<path d="M127.399 505.446C140.786 485.563 137.439 490.55 151.679 471.257" stroke="#FAF6EB" stroke-width="2.13" stroke-linecap="round" stroke-linejoin="round"/>
<path d="M147.676 485.628C160.473 474.341 162.572 438.249 178.453 444.352C185.146 446.911 175.434 453.605 174.844 454.261C164.672 462.333 185.606 431.294 195.449 433.984" stroke="#FAF6EB" stroke-width="2.13" stroke-linecap="round" stroke-linejoin="round"/>
<path d="M217.301 396.448C225.176 387.917 237.644 365.672 242.893 356.419" stroke="#FAF6EB" stroke-width="2.13" stroke-linecap="round" stroke-linejoin="round"/>
<path d="M242.04 339.095C245.19 347.429 241.778 356.419 243.55 365.081" stroke="#FAF6EB" stroke-width="2.13" stroke-linecap="round" stroke-linejoin="round"/>
<path d="M356.419 154.96C359.438 153.254 364.49 150.104 368.887 147.611" stroke="#1C2628" stroke-width="2.13" stroke-linecap="round" stroke-linejoin="round"/>
<path d="M149.711 275.048C148.529 277.804 150.826 280.692 150.826 283.645" stroke="#1C2628" stroke-width="2.13" stroke-linecap="round" stroke-linejoin="round"/>
<path d="M151.154 298.475C161.194 295.128 169.791 288.304 178.65 282.463C184.818 278.46 191.118 272.358 196.433 267.042" stroke="#1C2628" stroke-width="2.13" stroke-linecap="round" stroke-linejoin="round"/>
<path d="M177.797 286.926C185.081 283.776 191.315 278.657 197.614 273.867" stroke="#1C2628" stroke-width="2.13" stroke-linecap="round" stroke-linejoin="round"/>
<path d="M349.791 189.543C353.597 186.918 357.403 184.293 361.603 182.456C365.54 180.684 362.128 185.343 364.884 182.784C367.903 179.962 370.003 176.747 373.481 174.516C376.565 172.481 379.452 172.481 382.34 169.791C386.933 165.525 390.345 160.013 394.742 155.551" stroke="#1C2628" stroke-width="2.13" stroke-linecap="round" stroke-linejoin="round"/>
<path d="M361.341 192.496C365.344 189.149 369.215 185.803 373.153 182.456" stroke="#1C2628" stroke-width="2.13" stroke-linecap="round" stroke-linejoin="round"/>
<path d="M330.892 236.069C328.53 239.087 322.886 222.288 326.824 226.422C327.677 227.341 328.333 228.391 328.923 229.441C329.645 230.753 330.433 232.131 330.892 233.641C331.089 234.363 331.417 235.413 330.892 236.069Z" stroke="#1C2628" stroke-width="2.13" stroke-linecap="round" stroke-linejoin="round"/>
<path d="M215.07 269.93C215.923 265.139 217.957 260.546 220.32 256.215C220.976 255.033 222.223 253.787 223.535 253.918C224.388 253.983 223.732 255.69 223.535 256.477C222.682 259.168 221.435 261.661 220.385 264.286" stroke="#1C2628" stroke-width="2.13" stroke-linecap="round" stroke-linejoin="round"/>
<path d="M240.072 239.547C240.006 239.284 239.875 238.628 239.94 238.825C241.384 242.631 243.287 246.24 244.14 250.243C244.271 250.965 242.631 254.443 242.106 255.427C234.363 269.405 238.431 283.251 241.975 298.278" stroke="#1C2628" stroke-width="2.13" stroke-linecap="round" stroke-linejoin="round"/>
<path d="M244.337 280.56C244.6 275.048 244.928 269.47 245.65 264.024" stroke="#1C2628" stroke-width="2.13" stroke-linecap="round" stroke-linejoin="round"/>
<path d="M290.075 238.891C291.125 249.521 289.354 260.349 288.107 270.914" stroke="#1C2628" stroke-width="2.13" stroke-linecap="round" stroke-linejoin="round"/>
<path fill-rule="evenodd" clip-rule="evenodd" d="M226.291 321.771C207.458 320.721 203.52 316.652 203.52 316.652L211.592 284.891C214.479 284.891 216.973 285.679 218.22 287.254C220.516 290.075 218.941 295.522 217.17 301.953C215.07 309.368 212.51 312.715 213.954 314.29C215.988 316.587 222.747 311.468 225.7 314.093C227.275 315.405 227.407 318.818 226.291 321.771Z" fill="#1C2628" stroke="#1C2628" stroke-width="2.13" stroke-linecap="round" stroke-linejoin="round"/>
<path fill-rule="evenodd" clip-rule="evenodd" d="M254.049 232.328C253.655 234.756 252.802 236.659 251.49 237.053C249.784 237.578 248.931 235.084 243.681 232.394C238.694 229.835 235.347 230.032 234.756 227.735C234.297 226.16 235.872 225.504 236.069 223.601C236.528 218.81 227.538 216.973 224.06 210.476C220.451 203.652 235.019 193.612 239.35 198.468C240.072 210.345 249.915 223.01 254.049 232.328Z" fill="#1C2628" stroke="#1C2628" stroke-width="2.13" stroke-linecap="round" stroke-linejoin="round"/>
<path fill-rule="evenodd" clip-rule="evenodd" d="M256.28 59.2182C250.177 62.6962 246.831 69.4552 248.012 75.8205C249.39 83.5639 257.133 89.4698 265.992 88.6167C262.777 78.7735 259.561 68.9958 256.28 59.2182Z" fill="#F2B84A"/>
<path d="M382.865 58.3651C388.228 58.3651 392.577 54.0169 392.577 48.6531C392.577 43.2893 388.228 38.941 382.865 38.941C377.501 38.941 373.153 43.2893 373.153 48.6531C373.153 54.0169 377.501 58.3651 382.865 58.3651Z" fill="#8A3EB7"/>
<path d="M369.74 21.945L379.715 1.14294L380.765 22.6012L400.189 21.2232L382.208 32.0508L384.899 47.3406L373.612 35.7256L364.49 55.1496L365.409 33.3632L348.348 39.1379L363.965 27.0635L346.182 7.6395L369.74 21.945Z" fill="#FAF6EB" stroke="#1C2628" stroke-width="2.13" stroke-linecap="round" stroke-linejoin="round"/>
<path d="M304.84 75.4267L312.518 70.9645L308.187 78.0516L314.684 81.792L306.612 81.3327L304.118 86.7793L303.003 80.6109L295.85 84.8106L300.837 78.0516L294.144 76.2142L301.756 75.7548L300.312 65.7147L304.84 75.4267Z" stroke="#1C2628" stroke-width="2.13" stroke-linecap="round" stroke-linejoin="round"/>
<path fill-rule="evenodd" clip-rule="evenodd" d="M181.865 366.394C172.744 373.94 169.003 374.859 163.95 382.143C160.538 387.064 159.554 390.542 153.713 406.423C148.398 420.991 145.773 428.209 144.986 429.587C136.717 443.696 127.596 441.202 113.684 454.523C95.8351 471.651 100.363 486.088 87.3042 491.14C81.9233 493.24 75.2298 493.109 69.0614 491.469L129.302 421.581C129.302 421.581 179.831 343.098 199.583 315.668C204.373 319.343 207.983 324.658 208.704 329.711C210.476 342.704 193.48 356.813 181.865 366.394Z" fill="#FAF6EB"/>
<path d="M181.668 341.785L129.237 421.713L82.1858 476.244" stroke="#1C2628" stroke-width="2.13" stroke-linecap="round" stroke-linejoin="round"/>
<path fill-rule="evenodd" clip-rule="evenodd" d="M309.959 521.917C301.559 523.951 293.291 526.379 285.023 529.004C282.857 530.054 278.92 531.892 275.77 531.76C258.839 504.987 241.975 475.785 227.604 447.305C226.422 445.008 225.963 441.858 225.963 438.184C227.604 437.724 229.375 437.527 231.147 437.921C239.678 439.627 244.14 452.358 246.174 458.067C249.324 466.992 247.028 467.188 249.39 472.11C256.543 487.006 277.476 484.578 280.692 497.046C282.201 502.821 278.198 505.315 280.692 509.186C285.351 516.536 300.772 509.58 307.531 517.52C308.712 518.702 309.434 520.276 309.959 521.917Z" fill="#FAF6EB"/>
<path d="M236.069 463.579L276.098 532.745L290.797 527.757" stroke="#1C2628" stroke-width="2.13" stroke-linecap="round" stroke-linejoin="round"/>
<path d="M26.3417 220.91L25.423 220.976C20.3045 221.304 18.9264 220.648 17.7452 219.663C17.6796 219.663 17.6796 219.663 17.614 219.598L14.3985 215.267C15.7766 215.66 17.614 215.792 20.5013 215.529L21.4857 215.464C25.2261 215.135 31.4602 214.61 32.9039 219.663C33.0351 220.057 33.4288 220.254 33.7569 220.123C33.8226 220.123 33.8226 220.123 33.8882 220.057C34.2163 219.926 34.3475 219.532 34.2819 219.204C32.5101 213.036 25.2261 213.626 21.3544 214.02L20.4357 214.085C15.3172 214.479 14.0048 213.757 12.758 212.773C12.6924 212.707 12.6267 212.773 12.5611 212.707L9.14879 208.114C10.5268 208.508 12.2986 208.573 15.186 208.376L16.1703 208.311C19.9108 207.983 26.1448 207.458 27.5885 212.511C27.7197 212.904 28.1135 213.101 28.4416 212.97C28.4416 212.97 28.5072 212.97 28.5072 212.904C28.8353 212.773 28.9666 212.379 28.9009 212.051C27.1291 205.883 19.9107 206.473 16.0391 206.801L15.1204 206.867C10.0019 207.261 8.68943 206.539 7.44262 205.555H7.377L4.29278 201.42C5.60521 201.749 7.44262 201.88 10.1987 201.683L11.1831 201.617C14.9235 201.289 21.1576 200.764 22.6012 205.817C22.7325 206.211 23.1262 206.408 23.4543 206.276C23.4543 206.276 23.5199 206.276 23.5199 206.211C23.8481 206.08 23.9793 205.686 23.9137 205.358C22.1419 199.189 14.9235 199.846 10.9862 200.174L10.0019 200.239C4.88337 200.633 3.57094 199.911 2.32413 198.927H2.2585C2.12726 198.861 2.06164 198.796 1.9304 198.796C1.86477 198.796 1.79915 198.796 1.73353 198.861C1.66791 198.861 1.60229 198.861 1.47104 198.927C1.40542 198.927 1.40542 198.992 1.40542 199.058C1.40542 199.058 1.3398 199.058 1.3398 199.124C1.3398 199.189 1.3398 199.189 1.27418 199.255C1.20856 199.321 1.20856 199.452 1.20856 199.517C1.20856 199.649 1.20856 199.714 1.27418 199.78C1.27418 199.846 1.27418 199.846 1.27418 199.911L29.754 238.3C27.2604 238.169 24.4387 239.94 22.7325 242.893C20.567 246.765 21.1576 251.162 24.0449 252.802C26.9323 254.443 31.0008 252.605 33.1663 248.799C35.2662 245.059 34.7413 240.728 32.0508 239.087L19.4514 222.157C20.8295 222.551 22.6012 222.616 25.5542 222.419L26.5385 222.354C30.279 222.026 36.5131 221.501 38.0224 226.554C38.1536 226.947 38.5473 227.144 38.8754 227.013C38.8754 227.013 38.9411 227.013 38.9411 226.947C39.2692 226.816 39.4004 226.422 39.3348 226.094C37.4318 219.926 30.2134 220.582 26.3417 220.91Z" fill="#1C2628" stroke="#1C2628" stroke-width="2.13" stroke-linecap="round" stroke-linejoin="round"/>
<path d="M143.805 155.092L142.886 154.96C137.505 154.304 136.258 153.254 135.143 152.007C135.077 151.942 135.011 151.942 135.011 151.942L132.386 146.495C133.699 147.151 135.602 147.676 138.62 148.004L139.605 148.136C143.542 148.529 150.17 149.251 150.629 154.829C150.695 155.223 151.023 155.551 151.417 155.485C151.482 155.485 151.614 155.485 151.679 155.42C151.942 155.288 152.139 155.026 152.139 154.698C151.548 147.873 143.87 147.086 139.802 146.626L138.883 146.495C133.502 145.839 132.255 144.855 131.14 143.542C131.14 143.542 131.074 143.542 131.074 143.476L128.712 138.555C130.024 139.145 131.861 139.67 134.814 139.999L135.799 140.13C139.736 140.589 146.364 141.311 146.823 146.823C146.889 147.217 147.217 147.545 147.611 147.479C147.676 147.479 147.808 147.479 147.873 147.414C148.136 147.283 148.332 147.02 148.332 146.692C147.742 139.933 140.064 139.08 135.996 138.62L135.011 138.489C129.565 137.833 128.383 136.849 127.334 135.602C127.334 135.536 127.268 135.536 127.202 135.536C127.071 135.405 127.005 135.339 126.874 135.339C126.809 135.339 126.809 135.339 126.809 135.339C126.677 135.339 126.612 135.274 126.48 135.339C126.415 135.339 126.415 135.405 126.349 135.471C126.218 135.602 126.152 135.733 126.152 135.864C126.152 135.93 126.152 135.996 126.152 136.061C126.152 136.127 126.152 136.192 126.152 136.258L147.808 181.668C145.183 181.012 141.902 182.259 139.605 185.015C136.586 188.493 136.258 193.218 138.949 195.515C141.573 197.811 146.167 196.761 149.186 193.218C152.139 189.74 152.467 185.212 150.039 182.915L136.586 154.698C137.899 155.354 139.802 155.879 142.886 156.273L143.87 156.404C147.808 156.798 154.435 157.52 154.895 163.097C154.96 163.491 155.288 163.819 155.682 163.754C155.748 163.754 155.879 163.754 155.945 163.688C156.207 163.557 156.404 163.294 156.404 162.966C155.617 156.338 147.939 155.485 143.805 155.092Z" fill="#1C2628" stroke="#1C2628" stroke-width="2.13" stroke-linecap="round" stroke-linejoin="round"/>
<path d="M96.2288 244.075C101.938 245.518 96.7538 251.621 97.6725 256.28C98.5912 260.546 101.544 260.414 104.103 259.693C104.103 259.693 99.4443 271.833 110.337 271.111C103.775 268.027 106.728 257.79 106.728 257.79C99.9036 256.936 103.578 253.59 102.988 248.537C102.135 240.465 96.2288 244.075 96.2288 244.075Z" fill="#1C2628" stroke="#1C2628" stroke-width="2.13" stroke-linecap="round" stroke-linejoin="round"/>
<path d="M26.5386 284.629C29.5572 271.701 33.8882 257.461 45.5033 250.965C54.2966 246.043 65.0585 246.896 75.033 245.584C95.507 242.893 114.34 229.835 124.052 211.658C129.105 202.142 131.993 191.184 139.474 183.506C147.151 175.631 158.438 172.481 169.397 171.366C180.29 170.25 191.446 170.775 202.208 168.807" stroke="#1C2628" stroke-width="2.13" stroke-linecap="round" stroke-linejoin="round"/>
<path d="M184.753 191.577C176.55 191.249 167.56 191.118 161.26 196.433C152.926 203.389 153.254 216.382 147.479 225.569C142.558 233.444 133.699 237.775 125.234 241.712" stroke="#1C2628" stroke-width="2.13" stroke-linecap="round" stroke-linejoin="round"/>
<path d="M399.336 210.936H388.508V248.209H399.336V210.936Z" fill="#1C2628" stroke="#1C2628" stroke-width="2.13" stroke-linecap="round" stroke-linejoin="round"/>
<path d="M417.775 210.936H406.948V248.209H417.775V210.936Z" fill="#1C2628" stroke="#1C2628" stroke-width="2.13" stroke-linecap="round" stroke-linejoin="round"/>
<path fill-rule="evenodd" clip-rule="evenodd" d="M432.671 160.866C429.456 163.491 417.841 159.094 417.775 152.401C417.775 147.939 422.894 143.345 426.831 143.936C432.934 144.789 436.084 158.045 432.671 160.866Z" fill="#F2B84A"/>
<path d="M441.399 303.987C438.709 301.822 435.296 300.772 432.278 300.837C430.506 300.837 428.865 301.231 427.356 301.756C427.422 300.969 427.487 300.181 427.553 299.394C427.684 297.884 427.881 296.309 428.012 294.735C429.719 293.816 431.359 292.7 432.934 291.519C436.74 288.697 439.89 284.891 441.596 280.429C443.237 275.967 444.746 271.373 444.287 266.911C444.221 265.73 443.958 264.942 443.63 263.367C443.499 262.777 443.237 261.727 442.843 260.742C442.449 259.824 441.399 258.905 440.152 258.708C437.593 258.446 436.084 259.693 435.034 260.546C434.509 261.071 434.115 261.53 433.656 262.055C433.393 262.317 433.262 262.514 433.131 262.777L433 262.908C432.868 263.039 432.934 263.039 432.868 263.17L432.672 263.564C431.425 265.73 430.965 267.961 430.572 270.061C430.178 272.095 429.784 274.129 429.39 276.164C428.669 279.379 428.144 282.529 427.684 285.679C426.306 286.729 424.863 287.713 423.353 288.566L420.597 290.141C419.678 290.666 418.694 291.257 417.71 291.978C413.838 294.538 410.36 297.753 407.801 301.822C405.176 305.825 403.929 311.074 405.11 315.733C406.226 320.458 409.245 324.199 412.722 326.758C416.135 329.186 419.941 330.761 423.813 331.483C423.681 333.517 423.55 335.551 423.353 337.454C423.288 342.573 420.531 346.444 417.185 347.166C414.691 347.626 412.722 346.51 411.607 345.263C411.738 345.329 411.869 345.395 412.066 345.46C414.297 346.116 416.594 344.804 417.185 342.573C417.841 340.342 416.529 338.045 414.297 337.454C412.066 336.798 409.77 338.111 409.179 340.276C409.113 340.473 409.113 340.604 409.113 340.801C408.982 341.654 409.113 342.507 409.507 343.295C409.573 343.491 409.704 343.754 409.77 344.016C410.229 345.001 411.016 346.051 412.263 346.969C413.576 347.823 415.282 348.544 417.316 348.413C419.416 348.282 421.647 347.101 423.091 345.066C423.813 344.082 424.403 342.901 424.731 341.588C425.059 340.21 425.191 339.029 425.322 337.651C425.519 335.814 425.65 333.845 425.781 331.811C429.259 332.205 432.737 331.942 436.018 330.958C439.693 329.711 442.974 327.283 444.812 323.936C446.715 320.655 447.305 316.783 446.715 313.24C445.993 309.565 444.155 306.218 441.399 303.987ZM434.968 268.355C435.953 266.911 438.249 262.777 440.546 264.22C441.99 265.139 441.662 267.305 441.268 268.683C440.415 271.898 438.774 274.982 436.478 277.41C434.246 279.773 432.015 281.938 429.653 284.038C430.112 281.61 430.637 279.117 431.228 276.689C432.015 273.736 433.262 270.914 434.968 268.355ZM414.757 324.067C412.001 321.574 409.901 318.358 409.441 314.88C408.982 311.402 410.163 307.99 412.394 305.103C414.691 302.281 417.907 299.984 421.319 298.081C422.106 297.622 422.959 297.163 424.009 296.703L425.387 296.047C425.716 295.916 426.044 295.719 426.372 295.522C426.241 296.769 426.109 297.95 425.978 299.197C425.847 300.247 425.781 301.297 425.716 302.347C422.828 303.79 420.663 306.087 419.416 308.318C417.447 312.059 417.513 315.34 417.775 317.374C417.907 318.424 418.103 319.146 418.3 319.671C418.432 320.196 418.563 320.458 418.563 320.458C418.563 320.458 418.563 319.343 418.825 317.374C419.153 315.471 419.81 312.584 421.975 309.959C422.828 308.909 423.944 307.859 425.322 307.071C424.994 311.534 424.666 315.799 424.403 319.868C424.141 323.018 424.009 326.036 423.813 328.858C420.531 328.005 417.316 326.364 414.757 324.067Z" fill="#1C2628" stroke="#1C2628" stroke-width="2.13" stroke-linecap="round" stroke-linejoin="round"/>
<path d="M286.86 171.366C286.86 174.253 284.498 176.615 281.61 176.615C278.723 176.615 276.36 174.253 276.36 171.366C276.36 168.478 278.723 166.116 281.61 166.116" stroke="#FAF6EB" stroke-width="2.13" stroke-linecap="round" stroke-linejoin="round"/>
<path d="M259.824 128.449C257.33 127.859 254.837 127.334 252.343 127.465C249.784 127.596 247.224 128.515 245.65 130.483C244.009 132.518 243.681 135.339 243.55 138.03C243.418 139.933 243.418 141.902 243.943 143.739C244.468 145.576 245.781 147.283 247.553 147.939" stroke="#1C2628" stroke-width="2.13" stroke-linecap="round" stroke-linejoin="round"/>
<path d="M237.644 149.054L273.079 158.241" stroke="#FAF6EB" stroke-width="2.13" stroke-linecap="round" stroke-linejoin="round"/>
<path d="M285.285 159.357C285.548 159.554 273.079 158.241 273.079 158.241" stroke="#1C2628" stroke-width="2.13" stroke-linecap="round" stroke-linejoin="round"/>
<path fill-rule="evenodd" clip-rule="evenodd" d="M345.657 242.828C344.148 240.597 345.001 236.987 347.429 235.216C349.332 233.838 352.35 233.444 354.45 235.216C356.681 237.184 356.616 240.728 355.041 242.828C352.744 245.715 347.56 245.65 345.657 242.828Z" fill="#1C2628" stroke="#1C2628" stroke-width="2.13" stroke-linecap="round" stroke-linejoin="round"/>
<path fill-rule="evenodd" clip-rule="evenodd" d="M343.623 348.085C340.21 346.444 339.357 337.061 343.36 331.155C349.201 322.427 365.409 321.246 369.347 327.086C371.971 330.958 369.675 338.636 365.278 341.982C361.931 344.476 359.569 342.77 351.301 345.788C346.248 347.56 345.132 348.807 343.623 348.085Z" fill="#1C2628" stroke="#1C2628" stroke-width="2.13" stroke-linecap="round" stroke-linejoin="round"/>
</svg>
