<svg width="468" height="462" viewBox="0 0 468 462" fill="none" xmlns="http://www.w3.org/2000/svg">
<path d="M413.782 419.202C374.225 438.805 301.962 407.138 249.185 397.975C196.408 389.101 163.701 403.021 152.604 387.303C141.507 371.586 152.073 326.348 133.649 288.707C115.225 251.066 67.3854 221.256 49.6514 171.783C31.5989 122.659 43.6516 53.816 81.4026 21.5112C119.154 -10.5035 182.975 -6.38568 217.274 31.3129C251.893 68.6054 257.362 139.479 293.945 182.629C330.899 225.431 399.021 240.859 429.604 284.183C460.187 327.508 453.338 399.251 413.782 419.202Z" fill="#F2B84A"/>
<path d="M33.6165 94.7624C39.9348 82.6409 50.2885 79.509 68.0756 86.1788C64.4651 77.3051 75.2435 59.7898 92.4465 78.3491C87.2962 48.5962 128.127 45.1743 126.109 73.9412C136.304 60.0218 163.276 67.9675 152.816 84.5548C168.586 80.263 174.957 84.2648 185.311 94.8204H33.6165V94.7624Z" fill="#FAF6EB"/>
<path d="M154.781 136.985H92.6057C90.2695 128.227 91.7031 118.31 117.083 126.313C125.047 110.132 140.551 126.255 154.781 136.985Z" fill="#FAF6EB"/>
<path d="M467.196 349.547H352.031C355.589 337.947 376.402 328.377 402.313 336.381C409.906 321.012 422.118 323.796 433.586 340.963C448.772 330.639 465.125 345.777 467.196 349.547Z" fill="#FAF6EB"/>
<path fill-rule="evenodd" clip-rule="evenodd" d="M346.775 357.666C336.74 361.146 341.837 370.89 339.288 381.155C338.811 383.069 338.12 384.809 337.43 386.549L336.846 387.941L338.439 390.145L335.731 390.667C335.731 390.667 335.465 391.305 335.359 391.653C334.563 394.031 333.979 396.525 334.191 399.425C334.775 408.588 342.687 414.852 351.447 413.228C355.005 412.59 357.341 411.314 358.987 410.096L358.615 405.34L361.801 406.326C361.801 406.326 363.606 401.455 363.075 396.641C362.332 390.087 358.934 382.489 357.394 377.154C355.536 370.6 357.129 354.07 346.775 357.666Z" fill="#FAF6EB"/>
<path fill-rule="evenodd" clip-rule="evenodd" d="M348.421 376.98L348.739 423.262L348.421 376.98Z" fill="#FAF6EB"/>
<path d="M348.421 376.98L348.739 423.262" stroke="#1C2628" stroke-width="2.13" stroke-linecap="round" stroke-linejoin="round"/>
<path d="M143.896 151.89C155.099 159.952 161.365 176.191 154.569 199.39C148.569 219.748 121.649 239.003 146.976 257.968C189.028 289.577 254.388 229.839 271.485 205.596C295.856 171.088 330.209 183.731 323.997 195.621C315.289 212.208 310.564 221.546 333.342 228.679C364.243 238.307 414.684 200.376 424.719 256.112C425.887 262.55 425.728 269.162 426.259 275.657" stroke="#1C2628" stroke-width="2.13" stroke-linecap="round" stroke-linejoin="round"/>
<path fill-rule="evenodd" clip-rule="evenodd" d="M196.408 195.215C186.214 201.826 175.807 208.148 165.772 215.108C142.144 231.463 155.63 261.39 149.684 270.786C134.711 294.565 105.508 301.408 94.0925 328.319C86.1282 347.111 100.305 365.844 113.526 375.878C116.074 377.85 118.941 380.517 122.021 380.169C128.021 379.474 132.852 373.848 138.799 372.92C149.365 371.238 160.303 374.428 170.869 372.514C193.222 368.338 214.62 359.348 236.867 354.708C254.919 350.939 273.503 350.765 291.608 347.343C296.706 346.357 302.759 337.251 304.458 333.597C307.325 327.392 309.661 320.78 311.148 313.994C315.395 295.145 319.749 268.234 310.617 250.08C301.962 232.971 279.45 245.789 271.22 230.883C262.247 214.644 247.433 193.243 226.566 194.055C220.991 194.287 215.469 195.737 209.947 196.607" fill="#FAF6EB"/>
<path fill-rule="evenodd" clip-rule="evenodd" d="M190.992 201.014C190.992 199.622 190.09 198.462 188.921 198.462C187.806 198.462 185.258 199.158 185.152 200.55C184.78 205.074 183.984 212.498 183.984 212.498C183.984 212.498 186.16 215.92 187.647 212.498C188.55 210.468 188.603 203.624 188.868 203.624C190.036 203.624 190.992 202.464 190.992 201.014Z" fill="#FAF6EB" stroke="#1C2628" stroke-width="2.13" stroke-linecap="round" stroke-linejoin="round"/>
<path fill-rule="evenodd" clip-rule="evenodd" d="M303.767 282.327L286.352 308.542L238.725 341.253L204.744 344.559L219.77 327.565L248.017 322.056L249.132 304.598L227.097 278.847L239.522 254.894L246.371 241.613C246.371 241.613 250.406 238.075 265.485 246.543C272.813 250.66 282.051 259.186 289.591 266.9C297.608 275.078 303.767 282.327 303.767 282.327Z" fill="#8A3EB7" stroke="#1C2628" stroke-width="2.13" stroke-linecap="round" stroke-linejoin="round"/>
<path fill-rule="evenodd" clip-rule="evenodd" d="M289.538 266.9C289.325 270.206 288.529 272.642 287.148 273.396C284.706 274.73 281.68 269.916 271.114 265.508C268.99 264.638 268.671 264.638 260.76 262.318C243.982 257.33 240.743 255.88 239.522 254.894L246.371 241.613C246.371 241.613 250.406 238.075 265.485 246.543C272.76 250.718 281.998 259.244 289.538 266.9Z" fill="#1C2628" stroke="#1C2628" stroke-width="2.13" stroke-linecap="round" stroke-linejoin="round"/>
<path fill-rule="evenodd" clip-rule="evenodd" d="M188.603 189.241C183.559 186.805 184.886 176.829 191.735 171.319C198.532 165.81 209.682 168.884 212.496 168.71C228.318 167.84 233.628 185.819 228.425 203.566C226.938 208.728 214.195 221.604 209.045 218.24C203.788 214.818 214.036 198.346 209.576 194.577" fill="#FAF6EB"/>
<path fill-rule="evenodd" clip-rule="evenodd" d="M214.407 209.656L216.372 227.403L222.106 235.349C222.106 235.349 216.637 243.527 207.133 242.309C197.576 241.149 194.656 234.595 194.656 234.595L193.912 211.512L214.407 209.656Z" fill="#47584E" stroke="#1C2628" stroke-width="2.13" stroke-linecap="round" stroke-linejoin="round"/>
<path fill-rule="evenodd" clip-rule="evenodd" d="M221.788 203.624C221.15 208.902 220.089 213.426 216.85 216.732C213.08 220.618 206.762 222.764 201.452 222.01C193.328 220.85 187.753 215.688 186.851 207.452C186.638 205.712 186.691 203.856 186.904 201.826C187.594 196.027 186.957 184.369 188.55 182.629C190.727 180.657 201.293 177.989 201.293 177.989C201.293 177.989 210.478 181.759 212.443 182.049C217.221 183.151 223.168 192.083 221.788 203.624Z" fill="#8A3EB7" stroke="#1C2628" stroke-width="2.13" stroke-linecap="round" stroke-linejoin="round"/>
<path fill-rule="evenodd" clip-rule="evenodd" d="M198.107 195.331C196.355 197.65 191.629 201.942 192.426 203.45C193.435 205.422 197.47 203.16 197.841 202.696" fill="#8A3EB7"/>
<path d="M198.107 195.331C196.355 197.65 191.629 201.942 192.426 203.45C193.435 205.422 197.47 203.16 197.841 202.696" stroke="#1C2628" stroke-width="2.13" stroke-linecap="round" stroke-linejoin="round"/>
<path fill-rule="evenodd" clip-rule="evenodd" d="M216.744 230.535L217.381 213.716C217.381 213.716 205.116 209.888 202.142 214.586C199.169 219.284 204.585 232.333 204.585 232.333L213.558 232.449" fill="#8A3EB7"/>
<path fill-rule="evenodd" clip-rule="evenodd" d="M219.77 195.099C219.186 195.215 221.735 192.489 224.708 196.259C226.779 198.926 224.602 206.466 219.823 203.856" fill="#8A3EB7"/>
<path d="M219.77 195.099C219.186 195.215 221.735 192.489 224.708 196.259C226.779 198.926 224.602 206.466 219.823 203.856" stroke="#1C2628" stroke-width="2.13" stroke-linecap="round" stroke-linejoin="round"/>
<path d="M222.531 198.346L222.425 198.81L222.106 199.564L221.522 200.26" stroke="#1C2628" stroke-width="2.13" stroke-linecap="round" stroke-linejoin="round"/>
<path fill-rule="evenodd" clip-rule="evenodd" d="M206.231 221.836L193.381 219.806L193.222 232.159C193.222 232.159 197.788 230.883 201.558 228.505C205.381 226.127 206.231 221.836 206.231 221.836Z" fill="#1C2628" stroke="#1C2628" stroke-width="2.13" stroke-linecap="round" stroke-linejoin="round"/>
<path fill-rule="evenodd" clip-rule="evenodd" d="M301.856 347.807C298.245 370.774 302.652 399.599 282.476 410.792C268.83 418.39 245.84 416.302 225.717 413.17C215.363 411.546 205.753 409.632 198.638 408.588C186.373 406.79 174.001 407.486 161.843 404.76C155.418 403.311 149.259 401.919 142.887 400.237C139.224 399.251 133.649 401.049 130.304 399.309C127.808 397.975 128.764 383.533 128.18 380.691C127.543 377.56 121.331 364.51 122.286 362.306C123.242 360.102 135.242 357.898 137.153 357.26C152.976 352.099 159.188 346.821 175.754 346.067C182.656 345.777 246.052 343.747 252.795 337.367C257.68 332.727 263.255 325.536 263.361 319.156C263.415 317.126 284.918 323.216 296.44 325.594C300.635 326.464 303.608 327.159 304.086 327.449C306.794 329.189 302.228 345.371 301.856 347.807Z" fill="#47584E" stroke="#1C2628" stroke-width="2.13" stroke-linecap="round" stroke-linejoin="round"/>
<path fill-rule="evenodd" clip-rule="evenodd" d="M301.856 347.807C298.245 370.774 302.652 399.599 282.476 410.792C268.83 418.39 245.84 416.302 225.717 413.17C235.805 399.947 259.22 411.836 277.485 393.219C283.697 386.839 278.865 382.837 281.255 374.776C284.494 363.698 276.954 357.55 278.122 348.039C279.237 338.759 287.839 329.827 296.493 325.652C300.688 326.522 303.661 327.218 304.139 327.508C306.794 329.189 302.228 345.371 301.856 347.807Z" fill="#1C2628" stroke="#1C2628" stroke-width="2.13" stroke-linecap="round" stroke-linejoin="round"/>
<path fill-rule="evenodd" clip-rule="evenodd" d="M261.875 445.649C256.725 452.377 221.204 427.786 212.284 428.134C207.399 428.308 200.709 429.004 192.744 429.99C154.515 434.629 88.5175 445.359 69.8809 434.977C60.0051 429.468 53.7929 423.958 50.501 418.68C30.0591 385.911 118.198 358.652 118.198 358.652L129.348 384.983C129.348 384.983 191.789 381.213 214.089 384.635C224.973 386.317 237.876 390.783 237.876 390.899C238.088 396.351 267.025 438.863 261.875 445.649Z" fill="#8A3EB7" stroke="#1C2628" stroke-width="2.13" stroke-linecap="round" stroke-linejoin="round"/>
<path fill-rule="evenodd" clip-rule="evenodd" d="M192.744 429.99C154.515 434.629 88.5175 445.359 69.8809 434.977C60.0051 429.468 53.7929 423.958 50.501 418.68C55.8105 413.808 63.5625 411.372 69.8278 413.46C77.2612 415.954 76.3586 422.914 83.3672 425.814C93.9332 430.28 102.057 416.998 117.667 416.882C128.127 416.824 129.667 426.452 140.657 426.162C147.507 425.988 149.524 422.74 156.533 421C168.957 417.868 179.736 423.61 185.789 426.51C187.435 427.264 190.036 428.482 192.744 429.99Z" fill="#1C2628" stroke="#1C2628" stroke-width="2.13" stroke-linecap="round" stroke-linejoin="round"/>
<path fill-rule="evenodd" clip-rule="evenodd" d="M263.362 319.214C263.362 319.214 289.485 203.914 336.262 232.333C368.863 252.11 330.952 360.392 332.333 400.005C332.651 409.806 363.978 424.074 357.182 428.656C350.332 433.295 295.484 421.522 290.547 420.478C290.44 420.478 289.219 400.527 289.219 388.579C289.219 363.988 289.803 322.868 289.803 322.868L263.362 319.214Z" fill="#8A3EB7" stroke="#1C2628" stroke-width="2.13" stroke-linecap="round" stroke-linejoin="round"/>
<path fill-rule="evenodd" clip-rule="evenodd" d="M226.672 385.273L246.636 432.715L231.079 437.181C231.079 437.181 254.229 450.927 265.751 457.017C269.361 458.93 271.963 459.858 273.874 460.322L236.601 384.925L226.672 385.273Z" fill="#FAF6EB" stroke="#1C2628" stroke-width="2.13" stroke-linecap="round" stroke-linejoin="round"/>
<path fill-rule="evenodd" clip-rule="evenodd" d="M242.654 384.635L236.601 384.867L273.874 460.264C278.069 461.192 278.812 459.568 278.812 459.568L242.654 384.635Z" fill="#1C2628" stroke="#1C2628" stroke-width="2.13" stroke-linecap="round" stroke-linejoin="round"/>
<path fill-rule="evenodd" clip-rule="evenodd" d="M363.341 425.988C354.102 416.302 333.235 399.715 333.235 399.715L335.784 414.852L288.104 410.908L287.998 421.464L369.341 433.875C368.438 432.019 366.633 429.468 363.341 425.988Z" fill="#FAF6EB" stroke="#1C2628" stroke-width="2.13" stroke-linecap="round" stroke-linejoin="round"/>
<path fill-rule="evenodd" clip-rule="evenodd" d="M288.051 421.58L287.998 426.22L370.137 438.515C370.137 438.515 371.146 437.355 369.394 433.933L288.051 421.58Z" fill="#1C2628" stroke="#1C2628" stroke-width="2.13" stroke-linecap="round" stroke-linejoin="round"/>
<path fill-rule="evenodd" clip-rule="evenodd" d="M255.079 338.585C255.079 338.585 231.663 350.069 212.921 352.389C194.178 354.708 175.966 346.241 175.966 346.241L178.09 308.252L170.391 301.466L156.214 341.775C156.214 341.775 131.631 397.163 107.473 379.184C83.3141 361.262 82.8893 303.38 80.9779 294.971C79.7036 289.403 79.8098 268.582 78.0045 251.588C77.0488 243.005 77.3143 238.945 77.3143 238.945C77.3143 238.945 80.6593 235.581 84.2167 243.353L85.0131 253.444L87.6148 262.202C87.6148 262.202 98.4994 254.72 103.49 256.692C108.535 258.664 108.588 267.306 108.588 267.48C108.588 267.48 107.738 269.626 104.552 267.886C102.959 267.016 100.783 262.666 100.783 262.666L96.1101 268.814L97.2251 277.803L102.004 275.078C102.004 275.078 102.959 272.816 104.765 271.018C106.57 269.162 109.172 270.206 109.172 270.206L107.366 280.413L100.305 286.735L115.596 334.583C115.596 334.583 115.915 334.003 116.499 332.959C119.897 326.638 132.056 303.148 138.056 279.369C143.896 256.402 158.604 249.675 163.489 248.051C164.497 247.703 165.081 247.587 165.081 247.587L240.477 245.905L244.778 301.814L255.079 338.585Z" fill="#8A3EB7" stroke="#1C2628" stroke-width="2.13" stroke-linecap="round" stroke-linejoin="round"/>
<path fill-rule="evenodd" clip-rule="evenodd" d="M166.781 259.998C160.674 266.494 150.746 272.874 147.613 279.369C143.684 287.373 146.551 290.041 143.1 305.12C141.295 313.066 139.702 319.794 134.87 326.29C131.1 331.277 123.401 338.701 118.835 336.323C118.145 335.975 117.242 335.221 116.446 332.959C119.844 326.638 132.003 303.148 138.003 279.369C143.843 256.402 158.551 249.675 163.435 248.051C163.701 247.877 164.02 247.703 164.285 247.587L166.781 259.998Z" fill="#1C2628" stroke="#1C2628" stroke-width="2.13" stroke-linecap="round" stroke-linejoin="round"/>
<path d="M78.3762 292.129C44.3949 313.298 110.021 314.516 111.986 288.823" stroke="#1C2628" stroke-width="2.13" stroke-linecap="round" stroke-linejoin="round"/>
<path fill-rule="evenodd" clip-rule="evenodd" d="M250.619 297.987C249.451 299.089 247.964 299.843 246.105 300.249C240.743 301.525 212.761 304.656 193.912 306.744C193.753 306.744 193.541 306.802 193.381 306.802C183.506 307.904 176.285 308.658 176.285 308.658C176.285 308.658 175.01 308.426 173.417 307.208C170.922 305.352 167.63 301.118 167.152 291.781C166.781 284.821 168.533 268.872 168.533 268.872L166.781 260.056L164.285 247.645V247.529C164.285 247.529 177.771 244.455 184.674 239.641C191.629 234.827 192.001 228.331 192.001 228.331L218.39 225.953L219.186 225.895C219.186 225.895 222.053 230.129 226.726 233.261C227.469 233.725 228.212 234.189 229.009 234.595C230.283 235.233 231.663 235.755 233.15 236.045C234.106 236.277 235.115 236.451 236.123 236.683C243.132 238.191 251.096 239.931 251.096 239.931L244.3 258.838C244.3 258.838 250.035 269.104 251.681 275.02C254.866 286.561 254.707 294.217 250.619 297.987Z" fill="#47584E" stroke="#1C2628" stroke-width="2.13" stroke-linecap="round" stroke-linejoin="round"/>
<path d="M290.918 308.194L289.432 327.681" stroke="#1C2628" stroke-width="2.13" stroke-linecap="round" stroke-linejoin="round"/>
<path d="M152.339 347.691C159.188 345.081 170.497 343.805 170.497 343.805C170.497 343.805 169.595 352.041 187.594 355.694C205.593 359.348 219.823 356.854 219.823 356.854" stroke="#1C2628" stroke-width="2.13" stroke-linecap="round" stroke-linejoin="round"/>
<path fill-rule="evenodd" clip-rule="evenodd" d="M196.886 162.504C196.886 157.748 200.656 153.862 205.328 153.862C210 153.862 213.77 157.748 213.77 162.504C213.77 167.26 210 171.145 205.328 171.145C200.656 171.087 196.886 167.26 196.886 162.504Z" fill="#FAF6EB"/>
<path fill-rule="evenodd" clip-rule="evenodd" d="M188.603 195.099C190.408 196.085 192.797 195.447 194.443 194.229L188.603 195.099Z" fill="#8A3EB7"/>
<path d="M188.603 195.099C190.408 196.085 192.797 195.447 194.443 194.229" stroke="#1C2628" stroke-width="2.13" stroke-linecap="round" stroke-linejoin="round"/>
<path fill-rule="evenodd" clip-rule="evenodd" d="M205.169 193.533C208.301 195.215 209.788 194.287 212.814 192.721L205.169 193.533Z" fill="#8A3EB7"/>
<path d="M205.169 193.533C208.301 195.215 209.788 194.287 212.814 192.721" stroke="#1C2628" stroke-width="2.13" stroke-linecap="round" stroke-linejoin="round"/>
<path d="M103.49 389.333C99.0304 389.043 94.0925 391.247 90.0573 393.567C88.5175 394.437 84.3229 397.627 85.8627 396.815C103.809 387.129 124.357 383.765 144.056 383.243" stroke="#1C2628" stroke-width="2.13" stroke-linecap="round" stroke-linejoin="round"/>
<path d="M91.9155 424.422C93.1898 433.933 107.738 428.714 112.57 427.264C122.286 424.248 131.897 420.304 141.879 418.216C156.586 415.084 171.4 417.114 185.736 421.116" stroke="#1C2628" stroke-width="2.13" stroke-linecap="round" stroke-linejoin="round"/>
<path d="M155.099 425.002C162.161 423.494 166.515 425.002 173.683 425.582" stroke="#1C2628" stroke-width="2.13" stroke-linecap="round" stroke-linejoin="round"/>
<path d="M336.74 259.65C333.501 266.494 325.802 278.673 331.324 286.909C336.156 294.159 340.987 280.819 339.342 280.065C337.696 279.311 337.589 283.487 337.005 285.343C335.412 290.157 333.82 295.029 332.811 300.017C330.528 311.558 328.935 340.325 328.191 350.765" stroke="#1C2628" stroke-width="2.13" stroke-linecap="round" stroke-linejoin="round"/>
<path d="M334.032 325.826C334.032 340.325 329.413 362.538 328.457 369.904" stroke="#1C2628" stroke-width="2.13" stroke-linecap="round" stroke-linejoin="round"/>
<path fill-rule="evenodd" clip-rule="evenodd" d="M81.3496 273.976C81.9868 269.162 84.907 264.928 88.3051 262.144L81.3496 273.976Z" fill="#8A3EB7"/>
<path d="M81.3496 273.976C81.9868 269.162 84.907 264.928 88.3051 262.144" stroke="#1C2628" stroke-width="2.13" stroke-linecap="round" stroke-linejoin="round"/>
<path fill-rule="evenodd" clip-rule="evenodd" d="M200.231 166.158H210.107C211.434 166.158 212.496 167.318 212.496 168.768C212.496 170.218 211.434 171.378 210.107 171.378H200.231C198.903 171.378 197.841 170.218 197.841 168.768C197.841 167.318 198.903 166.158 200.231 166.158Z" fill="#47584E" stroke="#1C2628" stroke-width="2.13" stroke-linecap="round" stroke-linejoin="round"/>
<path fill-rule="evenodd" clip-rule="evenodd" d="M210.213 314.806C212.071 315.85 241.221 334.989 241.221 334.989C246.53 339.049 242.76 342.703 239.044 348.561L236.23 353.085C232.513 358.884 225.823 352.679 220.513 348.561L198.107 333.075C194.443 328.899 208.354 313.82 210.213 314.806Z" fill="#1C2628" stroke="#1C2628" stroke-width="2.13" stroke-linecap="round" stroke-linejoin="round"/>
<path fill-rule="evenodd" clip-rule="evenodd" d="M254.813 290.795L260.866 311.268C255.291 320.316 241.167 325.13 241.167 325.13C241.167 325.13 226.566 325.42 222.637 329.305C218.496 333.423 237.079 331.161 235.38 332.437C231.982 334.989 226.725 339.107 226.725 339.107L217.009 341.659C217.009 341.659 205.912 338.991 203.151 338.527C200.39 338.063 197.841 340.963 197.841 340.963C197.841 340.963 213.345 349.025 218.23 348.619C239.84 346.763 247.114 343.341 247.114 343.341L257.68 338.759L263.627 320.548" fill="#8A3EB7"/>
<path d="M254.813 290.795L260.866 311.268C255.291 320.316 241.167 325.13 241.167 325.13C241.167 325.13 226.566 325.42 222.637 329.305C218.496 333.423 237.079 331.161 235.38 332.437C231.982 334.989 226.725 339.107 226.725 339.107L217.009 341.659C217.009 341.659 205.912 338.991 203.151 338.527C200.39 338.063 197.841 340.963 197.841 340.963C197.841 340.963 213.345 349.025 218.23 348.619C239.84 346.763 247.114 343.341 247.114 343.341L257.68 338.759L263.627 320.548" stroke="#FAF6EB" stroke-width="2.13" stroke-linecap="round" stroke-linejoin="round"/>
<path d="M263.415 319.446L251.893 355.462" stroke="#1C2628" stroke-width="2.13" stroke-linecap="round" stroke-linejoin="round"/>
<path d="M231.079 371.818C232.301 377.154 238.353 381.619 241.433 386.143" stroke="#1C2628" stroke-width="2.13" stroke-linecap="round" stroke-linejoin="round"/>
<path fill-rule="evenodd" clip-rule="evenodd" d="M220.354 198.346C220.354 196.955 221.257 195.795 222.425 195.795C223.54 195.795 226.088 196.491 226.195 197.882C226.566 202.406 227.363 209.83 227.363 209.83C227.363 209.83 225.186 213.252 223.699 209.83C222.796 207.8 222.743 200.956 222.425 200.956C221.31 200.898 220.354 199.738 220.354 198.346Z" fill="#FAF6EB" stroke="#1C2628" stroke-width="2.13" stroke-linecap="round" stroke-linejoin="round"/>
<path d="M2.92721 306.628C0.166236 321.244 0.272424 338.643 7.86511 350.997C15.5109 363.466 30.006 373.326 43.8109 373.21C67.5447 373.094 88.1458 349.083 111.826 350.417C123.454 351.055 127.755 369.034 135.72 378.314" stroke="#1C2628" stroke-width="2.13" stroke-linecap="round" stroke-linejoin="round"/>
<path d="M334.032 211.57C346.775 234.827 408.472 185.703 432.79 233.029" stroke="#1C2628" stroke-width="2.13" stroke-linecap="round" stroke-linejoin="round"/>
<path d="M361.111 240.221C384.951 240.337 409.959 226.069 415.109 266.378" stroke="#1C2628" stroke-width="2.13" stroke-linecap="round" stroke-linejoin="round"/>
<path d="M135.401 156.762C142.091 163.432 146.073 170.392 147.985 183.731" stroke="#1C2628" stroke-width="2.13" stroke-linecap="round" stroke-linejoin="round"/>
<path d="M136.038 171.088C147.666 193.011 136.835 206.408 130.145 222.01" stroke="#1C2628" stroke-width="2.13" stroke-linecap="round" stroke-linejoin="round"/>
<path d="M13.4933 345.313C22.4134 362.016 41.9526 366.888 56.6601 364.278" stroke="#1C2628" stroke-width="2.13" stroke-linecap="round" stroke-linejoin="round"/>
<path d="M14.5552 371.818C32.3953 390.609 55.545 381.503 67.8632 377.444" stroke="#1C2628" stroke-width="2.13" stroke-linecap="round" stroke-linejoin="round"/>
<path d="M289.644 405.05C289.644 405.05 285.502 409.69 281.308 411.372C277.166 413.112 268.565 415.316 265.273 415.548" stroke="#1C2628" stroke-width="2.13" stroke-linecap="round" stroke-linejoin="round"/>
<path fill-rule="evenodd" clip-rule="evenodd" d="M252.902 310.63C245.999 316.546 241.168 317.126 237.929 316.488C234.531 315.792 233.575 313.936 228.212 311.732C226.672 311.094 221.575 309.122 215.682 308.948C205.169 308.658 200.178 314.284 196.302 311.152C195.399 310.456 194.443 309.18 193.912 306.686C212.761 304.656 240.743 301.466 246.105 300.191C247.964 299.785 249.45 299.031 250.619 297.929C252.265 302.51 252.742 307.266 252.902 310.63Z" fill="#1C2628" stroke="#1C2628" stroke-width="2.13" stroke-linecap="round" stroke-linejoin="round"/>
<path fill-rule="evenodd" clip-rule="evenodd" d="M249.928 320.258L244.672 300.539C244.672 300.539 250.088 299.437 251.415 297.987C252.742 296.537 254.282 291.085 254.282 291.085L260.494 311.21C260.494 311.21 258.795 314.632 255.503 316.662C252.158 318.75 249.928 320.258 249.928 320.258Z" fill="#1C2628"/>
<path fill-rule="evenodd" clip-rule="evenodd" d="M273.609 385.679C274.989 386.491 271.91 392.639 267.981 395.017C265.114 396.757 262.087 396.351 262.565 394.263C262.884 392.871 264.636 391.189 265.538 390.319C268.246 387.709 272.494 385.041 273.609 385.679Z" fill="#1C2628" stroke="#1C2628" stroke-width="2.13" stroke-linecap="round" stroke-linejoin="round"/>
<path fill-rule="evenodd" clip-rule="evenodd" d="M274.459 370.716C273.344 369.846 274.246 365.67 275.733 365.264C276.264 365.148 276.848 365.554 277.113 365.728C277.857 366.25 278.388 367.236 278.335 368.164C278.175 370.194 275.361 371.47 274.459 370.716Z" fill="#1C2628" stroke="#1C2628" stroke-width="2.13" stroke-linecap="round" stroke-linejoin="round"/>
<path d="M102.959 94.7624H185.311" stroke="#1C2628" stroke-width="2.13" stroke-linecap="round" stroke-linejoin="round"/>
<path d="M139.649 102.534H197.841" stroke="#1C2628" stroke-width="2.13" stroke-linecap="round" stroke-linejoin="round"/>
<path d="M84.8539 136.985H132.905" stroke="#1C2628" stroke-width="2.13" stroke-linecap="round" stroke-linejoin="round"/>
<path d="M102.959 142.205H145.914" stroke="#1C2628" stroke-width="2.13" stroke-linecap="round" stroke-linejoin="round"/>
<path d="M42.4304 349.953L42.6959 349.895L42.1118 368.048C41.103 367.352 39.5632 367.236 38.0765 367.874C35.8996 368.86 34.6784 371.064 35.3686 372.804C36.0058 374.602 38.2889 375.24 40.4658 374.312C42.6428 373.384 43.864 371.18 43.1737 369.382C43.1737 369.324 43.1206 369.266 43.0675 369.208L43.6516 349.663L60.3236 345.661L59.7396 363.582C58.7307 362.828 57.1379 362.712 55.6512 363.35C53.4743 364.278 52.2531 366.482 52.8902 368.28C53.5274 370.078 55.8105 370.716 57.9874 369.788C60.1643 368.86 61.3855 366.656 60.6953 364.858L60.6422 364.8L61.2262 345.429L76.1992 341.833L75.6683 358.536C74.6594 357.84 73.1197 357.666 71.5799 358.362C69.403 359.29 68.1818 361.494 68.872 363.292C69.5092 365.09 71.7923 365.728 73.9692 364.8C76.1461 363.872 77.3673 361.668 76.6771 359.87C76.6771 359.812 76.624 359.812 76.624 359.754L77.208 341.659L77.5266 341.601L77.739 335.685L42.4304 344.965V349.953Z" fill="#1C2628" stroke="#1C2628" stroke-width="2.13" stroke-linecap="round" stroke-linejoin="round"/>
<path d="M23.7407 338.411C19.1213 340.441 15.4046 340.731 12.6437 339.339C12.1658 339.107 11.741 338.759 11.3694 338.469C13.0684 338.701 14.8206 337.947 15.8825 336.323C17.4223 333.945 16.9444 330.639 14.7675 328.957C12.5906 327.275 9.56411 327.797 8.02434 330.175C6.53766 332.437 6.96243 335.453 8.82078 337.251C9.56411 338.469 10.6791 339.687 12.1658 340.441C14.8206 341.833 18.2718 341.717 22.4133 340.209L4.57312 367.41L5.47575 368.106L24.3247 339.339C24.484 339.107 24.484 338.817 24.3247 338.643C24.2185 338.411 23.953 338.295 23.7407 338.411Z" fill="#1C2628" stroke="#1C2628" stroke-width="2.13" stroke-linecap="round" stroke-linejoin="round"/>
<path d="M369.128 228.447C369.128 228.447 353.518 238.017 365.73 247.761C361.429 237.901 373.588 228.853 373.588 228.853C367.111 221.372 373.907 220.966 377.73 214.47C383.836 204.146 374.438 202.754 374.438 202.754C379.269 209.946 368.332 211.976 365.305 218.298C362.544 224.097 365.783 226.765 369.128 228.447Z" fill="#1C2628" stroke="#1C2628" stroke-width="2.13" stroke-linecap="round" stroke-linejoin="round"/>
<path fill-rule="evenodd" clip-rule="evenodd" d="M180.373 252.69C179.789 253.096 179.683 254.662 179.895 256.112C179.099 255.416 178.249 254.836 177.665 254.778C176.019 254.662 176.497 256.344 177.559 257.91C176.763 257.794 176.072 257.852 175.594 258.084C173.948 258.896 175.541 260.346 177.453 261.158C176.497 261.564 175.648 262.144 175.329 262.724C174.373 264.406 176.391 264.638 178.408 264.174C177.824 265.102 177.4 266.03 177.4 266.726C177.453 268.698 179.258 267.712 180.692 266.088C180.639 267.19 180.798 268.234 181.116 268.814C182.125 270.438 183.187 268.524 183.559 266.32C184.09 267.248 184.727 268.118 185.311 268.35C187.01 269.104 186.851 266.842 186.107 264.812C187.01 265.276 187.966 265.624 188.603 265.508C190.408 265.16 189.187 263.304 187.488 262.086C188.497 261.97 189.452 261.622 189.877 261.158C191.205 259.766 189.24 259.012 187.222 258.954C188.019 258.258 188.603 257.388 188.762 256.75C189.187 254.778 187.169 255.3 185.417 256.46C185.683 255.416 185.842 254.314 185.63 253.676C184.992 251.82 183.559 253.444 182.709 255.416C182.444 254.372 181.966 253.386 181.488 252.98C181.01 252.516 180.639 252.458 180.373 252.69ZM181.86 259.65C182.125 259.708 182.391 259.592 182.55 259.418C182.762 259.65 183.028 259.708 183.24 259.65C183.346 259.94 183.506 260.172 183.665 260.288C183.559 260.578 183.612 260.868 183.718 261.1C183.506 261.332 183.399 261.564 183.399 261.796C183.081 261.854 182.869 261.97 182.762 262.202C182.497 262.086 182.231 262.028 182.019 262.144C181.86 261.854 181.647 261.738 181.435 261.68C181.435 261.332 181.382 261.1 181.169 260.926C181.329 260.694 181.382 260.462 181.329 260.23C181.647 260.056 181.754 259.882 181.86 259.65Z" fill="#FAF6EB" stroke="#1C2628" stroke-width="2.13" stroke-linecap="round" stroke-linejoin="round"/>
<path fill-rule="evenodd" clip-rule="evenodd" d="M216.159 265.218C215.257 265.914 215.098 268.234 215.416 270.612C214.195 269.51 212.868 268.64 211.912 268.582C209.363 268.408 210.107 271.018 211.753 273.454C210.531 273.28 209.416 273.338 208.726 273.686C206.124 274.962 208.62 277.223 211.593 278.441C210.107 279.079 208.779 279.949 208.301 280.877C206.762 283.487 210 283.893 213.08 283.139C212.177 284.531 211.487 286.039 211.487 287.141C211.54 290.273 214.407 288.649 216.637 286.155C216.584 287.895 216.744 289.519 217.328 290.447C218.92 292.999 220.513 289.983 221.15 286.561C221.947 288.069 222.956 289.345 223.858 289.751C226.46 290.969 226.301 287.431 225.08 284.241C226.513 284.995 228 285.459 228.956 285.285C231.77 284.705 229.805 281.863 227.203 279.891C228.796 279.659 230.23 279.195 230.973 278.441C233.044 276.295 230.017 275.078 226.832 274.962C228.053 273.86 229.009 272.584 229.274 271.54C229.911 268.524 226.779 269.278 224.071 271.134C224.549 269.452 224.708 267.828 224.389 266.784C223.434 263.884 221.15 266.378 219.823 269.51C219.345 267.828 218.708 266.378 217.912 265.682C217.115 264.928 216.531 264.87 216.159 265.218ZM218.389 276.121C218.867 276.179 219.239 276.063 219.504 275.832C219.876 276.179 220.195 276.295 220.566 276.237C220.726 276.701 220.938 277.049 221.257 277.223C221.15 277.687 221.204 278.093 221.363 278.441C220.991 278.789 220.832 279.137 220.832 279.543C220.354 279.601 220.035 279.833 219.823 280.123C219.398 279.891 219.027 279.891 218.708 280.007C218.443 279.601 218.177 279.311 217.805 279.253C217.805 278.731 217.699 278.325 217.434 278.093C217.646 277.745 217.752 277.339 217.699 276.991C218.071 276.759 218.283 276.469 218.389 276.121Z" fill="#FAF6EB" stroke="#1C2628" stroke-width="2.13" stroke-linecap="round" stroke-linejoin="round"/>
<path fill-rule="evenodd" clip-rule="evenodd" d="M190.992 302.336C192.213 301.235 193.169 299.959 193.381 298.915C194.019 295.899 190.886 296.653 188.178 298.509C188.656 296.827 188.815 295.203 188.497 294.159C187.541 291.259 185.258 293.753 183.93 296.885C183.453 295.203 182.815 293.695 182.019 293.057C181.276 292.477 180.745 292.419 180.32 292.709C179.417 293.405 179.258 295.725 179.577 298.103C178.355 297.001 177.028 296.131 176.072 296.073C173.524 295.899 174.267 298.509 175.913 300.945C174.692 300.771 173.577 300.829 172.833 301.177C170.232 302.51 172.727 304.714 175.701 305.932C174.851 306.28 174.055 306.744 173.417 307.208C175.01 308.426 176.285 308.658 176.285 308.658C176.285 308.658 183.506 307.904 193.381 306.802C194.125 306.57 194.709 306.222 195.08 305.816C197.151 303.67 194.178 302.452 190.992 302.336ZM185.045 307.034C184.568 307.092 184.249 307.324 184.037 307.614C183.612 307.382 183.24 307.382 182.922 307.498C182.656 307.034 182.391 306.802 182.019 306.744C182.019 306.222 181.913 305.874 181.647 305.584C181.86 305.236 181.966 304.83 181.913 304.482C182.284 304.25 182.497 303.96 182.603 303.612C183.081 303.67 183.453 303.554 183.718 303.264C184.09 303.612 184.461 303.728 184.78 303.67C184.939 304.134 185.152 304.482 185.47 304.656C185.364 305.12 185.417 305.526 185.576 305.874C185.258 306.28 185.098 306.628 185.045 307.034Z" fill="#FAF6EB" stroke="#1C2628" stroke-width="2.13" stroke-linecap="round" stroke-linejoin="round"/>
<path fill-rule="evenodd" clip-rule="evenodd" d="M234.955 236.857C235.38 236.799 235.752 236.741 236.177 236.625C235.168 236.393 234.159 236.161 233.203 235.987C231.716 235.639 230.336 235.175 229.062 234.537C229.009 234.885 229.062 235.233 229.221 235.523C228.849 235.871 228.69 236.219 228.69 236.625C228.212 236.683 227.894 236.915 227.681 237.205C227.256 236.973 226.885 236.973 226.566 237.089C226.301 236.625 226.035 236.393 225.664 236.335C225.664 235.813 225.557 235.465 225.292 235.175C225.504 234.827 225.611 234.421 225.557 234.073C225.929 233.841 226.141 233.551 226.248 233.203C226.46 233.203 226.619 233.203 226.779 233.203C222.053 230.129 219.239 225.837 219.239 225.837L218.443 225.895C217.54 226.591 218.23 228.621 219.558 230.477C218.336 230.303 217.221 230.361 216.478 230.709C213.876 231.985 216.372 234.247 219.345 235.465C217.859 236.103 216.531 236.973 216.053 237.843C214.513 240.511 217.752 240.859 220.832 240.105C219.929 241.497 219.239 243.005 219.239 244.107C219.292 247.239 222.159 245.615 224.389 243.121C224.336 244.861 224.495 246.485 225.08 247.413C226.672 249.964 228.265 246.949 228.902 243.527C229.699 245.035 230.708 246.311 231.61 246.717C234.265 247.935 234.053 244.397 232.832 241.207C234.265 241.961 235.752 242.425 236.708 242.251C239.468 241.671 237.557 238.829 234.955 236.857Z" fill="#FAF6EB" stroke="#1C2628" stroke-width="2.13" stroke-linecap="round" stroke-linejoin="round"/>
<path d="M212.39 299.321C211.859 300.133 212.018 301.292 212.602 302.104C213.133 302.916 213.983 303.38 214.832 303.786C216.319 304.482 217.965 304.946 219.558 305.062" stroke="#1C2628" stroke-width="2.13" stroke-linecap="round" stroke-linejoin="round"/>
<path d="M239.15 253.038C239.309 255.648 240.743 258.142 242.867 259.36" stroke="#1C2628" stroke-width="2.13" stroke-linecap="round" stroke-linejoin="round"/>
<path d="M241.911 251.008C241.592 253.038 243.079 257.62 244.3 259.128" stroke="#1C2628" stroke-width="2.13" stroke-linecap="round" stroke-linejoin="round"/>
<path d="M171.187 265.972C171.187 267.712 169.86 269.278 168.32 269.51" stroke="#1C2628" stroke-width="2.13" stroke-linecap="round" stroke-linejoin="round"/>
<path d="M187.966 235.175C189.24 236.741 190.992 237.727 192.851 237.959C196.62 238.423 200.178 235.929 203.948 235.987C207.399 236.045 210.638 238.191 214.089 237.843" stroke="#1C2628" stroke-width="2.13" stroke-linecap="round" stroke-linejoin="round"/>
<path d="M190.727 230.883C190.514 231.637 191.258 232.275 191.948 232.565C196.992 234.711 202.673 230.999 207.983 231.985" stroke="#1C2628" stroke-width="2.13" stroke-linecap="round" stroke-linejoin="round"/>
<path fill-rule="evenodd" clip-rule="evenodd" d="M110.446 216.036C105.136 213.774 101.951 206.35 103.915 202.29C106.305 197.245 116.924 196.433 120.906 202.29C122.923 205.248 123.561 210.41 120.906 213.89C118.145 217.544 113.313 217.254 110.446 216.036Z" fill="#FAF6EB"/>
<path fill-rule="evenodd" clip-rule="evenodd" d="M353.996 320.084C351.447 316.952 352.987 308.252 358.297 305.12C365.252 301.06 374.119 309.006 373.854 313.356C373.588 318.982 357.925 324.898 353.996 320.084Z" fill="#1C2628" stroke="#1C2628" stroke-width="2.13" stroke-linecap="round" stroke-linejoin="round"/>
<path fill-rule="evenodd" clip-rule="evenodd" d="M371.995 416.476C369.818 415.142 369.5 410.792 371.04 409.284C373.057 407.312 378.42 409.864 378.579 412.358C378.739 414.678 374.597 418.042 371.995 416.476Z" fill="#1C2628" stroke="#1C2628" stroke-width="2.13" stroke-linecap="round" stroke-linejoin="round"/>
<path d="M66.111 231.811L47.0497 219.806L66.111 207.742V231.811Z" fill="#1C2628" stroke="#1C2628" stroke-width="2.13" stroke-linecap="round" stroke-linejoin="round"/>
<path d="M250.141 180.077L286.299 157.284L250.141 134.491V180.077Z" fill="#1C2628" stroke="#1C2628" stroke-width="2.13" stroke-linecap="round" stroke-linejoin="round"/>
<path d="M209.523 207.51C211.429 207.51 212.974 206.212 212.974 204.61C212.974 203.009 211.429 201.71 209.523 201.71C207.616 201.71 206.071 203.009 206.071 204.61C206.071 206.212 207.616 207.51 209.523 207.51Z" fill="#FAF6EB"/>
<path d="M187.753 201.71C189.665 201.71 191.205 202.986 191.205 204.61C191.205 206.234 189.665 207.51 187.753 207.51" fill="#FAF6EB"/>
<path d="M204.478 176.191C204.478 176.191 201.824 180.251 206.071 182.571C210.319 184.891 213.133 183.731 214.567 186.631C218.283 194.171 224.124 190.691 224.124 190.691" stroke="#FAF6EB" stroke-width="2.13" stroke-linecap="round" stroke-linejoin="round"/>
</svg>
