<svg width="547" height="571" viewBox="0 0 547 571" fill="none" xmlns="http://www.w3.org/2000/svg">
<path fill-rule="evenodd" clip-rule="evenodd" d="M428.601 461.927C425.248 493.394 363.699 514.848 281.605 516.676C281.519 516.676 281.347 516.676 281.261 516.676C261.662 517.073 240.859 516.438 219.368 514.531C175.699 510.637 135.813 502.134 103.663 490.851C90.5965 486.322 78.9056 481.315 68.6761 475.991C39.7928 460.894 23.288 443.253 25.0932 425.692C28.8755 389.855 108.133 367.049 207.333 371.34C216.188 371.737 225.214 372.293 234.326 373.168C278.854 377.141 319.514 385.961 351.922 397.483C400.663 414.726 431.093 438.406 428.601 461.927Z" fill="#1C2628" stroke="#1C2628" stroke-width="2.13" stroke-linecap="round" stroke-linejoin="round"/>
<path d="M448.458 437.532C458.945 449.451 459.977 459.861 459.375 473.21C457.398 516.12 394.388 525.417 359.229 535.032" stroke="#1C2628" stroke-width="2.13" stroke-linecap="round" stroke-linejoin="round"/>
<path d="M97.6455 355.368C46.9277 363.235 -14.0197 393.987 4.46224 449.928" stroke="#1C2628" stroke-width="2.13" stroke-linecap="round" stroke-linejoin="round"/>
<path d="M322.781 473.925C325.446 470.509 325.016 472.733 321.921 473.369C310.832 475.674 299.743 478.375 288.74 481.077C274.814 484.494 262.951 492.837 250.143 498.877" stroke="#1C2628" stroke-width="2.13" stroke-linecap="round" stroke-linejoin="round"/>
<path fill-rule="evenodd" clip-rule="evenodd" d="M390.863 353.62C441.925 303.32 310.402 67.2384 228.91 112.691C200.714 124.848 189.195 145.429 177.934 169.665C150.598 262.397 30.7667 231.407 27.1563 331.529C20.3653 477.66 336.191 461.132 390.863 353.62Z" fill="#F2B84A"/>
<path fill-rule="evenodd" clip-rule="evenodd" d="M95.4964 182.3C114.236 179.518 132.116 177.77 126.959 202.403C126.271 205.741 121.113 226.56 102.975 228.864C66.1832 234.347 58.5326 186.988 95.4964 182.3Z" fill="#F2B84A"/>
<path fill-rule="evenodd" clip-rule="evenodd" d="M151.028 176.896C143.12 182.061 128.076 174.91 133.062 165.295C136.93 145.191 179.568 167.837 151.028 176.896Z" fill="#F2B84A"/>
<path d="M158.335 291.242C161 297.043 163.75 303.4 162.031 309.518C160.656 314.604 156.444 318.657 152.232 322.153C150.082 323.901 147.847 325.729 145.097 326.444C142.346 327.238 138.993 326.762 137.188 324.696C135.211 322.471 135.727 319.054 137.188 316.511C138.306 314.524 140.197 312.776 142.518 312.141C146.558 311.028 150.856 313.809 152.489 317.385C154.123 320.961 153.693 325.013 152.833 328.828C149.309 344.402 139.767 358.07 130.397 371.419" stroke="#1C2628" stroke-width="2.13" stroke-linecap="round" stroke-linejoin="round"/>
<path fill-rule="evenodd" clip-rule="evenodd" d="M109.25 273.204C119.222 274.317 131.772 259.139 117.073 257.63C112.517 259.139 103.147 271.297 107.703 272.886" fill="#FAF6EB"/>
<path fill-rule="evenodd" clip-rule="evenodd" d="M207.935 170.857C197.19 172.923 192.892 181.902 198.136 191.279C199.597 193.901 208.193 205.343 215.93 204.072C219.626 203.436 231.403 204.946 229.082 178.962C227.621 168.791 222.291 168.155 207.935 170.857Z" fill="#8A3EB7" stroke="#1C2628" stroke-width="2.13" stroke-linecap="round" stroke-linejoin="round"/>
<path fill-rule="evenodd" clip-rule="evenodd" d="M370.748 321.358C357.768 361.566 292.436 454.06 287.794 469.396L287.107 466.774C272.407 471.542 188.078 472.257 160.484 447.703C157.733 445.24 155.584 442.617 154.037 439.598L176.903 386.994C175.527 388.822 162.031 377.776 177.762 347.263C182.061 338.919 191.001 316.352 191.001 316.352C191.688 312.935 193.665 299.665 196.072 283.455C195.729 282.899 195.643 282.581 195.643 282.581C188.078 277.813 159.71 279.72 153.263 259.219C152.318 256.12 151.802 252.465 151.974 248.174C152.146 243.406 155.326 241.181 158.937 240.227C162.461 239.274 166.415 239.433 168.392 239.592C179.052 240.148 189.453 243.803 199.339 247.617C200.027 247.856 200.628 248.174 201.316 248.412C204.669 226.083 207.849 206.694 208.881 205.661C210.6 203.913 212.233 202.165 213.867 200.496C219.024 195.252 224.268 191.279 233.122 194.298C238.882 196.205 244.469 198.271 249.799 200.655C261.06 205.661 271.289 212.018 279.456 221.474C287.536 230.771 294.843 240.784 300.345 251.511C305.331 261.205 308.597 271.774 310.66 282.263C312.122 289.414 313.153 296.884 312.637 304.194C312.551 306.022 312.293 307.77 311.95 309.598C310.402 317.623 308.253 325.49 305.846 333.278L370.748 321.358Z" fill="#8A3EB7" stroke="#1C2628" stroke-width="2.13" stroke-linecap="round" stroke-linejoin="round"/>
<path fill-rule="evenodd" clip-rule="evenodd" d="M160.484 447.703C157.733 445.24 155.584 442.617 154.037 439.598L176.903 386.994C175.527 388.821 162.031 377.776 177.762 347.263C182.061 338.919 191.001 316.352 191.001 316.352C191.688 312.935 193.665 299.665 196.072 283.455C195.729 282.899 195.643 282.581 195.643 282.581C188.078 277.813 159.71 279.72 153.263 259.219C159.538 260.252 166.243 262.159 173.378 264.145C187.648 268.119 196.244 270.502 200.8 277.892C206.13 286.474 199.511 291.242 203.895 311.505C205.184 317.623 206.474 320.166 208.107 329.145C209.998 339.476 210.858 344.72 209.225 348.614C205.098 358.229 192.978 359.182 193.15 365.221C193.236 368.797 197.534 370.227 201.918 374.042C201.918 374.042 213.609 384.054 214.554 402.251C215.758 425.215 182.92 451.756 160.484 447.703Z" fill="#FAF6EB"/>
<path fill-rule="evenodd" clip-rule="evenodd" d="M312.723 304.274C307.136 308.644 301.032 312.061 294.413 313.968C276.447 319.213 257.879 312.617 241.976 306.896C229.426 302.367 214.296 297.043 210.428 285.203C208.279 278.608 211.03 274.476 206.904 269.628C202.176 264.225 195.9 266.291 184.725 261.841C173.722 257.471 167.275 250.399 164.868 247.697C162.977 245.631 160.914 243.009 159.023 240.148C162.547 239.194 166.501 239.353 168.478 239.512C179.138 240.068 189.539 243.724 199.425 247.538C200.113 247.776 200.714 248.094 201.402 248.332C204.755 226.004 207.935 206.615 208.967 205.582C210.686 203.834 212.319 202.086 213.953 200.417C225.471 199.702 237.764 199.781 249.971 200.576C261.232 205.582 271.461 211.939 279.628 221.395C287.708 230.692 295.015 240.704 300.517 251.432C305.502 261.126 308.769 271.694 310.832 282.183C312.208 289.494 313.325 296.963 312.723 304.274Z" fill="#1C2628" stroke="#1C2628" stroke-width="2.13" stroke-linecap="round" stroke-linejoin="round"/>
<path fill-rule="evenodd" clip-rule="evenodd" d="M177.247 446.114C180.771 443.174 184.21 440.075 187.39 436.817C160.656 421.878 160.398 409.799 160.398 409.799L103.663 490.771C131.343 500.466 164.782 508.094 201.316 512.544C195.385 498.241 186.273 484.653 174.668 473.131C167.791 465.185 170.37 452.471 177.247 446.114Z" fill="#FAF6EB"/>
<path fill-rule="evenodd" clip-rule="evenodd" d="M212.749 448.418C202.348 444.445 194.095 440.551 187.39 436.817C184.296 440.075 180.857 443.174 177.247 446.114C170.37 452.471 167.791 465.185 174.668 473.131C186.359 484.653 195.471 498.241 201.316 512.544C207.248 513.259 213.265 513.895 219.368 514.451C240.773 516.358 261.576 517.073 281.261 516.597C281.347 516.597 281.519 516.597 281.605 516.597L305.76 454.06C305.76 454.139 274.728 472.098 212.749 448.418Z" fill="#7B2BAA"/>
<path fill-rule="evenodd" clip-rule="evenodd" d="M317.193 277.098C319.6 271.138 316.162 261.762 314.271 255.802C303.697 223.064 273.782 206.615 243.781 190.564C233.38 185.001 227.535 184.048 218.165 199.781C213.179 208.125 209.912 228.626 216.703 234.347C236.905 251.114 261.92 264.304 275.674 285.441C277.737 288.62 288.224 317.226 288.224 317.226C288.224 317.226 294.929 309.995 303.182 303.4C310.058 297.837 312.036 297.44 313.067 296.089L317.193 277.098Z" fill="#F7AA9A"/>
<path d="M409.087 152.978C406.594 151.786 405.563 149.005 406.852 146.621L407.024 146.383C408.313 144.078 411.322 143.125 413.901 144.317C416.394 145.509 417.426 148.29 416.136 150.674L415.964 150.912C414.589 153.296 411.58 154.17 409.087 152.978ZM412.87 146.224C411.494 145.588 409.861 146.065 409.087 147.336L408.915 147.575C408.228 148.846 408.743 150.356 410.119 151.071C411.494 151.707 413.127 151.23 413.901 149.958L414.073 149.72C414.761 148.369 414.245 146.859 412.87 146.224Z" fill="#1C2628" stroke="#1C2628" stroke-width="2.13" stroke-linecap="round" stroke-linejoin="round"/>
<path d="M403.672 162.752C401.179 161.56 400.147 158.779 401.436 156.395L401.608 156.156C402.898 153.852 405.907 152.899 408.485 154.09C411.064 155.282 412.01 158.064 410.72 160.447L410.549 160.686C409.173 163.07 406.164 163.944 403.672 162.752ZM407.368 155.998C405.992 155.362 404.359 155.839 403.586 157.11L403.414 157.348C402.726 158.62 403.242 160.13 404.617 160.845C405.993 161.56 407.626 161.004 408.399 159.732L408.571 159.494C409.345 158.143 408.829 156.633 407.368 155.998Z" fill="#1C2628" stroke="#1C2628" stroke-width="2.13" stroke-linecap="round" stroke-linejoin="round"/>
<path d="M413.041 141.059C409.345 139.31 407.97 135.099 409.775 131.762L416.05 120.557C417.941 117.141 422.411 115.869 426.108 117.538C429.804 119.286 431.179 123.498 429.374 126.835L423.099 138.039C421.208 141.456 416.652 142.807 413.041 141.059ZM425.076 119.445C422.497 118.253 419.403 119.127 418.113 121.511L411.838 132.715C410.548 135.099 411.494 137.96 414.073 139.152C416.652 140.343 419.746 139.469 421.036 137.086L427.311 125.881C428.601 123.498 427.655 120.637 425.076 119.445Z" fill="#1C2628" stroke="#1C2628" stroke-width="2.13" stroke-linecap="round" stroke-linejoin="round"/>
<path fill-rule="evenodd" clip-rule="evenodd" d="M456.28 74.3899L328.025 304.592C324.156 311.584 314.872 314.286 307.308 310.71L195.127 257.312C187.562 253.736 184.639 245.154 188.508 238.161L261.232 107.526C263.811 107.367 266.39 107.208 269.054 107.049L194.783 240.466C192.548 244.518 194.267 249.524 198.651 251.67L309.973 304.592C311.262 305.227 312.637 305.545 314.099 305.545C317.451 305.545 320.546 303.797 322.093 301.016L449.833 71.6882C450.263 70.8936 450.521 70.099 450.693 69.3044C450.779 69.3044 450.865 69.2249 450.951 69.2249C453.358 68.2713 455.679 67.2383 458 66.2848C458.258 68.907 457.742 71.7677 456.28 74.3899Z" fill="#1C2628" stroke="#1C2628" stroke-width="2.13" stroke-linecap="round" stroke-linejoin="round"/>
<path fill-rule="evenodd" clip-rule="evenodd" d="M450.607 69.3044C450.435 70.099 450.177 70.8936 449.747 71.6882L322.093 301.016C320.546 303.797 317.451 305.545 314.099 305.545C312.637 305.545 311.262 305.227 309.973 304.592L198.651 251.67C194.267 249.604 192.548 244.598 194.783 240.466L269.054 107.128C286.333 106.016 305.159 104.029 324.844 101.089C374.186 93.6198 419.145 81.9389 450.607 69.3044Z" fill="#F5F5F5"/>
<path fill-rule="evenodd" clip-rule="evenodd" d="M379.344 23.1369C379.344 23.1369 376.937 27.5073 376.765 31.1626C376.765 31.401 376.765 31.5599 376.765 31.7983C376.851 35.1357 379.086 38.0758 382.267 39.5856L390.519 43.4792C392.84 44.5917 395.505 44.8301 397.912 44.1149C398.944 43.7971 399.975 43.3997 400.921 42.8435C404.273 40.7775 406.508 36.4865 406.508 36.4865L379.344 23.1369Z" fill="#1C2628" stroke="#1C2628" stroke-width="2.13" stroke-linecap="round" stroke-linejoin="round"/>
<path fill-rule="evenodd" clip-rule="evenodd" d="M386.909 265.337C387.768 269.628 378.656 307.77 366.966 331.37L238.28 353.938C238.28 353.938 241.632 342.257 248.595 329.304C254.785 317.782 263.725 305.307 275.674 299.109C310.918 280.833 337.824 289.494 337.824 289.494C337.824 289.494 339.544 275.35 350.461 257.391C350.461 257.391 350.547 254.372 351.063 249.842C352.094 240.784 354.845 226.004 362.152 219.249C377.797 204.787 390.175 207.648 389.316 209.873C390.003 212.892 387.683 263.192 386.909 265.337Z" fill="#8A3EB7" stroke="#1C2628" stroke-width="2.13" stroke-linecap="round" stroke-linejoin="round"/>
<path fill-rule="evenodd" clip-rule="evenodd" d="M187.476 191.994C176.559 194.139 172.175 203.198 177.505 212.813C178.966 215.435 187.734 227.196 195.643 225.845C199.339 225.209 211.374 226.719 209.053 200.258C207.505 189.928 202.004 189.213 187.476 191.994Z" fill="#8A3EB7" stroke="#1C2628" stroke-width="2.13" stroke-linecap="round" stroke-linejoin="round"/>
<path d="M281.261 516.676C261.662 517.073 240.859 516.438 219.368 514.531C175.699 510.637 135.813 502.135 103.663 490.851" stroke="#1C2628" stroke-width="2.13" stroke-linecap="round" stroke-linejoin="round"/>
<path d="M162.375 415.362C162.375 415.362 166.243 426.884 187.39 436.817C208.537 446.749 230.457 460.179 261.318 460.179" stroke="#1C2628" stroke-width="2.13" stroke-linecap="round" stroke-linejoin="round"/>
<path d="M377.539 212.575C377.539 212.575 374.358 230.533 377.539 233.394C380.72 236.334 385.362 236.334 385.362 236.334" stroke="#1C2628" stroke-width="2.13" stroke-linecap="round" stroke-linejoin="round"/>
<path fill-rule="evenodd" clip-rule="evenodd" d="M338.77 303.161C326.047 308.724 319.6 299.427 303.181 303.4C282.98 308.406 281.261 325.411 263.897 329.463C259.856 330.417 254.785 330.735 248.509 329.304C254.699 317.782 263.639 305.307 275.588 299.109C310.832 280.833 337.738 289.494 337.738 289.494C337.738 289.494 339.458 275.35 350.375 257.391C350.375 257.391 350.461 254.372 350.977 249.842C354.759 254.848 357.424 260.57 358.197 266.768C359.831 280.833 351.922 297.361 338.77 303.161Z" fill="#FAF6EB"/>
<path fill-rule="evenodd" clip-rule="evenodd" d="M227.019 363.553C225.901 357.196 240.945 349.965 253.581 343.925C281.519 330.576 311.692 325.808 315.818 325.172C332.924 322.63 344.272 322.789 354.759 313.889C361.12 308.565 368.427 298.473 370.662 299.188C374.272 300.38 371.865 321.914 364.902 335.582C348.913 367.128 297.594 372.611 288.31 373.644C261.49 376.743 228.566 372.532 227.019 363.553Z" fill="#7B2BAA"/>
<path d="M435.564 180.71L409.603 196.682" stroke="#1C2628" stroke-width="2.13" stroke-linecap="round" stroke-linejoin="round"/>
<path d="M437.111 205.661L410.119 208.522" stroke="#1C2628" stroke-width="2.13" stroke-linecap="round" stroke-linejoin="round"/>
<path d="M408.056 220.759L432.985 245.71" stroke="#1C2628" stroke-width="2.13" stroke-linecap="round" stroke-linejoin="round"/>
<path d="M409.087 246.187L421.294 259.854" stroke="#1C2628" stroke-width="2.13" stroke-linecap="round" stroke-linejoin="round"/>
<path d="M163.235 454.616C160.14 461.291 158.077 468.919 160.742 475.674C162.719 480.839 167.189 484.812 170.971 489.103C174.754 493.394 178.02 498.638 177.075 504.121" stroke="#1C2628" stroke-width="2.13" stroke-linecap="round" stroke-linejoin="round"/>
<path d="M176.817 485.606C179.31 490.374 184.639 493.394 186.96 498.161C188.078 500.466 188.422 503.088 188.422 505.631" stroke="#1C2628" stroke-width="2.13" stroke-linecap="round" stroke-linejoin="round"/>
<path d="M204.067 398.278C204.067 401.933 204.067 405.668 203.379 409.323C202.692 412.978 201.23 416.554 198.565 419.256C195.729 422.196 191.774 424.023 187.992 425.771" stroke="#1C2628" stroke-width="2.13" stroke-linecap="round" stroke-linejoin="round"/>
<path d="M207.162 416.395C206.044 419.573 203.723 422.434 200.714 424.341" stroke="#1C2628" stroke-width="2.13" stroke-linecap="round" stroke-linejoin="round"/>
<path d="M184.639 213.687C184.21 210.191 183.78 206.535 185.241 203.357C186.702 200.178 190.829 197.636 194.353 199.066" stroke="#1C2628" stroke-width="2.13" stroke-linecap="round" stroke-linejoin="round"/>
<path d="M354.415 320.802C336.277 348.693 319.085 377.22 302.924 406.144" stroke="#1C2628" stroke-width="2.13" stroke-linecap="round" stroke-linejoin="round"/>
<path d="M330.346 376.823L295.961 437.929" stroke="#1C2628" stroke-width="2.13" stroke-linecap="round" stroke-linejoin="round"/>
<path d="M373.155 281.071C367.739 302.446 369.201 317.306 348.828 346.945" stroke="#1C2628" stroke-width="2.13" stroke-linecap="round" stroke-linejoin="round"/>
<path fill-rule="evenodd" clip-rule="evenodd" d="M496.081 36.8838C494.792 46.022 480.694 56.2726 457.914 66.2054C455.679 67.1589 453.272 68.1919 450.865 69.1455C450.779 69.1455 450.693 69.2249 450.607 69.2249C419.145 81.8594 374.1 93.6198 324.844 101.01C305.159 103.95 286.333 105.936 269.054 107.049C266.39 107.208 263.811 107.367 261.232 107.526C240.343 108.559 221.861 108.32 206.732 106.731C179.31 103.95 163.235 96.9572 164.696 86.3887C166.157 75.8997 184.811 63.742 214.038 52.4584C238.538 43.0024 270.43 34.1027 305.932 27.3484C308.769 26.7921 311.52 26.3154 314.357 25.7591C321.406 24.4877 328.626 23.2958 335.933 22.1833C343.842 20.9914 351.578 19.9584 359.057 19.0843C363.183 18.6076 367.223 18.2102 371.178 17.8129C398.6 15.1112 423.185 14.3961 443.214 15.588C477.169 17.654 497.714 25.044 496.081 36.8838Z" fill="#1C2628" stroke="#1C2628" stroke-width="2.13" stroke-linecap="round" stroke-linejoin="round"/>
<path d="M267.851 91.2359C265.272 91.3949 262.779 91.5538 260.286 91.6333C252.378 92.0306 244.727 92.2689 237.592 92.2689C226.933 92.2689 217.219 91.7922 208.623 90.9181" stroke="#FAF6EB" stroke-width="2.13" stroke-linecap="round" stroke-linejoin="round"/>
<path d="M450.521 51.9022C448.372 52.8558 446.223 53.7298 443.988 54.6834L443.558 54.8423" stroke="#FAF6EB" stroke-width="2.13" stroke-linecap="round" stroke-linejoin="round"/>
<path d="M220.658 67.1589C244.555 57.9413 276.017 49.3594 309.371 42.923C312.122 42.4462 314.786 41.89 317.623 41.4132C324.5 40.2213 331.549 39.0293 338.684 37.9169C346.249 36.8044 353.813 35.7714 361.292 34.8973C365.074 34.4205 368.771 34.0232 372.295 33.7054L373.155 33.6259C391.207 31.8777 408.056 30.9242 423.443 30.9242C430.062 30.9242 436.423 31.0831 442.269 31.401" stroke="#FAF6EB" stroke-width="2.13" stroke-linecap="round" stroke-linejoin="round"/>
<path d="M476.825 2C520.838 4.62225 547.573 14.1577 545.338 29.4939C543.704 41.3337 525.308 54.6834 495.823 67.5562C492.9 68.8276 489.806 70.099 486.711 71.3704C486.625 71.4499 486.539 71.4499 486.453 71.4499" stroke="#1C2628" stroke-width="2.13" stroke-linecap="round" stroke-linejoin="round"/>
<path d="M170.026 120.24C134.437 116.584 113.549 107.526 115.44 93.8582C117.331 80.1907 141.572 64.4572 179.396 49.8362C211.202 37.5196 252.636 26.077 298.625 17.2567C302.236 16.5416 305.932 15.9059 309.543 15.1907C318.741 13.522 328.111 12.0122 337.566 10.5819C347.796 9.07215 357.854 7.7213 367.653 6.60883" stroke="#1C2628" stroke-width="2.13" stroke-linecap="round" stroke-linejoin="round"/>
<path d="M426.108 543.852C377.883 555.692 329.4 571.505 279.542 568.724" stroke="#1C2628" stroke-width="2.13" stroke-linecap="round" stroke-linejoin="round"/>
<path d="M330.088 188.021C352.164 188.021 370.06 171.478 370.06 151.071C370.06 130.664 352.164 114.121 330.088 114.121C308.012 114.121 290.115 130.664 290.115 151.071C290.115 171.478 308.012 188.021 330.088 188.021Z" fill="#F2B84A"/>
<path d="M303.353 138.039C311.09 124.372 329.4 119.127 344.1 126.358" stroke="#1C2628" stroke-width="2.13" stroke-linecap="round" stroke-linejoin="round"/>
<path d="M310.746 141.615C316.334 131.762 329.572 127.947 340.231 133.192" stroke="#1C2628" stroke-width="2.13" stroke-linecap="round" stroke-linejoin="round"/>
<path d="M330.088 156.077C333.079 156.077 335.503 153.836 335.503 151.071C335.503 148.306 333.079 146.065 330.088 146.065C327.097 146.065 324.672 148.306 324.672 151.071C324.672 153.836 327.097 156.077 330.088 156.077Z" stroke="#1C2628" stroke-width="2.13" stroke-linecap="round" stroke-linejoin="round"/>
<path d="M332.495 177.77L321.663 196.841" stroke="#1C2628" stroke-width="2.13" stroke-linecap="round" stroke-linejoin="round"/>
<path d="M332.495 177.77C330.775 176.975 330.174 174.989 331.033 173.479L332.839 170.38C333.698 168.791 335.847 168.235 337.48 169.029C339.2 169.824 339.801 171.81 338.942 173.32L337.137 176.419C336.277 178.008 334.128 178.565 332.495 177.77Z" stroke="#1C2628" stroke-width="2.13" stroke-linecap="round" stroke-linejoin="round"/>
<path d="M262.263 197.636L323.555 226.48" stroke="#1C2628" stroke-width="2.13" stroke-linecap="round" stroke-linejoin="round"/>
<path d="M287.622 225.924L325.532 243.883" stroke="#1C2628" stroke-width="2.13" stroke-linecap="round" stroke-linejoin="round"/>
<path d="M245.673 206.138L287.622 225.924" stroke="black" stroke-width="6" stroke-linecap="round" stroke-linejoin="round"/>
<path d="M84.4932 325.49C80.5389 324.139 76.2408 324.219 72.7164 325.411C70.6533 326.046 68.8481 327 67.3867 328.112C67.1288 327.238 66.9569 326.364 66.699 325.49C66.2692 323.821 65.8394 322.073 65.4955 320.325C67.1288 318.736 68.5902 316.988 69.8796 315.081C73.1462 310.71 75.3812 305.466 75.6391 300.062C75.811 294.738 75.7251 289.255 73.49 284.647C72.9743 283.455 72.3725 282.66 71.341 281.071C70.9971 280.515 70.3094 279.402 69.4498 278.608C68.5902 277.733 67.0429 277.177 65.4955 277.416C62.4009 278.051 61.1114 279.879 60.2518 281.23C59.822 281.945 59.5641 282.581 59.3062 283.375C59.1343 283.773 59.0484 284.011 58.9624 284.329L58.8764 284.567C58.7905 284.806 58.7905 284.806 58.7905 284.885L58.7045 285.362C58.1028 288.143 58.4466 290.686 58.7905 293.07C59.1343 295.454 59.4782 297.758 59.7361 300.062C60.0799 303.718 60.6816 307.293 61.4553 310.869C60.2518 312.458 58.9624 314.048 57.587 315.478L55.0081 318.18C54.1485 319.054 53.2889 320.087 52.3433 321.12C48.8188 325.252 46.068 329.94 44.6067 335.185C43.0594 340.35 43.6611 346.468 46.8417 351.077C49.9363 355.765 54.9222 358.705 59.908 360.136C64.8078 361.487 69.7936 361.804 74.5216 361.169C75.1233 363.394 75.7251 365.619 76.2408 367.685C78.132 373.167 76.4127 378.332 72.8023 380.24C70.1375 381.59 67.3867 381.114 65.5815 380.24C65.7534 380.24 65.9253 380.24 66.1832 380.24C69.02 380.16 71.169 377.935 70.9971 375.313C70.9112 372.691 68.5042 370.704 65.6675 370.863C62.8307 370.943 60.6816 373.167 60.8536 375.79C60.8536 376.028 60.9395 376.187 60.9395 376.425C61.1114 377.379 61.6272 378.253 62.3149 378.889C62.4868 379.127 62.6588 379.286 62.9167 379.524C63.8622 380.399 65.1517 381.273 66.9569 381.749C68.7621 382.226 70.9971 382.306 73.4041 381.431C75.7251 380.557 77.8741 378.491 78.7337 375.79C79.1635 374.439 79.4214 373.009 79.2495 371.499C79.0776 369.909 78.7337 368.559 78.3899 367.128C77.8741 365.062 77.2724 362.917 76.6706 360.692C80.8828 359.897 84.7511 358.308 88.1896 356.163C91.9719 353.54 94.8087 349.726 95.6683 345.515C96.6139 341.303 95.7543 336.933 93.7772 333.357C91.9719 329.781 88.5334 326.841 84.4932 325.49ZM63.2605 289.653C63.8622 287.746 64.8938 282.501 68.0744 283.216C70.0515 283.693 70.5673 286.156 70.6533 287.746C70.9112 291.48 70.1375 295.374 68.4182 298.791C66.785 302.128 65.0657 305.227 63.0886 308.326C62.6588 305.545 62.3149 302.764 62.057 299.903C61.8851 296.487 62.3149 292.99 63.2605 289.653ZM61.4553 356.48C57.3291 354.812 53.6327 352.11 51.7415 348.534C49.8504 345.038 49.8504 340.906 51.3977 337.012C52.945 333.119 55.8677 329.543 59.0483 326.364C59.822 325.57 60.5957 324.775 61.6272 323.901L63.0026 322.709C63.3465 322.391 63.6044 322.153 63.9482 321.835C64.2921 323.186 64.6359 324.537 64.8938 325.887C65.1517 327.079 65.4955 328.192 65.7534 329.384C62.9167 332.006 61.2834 335.185 60.7676 337.966C59.908 342.654 61.2834 346.23 62.4009 348.296C62.9167 349.329 63.5184 350.123 63.8622 350.6C64.2061 351.077 64.464 351.315 64.464 351.315C64.464 351.315 64.0342 350.123 63.6044 347.898C63.2605 345.753 62.9167 342.416 64.378 338.84C64.9798 337.41 65.8394 335.9 67.1288 334.549C68.4182 339.396 69.7077 344.164 70.9971 348.534C71.9427 351.951 72.8883 355.288 73.8339 358.387C69.6217 358.705 65.2376 358.07 61.4553 356.48ZM93.0894 345.197C92.8316 348.773 90.5965 352.269 87.0721 354.494C83.9774 356.48 80.1951 357.752 76.1549 358.229C75.2093 354.971 74.1777 351.633 73.0602 348.057C71.5989 343.369 70.1375 338.363 68.6761 333.119C70.2235 331.847 72.1146 330.814 74.3497 330.258C79.4214 328.987 85.7826 330.496 89.9088 335.661C91.9719 338.284 93.3473 341.7 93.0894 345.197Z" fill="#1C2628" stroke="#1C2628" stroke-width="2.13" stroke-linecap="round" stroke-linejoin="round"/>
<path d="M237.076 245.631L224.354 225.765L249.283 225.447L237.076 245.631Z" fill="#1C2628" stroke="#1C2628" stroke-width="2.13" stroke-linecap="round" stroke-linejoin="round"/>
<path d="M292.006 274.078L317.021 273.84L304.213 253.974L292.006 274.078Z" fill="#1C2628" stroke="#1C2628" stroke-width="2.13" stroke-linecap="round" stroke-linejoin="round"/>
<path d="M269.242 235.862L256.999 256.025L263.371 259.331L275.613 239.167L269.242 235.862Z" fill="#1C2628" stroke="#1C2628" stroke-width="2.1299" stroke-miterlimit="3.9998" stroke-linecap="round" stroke-linejoin="round"/>
<path d="M280.131 241.493L267.889 261.657L274.26 264.963L286.503 244.799L280.131 241.493Z" fill="#1C2628" stroke="#1C2628" stroke-width="2.1299" stroke-miterlimit="3.9998" stroke-linecap="round" stroke-linejoin="round"/>
</svg>
