<svg width="495" height="610" viewBox="0 0 495 610" fill="none" xmlns="http://www.w3.org/2000/svg">
<path d="M193.172 419.479H58.6082V542.793H193.172V419.479Z" fill="#1C2628" stroke="#1C2628" stroke-width="2.13" stroke-linecap="round" stroke-linejoin="round"/>
<path d="M262.943 149.184C288.946 166.888 321.895 170.146 352.139 186.068C382.63 201.928 410.6 230.143 400.211 253.011C389.822 275.633 341.013 292.661 314.703 315.529C288.7 338.151 284.95 366.367 269.336 388.743C250.218 402.574 223.047 421.2 200.978 423.044C175.959 418.372 154.136 392.246 130.101 374.296C106.311 356.101 80.5538 346.326 64.2021 328.376C47.6046 310.672 40.6582 284.547 31.007 253.503C21.3558 222.275 9.18424 185.883 18.8354 156.93C28.7325 128.222 60.2064 107.014 93.8934 93.2441C127.334 79.4743 162.497 73.3885 190.036 86.2363C217.33 99.2684 236.94 131.48 262.943 149.184Z" fill="#F2B84A"/>
<path fill-rule="evenodd" clip-rule="evenodd" d="M167.599 76.2777C168.214 75.786 170.304 75.3556 170.672 74.7409C172.271 72.1591 177.434 66.5036 175.283 61.8932C173.193 57.2827 170.181 58.9425 170.181 58.9425C170.181 58.9425 169.812 49.2913 159.669 56.0533C158.439 56.8524 158.071 55.3771 157.333 56.7295C156.78 57.713 156.349 58.881 155.919 59.9261" fill="#1C2628"/>
<path d="M167.599 76.2777C168.214 75.786 170.304 75.3556 170.672 74.7409C172.271 72.1591 177.434 66.5036 175.283 61.8932C173.193 57.2827 170.181 58.9425 170.181 58.9425C170.181 58.9425 169.812 49.2913 159.669 56.0533C158.439 56.8524 158.071 55.3771 157.333 56.7295C156.78 57.713 156.349 58.881 155.919 59.9261" stroke="#1C2628" stroke-width="2.13" stroke-linecap="round" stroke-linejoin="round"/>
<path fill-rule="evenodd" clip-rule="evenodd" d="M129.978 78.6137C129.609 79.3514 127.888 80.5808 127.826 81.257C127.396 84.2692 125.121 91.5844 128.994 94.9039C132.805 98.2234 134.834 95.4572 134.834 95.4572C134.834 95.4572 139.137 104.063 145.592 93.736C146.329 92.5065 147.313 93.6745 147.436 92.1377C147.559 90.9697 147.436 89.8017 147.374 88.6337" fill="#1C2628"/>
<path d="M129.978 78.6137C129.609 79.3514 127.888 80.5808 127.826 81.257C127.396 84.2692 125.121 91.5844 128.994 94.9039C132.805 98.2234 134.834 95.4572 134.834 95.4572C134.834 95.4572 139.137 104.063 145.592 93.736C146.329 92.5065 147.313 93.6745 147.436 92.1377C147.559 90.9697 147.436 89.8017 147.374 88.6337" stroke="#1C2628" stroke-width="2.13" stroke-linecap="round" stroke-linejoin="round"/>
<path fill-rule="evenodd" clip-rule="evenodd" d="M113.38 129.451C119.896 117.28 124.937 108.243 124.937 108.243L135.756 104.002L141.903 91.0926L164.156 96.5636L161.82 102.588L157.886 116.911C157.886 116.911 161.206 129.267 156.78 129.021C156.288 129.021 155.489 132.709 154.505 138.734C141.166 137.566 125.244 135.722 113.38 129.451Z" fill="#FAF6EB" stroke="#1C2628" stroke-width="2.13" stroke-linecap="round" stroke-linejoin="round"/>
<path fill-rule="evenodd" clip-rule="evenodd" d="M171.963 84.3306C173.685 68.6551 169.382 71.3599 168.521 67.0568C166.861 58.5122 164.341 55.623 148.604 56.6065C145.838 56.7909 142.58 56.9139 140.059 58.1433C128.564 63.9217 128.748 73.0197 128.748 73.0197C128.748 73.0197 122.663 94.1662 146.145 96.3178C169.689 98.4078 146.268 95.9489 158.87 92.8753C171.41 89.8017 171.963 84.3306 171.963 84.3306Z" fill="#1C2628" stroke="#1C2628" stroke-width="2.13" stroke-linecap="round" stroke-linejoin="round"/>
<path fill-rule="evenodd" clip-rule="evenodd" d="M145.653 85.4372C144.915 81.7488 151.309 71.9747 152.415 68.7166C154.382 62.8767 144.301 65.2742 150.448 63.9833C157.333 62.5694 163.48 62.3235 167.537 68.0404C169.136 70.2535 171.349 81.4415 171.963 84.3307C174.115 94.658 168.152 101.543 158.624 103.572C152.477 104.862 147.62 104.002 143.502 99.5144C141.166 96.9325 146.391 89.1255 145.653 85.4372Z" fill="#FAF6EB" stroke="#1C2628" stroke-width="2.13" stroke-linecap="round" stroke-linejoin="round"/>
<path fill-rule="evenodd" clip-rule="evenodd" d="M165.509 79.1669C165.878 80.5193 164.525 81.9947 162.374 82.4865C160.284 82.9782 158.255 82.302 157.886 80.9496" fill="#FAF6EB"/>
<path d="M165.509 79.1669C165.878 80.5193 164.525 81.9947 162.374 82.4865C160.284 82.9782 158.255 82.302 157.886 80.9496" stroke="#1C2628" stroke-width="2.13" stroke-linecap="round" stroke-linejoin="round"/>
<path fill-rule="evenodd" clip-rule="evenodd" d="M142.272 99.5143L144.854 93.613C144.854 93.613 155.059 93.1212 157.702 96.4407C160.345 99.6988 156.718 109.657 156.718 109.657L149.526 110.272" fill="#FAF6EB"/>
<path fill-rule="evenodd" clip-rule="evenodd" d="M149.71 81.8717C148.481 80.1505 145.653 81.6258 145.1 83.1626C143.87 86.3592 146.883 91.9532 152.231 88.2034" fill="#FAF6EB"/>
<path d="M149.71 81.8717C148.481 80.1505 145.653 81.6258 145.1 83.1626C143.87 86.3592 146.883 91.9532 152.231 88.2034" stroke="#1C2628" stroke-width="2.13" stroke-linecap="round" stroke-linejoin="round"/>
<path d="M149.219 85.3142C149.219 85.3142 148.604 84.515 148.727 84.638" stroke="#1C2628" stroke-width="2.13" stroke-linecap="round" stroke-linejoin="round"/>
<path fill-rule="evenodd" clip-rule="evenodd" d="M161.882 88.3264C162.866 89.9246 164.034 91.2156 166.185 91.8303C166.185 91.8303 163.357 95.7645 159.73 94.2277C157.333 93.2442 161.882 88.3264 161.882 88.3264Z" fill="#1C2628" stroke="#1C2628" stroke-width="2.13" stroke-linecap="round" stroke-linejoin="round"/>
<path fill-rule="evenodd" clip-rule="evenodd" d="M169.259 82.6709C169.259 82.6709 176.328 86.3592 176.389 87.5887C176.82 92.445 170.857 89.187 170.242 89.6173" fill="#FAF6EB"/>
<path d="M169.259 82.6709C169.259 82.6709 176.328 86.3592 176.389 87.5887C176.82 92.445 170.857 89.187 170.242 89.6173" stroke="#1C2628" stroke-width="2.13" stroke-linecap="round" stroke-linejoin="round"/>
<path fill-rule="evenodd" clip-rule="evenodd" d="M163.357 60.2949L167.537 68.0404C162.066 60.2334 158.87 81.4414 143.563 80.3964C143.133 80.3964 134.773 81.9332 134.896 81.38C135.018 80.7038 136.248 80.8882 136.801 80.3964C138.031 79.2899 138.461 77.999 138.891 76.4622C139.383 74.618 137.969 70.4993 139.69 69.1469C142.457 66.9339 146.76 58.9425 149.772 59.4343L163.357 60.2949Z" fill="#1C2628" stroke="#1C2628" stroke-width="2.13" stroke-linecap="round" stroke-linejoin="round"/>
<path fill-rule="evenodd" clip-rule="evenodd" d="M147.682 60.6637C147.006 60.1719 146.022 58.3278 145.346 58.1433C142.395 57.3442 135.51 54.0247 131.699 57.4057C127.888 60.7252 130.285 63.1226 130.285 63.1226C130.285 63.1226 121.187 66.1962 130.531 74.0647C131.638 74.9868 130.347 75.786 131.822 76.1548C132.928 76.4007 134.158 76.4621 135.326 76.5851" fill="#1C2628"/>
<path d="M147.682 60.6637C147.006 60.1719 146.022 58.3278 145.346 58.1433C142.395 57.3442 135.51 54.0247 131.699 57.4057C127.888 60.7252 130.285 63.1226 130.285 63.1226C130.285 63.1226 121.187 66.1962 130.531 74.0647C131.638 74.9868 130.347 75.786 131.822 76.1548C132.928 76.4007 134.158 76.4621 135.326 76.5851" stroke="#1C2628" stroke-width="2.13" stroke-linecap="round" stroke-linejoin="round"/>
<path fill-rule="evenodd" clip-rule="evenodd" d="M160.96 65.643C160.96 64.8438 161.943 62.9997 161.759 62.3235C160.775 59.4343 159.669 51.8731 154.751 50.5822C149.833 49.2913 149.219 52.6723 149.219 52.6723C149.219 52.6723 141.535 46.8324 140.305 59.004C140.182 60.4178 138.768 59.8646 139.322 61.217C139.752 62.3235 140.367 63.307 140.92 64.3521" fill="#1C2628"/>
<path d="M160.96 65.643C160.96 64.8438 161.943 62.9997 161.759 62.3235C160.775 59.4343 159.669 51.8731 154.751 50.5822C149.833 49.2913 149.219 52.6723 149.219 52.6723C149.219 52.6723 141.535 46.8324 140.305 59.004C140.182 60.4178 138.768 59.8646 139.322 61.217C139.752 62.3235 140.367 63.307 140.92 64.3521" stroke="#1C2628" stroke-width="2.13" stroke-linecap="round" stroke-linejoin="round"/>
<path fill-rule="evenodd" clip-rule="evenodd" d="M138.953 69.9461C138.154 69.8231 136.494 68.5322 135.818 68.6552C132.805 69.1469 125.183 69.0855 123.093 73.7574C121.003 78.4293 124.261 79.5358 124.261 79.5358C124.261 79.5358 117.314 86.1748 129.056 89.3099C130.47 89.6787 129.67 90.9697 131.084 90.6623C132.191 90.4164 133.297 89.9861 134.404 89.6173" fill="#1C2628"/>
<path d="M138.953 69.9461C138.154 69.8231 136.494 68.5322 135.818 68.6552C132.805 69.1469 125.183 69.0855 123.093 73.7574C121.003 78.4293 124.261 79.5358 124.261 79.5358C124.261 79.5358 117.314 86.1748 129.056 89.3099C130.47 89.6787 129.67 90.9697 131.084 90.6623C132.191 90.4164 133.297 89.9861 134.404 89.6173" stroke="#1C2628" stroke-width="2.13" stroke-linecap="round" stroke-linejoin="round"/>
<path fill-rule="evenodd" clip-rule="evenodd" d="M271.365 174.757L294.97 129.206C294.97 129.206 291.466 128.652 289.991 129.144C288.515 129.636 283.352 139.533 283.352 139.533L280.462 130.497C280.462 130.497 278.495 129.451 278.434 134.431C278.372 139.41 278.311 144.389 278.311 144.389L270.197 155.27C270.197 155.27 267.738 152.75 268.783 150.782C269.828 148.815 271.365 143.344 272.41 141.377C273.455 139.41 271.426 138.365 271.426 138.365L260.73 151.705L257.656 164.368L192.126 175.74L207.495 209.181L271.365 174.757Z" fill="#FAF6EB" stroke="#1C2628" stroke-width="2.13" stroke-linecap="round" stroke-linejoin="round"/>
<path d="M281.815 149.983C283.229 146.848 283.536 142.73 283.475 139.287" stroke="#1C2628" stroke-width="2.13" stroke-linecap="round" stroke-linejoin="round"/>
<path fill-rule="evenodd" clip-rule="evenodd" d="M75.1443 207.337C94.6311 207.276 139.506 219.693 159.915 220.615L160.53 192.891C160.53 192.891 182.168 214.591 192.495 212.87C210.568 209.858 231.223 203.403 231.223 203.403L226.428 185.822L221.633 168.241L196.614 167.995C196.614 167.995 183.459 126.624 177.742 125.517L161.452 116.973C161.452 116.973 145.592 122.689 124.876 108.305C112.151 99.4529 83.3202 118.817 83.9964 135.783C84.857 153.918 74.714 188.158 75.1443 207.337Z" fill="#1C2628" stroke="#1C2628" stroke-width="2.13" stroke-linecap="round" stroke-linejoin="round"/>
<path d="M171.935 379.125C172.027 377.124 161.269 375.005 147.907 374.392C134.546 373.779 123.639 374.904 123.548 376.905C123.456 378.906 134.213 381.025 147.575 381.638C160.937 382.251 171.843 381.125 171.935 379.125Z" fill="#1C2628" stroke="#1C2628" stroke-width="2.13" stroke-linecap="round" stroke-linejoin="round"/>
<path fill-rule="evenodd" clip-rule="evenodd" d="M61.6818 361.203C63.5874 360.527 71.6403 362.801 78.2179 373.62C84.7954 384.378 89.2829 397.103 87.5617 398.148C85.8405 399.193 78.5867 388.128 72.0091 377.37C65.4316 366.612 56.3951 363.109 61.6818 361.203Z" fill="#1C2628" stroke="#1C2628" stroke-width="2.13" stroke-linecap="round" stroke-linejoin="round"/>
<path d="M100.778 265.736C104.835 259.958 105.02 254.671 104.159 250.737C103.545 248.093 102.868 231.68 102.131 230.512L91.8647 234.016" fill="#FAF6EB"/>
<path d="M100.778 265.736C104.835 259.958 105.02 254.671 104.159 250.737C103.545 248.093 102.868 231.68 102.131 230.512L91.8647 234.016" stroke="#1C2628" stroke-width="2.13" stroke-linecap="round" stroke-linejoin="round"/>
<path fill-rule="evenodd" clip-rule="evenodd" d="M163.665 387.82C158.685 367.657 192.864 310.119 192.864 310.119L135.572 334.339L130.654 398.271L155.304 410.135L182.537 404.602C182.537 404.602 165.14 393.906 163.665 387.82Z" fill="#FAF6EB" stroke="#1C2628" stroke-width="2.13" stroke-linecap="round" stroke-linejoin="round"/>
<path fill-rule="evenodd" clip-rule="evenodd" d="M71.5788 247.602C62.4809 238.258 75.6975 212.993 75.6975 212.993C75.6975 212.993 124.814 221.414 124.568 221.353C123.892 221.23 196.737 224.304 218.928 237.028C229.317 242.991 228.58 265.121 224.154 276.248L171.041 378.292C171.041 378.292 160.345 375.403 156.657 375.034C148.665 374.235 124.507 375.772 124.507 375.772L156.472 288.481L97.889 273.85C87.869 271.146 78.8326 255.101 71.5788 247.602Z" fill="#47584E" stroke="#1C2628" stroke-width="2.13" stroke-linecap="round" stroke-linejoin="round"/>
<path fill-rule="evenodd" clip-rule="evenodd" d="M157.087 396.98L162.558 389.111C162.558 389.111 172.824 393.66 183.151 398.271C174.976 401.959 165.509 400.853 157.087 396.98Z" fill="#1C2628" stroke="#1C2628" stroke-width="2.13" stroke-linecap="round" stroke-linejoin="round"/>
<path fill-rule="evenodd" clip-rule="evenodd" d="M128.748 392.123C128.748 392.123 135.633 386.652 139.26 394.029C140.551 396.611 150.51 402.205 154.075 401.344L157.149 396.98C165.57 400.853 175.037 402.021 183.213 398.271C189.545 401.098 195.876 403.988 199.872 405.77C211.244 410.934 207.863 420.401 207.863 420.401L160.099 420.708L125.613 418.68L128.748 392.123Z" fill="#8A3EB7" stroke="#1C2628" stroke-width="2.13" stroke-linecap="round" stroke-linejoin="round"/>
<path d="M89.6517 241.331L101.516 236.967" stroke="#1C2628" stroke-width="2.13" stroke-linecap="round" stroke-linejoin="round"/>
<path fill-rule="evenodd" clip-rule="evenodd" d="M76.6196 389.48C84.4266 377.37 125.982 359.728 125.982 359.728L91.1885 338.581L50.002 371.899L53.5674 395.32L73.6689 414.5C73.6074 414.561 73.1771 394.767 76.6196 389.48Z" fill="#FAF6EB" stroke="#1C2628" stroke-width="2.13" stroke-linecap="round" stroke-linejoin="round"/>
<path fill-rule="evenodd" clip-rule="evenodd" d="M90.6354 278.953L132.252 307.906L62.1121 360.834L61.6204 361.203C61.6204 361.203 68.8741 364.645 74.3452 371.653C79.0786 377.677 87.4388 398.148 87.4388 398.148L132.99 367.719L190.959 329.053L194.954 326.409C201.778 320.324 205.65 308.459 204.114 298.747C203.622 295.735 202.7 292.968 201.163 290.632C187.455 269.67 142.518 241.516 141.104 240.717C141.473 240.84 141.903 238.934 142.334 236.106C143.379 229.59 144.424 218.402 144.424 218.402L77.6032 204.878C77.6032 204.878 48.5882 249.938 66.3537 266.904C73.9149 274.096 85.5946 274.342 90.6354 278.953Z" fill="#47584E" stroke="#1C2628" stroke-width="2.13" stroke-linecap="round" stroke-linejoin="round"/>
<path fill-rule="evenodd" clip-rule="evenodd" d="M62.1736 360.834C66.1078 362.063 69.0585 361.756 71.2715 360.957C77.8491 358.56 77.1114 351.798 85.3487 347.74C96.6597 342.208 106.68 350.691 112.581 344.79C117.191 340.179 112.765 333.233 117.56 329.053C122.294 324.934 168.152 310.058 131.023 290.264C111.413 279.813 106.618 267.888 88.3609 264.568C81.9677 263.4 77.1729 263.83 73.7304 264.568C71.0256 265.121 68.5667 265.92 66.3537 266.904C74.9599 272.682 85.5946 274.404 90.5739 278.953L132.191 307.906L62.1736 360.834Z" fill="#1C2628" stroke="#1C2628" stroke-width="2.13" stroke-linecap="round" stroke-linejoin="round"/>
<path d="M60.8827 249.63C71.5789 247.848 80.3695 240.901 81.353 237.52C82.0292 235.246 88.9142 222.214 88.7912 221.046L78.0335 219.755" stroke="#1C2628" stroke-width="2.13" stroke-linecap="round" stroke-linejoin="round"/>
<path fill-rule="evenodd" clip-rule="evenodd" d="M66.5996 393.414L77.1729 393.353C77.1729 393.353 77.2958 402.451 79.2015 412.348C72.501 409.274 69.1815 400.914 66.5996 393.414Z" fill="#1C2628" stroke="#1C2628" stroke-width="2.13" stroke-linecap="round" stroke-linejoin="round"/>
<path fill-rule="evenodd" clip-rule="evenodd" d="M53.7518 367.35C53.7518 367.35 62.1736 369.871 58.1779 377.063C56.8255 379.583 57.8705 390.956 60.6368 393.353H66.5996C69.12 400.853 72.5009 409.274 79.2015 412.348C79.8162 415.668 80.4924 419.11 81.1071 422.307C81.9062 426.61 84.7955 423.413 90.8812 426.978C93.586 428.577 92.6639 436.384 92.6639 436.384L65.8004 433.863L50.3094 411.426L42.8712 399.07L33.7118 383.763L53.7518 367.35Z" fill="#8A3EB7" stroke="#1C2628" stroke-width="2.13" stroke-linecap="round" stroke-linejoin="round"/>
<path fill-rule="evenodd" clip-rule="evenodd" d="M80.308 204.817L144.485 218.341C144.485 218.341 132.744 225.779 126.535 227.316C120.265 228.914 114.056 227.807 110.122 226.762C106.126 225.656 90.6353 220.677 83.6275 226.209C71.21 230.082 72.6854 217.542 72.6854 217.542L80.308 204.817Z" fill="#1C2628" stroke="#1C2628" stroke-width="2.13" stroke-linecap="round" stroke-linejoin="round"/>
<path d="M131.084 351.92C128.257 359.973 126.105 368.641 120.88 375.403" stroke="#1C2628" stroke-width="2.13" stroke-linecap="round" stroke-linejoin="round"/>
<path d="M69.2429 222.644L81.7833 224.181" stroke="#1C2628" stroke-width="2.13" stroke-linecap="round" stroke-linejoin="round"/>
<path d="M130.162 230.205L141.104 240.655" stroke="#1C2628" stroke-width="2.13" stroke-linecap="round" stroke-linejoin="round"/>
<path d="M144.916 309.197L132.252 307.968" stroke="#1C2628" stroke-width="2.13" stroke-linecap="round" stroke-linejoin="round"/>
<path d="M118.544 268.011L159.054 307.353L76.0049 360.896L95.1843 389.603" stroke="#1C2628" stroke-width="2.13" stroke-linecap="round" stroke-linejoin="round"/>
<path d="M165.693 162.155L160.468 192.83" stroke="#1C2628" stroke-width="2.13" stroke-linecap="round" stroke-linejoin="round"/>
<path d="M259.685 153.856L83.7504 309.074" stroke="#1C2628" stroke-width="2.13" stroke-linecap="round" stroke-linejoin="round"/>
<path d="M294.232 123.366L273.578 141.623" stroke="#1C2628" stroke-width="2.13" stroke-linecap="round" stroke-linejoin="round"/>
<path fill-rule="evenodd" clip-rule="evenodd" d="M127.519 270.9C124.937 283.502 104.282 298.747 104.282 298.747C104.282 298.747 99.7333 296.226 101.7 293.153C103.668 290.018 110.122 282.764 110.122 282.764C110.122 282.764 106.311 283.625 106.004 282.334C105.696 281.043 106.741 279.506 106.741 279.506C106.741 279.506 105.204 278.522 103.606 277.539C102.069 276.555 104.344 274.711 104.344 274.711C104.344 274.711 99.6718 271.76 98.135 270.715C96.5982 269.732 94.754 267.457 94.754 267.457C94.754 267.457 96.4753 263.093 98.0121 264.076C99.5489 265.06 103.975 266.781 103.975 266.781L87.9921 250.122L94.3852 240.84L108.094 234.201C118.851 249.138 128.748 264.937 127.519 270.9Z" fill="#FAF6EB" stroke="#1C2628" stroke-width="2.13" stroke-linecap="round" stroke-linejoin="round"/>
<path fill-rule="evenodd" clip-rule="evenodd" d="M60.3294 221.353L83.9964 254.179C83.9964 254.179 90.7583 246.311 93.4631 244.221C94.2623 243.606 95.3688 242.868 96.6597 242.008C102.192 238.442 111.106 233.463 111.106 233.463C105.758 226.947 86.025 201.19 86.025 201.19L120.45 154.348L126.351 150.844L128.994 149.246L85.6561 128.161L52.338 187.42C50.6783 197.133 53.5675 214.284 60.3294 221.353Z" fill="#1C2628" stroke="#1C2628" stroke-width="2.13" stroke-linecap="round" stroke-linejoin="round"/>
<path d="M117.622 279.321C116.7 280.489 115.409 281.289 113.995 281.842C112.581 282.395 111.106 282.641 109.63 282.887" stroke="#1C2628" stroke-width="2.13" stroke-linecap="round" stroke-linejoin="round"/>
<path d="M114.241 276.186C111.905 278.215 108.77 279.26 105.635 279.076" stroke="#1C2628" stroke-width="2.13" stroke-linecap="round" stroke-linejoin="round"/>
<path d="M111.966 271.514C110.675 272.498 109.262 273.359 107.786 273.973C107.11 274.281 106.372 274.527 105.635 274.527C104.897 274.588 104.098 274.404 103.545 273.85" stroke="#1C2628" stroke-width="2.13" stroke-linecap="round" stroke-linejoin="round"/>
<path d="M142.58 413.27L126.228 413.332" stroke="#1C2628" stroke-width="2.13" stroke-linecap="round" stroke-linejoin="round"/>
<path d="M207.495 413.086H150.448" stroke="#1C2628" stroke-width="2.13" stroke-linecap="round" stroke-linejoin="round"/>
<path d="M46.744 393.414L37.8304 380.505" stroke="#1C2628" stroke-width="2.13" stroke-linecap="round" stroke-linejoin="round"/>
<path d="M92.7868 431.036L70.4108 427.532L50.002 398.086" stroke="#1C2628" stroke-width="2.13" stroke-linecap="round" stroke-linejoin="round"/>
<path fill-rule="evenodd" clip-rule="evenodd" d="M161.698 116.973L177.803 125.456C183.459 126.562 196.675 167.933 196.675 167.933L221.695 168.179L226.49 185.76C215.978 187.359 208.417 175.433 201.655 176.601C191.02 178.445 187.946 180.904 184.75 176.97C181 172.359 190.528 163.261 182.475 155.639C174.668 148.201 167.845 155.085 164.894 140.086C164.034 135.722 169.32 129.697 166.677 126.07C162.866 120.907 152.907 124.226 151.001 120.169C150.817 119.8 148.85 118.202 148.788 117.71C152.538 118.141 159.792 117.341 161.698 116.973Z" fill="#FAF6EB"/>
<path fill-rule="evenodd" clip-rule="evenodd" d="M83.6275 226.209C88.3608 232.049 92.7254 237.336 96.6596 242.008C102.192 238.442 111.106 233.463 111.106 233.463C105.758 226.947 86.0249 201.19 86.0249 201.19L120.449 154.348L126.351 150.844C122.97 148.078 118.544 145.557 113.134 145.188C99.7947 144.328 86.3937 156.991 85.1643 168.487C84.5495 174.203 87.3773 175.371 86.1478 180.535C83.6275 191.108 70.4723 190.924 68.1364 199.407C66.7225 204.202 69.5502 208.812 83.6275 226.209Z" fill="#FAF6EB"/>
<path fill-rule="evenodd" clip-rule="evenodd" d="M167.353 137.75C170.98 144.881 172.947 146.233 174.115 145.988C175.652 145.619 176.881 142.053 175.467 139.471C174.054 136.89 170.304 135.845 167.353 137.75Z" fill="#1C2628" stroke="#1C2628" stroke-width="2.13" stroke-linecap="round" stroke-linejoin="round"/>
<path fill-rule="evenodd" clip-rule="evenodd" d="M180.016 150.168C180.877 149.86 181.123 146.848 180.139 146.418C179.525 146.11 178.234 146.787 177.988 147.832C177.68 149.184 179.34 150.414 180.016 150.168Z" fill="#1C2628" stroke="#1C2628" stroke-width="2.13" stroke-linecap="round" stroke-linejoin="round"/>
<path fill-rule="evenodd" clip-rule="evenodd" d="M94.0164 172.912C95.922 172.359 96.5367 169.962 96.5367 168.609C96.5982 166.028 94.6311 163.261 92.8484 163.323C90.6354 163.384 88.2379 167.81 89.7133 170.638C90.451 172.052 92.2951 173.404 94.0164 172.912Z" fill="#1C2628" stroke="#1C2628" stroke-width="2.13" stroke-linecap="round" stroke-linejoin="round"/>
<path fill-rule="evenodd" clip-rule="evenodd" d="M141.166 240.655C142.58 241.454 187.455 269.609 201.224 290.571C202.761 292.907 203.745 295.735 204.175 298.685C207.126 296.718 209.462 294.198 210.507 291.001C212.72 284.424 209.216 275.941 203.929 271.146C196.184 264.138 187.762 268.195 180.754 260.449C176.635 255.9 178.049 252.765 175.099 248.155C169.32 239.057 153.399 234.631 142.334 236.045C141.965 238.873 141.535 240.84 141.166 240.655Z" fill="#1C2628" stroke="#1C2628" stroke-width="2.13" stroke-linecap="round" stroke-linejoin="round"/>
<path fill-rule="evenodd" clip-rule="evenodd" d="M133.113 367.719C136.309 368.825 139.629 369.317 142.703 369.01C148.051 368.395 148.85 365.629 160.038 359.113C173.746 351.121 176.512 352.966 181.738 347.986C186.84 343.13 190.036 335.753 191.081 329.053L133.113 367.719Z" fill="#1C2628" stroke="#1C2628" stroke-width="2.13" stroke-linecap="round" stroke-linejoin="round"/>
<path fill-rule="evenodd" clip-rule="evenodd" d="M275.36 136.644L278.557 139.471C281.139 141.746 285.134 141.5 287.409 138.98L297.121 128.099C299.396 125.517 299.15 121.521 296.63 119.247L293.433 116.419C290.851 114.145 286.856 114.391 284.581 116.911L274.868 127.792C272.532 130.374 272.778 134.369 275.36 136.644Z" fill="#1C2628" stroke="#1C2628" stroke-width="2.13" stroke-linecap="round" stroke-linejoin="round"/>
<path d="M297.121 128.468L284.766 118.018" stroke="#FAF6EB" stroke-width="2.13" stroke-linecap="round" stroke-linejoin="round"/>
<path d="M288.946 138.181L276.405 126.993" stroke="#FAF6EB" stroke-width="2.13" stroke-linecap="round" stroke-linejoin="round"/>
<path d="M296.937 122.259L281.569 139.226" stroke="#FAF6EB" stroke-width="2.13" stroke-linecap="round" stroke-linejoin="round"/>
<path d="M290.79 116.604L274.93 133.755" stroke="#FAF6EB" stroke-width="2.13" stroke-linecap="round" stroke-linejoin="round"/>
<path d="M103.852 224.304L111.106 233.463L102.684 238.319" stroke="#1C2628" stroke-width="2.13" stroke-linecap="round" stroke-linejoin="round"/>
<path d="M114.364 171.191L92.9098 200.76" stroke="#F5F5F5" stroke-width="2.13" stroke-linecap="round" stroke-linejoin="round"/>
<path d="M123.769 168.179L103.913 195.473" stroke="#F5F5F5" stroke-width="2.13" stroke-linecap="round" stroke-linejoin="round"/>
<path d="M162.005 167.134C160.775 175.126 161.39 193.567 161.206 193.813" stroke="#F5F5F5" stroke-width="2.13" stroke-linecap="round" stroke-linejoin="round"/>
<path d="M64.3866 183.978C66.1693 185.576 67.3988 188.096 66.8455 190.432C66.5996 191.477 66.0464 192.399 65.5546 193.321C61.8662 200.698 62.7883 210.165 67.952 216.558C70.2265 219.447 73.3001 221.722 75.3902 224.734" stroke="#F5F5F5" stroke-width="2.13" stroke-linecap="round" stroke-linejoin="round"/>
<path d="M62.1121 213.853C63.7103 222.091 71.0256 227.807 75.2672 235" stroke="#F5F5F5" stroke-width="2.13" stroke-linecap="round" stroke-linejoin="round"/>
<path d="M180.754 128.345C188.192 143.406 196.614 167.872 196.614 167.872L221.633 168.118" stroke="#1C2628" stroke-width="2.13" stroke-linecap="round" stroke-linejoin="round"/>
<path d="M165.755 191.785C169.136 194.92 172.701 197.809 176.697 200.083C182.844 203.587 199.503 208.751 199.503 208.751C203.929 204.325 209.523 206.722 213.703 208.198" stroke="#F5F5F5" stroke-width="2.13" stroke-linecap="round" stroke-linejoin="round"/>
<path d="M198.95 204.386C194.462 205.186 190.405 201.374 185.856 200.821" stroke="#F5F5F5" stroke-width="2.13" stroke-linecap="round" stroke-linejoin="round"/>
<path d="M138.83 117.464C136.432 117.71 134.219 116.296 132.006 115.251C128.134 113.469 123.462 112.547 121.003 109.043C115.839 109.411 109.569 110.334 104.958 112.731C103.422 113.53 101.946 114.514 100.778 115.866C99.1185 117.772 98.012 120.354 95.7375 121.46" stroke="#F5F5F5" stroke-width="2.13" stroke-linecap="round" stroke-linejoin="round"/>
<path d="M198.028 301.206C198.888 305.693 199.688 310.734 197.229 314.607C196.122 316.328 194.462 317.619 192.864 318.848C183.151 326.409 173.254 333.663 163.234 340.732" stroke="#1C2628" stroke-width="2.13" stroke-linecap="round" stroke-linejoin="round"/>
<path d="M176.021 323.582C168.828 328.192 162.005 333.356 155.55 339.011C152.538 341.655 149.526 344.421 145.838 346.081" stroke="#1C2628" stroke-width="2.13" stroke-linecap="round" stroke-linejoin="round"/>
<path d="M156.534 332.372C152.968 336.675 147.989 339.564 143.133 342.269C140.612 343.683 138.092 345.097 135.633 346.511" stroke="#1C2628" stroke-width="2.13" stroke-linecap="round" stroke-linejoin="round"/>
<path d="M177.68 356.531C175.406 360.834 169.935 369.563 167.107 373.497" stroke="#1C2628" stroke-width="2.13" stroke-linecap="round" stroke-linejoin="round"/>
<path d="M169.259 360.096C168.582 363.047 167.476 365.875 165.878 368.457" stroke="#1C2628" stroke-width="2.13" stroke-linecap="round" stroke-linejoin="round"/>
<path fill-rule="evenodd" clip-rule="evenodd" d="M405.682 367.719L406.666 439.888L423.509 523.921C423.509 523.921 427.874 540.887 425.23 545.374C422.833 549.432 407.157 546.85 407.157 546.85C407.157 546.85 369.106 550.231 358.717 546.727C340.521 540.58 364.372 535.662 364.372 535.662L392.834 524.904L366.094 453.166L350.787 368.702L405.682 367.719Z" fill="#8A3EB7" stroke="#1C2628" stroke-width="2.13" stroke-linecap="round" stroke-linejoin="round"/>
<path fill-rule="evenodd" clip-rule="evenodd" d="M316.055 368.272L308.494 454.825L310.092 514.331C310.092 514.331 315.748 525.457 313.473 530.129C311.445 534.371 295.585 533.08 295.585 533.08C295.585 533.08 262.451 538.612 251.816 535.969C233.19 531.359 252.062 525.58 252.062 525.58L279.54 512.425L268.107 448.002L273.701 360.035L316.055 368.272Z" fill="#8A3EB7" stroke="#1C2628" stroke-width="2.13" stroke-linecap="round" stroke-linejoin="round"/>
<path fill-rule="evenodd" clip-rule="evenodd" d="M384.474 196.272C384.474 196.272 428.304 220.861 441.951 239.61C451.54 252.827 467.646 282.026 467.646 282.026C467.646 282.026 474.777 289.71 472.441 296.226C469.798 303.603 473.302 303.234 473.855 304.955C479.818 324.565 453.753 311.103 453.753 311.103L449.389 288.665L412.198 249.753L371.442 228.238L384.474 196.272Z" fill="#8A3EB7" stroke="#1C2628" stroke-width="2.13" stroke-linecap="round" stroke-linejoin="round"/>
<path fill-rule="evenodd" clip-rule="evenodd" d="M306.465 220.431L296.63 279.076L271.61 271.023C271.61 271.023 272.287 235.123 278.311 213.73C284.335 192.338 302.9 190.494 302.9 190.494L306.465 220.431Z" fill="#8A3EB7" stroke="#1C2628" stroke-width="2.13" stroke-linecap="round" stroke-linejoin="round"/>
<path fill-rule="evenodd" clip-rule="evenodd" d="M362.344 198.731L355.152 190.678L343.841 190.063L336.402 200.944L331.362 190.801L319.866 190.125L311.506 194.797L313.473 262.908L365.786 265.859L362.344 198.731Z" fill="#FAF6EB" stroke="#1C2628" stroke-width="2.13" stroke-linecap="round" stroke-linejoin="round"/>
<path fill-rule="evenodd" clip-rule="evenodd" d="M355.152 160.188C360.254 143.775 353.553 131.111 330.132 134.062C327.427 134.431 324.169 134.738 321.711 136.152C310.645 142.607 313.596 159.389 312.367 160.925C309.416 164.491 313.104 169.47 310.092 175.679C303.883 188.588 308.31 205.124 308.31 205.124L366.708 203.403C366.708 203.403 369.106 197.624 366.217 186.805C365.172 182.994 360.561 183.178 359.701 172.667C358.778 162.216 355.152 160.188 355.152 160.188Z" fill="#1C2628" stroke="#1C2628" stroke-width="2.13" stroke-linecap="round" stroke-linejoin="round"/>
<path fill-rule="evenodd" clip-rule="evenodd" d="M326.382 171.253L326.567 185.699L322.94 189.94C322.94 189.94 321.157 204.263 326.813 207.706C333.083 211.394 347.037 204.141 351.832 202.911C356.135 201.805 349.25 192.83 349.25 192.83L348.758 176.293L349.127 169.839L326.382 171.253Z" fill="#8A3EB7" stroke="#1C2628" stroke-width="2.13" stroke-linecap="round" stroke-linejoin="round"/>
<path fill-rule="evenodd" clip-rule="evenodd" d="M323.432 162.647C322.448 159.02 322.756 151.827 323.678 148.508C325.276 142.545 326.997 145.188 333.022 143.529C339.784 141.684 343.042 138.98 347.468 144.389C349.189 146.479 354.23 154.348 355.029 157.176C357.795 167.318 352.447 177.584 343.103 180.166C337.079 181.826 332.161 181.273 327.796 177.031C325.337 174.695 324.477 166.273 323.432 162.647Z" fill="#8A3EB7" stroke="#1C2628" stroke-width="2.13" stroke-linecap="round" stroke-linejoin="round"/>
<path fill-rule="evenodd" clip-rule="evenodd" d="M337.079 161.724C336.587 160.311 337.878 158.651 339.968 157.975C341.996 157.298 344.025 157.913 344.517 159.266C344.947 160.679 343.718 162.339 341.628 163.015C339.538 163.753 337.509 163.138 337.079 161.724Z" fill="#FAFCFF" stroke="#1C2628" stroke-width="2.13" stroke-linecap="round" stroke-linejoin="round"/>
<path fill-rule="evenodd" clip-rule="evenodd" d="M349.25 156.13C348.82 154.717 350.111 153.057 352.139 152.381C354.168 151.704 356.197 152.319 356.688 153.672C357.119 155.085 355.889 156.745 353.799 157.421C351.709 158.159 349.681 157.544 349.25 156.13Z" fill="#FAFCFF" stroke="#1C2628" stroke-width="2.13" stroke-linecap="round" stroke-linejoin="round"/>
<path fill-rule="evenodd" clip-rule="evenodd" d="M328.473 187.42L326.997 172.667C326.997 172.667 338.861 170.023 341.751 173.158C344.578 176.232 341.566 186.375 341.566 186.375L334.435 187.42" fill="#8A3EB7"/>
<path fill-rule="evenodd" clip-rule="evenodd" d="M316.301 161.171C319.129 166.212 323.862 154.901 323.862 154.901L343.042 150.352L344.394 140.578L348.881 151.52L355.705 151.397C355.705 151.397 350.295 137.812 348.881 136.521C343.287 131.173 333.759 131.48 327.612 136.582C322.51 140.824 310.461 150.844 316.301 161.171Z" fill="#1C2628" stroke="#1C2628" stroke-width="2.13" stroke-linecap="round" stroke-linejoin="round"/>
<path fill-rule="evenodd" clip-rule="evenodd" d="M325.337 163.753C323.985 162.093 321.28 163.753 320.788 165.351C319.743 168.609 322.202 174.08 327.305 170.822" fill="#8A3EB7"/>
<path d="M325.337 163.753C323.985 162.093 321.28 163.753 320.788 165.351C319.743 168.609 322.202 174.08 327.305 170.822" stroke="#1C2628" stroke-width="2.13" stroke-linecap="round" stroke-linejoin="round"/>
<path fill-rule="evenodd" clip-rule="evenodd" d="M339.415 162.462C338.431 163.077 337.202 162.954 336.71 162.155C336.218 161.356 336.587 160.188 337.57 159.573C338.554 158.958 339.783 159.081 340.275 159.88C340.767 160.679 340.398 161.847 339.415 162.462Z" fill="#1C2628" stroke="#1C2628" stroke-width="2.13" stroke-linecap="round" stroke-linejoin="round"/>
<path fill-rule="evenodd" clip-rule="evenodd" d="M349.127 156.622C348.451 155.639 348.636 154.04 351.217 153.61C352.139 153.426 352.078 153.918 352.693 154.84C353.369 155.823 352.447 156.868 351.709 157.421C350.91 157.975 349.804 157.606 349.127 156.622Z" fill="#1C2628" stroke="#1C2628" stroke-width="2.13" stroke-linecap="round" stroke-linejoin="round"/>
<path d="M323.985 166.888C324.108 167.011 324.169 167.134 324.292 167.257" stroke="#1C2628" stroke-width="2.13" stroke-linecap="round" stroke-linejoin="round"/>
<path fill-rule="evenodd" clip-rule="evenodd" d="M358.102 190.309L362.282 201.866L370.581 224.857L365.54 238.504L364.127 260.818L304.498 283.502L297.736 218.095L317.284 204.264L318.514 185.945L325.399 186.682L327.182 191.231C329.333 196.825 334.681 200.514 340.706 200.514H342.427C347.775 200.514 351.893 195.842 351.217 190.555L350.91 188.096L358.102 190.309Z" fill="#FAF6EB" stroke="#1C2628" stroke-width="2.13" stroke-linecap="round" stroke-linejoin="round"/>
<path fill-rule="evenodd" clip-rule="evenodd" d="M340.152 170.392C342.427 172.482 345.562 170.146 348.39 169.962C348.39 169.962 348.205 175.003 343.103 174.511C339.722 174.142 340.152 170.392 340.152 170.392Z" fill="#1C2628" stroke="#1C2628" stroke-width="2.13" stroke-linecap="round" stroke-linejoin="round"/>
<path fill-rule="evenodd" clip-rule="evenodd" d="M347.898 158.159C351.402 158.835 355.152 157.667 355.582 159.696C356.074 162.339 350.418 164.245 349.681 164.122" fill="#8A3EB7"/>
<path d="M347.898 158.159C351.402 158.835 355.152 157.667 355.582 159.696C356.074 162.339 350.418 164.245 349.681 164.122" stroke="#1C2628" stroke-width="2.13" stroke-linecap="round" stroke-linejoin="round"/>
<path d="M337.386 140.639C335.665 143.713 335.911 147.524 335.296 151.028" stroke="#FAF6EB" stroke-width="2.13" stroke-linecap="round" stroke-linejoin="round"/>
<path d="M326.813 143.221C311.998 142.053 316.178 170.392 314.703 178.384" stroke="#FAF6EB" stroke-width="2.13" stroke-linecap="round" stroke-linejoin="round"/>
<path fill-rule="evenodd" clip-rule="evenodd" d="M264.849 456.485L273.885 452.305L282.307 460.604L289.991 449.846L300.933 459.62L306.404 451.998L317.53 459.436L314.395 404.357L342.673 337.474C342.673 337.474 343.533 343.314 344.947 352.228C348.881 377.739 356.934 428.208 360.192 437.675C360.315 437.982 361.483 445.605 362.344 450.953C362.836 453.903 363.143 456.116 363.143 456.116L371.319 450.154L380.171 460.112L389.146 452.059L398.49 461.219L405.19 453.043L414.718 461.034L417.239 451.567C417.239 451.567 404.821 339.319 395.478 313.746C386.134 288.173 376.974 286.083 376.974 286.083L296.445 270.039C296.445 270.039 295.339 273.912 293.495 280.244C285.749 306.923 265.648 377.862 265.648 390.218C265.709 399.685 265.34 422.737 265.094 438.904C264.971 449.108 264.849 456.485 264.849 456.485Z" fill="#1C2628" stroke="#1C2628" stroke-width="2.13" stroke-linecap="round" stroke-linejoin="round"/>
<path fill-rule="evenodd" clip-rule="evenodd" d="M323.862 186.006L305.482 175.925L302.716 187.85L292.511 188.096L296.999 201.805L283.659 206.538L289.683 218.709L281.016 227.746L294.601 233.217L294.109 280.612L324.907 280.981L323.862 186.006Z" fill="#1C2628" stroke="#1C2628" stroke-width="2.13" stroke-linecap="round" stroke-linejoin="round"/>
<path fill-rule="evenodd" clip-rule="evenodd" d="M355.029 189.326C355.029 189.326 348.144 272.437 348.451 277.477C348.759 282.518 378.019 272.621 378.019 272.621L380.97 230.82L392.035 226.762L384.658 217.542L397.752 211.333L388.47 206.354L397.998 192.03L375.622 190.186L355.029 189.326Z" fill="#1C2628" stroke="#1C2628" stroke-width="2.13" stroke-linecap="round" stroke-linejoin="round"/>
<path fill-rule="evenodd" clip-rule="evenodd" d="M305.051 303.296C312.858 315.037 326.444 310.611 337.202 316.512C345.746 321.184 351.525 334.831 357.795 342.146C377.343 364.768 407.034 368.395 429.41 327.086C430.271 325.487 431.07 323.827 431.808 322.168C441.213 300.714 440.414 270.838 405.006 261.925C377.712 255.04 367.569 257.745 361.176 258.113C358.594 258.236 356.627 257.99 354.414 256.577C344.578 250.368 337.14 227.93 323.678 229.836C322.202 230.02 314.395 232.172 315.932 242.622C317.469 253.011 329.21 264.506 329.763 271.514C330.009 274.711 332.776 284.055 327.059 282.026C316.608 278.215 296.322 290.202 305.051 303.296Z" fill="#F2B84A" stroke="#1C2628" stroke-width="2.13" stroke-linecap="round" stroke-linejoin="round"/>
<path fill-rule="evenodd" clip-rule="evenodd" d="M329.763 257.068C332.407 243.36 352.139 266.166 358.471 269.793C371.688 277.231 402.301 268.502 399.658 290.571C398.797 297.702 391.851 303.173 387.363 308.336C384.105 312.086 384.843 331.819 374.515 334.401C363.573 337.106 357.549 320.815 348.205 314.053C341.197 309.013 321.711 308.336 318.452 299.607C314.395 288.788 326.444 290.141 330.255 282.887C334.189 275.387 328.227 264.875 329.763 257.068Z" fill="#FAF6EB" stroke="#1C2628" stroke-width="2.13" stroke-linecap="round" stroke-linejoin="round"/>
<path fill-rule="evenodd" clip-rule="evenodd" d="M231.715 217.419C222.432 214.345 217.822 207.583 208.048 207.337C198.274 207.153 194.032 209.98 207.556 221.906C221.08 233.893 214.81 231.865 224.768 238.811C234.727 245.757 239.952 242.991 239.952 242.991L243.64 244.835L249.603 230.389C247.759 228.361 239.829 220.062 231.715 217.419Z" fill="#1C2628" stroke="#1C2628" stroke-width="2.13" stroke-linecap="round" stroke-linejoin="round"/>
<path fill-rule="evenodd" clip-rule="evenodd" d="M390.068 299.669L249.972 230.82C249.972 230.82 249.849 230.635 249.603 230.389L243.64 244.835L382.937 313.746L390.068 299.669Z" fill="#FAF6EB" stroke="#1C2628" stroke-width="2.13" stroke-linecap="round" stroke-linejoin="round"/>
<path fill-rule="evenodd" clip-rule="evenodd" d="M402.117 295.55L389.822 288.481L374.27 320.139L386.38 325.918L402.117 295.55Z" fill="#1C2628" stroke="#1C2628" stroke-width="2.13" stroke-linecap="round" stroke-linejoin="round"/>
<path d="M386.318 304.341L246.407 234.692" stroke="#1C2628" stroke-width="2.13" stroke-linecap="round" stroke-linejoin="round"/>
<path d="M383.613 308.336L243.456 239.426" stroke="#1C2628" stroke-width="2.13" stroke-linecap="round" stroke-linejoin="round"/>
<path fill-rule="evenodd" clip-rule="evenodd" d="M282.061 297.148C299.335 305.201 296.445 270.223 296.445 270.223L272.901 259.773L252.247 250.614L253.415 236.475C253.415 236.475 253.66 233.586 252.308 232.418C250.956 231.25 248.005 231.865 248.005 231.865C248.005 231.865 247.636 228.914 246.653 228.238C243.64 226.025 241.366 227.685 241.366 227.685L238.108 221.845C238.108 221.845 240.813 217.849 241.489 214.775C242.165 212.009 240.874 210.042 240.444 210.226C238.969 210.78 232.698 220.923 232.698 220.923L233.436 244.221C233.498 244.159 264.787 289.096 282.061 297.148Z" fill="#8A3EB7" stroke="#1C2628" stroke-width="2.13" stroke-linecap="round" stroke-linejoin="round"/>
<path d="M248.066 231.619C247.329 235.614 244.993 243.053 246.591 246.802" stroke="#1C2628" stroke-width="2.13" stroke-linecap="round" stroke-linejoin="round"/>
<path d="M242.964 227.5C239.399 228.422 237.555 242.684 239.952 244.958" stroke="#1C2628" stroke-width="2.13" stroke-linecap="round" stroke-linejoin="round"/>
<path d="M471.458 312.394C470.413 310.304 468.999 308.828 467.892 306.738" stroke="#1C2628" stroke-width="2.13" stroke-linecap="round" stroke-linejoin="round"/>
<path d="M465.065 313.008C462.851 309.074 463.712 301.206 462.175 296.964" stroke="#1C2628" stroke-width="2.13" stroke-linecap="round" stroke-linejoin="round"/>
<path d="M459.593 312.762C457.934 311.963 456.643 298.378 456.089 295.919" stroke="#1C2628" stroke-width="2.13" stroke-linecap="round" stroke-linejoin="round"/>
<path fill-rule="evenodd" clip-rule="evenodd" d="M356.135 143.037C356.135 143.037 358.717 128.099 341.812 129.697C324.907 131.296 312.305 137.443 311.998 142.115C311.69 146.787 312.92 150.475 312.92 150.475L356.135 143.037Z" fill="#8A3EB7" stroke="#1C2628" stroke-width="2.13" stroke-linecap="round" stroke-linejoin="round"/>
<path fill-rule="evenodd" clip-rule="evenodd" d="M356.873 144.881C356.873 144.881 366.77 136.398 363.02 133.324C356.811 128.099 323.063 142.115 323.063 142.115L312.182 150.229L356.873 144.881Z" fill="#FAF6EB" stroke="#1C2628" stroke-width="2.13" stroke-linecap="round" stroke-linejoin="round"/>
<path d="M395.846 364.338C395.846 364.338 405.928 423.843 409.37 453.35" stroke="#FAF6EB" stroke-width="2.13" stroke-linecap="round" stroke-linejoin="round"/>
<path d="M328.841 332.311C316.731 351.982 300.318 405.524 300.318 405.524C300.318 405.524 300.933 431.712 302.347 444.314" stroke="#FAF6EB" stroke-width="2.13" stroke-linecap="round" stroke-linejoin="round"/>
<path fill-rule="evenodd" clip-rule="evenodd" d="M426.337 524.289L428.857 542.362L386.38 542.916L374.823 529.822L387.67 522.199L388.285 511.933L399.965 524.289H426.337Z" fill="#1C2628" stroke="#1C2628" stroke-width="2.13" stroke-linecap="round" stroke-linejoin="round"/>
<path fill-rule="evenodd" clip-rule="evenodd" d="M313.473 512.856L313.35 528.162L274.069 531.912L261.59 519.74L273.823 511.134L277.02 500.684L286.241 512.364L313.473 512.856Z" fill="#1C2628" stroke="#1C2628" stroke-width="2.13" stroke-linecap="round" stroke-linejoin="round"/>
<path fill-rule="evenodd" clip-rule="evenodd" d="M428.857 538.92L429.349 549.063L349.742 549.862C349.742 549.862 345.009 540.948 352.57 536.83C360.131 532.711 377.958 528.101 377.958 528.101L384.597 538.92H428.857Z" fill="#FAF6EB" stroke="#1C2628" stroke-width="2.13" stroke-linecap="round" stroke-linejoin="round"/>
<path fill-rule="evenodd" clip-rule="evenodd" d="M313.781 524.72L314.395 536.031L236.387 536.584C236.387 536.584 232.76 533.08 239.952 528.408C247.206 523.736 264.603 517.773 264.603 517.773L272.041 528.039L313.781 524.72Z" fill="#FAF6EB" stroke="#1C2628" stroke-width="2.13" stroke-linecap="round" stroke-linejoin="round"/>
<path fill-rule="evenodd" clip-rule="evenodd" d="M410.231 537.014C410.723 535.662 409.985 534.125 408.633 533.695C407.28 533.264 405.805 534.002 405.313 535.354C404.821 536.768 405.559 538.244 406.911 538.674C408.264 539.166 409.739 538.428 410.231 537.014Z" fill="#FAF6EB" stroke="#1C2628" stroke-width="2.13" stroke-linecap="round" stroke-linejoin="round"/>
<path fill-rule="evenodd" clip-rule="evenodd" d="M297.49 524.228C297.859 522.814 297.06 521.4 295.646 521.031C294.232 520.663 292.818 521.523 292.45 522.937C292.081 524.351 292.88 525.826 294.294 526.134C295.708 526.502 297.122 525.642 297.49 524.228Z" fill="#FAF6EB" stroke="#1C2628" stroke-width="2.13" stroke-linecap="round" stroke-linejoin="round"/>
<path fill-rule="evenodd" clip-rule="evenodd" d="M398.613 536.953C399.104 535.539 398.367 534.063 397.014 533.633C395.662 533.203 394.187 533.941 393.695 535.293C393.203 536.707 393.941 538.182 395.293 538.612C396.646 539.104 398.121 538.305 398.613 536.953Z" fill="#FAF6EB" stroke="#1C2628" stroke-width="2.13" stroke-linecap="round" stroke-linejoin="round"/>
<path fill-rule="evenodd" clip-rule="evenodd" d="M285.872 525.027C286.241 523.613 285.442 522.199 284.028 521.83C282.675 521.462 281.2 522.322 280.893 523.736C280.524 525.15 281.323 526.564 282.737 526.933C284.089 527.301 285.503 526.441 285.872 525.027Z" fill="#FAF6EB" stroke="#1C2628" stroke-width="2.13" stroke-linecap="round" stroke-linejoin="round"/>
<path d="M391.359 525.58C391.482 525.765 391.052 525.211 390.929 525.027C390.068 523.675 389.207 522.445 388.224 521.154" stroke="#FAF6EB" stroke-width="2.13" stroke-linecap="round" stroke-linejoin="round"/>
<path d="M277.758 514.269C277.881 514.454 277.389 513.962 277.266 513.778C276.344 512.487 275.36 511.319 274.315 510.089" stroke="#FAF6EB" stroke-width="2.13" stroke-linecap="round" stroke-linejoin="round"/>
<path d="M388.285 529.269C388.285 529.269 385.212 525.396 383.921 523.306" stroke="#FAF6EB" stroke-width="2.13" stroke-linecap="round" stroke-linejoin="round"/>
<path d="M274.991 518.142C274.991 518.142 271.672 514.515 270.197 512.548" stroke="#FAF6EB" stroke-width="2.13" stroke-linecap="round" stroke-linejoin="round"/>
<path d="M383.921 531.051C382.876 529.391 381.708 527.793 380.54 526.256" stroke="#FAF6EB" stroke-width="2.13" stroke-linecap="round" stroke-linejoin="round"/>
<path d="M270.811 520.232C269.643 518.634 268.352 517.159 267.062 515.683" stroke="#FAF6EB" stroke-width="2.13" stroke-linecap="round" stroke-linejoin="round"/>
<path d="M386.011 539.043L360.807 543.899" stroke="#1C2628" stroke-width="2.13" stroke-linecap="round" stroke-linejoin="round"/>
<path d="M273.455 528.101L259.131 531.666" stroke="#1C2628" stroke-width="2.13" stroke-linecap="round" stroke-linejoin="round"/>
<path fill-rule="evenodd" clip-rule="evenodd" d="M265.648 390.402C265.648 381.058 277.082 338.396 286.057 306.554C290.237 307.906 293.925 310.304 296.384 314.422C297.49 316.266 296.753 318.664 294.847 319.647C291.22 321.553 287.532 321.799 285.442 325.856C281.569 333.54 290.974 340.487 290.974 350.568C289.929 351.859 288.884 353.15 287.778 354.318C288.884 353.15 289.991 351.859 290.974 350.568C290.974 351.736 290.851 352.965 290.544 354.256C288.454 363.17 281.139 361.879 276.713 374.296C274.623 380.075 276.037 380.874 273.086 391.755C270.381 401.652 269.029 401.898 268.721 406.692C268.107 416.59 273.885 419.725 273.455 425.995C273.147 430.421 269.766 435.154 265.156 439.088C265.34 422.921 265.709 399.869 265.648 390.402Z" fill="#FAF6EB"/>
<path fill-rule="evenodd" clip-rule="evenodd" d="M344.947 352.351C348.881 377.862 356.934 428.331 360.192 437.798C360.315 438.105 361.483 445.728 362.344 451.076C370.95 446.465 380.417 441.916 380.54 439.088C380.724 433.372 369.475 429.499 364.864 419.233C361.545 411.856 364.741 412.963 361.237 399.193C358.901 390.033 353.676 391.386 352.508 385.546C349.25 369.01 357.426 358.559 352.447 353.888C351.34 352.781 349.189 351.798 344.947 352.351Z" fill="#FAF6EB"/>
<path fill-rule="evenodd" clip-rule="evenodd" d="M361.237 258.113C362.159 261.249 363.696 264.015 365.848 265.859C372.548 271.76 382.568 263.953 397.691 270.101C399.289 270.777 408.817 274.772 415.149 284.301C423.202 296.349 417.669 304.525 423.878 314.176C425.845 317.25 428.611 319.893 431.869 322.106C441.275 300.652 440.475 270.777 405.067 261.863C377.773 255.04 367.63 257.745 361.237 258.113Z" fill="#1C2628" stroke="#1C2628" stroke-width="2.13" stroke-linecap="round" stroke-linejoin="round"/>
<path d="M286.056 306.554L265.648 386.099L265.34 418.495" stroke="#1C2628" stroke-width="2.13" stroke-linecap="round" stroke-linejoin="round"/>
<path d="M348.82 378.169L362.344 451.137" stroke="#1C2628" stroke-width="2.13" stroke-linecap="round" stroke-linejoin="round"/>
<path d="M365.848 190.063L361.237 189.572L358.717 234.692" stroke="#FAF6EB" stroke-width="2.13" stroke-linecap="round" stroke-linejoin="round"/>
<path d="M319.866 190.125V227.5" stroke="#FAF6EB" stroke-width="2.13" stroke-linecap="round" stroke-linejoin="round"/>
<path d="M308.74 394.767C308.924 394.582 303.884 406.262 303.945 408.291C304.068 414.745 304.744 432.449 305.851 438.781" stroke="#F5F5F5" stroke-width="2.13" stroke-linecap="round" stroke-linejoin="round"/>
<path d="M307.879 410.012C309.416 420.524 310.523 431.097 311.199 441.67" stroke="#F5F5F5" stroke-width="2.13" stroke-linecap="round" stroke-linejoin="round"/>
<path d="M390.929 361.633C391.728 372.145 393.387 382.595 395.846 392.8" stroke="#F5F5F5" stroke-width="2.13" stroke-linecap="round" stroke-linejoin="round"/>
<path d="M386.81 375.034C387.609 382.657 389.023 390.279 390.99 397.717C394.187 409.828 398.981 422.122 397.322 434.54" stroke="#F5F5F5" stroke-width="2.13" stroke-linecap="round" stroke-linejoin="round"/>
<path d="M397.937 401.529C398.49 406.016 399.104 410.442 399.658 414.93" stroke="#F5F5F5" stroke-width="2.13" stroke-linecap="round" stroke-linejoin="round"/>
<path d="M357.918 387.329C358.225 388.62 359.27 389.603 360.192 390.525C363.881 394.459 365.971 399.93 365.786 405.34" stroke="#F5F5F5" stroke-width="2.13" stroke-linecap="round" stroke-linejoin="round"/>
<path d="M359.455 367.903C359.332 373.313 360.561 378.722 362.959 383.517" stroke="#F5F5F5" stroke-width="2.13" stroke-linecap="round" stroke-linejoin="round"/>
<path d="M298.228 297.394C298.904 300.284 299.642 303.234 301.425 305.632C302.9 307.599 304.99 308.951 307.019 310.304C308.801 311.533 310.645 312.701 312.613 313.562C318.821 316.266 326.505 315.652 331.792 319.955" stroke="#F5F5F5" stroke-width="2.13" stroke-linecap="round" stroke-linejoin="round"/>
<path d="M336.403 329.852C334.128 327.516 331.854 325.118 329.087 323.397C326.321 321.676 323.002 320.569 319.805 321.061" stroke="#F5F5F5" stroke-width="2.13" stroke-linecap="round" stroke-linejoin="round"/>
<path d="M305.359 229.775C302.224 231.742 298.412 232.541 294.724 232.111" stroke="#F5F5F5" stroke-width="2.13" stroke-linecap="round" stroke-linejoin="round"/>
<path d="M297.306 220.431C295.769 220.308 294.232 220 292.757 219.447" stroke="#F5F5F5" stroke-width="2.13" stroke-linecap="round" stroke-linejoin="round"/>
<path d="M379.433 230.82C375.438 231.557 371.442 231.865 367.385 231.865" stroke="#F5F5F5" stroke-width="2.13" stroke-linecap="round" stroke-linejoin="round"/>
<path d="M377.466 225.656C373.593 227.008 369.475 227.685 365.417 227.623" stroke="#F5F5F5" stroke-width="2.13" stroke-linecap="round" stroke-linejoin="round"/>
<path d="M366.524 205.677C365.049 212.501 364.311 219.447 364.311 226.394C364.311 229.775 364.373 233.524 362.098 235.983" stroke="#F5F5F5" stroke-width="2.13" stroke-linecap="round" stroke-linejoin="round"/>
<path d="M363.819 238.258C365.11 237.827 365.971 236.291 365.725 234.938" stroke="#F5F5F5" stroke-width="2.13" stroke-linecap="round" stroke-linejoin="round"/>
<path d="M378.634 257.007H362.774" stroke="#F5F5F5" stroke-width="2.13" stroke-linecap="round" stroke-linejoin="round"/>
<path d="M302.654 187.051C305.851 189.756 308.863 192.707 311.752 195.719" stroke="#F5F5F5" stroke-width="2.13" stroke-linecap="round" stroke-linejoin="round"/>
<path d="M355.52 175.064C356.012 179.121 357.365 182.994 359.516 186.498" stroke="#F5F5F5" stroke-width="2.13" stroke-linecap="round" stroke-linejoin="round"/>
<path d="M351.525 174.511C351.709 176.908 351.894 179.367 352.078 181.765" stroke="#F5F5F5" stroke-width="2.13" stroke-linecap="round" stroke-linejoin="round"/>
<path d="M319.989 162.831C319.743 170.146 320.481 175.556 320.235 182.871C320.235 183.67 320.174 184.469 319.805 185.146" stroke="#F5F5F5" stroke-width="2.13" stroke-linecap="round" stroke-linejoin="round"/>
<path d="M166.861 419.479V542.854" stroke="#FAF6EB" stroke-width="2.13" stroke-linecap="round" stroke-linejoin="round"/>
<path d="M173.869 435.216H185.733" stroke="#FAF6EB" stroke-width="2.13" stroke-linecap="round" stroke-linejoin="round"/>
<path d="M173.869 441.67H185.733" stroke="#FAF6EB" stroke-width="2.13" stroke-linecap="round" stroke-linejoin="round"/>
<path d="M173.869 448.125H185.733" stroke="#FAF6EB" stroke-width="2.13" stroke-linecap="round" stroke-linejoin="round"/>
<path d="M188.069 430.728H171.349V452.797H188.069V430.728Z" stroke="#FAF6EB" stroke-width="2.13" stroke-linecap="round" stroke-linejoin="round"/>
<path d="M96.4138 430.728H157.21V452.735H72.6239V442.285" stroke="#FAF6EB" stroke-width="2.13" stroke-linecap="round" stroke-linejoin="round"/>
<path d="M82.8283 445.42C84.5598 445.42 85.9634 444.017 85.9634 442.285C85.9634 440.554 84.5598 439.15 82.8283 439.15C81.0969 439.15 79.6932 440.554 79.6932 442.285C79.6932 444.017 81.0969 445.42 82.8283 445.42Z" stroke="#FAF6EB" stroke-width="2.13" stroke-linecap="round" stroke-linejoin="round"/>
<path d="M96.4138 445.42C98.1453 445.42 99.5489 444.017 99.5489 442.285C99.5489 440.554 98.1453 439.15 96.4138 439.15C94.6823 439.15 93.2787 440.554 93.2787 442.285C93.2787 444.017 94.6823 445.42 96.4138 445.42Z" stroke="#FAF6EB" stroke-width="2.13" stroke-linecap="round" stroke-linejoin="round"/>
<path d="M109.999 445.42C111.731 445.42 113.134 444.017 113.134 442.285C113.134 440.554 111.731 439.15 109.999 439.15C108.268 439.15 106.864 440.554 106.864 442.285C106.864 444.017 108.268 445.42 109.999 445.42Z" stroke="#FAF6EB" stroke-width="2.13" stroke-linecap="round" stroke-linejoin="round"/>
<path d="M149.342 439.089H119.958V445.359H149.342V439.089Z" stroke="#FAF6EB" stroke-width="2.13" stroke-linecap="round" stroke-linejoin="round"/>
<path d="M112.458 519.556C127.226 519.556 139.199 507.584 139.199 492.815C139.199 478.047 127.226 466.075 112.458 466.075C97.6897 466.075 85.7175 478.047 85.7175 492.815C85.7175 507.584 97.6897 519.556 112.458 519.556Z" stroke="#FAF6EB" stroke-width="2.13" stroke-linecap="round" stroke-linejoin="round"/>
<path d="M112.458 515.007C124.714 515.007 134.65 505.072 134.65 492.815C134.65 480.559 124.714 470.624 112.458 470.624C100.202 470.624 90.2665 480.559 90.2665 492.815C90.2665 505.072 100.202 515.007 112.458 515.007Z" stroke="#FAF6EB" stroke-width="2.13" stroke-linecap="round" stroke-linejoin="round"/>
<path d="M112.458 503.819C118.535 503.819 123.462 498.893 123.462 492.816C123.462 486.738 118.535 481.812 112.458 481.812C106.381 481.812 101.454 486.738 101.454 492.816C101.454 498.893 106.381 503.819 112.458 503.819Z" stroke="#FAF6EB" stroke-width="2.13" stroke-linecap="round" stroke-linejoin="round"/>
<path d="M56.7639 531.482H193.171" stroke="#FAF6EB" stroke-width="2.13" stroke-linecap="round" stroke-linejoin="round"/>
<path d="M193.172 474.005H166.492V500.684H193.172V474.005Z" fill="#FAF6EB"/>
<path d="M192.557 474.005V495.951" stroke="#1C2628" stroke-width="2.13" stroke-linecap="round" stroke-linejoin="round"/>
<path d="M225.076 545.497H313.227" stroke="#1C2628" stroke-width="2.13" stroke-linecap="round" stroke-linejoin="round"/>
<path d="M292.45 541.133H327.796" stroke="#1C2628" stroke-width="2.13" stroke-linecap="round" stroke-linejoin="round"/>
<path d="M328.534 559.575H416.931" stroke="#1C2628" stroke-width="2.13" stroke-linecap="round" stroke-linejoin="round"/>
<path d="M399.535 556.562H479.695" stroke="#1C2628" stroke-width="2.13" stroke-linecap="round" stroke-linejoin="round"/>
<path d="M314.457 534.74H234.542V537.813H314.457V534.74Z" fill="#1C2628" stroke="#1C2628" stroke-width="2.13" stroke-linecap="round" stroke-linejoin="round"/>
<path d="M429.41 547.034H348.881V550.108H429.41V547.034Z" fill="#1C2628" stroke="#1C2628" stroke-width="2.13" stroke-linecap="round" stroke-linejoin="round"/>
</svg>
