<svg width="34" height="45" viewBox="0 0 34 45" fill="none" xmlns="http://www.w3.org/2000/svg">
<path d="M16.875 45C16.875 45 33.75 29.0073 33.75 16.875C33.75 7.55519 26.1948 0 16.875 0C7.55519 0 0 7.55519 0 16.875C0 29.0073 16.875 45 16.875 45ZM16.875 25.3125C12.2151 25.3125 8.4375 21.5349 8.4375 16.875C8.4375 12.2151 12.2151 8.4375 16.875 8.4375C21.5349 8.4375 25.3125 12.2151 25.3125 16.875C25.3125 21.5349 21.5349 25.3125 16.875 25.3125Z" fill="#F2B84A"/>
<rect x="6.375" y="8" width="21" height="20" fill="#F2B84A"/>
<path d="M11.5135 26.9274C11.0304 27.179 10.4835 26.7393 10.5807 26.1776L11.6179 20.1869L7.21495 15.9352C6.80348 15.5378 7.01648 14.8113 7.56771 14.732L13.6908 13.8505L16.421 8.37025C16.6669 7.87658 17.3331 7.87658 17.579 8.37025L20.3092 13.8505L26.4323 14.732C26.9835 14.8113 27.1965 15.5378 26.785 15.9352L22.3821 20.1869L23.4193 26.1776C23.5165 26.7393 22.9696 27.179 22.4865 26.9274L17 24.0699L11.5135 26.9274Z" fill="#8A3EB7" stroke="black"/>
</svg>
