<svg width="27" height="29" viewBox="0 0 27 29" fill="none" xmlns="http://www.w3.org/2000/svg">
<path d="M23.625 4.6875C24.557 4.6875 25.3125 5.44302 25.3125 6.375V19.875C25.3125 20.807 24.557 21.5625 23.625 21.5625H7.44898C6.55388 21.5625 5.69543 21.9181 5.0625 22.551L1.6875 25.926V6.375C1.6875 5.44302 2.44302 4.6875 3.375 4.6875H23.625ZM3.375 3C1.51104 3 0 4.51104 0 6.375V27.963C0 28.7147 0.908837 29.0912 1.44037 28.5596L6.25574 23.7443C6.57221 23.4278 7.00143 23.25 7.44898 23.25H23.625C25.489 23.25 27 21.739 27 19.875V6.375C27 4.51104 25.489 3 23.625 3H3.375Z" fill="black"/>
<path d="M5.0625 8.90625C5.0625 8.44026 5.44026 8.0625 5.90625 8.0625H21.0938C21.5597 8.0625 21.9375 8.44026 21.9375 8.90625C21.9375 9.37224 21.5597 9.75 21.0938 9.75H5.90625C5.44026 9.75 5.0625 9.37224 5.0625 8.90625ZM5.0625 13.125C5.0625 12.659 5.44026 12.2812 5.90625 12.2812H21.0938C21.5597 12.2812 21.9375 12.659 21.9375 13.125C21.9375 13.591 21.5597 13.9688 21.0938 13.9688H5.90625C5.44026 13.9688 5.0625 13.591 5.0625 13.125ZM5.0625 17.3438C5.0625 16.8778 5.44026 16.5 5.90625 16.5H14.3438C14.8097 16.5 15.1875 16.8778 15.1875 17.3438C15.1875 17.8097 14.8097 18.1875 14.3438 18.1875H5.90625C5.44026 18.1875 5.0625 17.8097 5.0625 17.3438Z" fill="black"/>
</svg>
