<svg width="27" height="28" viewBox="0 0 27 28" fill="none" xmlns="http://www.w3.org/2000/svg">
<path d="M26.1562 14.3714C26.1562 21.3613 20.4899 27.0277 13.5 27.0277C6.51015 27.0277 0.84375 21.3613 0.84375 14.3714C0.84375 8.52688 4.8054 3.6076 10.1899 2.15246C10.1476 2.00476 10.125 1.84877 10.125 1.6875C10.125 0.75552 10.8805 0 11.8125 0H15.1875C16.1195 0 16.875 0.75552 16.875 1.6875C16.875 1.84877 16.8524 2.00475 16.8101 2.15245C22.1946 3.60758 26.1562 8.52686 26.1562 14.3714ZM20.0629 7.7809L11.7102 12.5539L6.93725 20.9066L15.2899 16.1336L20.0629 7.7809Z" fill="#F2B84A"/>
</svg>
