<svg width="8" height="10" viewBox="0 0 8 10" fill="none" xmlns="http://www.w3.org/2000/svg">
<path d="M0.106661 1.68214C0.0911947 1.63604 0.083252 1.58917 0.083252 1.54169C0.083252 0.851331 1.76218 0.291687 3.83325 0.291687C5.90432 0.291687 7.58325 0.851331 7.58325 1.54169C7.58325 1.58917 7.57531 1.63603 7.55984 1.68214L6.50734 7.99719C6.40688 8.59992 5.88539 9.04169 5.27434 9.04169H2.39216C1.78111 9.04169 1.25962 8.59992 1.15917 7.99719L0.106661 1.68214ZM6.28726 1.25073C5.68797 1.05097 4.8203 0.916687 3.83325 0.916687C2.8462 0.916687 1.97853 1.05097 1.37924 1.25073C1.08129 1.35005 0.882857 1.45468 0.770346 1.54169C0.882857 1.6287 1.08129 1.73332 1.37924 1.83264C1.97853 2.03241 2.8462 2.16669 3.83325 2.16669C4.8203 2.16669 5.68797 2.03241 6.28726 1.83264C6.58522 1.73332 6.78365 1.6287 6.89616 1.54169C6.78365 1.45468 6.58522 1.35005 6.28726 1.25073Z" fill="#FF8D80"/>
</svg>
