<svg width="10" height="10" viewBox="0 0 10 10" fill="none" xmlns="http://www.w3.org/2000/svg">
<path d="M7.98013 0.582376C7.8703 0.472541 7.69222 0.472541 7.58238 0.582376L6.65625 1.50851L8.7415 3.59375L9.66763 2.66762C9.77747 2.55779 9.77747 2.37971 9.66763 2.26988L7.98013 0.582376Z" fill="#F2B84A"/>
<path d="M8.34375 3.9915L6.25851 1.90625L2.60226 5.5625H2.71875C2.87408 5.5625 3 5.68842 3 5.84375V6.125H3.28125C3.43658 6.125 3.5625 6.25092 3.5625 6.40625V6.6875H3.84375C3.99908 6.6875 4.125 6.81342 4.125 6.96875V7.25H4.40625C4.56158 7.25 4.6875 7.37592 4.6875 7.53125V7.64776L8.34375 3.9915Z" fill="#F2B84A"/>
<path d="M4.14281 8.19245C4.1313 8.16174 4.125 8.12848 4.125 8.09375V7.8125H3.84375C3.68842 7.8125 3.5625 7.68658 3.5625 7.53125V7.25H3.28125C3.12592 7.25 3 7.12408 3 6.96875V6.6875H2.71875C2.56342 6.6875 2.4375 6.56158 2.4375 6.40625V6.125H2.15625C2.12152 6.125 2.08827 6.11871 2.05756 6.1072L1.95738 6.20738C1.93045 6.23431 1.90927 6.26643 1.89512 6.3018L0.770124 9.1143C0.72834 9.21876 0.752829 9.33807 0.832384 9.41762C0.91194 9.49718 1.03125 9.52167 1.13571 9.47988L3.94821 8.35488C3.98358 8.34074 4.0157 8.31956 4.04263 8.29262L4.14281 8.19245Z" fill="#F2B84A"/>
</svg>
