<svg width="33" height="34" viewBox="0 0 33 34" fill="none" xmlns="http://www.w3.org/2000/svg">
<path d="M32.7093 13.9367C32.9072 15.0736 33 16.2354 33 17.391C33 22.5629 31.1692 26.9354 27.984 29.8962H27.9902C25.2007 32.4946 21.3722 34 16.8324 34C10.4681 34 4.64802 30.3771 1.79056 24.6367C-0.596849 19.8333 -0.596854 14.1741 1.79055 9.37066C4.64802 3.62403 10.4681 0.00114557 16.8324 0.00114557C21.0135 -0.0488252 25.0523 1.53775 28.0953 4.42356L23.2896 9.27697C21.5516 7.60295 19.2322 6.69098 16.8324 6.72846C12.4411 6.72846 8.71155 9.72046 7.38178 13.7494C6.67669 15.8606 6.67669 18.1468 7.38178 20.258H7.38797C8.72393 24.2807 12.4473 27.2727 16.8386 27.2727C19.1085 27.2727 21.0568 26.6855 22.5659 25.6486H22.5597C24.3348 24.4618 25.5471 22.5942 25.9244 20.4829H16.8324V13.9367H32.7093Z" fill="#F2B84A"/>
</svg>
