<svg width="34" height="34" viewBox="0 0 34 34" fill="none" xmlns="http://www.w3.org/2000/svg">
<path d="M17.0016 0C12.3846 0 11.8052 0.0201878 9.99185 0.102709C8.18204 0.185584 6.9467 0.472104 5.86577 0.8925C4.74765 1.32671 3.79919 1.90754 2.85426 2.85281C1.90862 3.79773 1.32778 4.74619 0.892155 5.86394C0.470692 6.94521 0.183814 8.1809 0.102355 9.98998C0.0212501 11.8033 0 12.3831 0 17C0 21.6169 0.0205422 22.1946 0.10271 24.0079C0.18594 25.8177 0.472463 27.053 0.892509 28.1339C1.32708 29.252 1.90792 30.2005 2.8532 31.1454C3.79777 32.091 4.74624 32.6733 5.86364 33.1075C6.94528 33.5279 8.18098 33.8144 9.99044 33.8973C11.8038 33.9798 12.3829 34 16.9995 34C21.6168 34 22.1944 33.9798 24.0078 33.8973C25.8176 33.8144 27.0544 33.5279 28.136 33.1075C29.2538 32.6733 30.2008 32.091 31.1454 31.1454C32.091 30.2005 32.6719 29.252 33.1075 28.1343C33.5254 27.053 33.8123 25.8173 33.8973 24.0082C33.9787 22.1949 34 21.6169 34 17C34 12.3831 33.9787 11.8037 33.8973 9.99033C33.8123 8.18054 33.5254 6.94521 33.1075 5.86429C32.6719 4.74619 32.091 3.79773 31.1454 2.85281C30.1998 1.90719 29.2541 1.32635 28.1349 0.8925C27.0512 0.472104 25.8151 0.185584 24.0053 0.102709C22.192 0.0201878 21.6147 0 16.9963 0H17.0016ZM15.4765 3.06354C15.9292 3.06283 16.4342 3.06354 17.0016 3.06354C21.5406 3.06354 22.0786 3.07983 23.8711 3.16129C25.5286 3.23708 26.4282 3.51404 27.0274 3.74673C27.8208 4.05485 28.3864 4.42319 28.9811 5.01819C29.5761 5.61319 29.9444 6.17985 30.2532 6.97319C30.4859 7.57173 30.7632 8.47131 30.8387 10.1288C30.9201 11.9209 30.9378 12.4592 30.9378 16.9961C30.9378 21.533 30.9201 22.0713 30.8387 23.8634C30.7629 25.5209 30.4859 26.4205 30.2532 27.019C29.9451 27.8124 29.5761 28.3772 28.9811 28.9719C28.386 29.5669 27.8211 29.9352 27.0274 30.2434C26.4289 30.4771 25.5286 30.7534 23.8711 30.8291C22.079 30.9106 21.5406 30.9283 17.0016 30.9283C12.4622 30.9283 11.9242 30.9106 10.1321 30.8291C8.47459 30.7526 7.575 30.4757 6.97539 30.243C6.18204 29.9349 5.61537 29.5665 5.02036 28.9715C4.42536 28.3765 4.05702 27.8113 3.74818 27.0176C3.5155 26.4191 3.23818 25.5195 3.16274 23.862C3.08128 22.0699 3.06499 21.5316 3.06499 16.9919C3.06499 12.4521 3.08128 11.9166 3.16274 10.1246C3.23853 8.46706 3.5155 7.56748 3.74818 6.96823C4.05631 6.1749 4.42536 5.60823 5.02036 5.01323C5.61537 4.41823 6.18204 4.0499 6.97539 3.74106C7.57464 3.50731 8.47459 3.23106 10.1321 3.15492C11.7004 3.08408 12.3081 3.06283 15.4765 3.05929V3.06354ZM26.0761 5.88625C24.9499 5.88625 24.0361 6.79894 24.0361 7.92554C24.0361 9.05179 24.9499 9.96554 26.0761 9.96554C27.2024 9.96554 28.1162 9.05179 28.1162 7.92554C28.1162 6.79929 27.2024 5.88554 26.0761 5.88554V5.88625ZM17.0016 8.26979C12.1803 8.26979 8.27129 12.1787 8.27129 17C8.27129 21.8213 12.1803 25.7284 17.0016 25.7284C21.8229 25.7284 25.7305 21.8213 25.7305 17C25.7305 12.1787 21.8226 8.26979 17.0012 8.26979H17.0016ZM17.0016 11.3333C20.131 11.3333 22.6683 13.8702 22.6683 17C22.6683 20.1294 20.131 22.6667 17.0016 22.6667C13.8718 22.6667 11.3349 20.1294 11.3349 17C11.3349 13.8702 13.8718 11.3333 17.0016 11.3333Z" fill="#F2B84A"/>
</svg>
