<svg width="34" height="34" viewBox="0 0 34 34" fill="none" xmlns="http://www.w3.org/2000/svg">
<path d="M0 2.43554C0 1.09079 1.11778 0 2.49669 0H31.5033C32.8822 0 34 1.09079 34 2.43555V31.5645C34 32.9097 32.8822 34 31.5033 34L2.49669 34C1.11778 34 0 32.9097 0 31.5644V2.43554ZM10.5047 28.4615V13.1086H5.40166V28.4615H10.5047ZM7.95315 11.0124C9.73267 11.0124 10.8403 9.8335 10.8403 8.36018C10.8071 6.8537 9.73268 5.70748 7.98691 5.70748C6.24132 5.70748 5.1 6.8537 5.1 8.36018C5.1 9.8335 6.20737 11.0124 7.91989 11.0124H7.95315ZM18.3842 28.4615V19.8878C18.3842 19.429 18.4174 18.9706 18.5521 18.6425C18.921 17.7258 19.7607 16.7762 21.1704 16.7762C23.0169 16.7762 23.7556 18.1842 23.7556 20.2481V28.4615H28.8582V19.6584C28.8582 14.9427 26.3406 12.7484 22.9832 12.7484C20.2763 12.7484 19.0625 14.2362 18.3844 15.2823V15.3352H18.3503C18.3615 15.3177 18.3728 15.3001 18.3844 15.2823V13.1086H13.2814C13.3484 14.5492 13.2814 28.4615 13.2814 28.4615H18.3842Z" fill="#0072B1"/>
</svg>
