<svg width="19" height="19" viewBox="0 0 19 19" fill="none" xmlns="http://www.w3.org/2000/svg">
<path d="M12.0719 10.616C11.4496 11.8768 10.6073 13.1339 9.74433 14.2619C8.88407 15.3865 8.02088 16.36 7.37162 17.0531C7.28535 17.1452 7.20297 17.2322 7.125 17.3138C7.04703 17.2322 6.96465 17.1452 6.87838 17.0531C6.22912 16.36 5.36593 15.3865 4.50567 14.2619C3.6427 13.1339 2.80042 11.8768 2.17815 10.616C1.54945 9.34215 1.1875 8.14852 1.1875 7.125C1.1875 3.84581 3.84581 1.1875 7.125 1.1875C10.4042 1.1875 13.0625 3.84581 13.0625 7.125C13.0625 8.14852 12.7005 9.34215 12.0719 10.616ZM7.125 19C7.125 19 14.25 12.2475 14.25 7.125C14.25 3.18997 11.06 0 7.125 0C3.18997 0 0 3.18997 0 7.125C0 12.2475 7.125 19 7.125 19Z" fill="black"/>
<path d="M7.125 9.5C5.81332 9.5 4.75 8.43668 4.75 7.125C4.75 5.81332 5.81332 4.75 7.125 4.75C8.43668 4.75 9.5 5.81332 9.5 7.125C9.5 8.43668 8.43668 9.5 7.125 9.5ZM7.125 10.6875C9.09251 10.6875 10.6875 9.09251 10.6875 7.125C10.6875 5.15749 9.09251 3.5625 7.125 3.5625C5.15749 3.5625 3.5625 5.15749 3.5625 7.125C3.5625 9.09251 5.15749 10.6875 7.125 10.6875Z" fill="black"/>
</svg>
