<svg width="26" height="26" viewBox="0 0 26 26" fill="none" xmlns="http://www.w3.org/2000/svg">
<path d="M25.0749 0.944144C24.7168 0.585243 24.2306 0.383547 23.7236 0.383547C23.2166 0.383547 22.7305 0.585243 22.3724 0.944144L12.9999 10.2975L3.62738 0.924977C3.26929 0.566076 2.78313 0.36438 2.27613 0.36438C1.76914 0.36438 1.28298 0.566076 0.924883 0.924977C0.177383 1.67248 0.177383 2.87998 0.924883 3.62748L10.2974 13L0.924883 22.3725C0.177383 23.12 0.177383 24.3275 0.924883 25.075C1.67238 25.8225 2.87988 25.8225 3.62738 25.075L12.9999 15.7025L22.3724 25.075C23.1199 25.8225 24.3274 25.8225 25.0749 25.075C25.8224 24.3275 25.8224 23.12 25.0749 22.3725L15.7024 13L25.0749 3.62748C25.8032 2.89914 25.8032 1.67248 25.0749 0.944144Z" fill="#6D7D8B"/>
</svg>
