<svg width="27" height="27" viewBox="0 0 27 27" fill="none" xmlns="http://www.w3.org/2000/svg">
<path d="M13.5 27C15.364 27 16.875 25.489 16.875 23.625H10.125C10.125 25.489 11.636 27 13.5 27Z" fill="black"/>
<path d="M13.5 3.23705L12.1547 3.50874C9.0712 4.13149 6.75004 6.85906 6.75004 10.125C6.75004 11.1845 6.5233 13.8329 5.9757 16.4399C5.70386 17.7341 5.34016 19.0816 4.85678 20.25H22.1432C21.6599 19.0816 21.2962 17.7341 21.0243 16.4399C20.4768 13.8328 20.25 11.1844 20.25 10.125C20.25 6.85904 17.9288 4.13145 14.8453 3.50873L13.5 3.23705ZM23.9951 20.25C24.3718 21.005 24.8087 21.6017 25.3125 21.9375H1.6875C2.19126 21.6017 2.62819 21.005 3.00493 20.25C4.52119 17.2114 5.06254 11.6086 5.06254 10.125C5.06254 6.04013 7.96534 2.63326 11.8207 1.85463C11.8153 1.79965 11.8125 1.7439 11.8125 1.6875C11.8125 0.75552 12.568 0 13.5 0C14.432 0 15.1875 0.75552 15.1875 1.6875C15.1875 1.7439 15.1847 1.79964 15.1793 1.85462C19.0347 2.63321 21.9375 6.04011 21.9375 10.125C21.9375 11.6086 22.4788 17.2114 23.9951 20.25Z" fill="black"/>
</svg>
