<svg width="36" height="36" viewBox="0 0 36 36" fill="none" xmlns="http://www.w3.org/2000/svg">
<rect width="36" height="36" fill="#616161"/>
<path d="M-1271 -384H169V421H-1271V-384Z" fill="url(#paint0_linear_0_1)"/>
<path fill-rule="evenodd" clip-rule="evenodd" d="M19.4937 35.7683C19.4937 29.0465 25.0445 23.6257 31.8531 23.6257C33.8479 23.6257 37.4473 24.9267 37.4473 24.9267L37.4039 29.4802L42.3043 29.22C42.3043 29.22 44.2558 33.3398 44.2558 35.725C44.2558 42.4467 38.7049 47.8675 31.8964 47.8675C25.0012 47.9109 19.4937 42.4467 19.4937 35.7683Z" fill="#49574E"/>
<path d="M9.38922 7.84033L8.47852 98.3893" stroke="#1C2628" stroke-width="2.13" stroke-linecap="round" stroke-linejoin="round"/>
<path d="M0.499023 18.2048L8.73863 30.7811" stroke="#1C2628" stroke-width="2.13" stroke-linecap="round" stroke-linejoin="round"/>
<path d="M-135 -5H169V421H-135V-5Z" fill="#504159"/>
<mask id="path-6-inside-1_0_1" fill="white">
<path d="M36 18C36 27.9411 27.9411 36 18 36C8.05887 36 0 27.9411 0 18C0 8.05887 8.05887 0 18 0C27.9411 0 36 8.05887 36 18Z"/>
</mask>
<path d="M36 18C36 27.9411 27.9411 36 18 36C8.05887 36 0 27.9411 0 18C0 8.05887 8.05887 0 18 0C27.9411 0 36 8.05887 36 18Z" stroke="#F2B84A" stroke-width="2" mask="url(#path-6-inside-1_0_1)"/>
<path d="M15.5 22.625C15.5 22.2798 15.7798 22 16.125 22H19.875C20.2202 22 20.5 22.2798 20.5 22.625C20.5 22.9702 20.2202 23.25 19.875 23.25H16.125C15.7798 23.25 15.5 22.9702 15.5 22.625Z" fill="#F2B84A"/>
<path d="M11.75 17.0769C11.75 15.4505 13.2934 14.2058 14.9127 14.3573C15.7972 14.4401 16.8386 14.5 18 14.5C19.1614 14.5 20.2028 14.4401 21.0873 14.3573C22.7066 14.2058 24.25 15.4505 24.25 17.0769V18.524C24.25 19.0976 23.8594 19.5938 23.2943 19.692C22.238 19.8757 20.3682 20.125 18 20.125C15.6318 20.125 13.762 19.8757 12.7057 19.692C12.1406 19.5938 11.75 19.0976 11.75 18.524V17.0769ZM17.4274 16.0438C17.3289 16.027 17.2282 16.0584 17.1566 16.1283L16.0054 17.2528C15.0965 17.1981 14.3076 17.1125 13.6674 17.0248C13.4965 17.0013 13.3388 17.1209 13.3154 17.2919C13.292 17.4629 13.4116 17.6205 13.5826 17.644C14.2696 17.7382 15.1225 17.8296 16.1075 17.8848C16.1951 17.8897 16.2806 17.8576 16.3434 17.7963L17.2858 16.8758L18.345 19.0137C18.3902 19.1049 18.4769 19.1684 18.5775 19.1839C18.6781 19.1993 18.78 19.1648 18.8504 19.0914L20.0155 17.8776C20.9487 17.822 21.7591 17.7342 22.4174 17.644C22.5884 17.6205 22.708 17.4629 22.6846 17.2919C22.6612 17.1209 22.5035 17.0013 22.3326 17.0248C21.6604 17.1169 20.8243 17.2066 19.8575 17.2607C19.7786 17.2651 19.7043 17.2993 19.6496 17.3563L18.7076 18.3377L17.655 16.2131C17.6106 16.1235 17.526 16.0605 17.4274 16.0438Z" fill="#F2B84A"/>
<path d="M18.625 9.33277C18.9986 9.11664 19.25 8.71268 19.25 8.25C19.25 7.55964 18.6904 7 18 7C17.3096 7 16.75 7.55964 16.75 8.25C16.75 8.71268 17.0014 9.11664 17.375 9.33277V10.75H14.875C11.7684 10.75 9.25 13.2684 9.25 16.375V17C8.55964 17 8 17.5596 8 18.25V20.75C8 21.4404 8.55964 22 9.25 22V23.25C9.25 24.6307 10.3693 25.75 11.75 25.75H24.25C25.6307 25.75 26.75 24.6307 26.75 23.25V22C27.4404 22 28 21.4404 28 20.75V18.25C28 17.5596 27.4404 17 26.75 17V16.375C26.75 13.2684 24.2316 10.75 21.125 10.75H18.625V9.33277ZM25.5 16.375V23.25C25.5 23.9404 24.9404 24.5 24.25 24.5H11.75C11.0596 24.5 10.5 23.9404 10.5 23.25V16.375C10.5 13.9588 12.4588 12 14.875 12H21.125C23.5412 12 25.5 13.9588 25.5 16.375Z" fill="#F2B84A"/>
<defs>
<linearGradient id="paint0_linear_0_1" x1="-1040" y1="-329.38" x2="-897.829" y2="513.698" gradientUnits="userSpaceOnUse">
<stop stop-color="#8A3EB7"/>
<stop offset="1" stop-color="#F2B84A"/>
</linearGradient>
</defs>
</svg>
