<svg width="47" height="43" viewBox="0 0 47 43" fill="none" xmlns="http://www.w3.org/2000/svg">
<path d="M25.0654 20.8664L25.0659 20.8661C26.6718 19.6449 28.5291 18.1629 28.5291 15.0694C28.5291 12.9268 27.6158 11.3094 26.1969 10.2418C24.7941 9.18626 22.9264 8.6875 21.0142 8.6875C19.2831 8.6875 17.4308 9.08951 15.9648 10.1085C14.4789 11.1412 13.428 12.7834 13.2954 15.1608C13.2583 15.8272 13.8054 16.3359 14.4279 16.3359H16.5922C17.2462 16.3359 17.7105 15.812 17.7869 15.2484C17.8908 14.4824 18.1999 13.8542 18.6847 13.4181C19.1667 12.9844 19.8635 12.7034 20.8142 12.7034C21.6393 12.7034 22.3821 12.9108 22.9066 13.3188C23.4132 13.7127 23.7634 14.3288 23.7634 15.2693C23.7634 15.9846 23.559 16.4829 23.1887 16.9427C22.7964 17.4298 22.2195 17.8747 21.4333 18.4665C19.6283 19.7783 18.0574 21.4139 18.1649 24.0975L18.1726 24.6598C18.1812 25.2922 18.6963 25.8002 19.3287 25.8002H21.4576C22.0962 25.8002 22.6139 25.2826 22.6139 24.644V24.3671C22.6139 23.5014 22.775 23.0091 23.1125 22.5631C23.482 22.0746 24.0774 21.6159 25.0654 20.8664ZM21 41.5C9.67816 41.5 0.5 32.3218 0.5 21C0.5 9.67816 9.67816 0.5 21 0.5C32.3218 0.5 41.5 9.67816 41.5 21C41.5 24.0588 42.6432 29.253 43.7012 33.6777C43.928 34.626 44.1509 35.5391 44.3592 36.3925C44.6413 37.5478 44.8967 38.5937 45.0987 39.4699C45.2742 40.2309 45.4059 40.8486 45.4784 41.2871C45.4984 41.4084 45.5131 41.5112 45.523 41.5964C45.3845 41.6114 45.2049 41.6254 44.9845 41.6379C44.421 41.6699 43.6297 41.6903 42.6678 41.7014C40.7459 41.7238 38.1685 41.7089 35.4267 41.6791C33.1532 41.6543 30.7657 41.6193 28.5493 41.5867C25.4278 41.5409 22.6458 41.5 21 41.5ZM17.3816 30.3157C17.3816 32.0297 18.7617 33.2484 20.5309 33.2484C22.3625 33.2484 23.7303 32.0337 23.7303 30.3157C23.7303 29.458 23.4018 28.7053 22.8183 28.1704C22.2381 27.6385 21.4367 27.3496 20.5309 27.3496C18.7594 27.3496 17.3816 28.5538 17.3816 30.3157Z" fill="#F2B84A" stroke="#642986" stroke-linejoin="round"/>
</svg>
