<svg width="27" height="27" viewBox="0 0 27 27" fill="none" xmlns="http://www.w3.org/2000/svg">
<path fill-rule="evenodd" clip-rule="evenodd" d="M3.18055 0.862441C4.43287 -0.389878 6.4994 -0.26122 7.58671 1.13676L10.6136 5.02846C11.1691 5.74263 11.3653 6.67252 11.1459 7.55026L10.2224 11.2443C10.1249 11.6343 10.2392 12.0469 10.5234 12.3311L14.6689 16.4766C14.9532 16.7608 15.3657 16.8751 15.7557 16.7776L19.4497 15.8541C20.3275 15.6347 21.2574 15.8309 21.9715 16.3864L25.8632 19.4133C27.2612 20.5006 27.3899 22.5671 26.1376 23.8194L24.3928 25.5642C23.1445 26.8125 21.2775 27.3606 19.5375 26.7488C15.2171 25.2299 11.1618 22.7431 7.70933 19.2907C4.25688 15.8382 1.7701 11.7829 0.251164 7.46255C-0.360589 5.72252 0.187532 3.85546 1.43581 2.60719L3.18055 0.862441Z" fill="#F2B84A"/>
</svg>
