<svg width="35" height="28" viewBox="0 0 35 28" fill="none" xmlns="http://www.w3.org/2000/svg">
<path d="M10.9944 28C24.2017 28 31.4286 17.2244 31.4286 7.89567C31.4286 7.59252 31.4286 7.28937 31.4146 6.98622C32.8151 5.99409 34.0336 4.74016 35 3.32087C33.7115 3.88583 32.3249 4.25787 30.8683 4.43701C32.3529 3.5689 33.4874 2.17716 34.0336 0.523621C32.6471 1.33661 31.1064 1.91535 29.4678 2.23228C28.1513 0.85433 26.2885 0 24.2297 0C20.2661 0 17.0448 3.16929 17.0448 7.0689C17.0448 7.62008 17.1148 8.15748 17.2269 8.6811C11.2605 8.39173 5.96639 5.56693 2.42297 1.29528C1.80672 2.34252 1.45658 3.55512 1.45658 4.85039C1.45658 7.30315 2.73109 9.46654 4.64986 10.7343C3.47339 10.6929 2.36695 10.376 1.40056 9.85236C1.40056 9.87992 1.40056 9.90748 1.40056 9.94882C1.40056 13.3661 3.87955 16.2323 7.15686 16.8799C6.55462 17.0453 5.92437 17.128 5.26611 17.128C4.80392 17.128 4.35574 17.0866 3.92157 17.0039C4.83193 19.815 7.493 21.8543 10.6303 21.9094C8.16527 23.811 5.07003 24.9409 1.70868 24.9409C1.13445 24.9409 0.560224 24.9134 0 24.8445C3.16527 26.8287 6.94678 28 10.9944 28Z" fill="#00ACEE"/>
</svg>
