<svg width="34" height="34" viewBox="0 0 34 34" fill="none" xmlns="http://www.w3.org/2000/svg">
<path d="M28.9028 4.94369C25.7282 1.75291 21.4953 0 16.9879 0C7.70633 0 0.145402 7.56094 0.137325 16.8425C0.137325 19.8152 0.912804 22.7071 2.38298 25.2678L0 34L8.93417 31.6574C11.3979 32.9983 14.1687 33.7092 16.9879 33.7092H16.9959C26.2775 33.7092 33.8384 26.1483 33.8465 16.8586C33.8384 12.3592 32.0855 8.1264 28.9028 4.94369ZM16.9879 30.8577C14.4675 30.8577 12.0038 30.1791 9.85505 28.9028L9.34615 28.5959L4.04703 29.9853L5.46067 24.8154L5.12948 24.2823C3.72392 22.0527 2.98883 19.4759 2.98883 16.8344C2.98883 9.12806 9.27345 2.84343 16.9959 2.84343C20.736 2.84343 24.2499 4.30554 26.8995 6.94702C29.5409 9.59658 30.995 13.1105 30.995 16.8506C30.9869 24.5811 24.7023 30.8577 16.9879 30.8577ZM24.6699 20.3725C24.2499 20.1625 22.1819 19.1447 21.7942 18.9993C21.4065 18.862 21.1237 18.7893 20.8491 19.2093C20.5664 19.6294 19.7586 20.5826 19.5162 20.8572C19.2739 21.1399 19.0235 21.1723 18.6034 20.9622C18.1834 20.7522 16.8263 20.3079 15.2188 18.87C13.9667 17.7553 13.1266 16.374 12.8762 15.9539C12.6339 15.5339 12.852 15.3077 13.062 15.0976C13.2478 14.9119 13.482 14.6049 13.6921 14.3626C13.9021 14.1202 13.9748 13.9425 14.1121 13.6598C14.2494 13.3771 14.1848 13.1347 14.0798 12.9247C13.9748 12.7147 13.1347 10.6386 12.7793 9.79853C12.44 8.97458 12.0926 9.08767 11.8341 9.07959C11.5918 9.06344 11.3091 9.06344 11.0264 9.06344C10.7436 9.06344 10.2913 9.16845 9.90352 9.5885C9.51578 10.0086 8.43334 11.0264 8.43334 13.1024C8.43334 15.1784 9.94391 17.1737 10.1539 17.4564C10.364 17.7391 13.1185 21.9881 17.3433 23.8137C18.3449 24.2499 19.1285 24.5084 19.7424 24.7023C20.7522 25.0254 21.665 24.977 22.392 24.8719C23.1998 24.7508 24.88 23.8541 25.2354 22.8686C25.5828 21.8831 25.5828 21.043 25.4777 20.8653C25.3727 20.6876 25.09 20.5826 24.6699 20.3725Z" fill="#128C7E"/>
</svg>
